G04*
G04 #@! TF.GenerationSoftware,Altium Limited,Altium Designer,23.3.1 (30)*
G04*
G04 Layer_Color=2752767*
%FSLAX44Y44*%
%MOMM*%
G71*
G04*
G04 #@! TF.SameCoordinates,BD36C32B-B9C7-4E4D-8C4A-4C0C75BD15CB*
G04*
G04*
G04 #@! TF.FilePolarity,Positive*
G04*
G01*
G75*
%ADD84C,0.1270*%
D84*
X1205230Y723900D02*
X1210310Y728980D01*
X1215390Y723900D01*
X1210310Y718820D01*
X1205230Y723900D01*
X947420Y1117600D02*
X952500Y1122680D01*
X957580Y1117600D01*
X952500Y1112520D01*
X947420Y1117600D01*
X932180Y893318D02*
X937260Y898398D01*
X942340Y893318D01*
X937260Y888238D01*
X932180Y893318D01*
X1324610Y434848D02*
X1329690Y439928D01*
X1334770Y434848D01*
X1329690Y429768D01*
X1324610Y434848D01*
X1065530Y1117600D02*
X1070610Y1122680D01*
X1075690Y1117600D01*
X1070610Y1112520D01*
X1065530Y1117600D01*
X1035050Y1064260D02*
X1040130Y1069340D01*
X1045210Y1064260D01*
X1040130Y1059180D01*
X1035050Y1064260D01*
X1045210Y1062990D02*
X1050290Y1068070D01*
X1055370Y1062990D01*
X1050290Y1057910D01*
X1045210Y1062990D01*
X1232930Y1065559D02*
X1238010Y1070639D01*
X1243090Y1065559D01*
X1238010Y1060479D01*
X1232930Y1065559D01*
X1278890Y1077468D02*
X1283970Y1082548D01*
X1289050Y1077468D01*
X1283970Y1072388D01*
X1278890Y1077468D01*
X1475740D02*
X1480820Y1082548D01*
X1485900Y1077468D01*
X1480820Y1072388D01*
X1475740Y1077468D01*
X1672590D02*
X1677670Y1082548D01*
X1682750Y1077468D01*
X1677670Y1072388D01*
X1672590Y1077468D01*
X1869440D02*
X1874520Y1082548D01*
X1879600Y1077468D01*
X1874520Y1072388D01*
X1869440Y1077468D01*
X1979422Y1158621D02*
X1984502Y1163701D01*
X1989582Y1158621D01*
X1984502Y1153541D01*
X1979422Y1158621D01*
X1969262Y1076960D02*
X1974342Y1082040D01*
X1979422Y1076960D01*
X1974342Y1071880D01*
X1969262Y1076960D01*
X2015490Y1066800D02*
X2020570Y1071880D01*
X2025650Y1066800D01*
X2020570Y1061720D01*
X2015490Y1066800D01*
X2012442Y958469D02*
X2017522Y963549D01*
X2022602Y958469D01*
X2017522Y953389D01*
X2012442Y958469D01*
X1311223Y542584D02*
X1316303Y547664D01*
X1321383Y542584D01*
X1316303Y537504D01*
X1311223Y542584D01*
X1309370Y528320D02*
X1314450Y533400D01*
X1319530Y528320D01*
X1314450Y523240D01*
X1309370Y528320D01*
X1287780Y542584D02*
X1292860Y547664D01*
X1297940Y542584D01*
X1292860Y537504D01*
X1287780Y542584D01*
X1520150D02*
X1525230Y547664D01*
X1530310Y542584D01*
X1525230Y537504D01*
X1520150Y542584D01*
X1544320D02*
X1549400Y547664D01*
X1554480Y542584D01*
X1549400Y537504D01*
X1544320Y542584D01*
X1491766D02*
X1496846Y547664D01*
X1501926Y542584D01*
X1496846Y537504D01*
X1491766Y542584D01*
X1511300D02*
X1516380Y547664D01*
X1521460Y542584D01*
X1516380Y537504D01*
X1511300Y542584D01*
X1532850Y502920D02*
X1537930Y508000D01*
X1543010Y502920D01*
X1537930Y497840D01*
X1532850Y502920D01*
X1722120Y552450D02*
X1727200Y557530D01*
X1732280Y552450D01*
X1727200Y547370D01*
X1722120Y552450D01*
X1102360Y535940D02*
X1107440Y541020D01*
X1112520Y535940D01*
X1107440Y530860D01*
X1102360Y535940D01*
X1090930Y542584D02*
X1096010Y547664D01*
X1101090Y542584D01*
X1096010Y537504D01*
X1090930Y542584D01*
X1667510Y541020D02*
X1672590Y546100D01*
X1677670Y541020D01*
X1672590Y535940D01*
X1667510Y541020D01*
X1687830D02*
X1692910Y546100D01*
X1697990Y541020D01*
X1692910Y535940D01*
X1687830Y541020D01*
X1720810Y528052D02*
X1725890Y533133D01*
X1730970Y528052D01*
X1725890Y522972D01*
X1720810Y528052D01*
X2010410Y1143000D02*
X2015490Y1148080D01*
X2020570Y1143000D01*
X2015490Y1137920D01*
X2010410Y1143000D01*
X1905000Y1167130D02*
X1910080Y1172210D01*
X1915160Y1167130D01*
X1910080Y1162050D01*
X1905000Y1167130D01*
X1734820Y1070610D02*
X1739900Y1075690D01*
X1744980Y1070610D01*
X1739900Y1065530D01*
X1734820Y1070610D01*
Y1117600D02*
X1739900Y1122680D01*
X1744980Y1117600D01*
X1739900Y1112520D01*
X1734820Y1117600D01*
X1733550Y998220D02*
X1738630Y1003300D01*
X1743710Y998220D01*
X1738630Y993140D01*
X1733550Y998220D01*
Y1008380D02*
X1738630Y1013460D01*
X1743710Y1008380D01*
X1738630Y1003300D01*
X1733550Y1008380D01*
X1536717Y1018557D02*
X1541797Y1023637D01*
X1546877Y1018557D01*
X1541797Y1013477D01*
X1536717Y1018557D01*
X1537970Y1070610D02*
X1543050Y1075690D01*
X1548130Y1070610D01*
X1543050Y1065530D01*
X1537970Y1070610D01*
Y1117600D02*
X1543050Y1122680D01*
X1548130Y1117600D01*
X1543050Y1112520D01*
X1537970Y1117600D01*
X1536700Y1009650D02*
X1541780Y1014730D01*
X1546860Y1009650D01*
X1541780Y1004570D01*
X1536700Y1009650D01*
X1644200Y1074859D02*
X1649280Y1079939D01*
X1654360Y1074859D01*
X1649280Y1069779D01*
X1644200Y1074859D01*
X1339867Y1029987D02*
X1344947Y1035067D01*
X1350027Y1029987D01*
X1344947Y1024907D01*
X1339867Y1029987D01*
X1341120Y1070610D02*
X1346200Y1075690D01*
X1351280Y1070610D01*
X1346200Y1065530D01*
X1341120Y1070610D01*
X1339850Y1021080D02*
X1344930Y1026160D01*
X1350010Y1021080D01*
X1344930Y1016000D01*
X1339850Y1021080D01*
X1341120Y1117600D02*
X1346200Y1122680D01*
X1351280Y1117600D01*
X1346200Y1112520D01*
X1341120Y1117600D01*
X1144270Y1038860D02*
X1149350Y1043940D01*
X1154430Y1038860D01*
X1149350Y1033780D01*
X1144270Y1038860D01*
Y1070610D02*
X1149350Y1075690D01*
X1154430Y1070610D01*
X1149350Y1065530D01*
X1144270Y1070610D01*
Y1117600D02*
X1149350Y1122680D01*
X1154430Y1117600D01*
X1149350Y1112520D01*
X1144270Y1117600D01*
Y1031240D02*
X1149350Y1036320D01*
X1154430Y1031240D01*
X1149350Y1026160D01*
X1144270Y1031240D01*
X958850Y1062990D02*
X963930Y1068070D01*
X969010Y1062990D01*
X963930Y1057910D01*
X958850Y1062990D01*
X959300Y1074859D02*
X964380Y1079939D01*
X969460Y1074859D01*
X964380Y1069779D01*
X959300Y1074859D01*
X1522730Y855980D02*
X1527810Y861060D01*
X1532890Y855980D01*
X1527810Y850900D01*
X1522730Y855980D01*
Y909320D02*
X1527810Y914400D01*
X1532890Y909320D01*
X1527810Y904240D01*
X1522730Y909320D01*
X1325880Y855980D02*
X1330960Y861060D01*
X1336040Y855980D01*
X1330960Y850900D01*
X1325880Y855980D01*
Y909320D02*
X1330960Y914400D01*
X1336040Y909320D01*
X1330960Y904240D01*
X1325880Y909320D01*
X1290320Y849630D02*
X1295400Y854710D01*
X1300480Y849630D01*
X1295400Y844550D01*
X1290320Y849630D01*
X1041400Y942340D02*
X1046480Y947420D01*
X1051560Y942340D01*
X1046480Y937260D01*
X1041400Y942340D01*
X1076960Y849670D02*
X1082040Y854750D01*
X1087120Y849670D01*
X1082040Y844590D01*
X1076960Y849670D01*
X346693Y769637D02*
X351773Y774717D01*
X356853Y769637D01*
X351773Y764557D01*
X346693Y769637D01*
Y778527D02*
X351773Y783607D01*
X356853Y778527D01*
X351773Y773447D01*
X346693Y778527D01*
X346710Y787400D02*
X351790Y792480D01*
X356870Y787400D01*
X351790Y782320D01*
X346710Y787400D01*
Y760730D02*
X351790Y765810D01*
X356870Y760730D01*
X351790Y755650D01*
X346710Y760730D01*
X332740Y805180D02*
X337820Y810260D01*
X342900Y805180D01*
X337820Y800100D01*
X332740Y805180D01*
X340360Y797560D02*
X345440Y802640D01*
X350520Y797560D01*
X345440Y792480D01*
X340360Y797560D01*
X874012Y740662D02*
X879092Y745742D01*
X884172Y740662D01*
X879092Y735582D01*
X874012Y740662D01*
X857250Y725170D02*
X862330Y730250D01*
X867410Y725170D01*
X862330Y720090D01*
X857250Y725170D01*
X868680Y735330D02*
X873760Y740410D01*
X878840Y735330D01*
X873760Y730250D01*
X868680Y735330D01*
X862582Y730502D02*
X867662Y735582D01*
X872742Y730502D01*
X867662Y725422D01*
X862582Y730502D01*
X851152Y720342D02*
X856232Y725422D01*
X861312Y720342D01*
X856232Y715262D01*
X851152Y720342D01*
X845820Y715010D02*
X850900Y720090D01*
X855980Y715010D01*
X850900Y709930D01*
X845820Y715010D01*
X2018030Y848360D02*
X2023110Y853440D01*
X2028190Y848360D01*
X2023110Y843280D01*
X2018030Y848360D01*
X1982183Y989109D02*
X1987263Y994189D01*
X1992343Y989109D01*
X1987263Y984029D01*
X1982183Y989109D01*
X1971802Y907669D02*
X1976882Y912749D01*
X1981962Y907669D01*
X1976882Y902589D01*
X1971802Y907669D01*
X2017522Y897509D02*
X2022602Y902589D01*
X2027682Y897509D01*
X2022602Y892429D01*
X2017522Y897509D01*
X1883410Y848360D02*
X1888490Y853440D01*
X1893570Y848360D01*
X1888490Y843280D01*
X1883410Y848360D01*
X1736090Y886460D02*
X1741170Y891540D01*
X1746250Y886460D01*
X1741170Y881380D01*
X1736090Y886460D01*
X1733271Y811134D02*
X1738351Y816214D01*
X1743430Y811134D01*
X1738351Y806054D01*
X1733271Y811134D01*
X1717023Y812783D02*
X1722103Y817863D01*
X1727183Y812783D01*
X1722103Y807703D01*
X1717023Y812783D01*
X1725913D02*
X1730993Y817863D01*
X1736073Y812783D01*
X1730993Y807703D01*
X1725913Y812783D01*
X1743710Y812800D02*
X1748790Y817880D01*
X1753870Y812800D01*
X1748790Y807720D01*
X1743710Y812800D01*
X1501140Y800100D02*
X1506220Y805180D01*
X1511300Y800100D01*
X1506220Y795020D01*
X1501140Y800100D01*
X1512570D02*
X1517650Y805180D01*
X1522730Y800100D01*
X1517650Y795020D01*
X1512570Y800100D01*
X1657293Y886403D02*
X1662373Y891483D01*
X1667453Y886403D01*
X1662373Y881323D01*
X1657293Y886403D01*
X1668780Y848360D02*
X1673860Y853440D01*
X1678940Y848360D01*
X1673860Y843280D01*
X1668780Y848360D01*
X1719580Y855980D02*
X1724660Y861060D01*
X1729740Y855980D01*
X1724660Y850900D01*
X1719580Y855980D01*
Y909320D02*
X1724660Y914400D01*
X1729740Y909320D01*
X1724660Y904240D01*
X1719580Y909320D01*
X1534160Y800100D02*
X1539240Y805180D01*
X1544320Y800100D01*
X1539240Y795020D01*
X1534160Y800100D01*
X1524000D02*
X1529080Y805180D01*
X1534160Y800100D01*
X1529080Y795020D01*
X1524000Y800100D01*
X1323413Y781033D02*
X1328493Y786113D01*
X1333573Y781033D01*
X1328493Y775953D01*
X1323413Y781033D01*
X1315172Y781050D02*
X1320252Y786130D01*
X1325332Y781050D01*
X1320252Y775970D01*
X1315172Y781050D01*
X1342390Y886460D02*
X1347470Y891540D01*
X1352550Y886460D01*
X1347470Y881380D01*
X1342390Y886460D01*
X1474470Y849630D02*
X1479550Y854710D01*
X1484630Y849630D01*
X1479550Y844550D01*
X1474470Y849630D01*
X1344930Y781050D02*
X1350010Y786130D01*
X1355090Y781050D01*
X1350010Y775970D01*
X1344930Y781050D01*
X1334770D02*
X1339850Y786130D01*
X1344930Y781050D01*
X1339850Y775970D01*
X1334770Y781050D01*
X1101090Y768350D02*
X1106170Y773430D01*
X1111250Y768350D01*
X1106170Y763270D01*
X1101090Y768350D01*
X1263650Y886460D02*
X1268730Y891540D01*
X1273810Y886460D01*
X1268730Y881380D01*
X1263650Y886460D01*
X1118887Y768299D02*
X1123967Y773380D01*
X1129047Y768299D01*
X1123967Y763220D01*
X1118887Y768299D01*
X1109980Y768316D02*
X1115060Y773396D01*
X1120140Y768316D01*
X1115060Y763236D01*
X1109980Y768316D01*
X1129030Y855980D02*
X1134110Y861060D01*
X1139190Y855980D01*
X1134110Y850900D01*
X1129030Y855980D01*
Y909320D02*
X1134110Y914400D01*
X1139190Y909320D01*
X1134110Y904240D01*
X1129030Y909320D01*
X1127760Y768350D02*
X1132840Y773430D01*
X1137920Y768350D01*
X1132840Y763270D01*
X1127760Y768350D01*
X1049020Y890270D02*
X1054100Y895350D01*
X1059180Y890270D01*
X1054100Y885190D01*
X1049020Y890270D01*
X941070Y750570D02*
X946150Y755650D01*
X951230Y750570D01*
X946150Y745490D01*
X941070Y750570D01*
Y742950D02*
X946150Y748030D01*
X951230Y742950D01*
X946150Y737870D01*
X941070Y742950D01*
X948690Y886460D02*
X953770Y891540D01*
X958850Y886460D01*
X953770Y881380D01*
X948690Y886460D01*
X941070Y758190D02*
X946150Y763270D01*
X951230Y758190D01*
X946150Y753110D01*
X941070Y758190D01*
Y765810D02*
X946150Y770890D01*
X951230Y765810D01*
X946150Y760730D01*
X941070Y765810D01*
X1031240Y755650D02*
X1036320Y760730D01*
X1041400Y755650D01*
X1036320Y750570D01*
X1031240Y755650D01*
X1228090D02*
X1233170Y760730D01*
X1238250Y755650D01*
X1233170Y750570D01*
X1228090Y755650D01*
X1424940D02*
X1430020Y760730D01*
X1435100Y755650D01*
X1430020Y750570D01*
X1424940Y755650D01*
X1621790D02*
X1626870Y760730D01*
X1631950Y755650D01*
X1626870Y750570D01*
X1621790Y755650D01*
X1818640D02*
X1823720Y760730D01*
X1828800Y755650D01*
X1823720Y750570D01*
X1818640Y755650D01*
X1719580Y748030D02*
X1724660Y753110D01*
X1729740Y748030D01*
X1724660Y742950D01*
X1719580Y748030D01*
X1522730D02*
X1527810Y753110D01*
X1532890Y748030D01*
X1527810Y742950D01*
X1522730Y748030D01*
X1325880D02*
X1330960Y753110D01*
X1336040Y748030D01*
X1330960Y742950D01*
X1325880Y748030D01*
X1129030D02*
X1134110Y753110D01*
X1139190Y748030D01*
X1134110Y742950D01*
X1129030Y748030D01*
X965200D02*
X970280Y753110D01*
X975360Y748030D01*
X970280Y742950D01*
X965200Y748030D01*
X1673860Y740410D02*
X1678940Y745490D01*
X1684020Y740410D01*
X1678940Y735330D01*
X1673860Y740410D01*
X1474470D02*
X1479550Y745490D01*
X1484630Y740410D01*
X1479550Y735330D01*
X1474470Y740410D01*
X1278890D02*
X1283970Y745490D01*
X1289050Y740410D01*
X1283970Y735330D01*
X1278890Y740410D01*
X1082040D02*
X1087120Y745490D01*
X1092200Y740410D01*
X1087120Y735330D01*
X1082040Y740410D01*
X1113790Y529590D02*
X1118870Y534670D01*
X1123950Y529590D01*
X1118870Y524510D01*
X1113790Y529590D01*
X1126490Y528320D02*
X1131570Y533400D01*
X1136650Y528320D01*
X1131570Y523240D01*
X1126490Y528320D01*
X1718310Y502920D02*
X1723390Y508000D01*
X1728470Y502920D01*
X1723390Y497840D01*
X1718310Y502920D01*
X1522349Y451739D02*
X1527429Y456819D01*
X1532509Y451739D01*
X1527429Y446659D01*
X1522349Y451739D01*
X1127760Y504190D02*
X1132840Y509270D01*
X1137920Y504190D01*
X1132840Y499110D01*
X1127760Y504190D01*
X1144270Y474980D02*
X1149350Y480060D01*
X1154430Y474980D01*
X1149350Y469900D01*
X1144270Y474980D01*
Y427990D02*
X1149350Y433070D01*
X1154430Y427990D01*
X1149350Y422910D01*
X1144270Y427990D01*
X1173480Y420370D02*
X1178560Y425450D01*
X1183640Y420370D01*
X1178560Y415290D01*
X1173480Y420370D01*
X1226820Y511810D02*
X1231900Y516890D01*
X1236980Y511810D01*
X1231900Y506730D01*
X1226820Y511810D01*
X1028700D02*
X1033780Y516890D01*
X1038860Y511810D01*
X1033780Y506730D01*
X1028700Y511810D01*
X1325880Y673100D02*
X1330960Y678180D01*
X1336040Y673100D01*
X1330960Y668020D01*
X1325880Y673100D01*
X1082705Y673858D02*
X1087785Y678938D01*
X1092865Y673858D01*
X1087785Y668778D01*
X1082705Y673858D01*
X1279271Y673989D02*
X1284351Y679069D01*
X1289431Y673989D01*
X1284351Y668909D01*
X1279271Y673989D01*
X1476121D02*
X1481201Y679069D01*
X1486281Y673989D01*
X1481201Y668909D01*
X1476121Y673989D01*
X1719864Y672969D02*
X1724944Y678049D01*
X1730024Y672969D01*
X1724944Y667889D01*
X1719864Y672969D01*
X1673860Y673100D02*
X1678940Y678180D01*
X1684020Y673100D01*
X1678940Y668020D01*
X1673860Y673100D01*
X1818640Y734060D02*
X1823720Y739140D01*
X1828800Y734060D01*
X1823720Y728980D01*
X1818640Y734060D01*
X1840230Y703580D02*
X1845310Y708660D01*
X1850390Y703580D01*
X1845310Y698500D01*
X1840230Y703580D01*
X1854200Y697230D02*
X1859280Y702310D01*
X1864360Y697230D01*
X1859280Y692150D01*
X1854200Y697230D01*
X1621790Y711200D02*
X1626870Y716280D01*
X1631950Y711200D01*
X1626870Y706120D01*
X1621790Y711200D01*
X1270074Y534630D02*
X1275154Y539710D01*
X1280234Y534630D01*
X1275154Y529550D01*
X1270074Y534630D01*
X1840230Y659130D02*
X1845310Y664210D01*
X1850390Y659130D01*
X1845310Y654050D01*
X1840230Y659130D01*
X1854200Y650240D02*
X1859280Y655320D01*
X1864360Y650240D01*
X1859280Y645160D01*
X1854200Y650240D01*
X1751330Y654050D02*
X1756410Y659130D01*
X1761490Y654050D01*
X1756410Y648970D01*
X1751330Y654050D01*
X1736090Y650240D02*
X1741170Y655320D01*
X1746250Y650240D01*
X1741170Y645160D01*
X1736090Y650240D01*
Y697230D02*
X1741170Y702310D01*
X1746250Y697230D01*
X1741170Y692150D01*
X1736090Y697230D01*
X1657350Y651510D02*
X1662430Y656590D01*
X1667510Y651510D01*
X1662430Y646430D01*
X1657350Y651510D01*
Y697230D02*
X1662430Y702310D01*
X1667510Y697230D01*
X1662430Y692150D01*
X1657350Y697230D01*
X1539240D02*
X1544320Y702310D01*
X1549400Y697230D01*
X1544320Y692150D01*
X1539240Y697230D01*
Y651510D02*
X1544320Y656590D01*
X1549400Y651510D01*
X1544320Y646430D01*
X1539240Y651510D01*
X1460500Y650240D02*
X1465580Y655320D01*
X1470660Y650240D01*
X1465580Y645160D01*
X1460500Y650240D01*
Y697230D02*
X1465580Y702310D01*
X1470660Y697230D01*
X1465580Y692150D01*
X1460500Y697230D01*
X1342390D02*
X1347470Y702310D01*
X1352550Y697230D01*
X1347470Y692150D01*
X1342390Y697230D01*
Y650240D02*
X1347470Y655320D01*
X1352550Y650240D01*
X1347470Y645160D01*
X1342390Y650240D01*
X1263650D02*
X1268730Y655320D01*
X1273810Y650240D01*
X1268730Y645160D01*
X1263650Y650240D01*
Y697230D02*
X1268730Y702310D01*
X1273810Y697230D01*
X1268730Y692150D01*
X1263650Y697230D01*
X1145540D02*
X1150620Y702310D01*
X1155700Y697230D01*
X1150620Y692150D01*
X1145540Y697230D01*
Y651510D02*
X1150620Y656590D01*
X1155700Y651510D01*
X1150620Y646430D01*
X1145540Y651510D01*
X1066800Y650240D02*
X1071880Y655320D01*
X1076960Y650240D01*
X1071880Y645160D01*
X1066800Y650240D01*
Y697230D02*
X1071880Y702310D01*
X1076960Y697230D01*
X1071880Y692150D01*
X1066800Y697230D01*
X948690Y650240D02*
X953770Y655320D01*
X958850Y650240D01*
X953770Y645160D01*
X948690Y650240D01*
Y697230D02*
X953770Y702310D01*
X958850Y697230D01*
X953770Y692150D01*
X948690Y697230D01*
X1817370Y511810D02*
X1822450Y516890D01*
X1827530Y511810D01*
X1822450Y506730D01*
X1817370Y511810D01*
X1620520D02*
X1625600Y516890D01*
X1630680Y511810D01*
X1625600Y506730D01*
X1620520Y511810D01*
X1324610Y504190D02*
X1329690Y509270D01*
X1334770Y504190D01*
X1329690Y499110D01*
X1324610Y504190D01*
X1423162Y511302D02*
X1428242Y516382D01*
X1433322Y511302D01*
X1428242Y506222D01*
X1423162Y511302D01*
X930910Y504190D02*
X935990Y509270D01*
X941070Y504190D01*
X935990Y499110D01*
X930910Y504190D01*
X1474851Y344551D02*
X1479931Y349631D01*
X1485011Y344551D01*
X1479931Y339471D01*
X1474851Y344551D01*
Y451739D02*
X1479931Y456819D01*
X1485011Y451739D01*
X1479931Y446659D01*
X1474851Y451739D01*
X1249680Y344170D02*
X1254760Y349250D01*
X1259840Y344170D01*
X1254760Y339090D01*
X1249680Y344170D01*
X1278890Y450850D02*
X1283970Y455930D01*
X1289050Y450850D01*
X1283970Y445770D01*
X1278890Y450850D01*
X1082040Y344170D02*
X1087120Y349250D01*
X1092200Y344170D01*
X1087120Y339090D01*
X1082040Y344170D01*
Y450850D02*
X1087120Y455930D01*
X1092200Y450850D01*
X1087120Y445770D01*
X1082040Y450850D01*
X1658540Y427990D02*
X1663620Y433070D01*
X1668700Y427990D01*
X1663620Y422910D01*
X1658540Y427990D01*
X1161433Y471170D02*
X1166513Y476250D01*
X1171593Y471170D01*
X1166513Y466090D01*
X1161433Y471170D01*
X1148080Y350520D02*
X1153160Y355600D01*
X1158240Y350520D01*
X1153160Y345440D01*
X1148080Y350520D01*
X1262380Y474980D02*
X1267460Y480060D01*
X1272540Y474980D01*
X1267460Y469900D01*
X1262380Y474980D01*
X1263650Y427990D02*
X1268730Y433070D01*
X1273810Y427990D01*
X1268730Y422910D01*
X1263650Y427990D01*
X1353000Y471210D02*
X1358080Y476290D01*
X1363160Y471210D01*
X1358080Y466130D01*
X1353000Y471210D01*
X1423162Y488442D02*
X1428242Y493522D01*
X1433322Y488442D01*
X1428242Y483362D01*
X1423162Y488442D01*
X1353000Y432239D02*
X1358080Y437319D01*
X1363160Y432239D01*
X1358080Y427159D01*
X1353000Y432239D01*
X1459230Y427990D02*
X1464310Y433070D01*
X1469390Y427990D01*
X1464310Y422910D01*
X1459230Y427990D01*
X1244600Y471170D02*
X1249680Y476250D01*
X1254760Y471170D01*
X1249680Y466090D01*
X1244600Y471170D01*
X1169670Y359410D02*
X1174750Y364490D01*
X1179830Y359410D01*
X1174750Y354330D01*
X1169670Y359410D01*
X1250500Y432239D02*
X1255580Y437319D01*
X1260660Y432239D01*
X1255580Y427159D01*
X1250500Y432239D01*
X1049020Y431800D02*
X1054100Y436880D01*
X1059180Y431800D01*
X1054100Y426720D01*
X1049020Y431800D01*
X1029462Y488442D02*
X1034542Y493522D01*
X1039622Y488442D01*
X1034542Y483362D01*
X1029462Y488442D01*
X1049020Y471170D02*
X1054100Y476250D01*
X1059180Y471170D01*
X1054100Y466090D01*
X1049020Y471170D01*
X959300Y471239D02*
X964380Y476319D01*
X969460Y471239D01*
X964380Y466159D01*
X959300Y471239D01*
X1004570Y363220D02*
X1009650Y368300D01*
X1014730Y363220D01*
X1009650Y358140D01*
X1004570Y363220D01*
X969010Y393700D02*
X974090Y398780D01*
X979170Y393700D01*
X974090Y388620D01*
X969010Y393700D01*
X1012103Y356783D02*
X1017183Y361863D01*
X1022263Y356783D01*
X1017183Y351703D01*
X1012103Y356783D01*
X995680Y344170D02*
X1000760Y349250D01*
X1005840Y344170D01*
X1000760Y339090D01*
X995680Y344170D01*
X1013460D02*
X1018540Y349250D01*
X1023620Y344170D01*
X1018540Y339090D01*
X1013460Y344170D01*
X993140Y369570D02*
X998220Y374650D01*
X1003300Y369570D01*
X998220Y364490D01*
X993140Y369570D01*
X974090Y387350D02*
X979170Y392430D01*
X984250Y387350D01*
X979170Y382270D01*
X974090Y387350D01*
X981053Y376468D02*
X986133Y381548D01*
X991213Y376468D01*
X986133Y371388D01*
X981053Y376468D01*
X1253490Y369570D02*
X1258570Y374650D01*
X1263650Y369570D01*
X1258570Y364490D01*
X1253490Y369570D01*
X1263650Y372110D02*
X1268730Y377190D01*
X1273810Y372110D01*
X1268730Y367030D01*
X1263650Y372110D01*
X961972Y400598D02*
X967052Y405678D01*
X972132Y400598D01*
X967052Y395518D01*
X961972Y400598D01*
X1447350Y432239D02*
X1452430Y437319D01*
X1457510Y432239D01*
X1452430Y427159D01*
X1447350Y432239D01*
X976630Y417830D02*
X981710Y422910D01*
X986790Y417830D01*
X981710Y412750D01*
X976630Y417830D01*
X1441450Y471170D02*
X1446530Y476250D01*
X1451610Y471170D01*
X1446530Y466090D01*
X1441450Y471170D01*
X1860550Y415290D02*
X1865630Y420370D01*
X1870710Y415290D01*
X1865630Y410210D01*
X1860550Y415290D01*
X1854200Y475361D02*
X1859280Y480441D01*
X1864360Y475361D01*
X1859280Y470281D01*
X1854200Y475361D01*
X1537970Y414020D02*
X1543050Y419100D01*
X1548130Y414020D01*
X1543050Y408940D01*
X1537970Y414020D01*
X1537288Y474980D02*
X1542368Y480060D01*
X1547448Y474980D01*
X1542368Y469900D01*
X1537288Y474980D01*
X1734820Y416560D02*
X1739900Y421640D01*
X1744980Y416560D01*
X1739900Y411480D01*
X1734820Y416560D01*
X1637070Y431800D02*
X1642150Y436880D01*
X1647230Y431800D01*
X1642150Y426720D01*
X1637070Y431800D01*
X1637030Y471170D02*
X1642110Y476250D01*
X1647190Y471170D01*
X1642110Y466090D01*
X1637030Y471170D01*
X1656080Y474980D02*
X1661160Y480060D01*
X1666240Y474980D01*
X1661160Y469900D01*
X1656080Y474980D01*
X1554497Y471153D02*
X1559577Y476233D01*
X1564657Y471153D01*
X1559577Y466073D01*
X1554497Y471153D01*
Y431817D02*
X1559577Y436897D01*
X1564657Y431817D01*
X1559577Y426737D01*
X1554497Y431817D01*
X1837730Y471239D02*
X1842810Y476319D01*
X1847890Y471239D01*
X1842810Y466159D01*
X1837730Y471239D01*
Y432239D02*
X1842810Y437319D01*
X1847890Y432239D01*
X1842810Y427159D01*
X1837730Y432239D01*
X1752012D02*
X1757092Y437319D01*
X1762172Y432239D01*
X1757092Y427159D01*
X1752012Y432239D01*
X1734820Y474980D02*
X1739900Y480060D01*
X1744980Y474980D01*
X1739900Y469900D01*
X1734820Y474980D01*
X1752012Y471170D02*
X1757092Y476250D01*
X1762172Y471170D01*
X1757092Y466090D01*
X1752012Y471170D01*
X1751330Y693420D02*
X1756410Y698500D01*
X1761490Y693420D01*
X1756410Y688340D01*
X1751330Y693420D01*
X1978994Y765763D02*
X1984074Y770843D01*
X1989154Y765763D01*
X1984074Y760683D01*
X1978994Y765763D01*
X1968500Y683768D02*
X1973580Y688848D01*
X1978660Y683768D01*
X1973580Y678688D01*
X1968500Y683768D01*
X2014220Y673608D02*
X2019300Y678688D01*
X2024380Y673608D01*
X2019300Y668528D01*
X2014220Y673608D01*
X1973399Y456479D02*
X1978479Y461559D01*
X1983559Y456479D01*
X1978479Y451399D01*
X1973399Y456479D01*
X1983780Y537919D02*
X1988860Y542999D01*
X1993940Y537919D01*
X1988860Y532839D01*
X1983780Y537919D01*
X2019119Y446319D02*
X2024199Y451399D01*
X2029279Y446319D01*
X2024199Y441239D01*
X2019119Y446319D01*
X1263650Y933450D02*
X1268730Y938530D01*
X1273810Y933450D01*
X1268730Y928370D01*
X1263650Y933450D01*
X1278890Y1173480D02*
X1283970Y1178560D01*
X1289050Y1173480D01*
X1283970Y1168400D01*
X1278890Y1173480D01*
X1082040D02*
X1087120Y1178560D01*
X1092200Y1173480D01*
X1087120Y1168400D01*
X1082040Y1173480D01*
X1324610Y450850D02*
X1329690Y455930D01*
X1334770Y450850D01*
X1329690Y445770D01*
X1324610Y450850D01*
X1371600Y878840D02*
X1376680Y883920D01*
X1381760Y878840D01*
X1376680Y873760D01*
X1371600Y878840D01*
X1342373Y933433D02*
X1347453Y938513D01*
X1352533Y933433D01*
X1347453Y928353D01*
X1342373Y933433D01*
X1360170Y929640D02*
X1365250Y934720D01*
X1370330Y929640D01*
X1365250Y924560D01*
X1360170Y929640D01*
X1460483Y886477D02*
X1465563Y891557D01*
X1470643Y886477D01*
X1465563Y881397D01*
X1460483Y886477D01*
X1448620Y890709D02*
X1453700Y895789D01*
X1458780Y890709D01*
X1453700Y885629D01*
X1448620Y890709D01*
Y929709D02*
X1453700Y934789D01*
X1458780Y929709D01*
X1453700Y924629D01*
X1448620Y929709D01*
X1460500Y933450D02*
X1465580Y938530D01*
X1470660Y933450D01*
X1465580Y928370D01*
X1460500Y933450D01*
X1424940Y947420D02*
X1430020Y952500D01*
X1435100Y947420D01*
X1430020Y942340D01*
X1424940Y947420D01*
X1672590Y1173480D02*
X1677670Y1178560D01*
X1682750Y1173480D01*
X1677670Y1168400D01*
X1672590Y1173480D01*
X1817370Y1189990D02*
X1822450Y1195070D01*
X1827530Y1189990D01*
X1822450Y1184910D01*
X1817370Y1189990D01*
X1869440Y1093470D02*
X1874520Y1098550D01*
X1879600Y1093470D01*
X1874520Y1088390D01*
X1869440Y1093470D01*
Y1173480D02*
X1874520Y1178560D01*
X1879600Y1173480D01*
X1874520Y1168400D01*
X1869440Y1173480D01*
X1672590Y1093470D02*
X1677670Y1098550D01*
X1682750Y1093470D01*
X1677670Y1088390D01*
X1672590Y1093470D01*
X1475740D02*
X1480820Y1098550D01*
X1485900Y1093470D01*
X1480820Y1088390D01*
X1475740Y1093470D01*
Y1173480D02*
X1480820Y1178560D01*
X1485900Y1173480D01*
X1480820Y1168400D01*
X1475740Y1173480D01*
X1278890Y1093470D02*
X1283970Y1098550D01*
X1289050Y1093470D01*
X1283970Y1088390D01*
X1278890Y1093470D01*
X1082040D02*
X1087120Y1098550D01*
X1092200Y1093470D01*
X1087120Y1088390D01*
X1082040Y1093470D01*
X1620520Y1179576D02*
X1625600Y1184656D01*
X1630680Y1179576D01*
X1625600Y1174496D01*
X1620520Y1179576D01*
X1423670D02*
X1428750Y1184656D01*
X1433830Y1179576D01*
X1428750Y1174496D01*
X1423670Y1179576D01*
X932180Y1167130D02*
X937260Y1172210D01*
X942340Y1167130D01*
X937260Y1162050D01*
X932180Y1167130D01*
X1128649Y1166749D02*
X1133729Y1171829D01*
X1138809Y1166749D01*
X1133729Y1161669D01*
X1128649Y1166749D01*
X1325499D02*
X1330579Y1171829D01*
X1335659Y1166749D01*
X1330579Y1161669D01*
X1325499Y1166749D01*
X1522349D02*
X1527429Y1171829D01*
X1532509Y1166749D01*
X1527429Y1161669D01*
X1522349Y1166749D01*
X1719199D02*
X1724279Y1171829D01*
X1729359Y1166749D01*
X1724279Y1161669D01*
X1719199Y1166749D01*
X931799Y1094359D02*
X936879Y1099439D01*
X941959Y1094359D01*
X936879Y1089279D01*
X931799Y1094359D01*
X1128649D02*
X1133729Y1099439D01*
X1138809Y1094359D01*
X1133729Y1089279D01*
X1128649Y1094359D01*
X1719199D02*
X1724279Y1099439D01*
X1729359Y1094359D01*
X1724279Y1089279D01*
X1719199Y1094359D01*
X1522349D02*
X1527429Y1099439D01*
X1532509Y1094359D01*
X1527429Y1089279D01*
X1522349Y1094359D01*
X1325499D02*
X1330579Y1099439D01*
X1335659Y1094359D01*
X1330579Y1089279D01*
X1325499Y1094359D01*
X1817370Y1130300D02*
X1822450Y1135380D01*
X1827530Y1130300D01*
X1822450Y1125220D01*
X1817370Y1130300D01*
X1620520D02*
X1625600Y1135380D01*
X1630680Y1130300D01*
X1625600Y1125220D01*
X1620520Y1130300D01*
X1423670D02*
X1428750Y1135380D01*
X1433830Y1130300D01*
X1428750Y1125220D01*
X1423670Y1130300D01*
X1226312Y1180338D02*
X1231392Y1185418D01*
X1236472Y1180338D01*
X1231392Y1175258D01*
X1226312Y1180338D01*
Y1131062D02*
X1231392Y1136142D01*
X1236472Y1131062D01*
X1231392Y1125982D01*
X1226312Y1131062D01*
X1029970Y1131570D02*
X1035050Y1136650D01*
X1040130Y1131570D01*
X1035050Y1126490D01*
X1029970Y1131570D01*
Y1173480D02*
X1035050Y1178560D01*
X1040130Y1173480D01*
X1035050Y1168400D01*
X1029970Y1173480D01*
X1053650Y1113859D02*
X1058730Y1118939D01*
X1063810Y1113859D01*
X1058730Y1108779D01*
X1053650Y1113859D01*
X1818640Y947420D02*
X1823720Y952500D01*
X1828800Y947420D01*
X1823720Y942340D01*
X1818640Y947420D01*
X1621790D02*
X1626870Y952500D01*
X1631950Y947420D01*
X1626870Y942340D01*
X1621790Y947420D01*
X1228090D02*
X1233170Y952500D01*
X1238250Y947420D01*
X1233170Y942340D01*
X1228090Y947420D01*
X1030859Y947039D02*
X1035939Y952119D01*
X1041019Y947039D01*
X1035939Y941959D01*
X1030859Y947039D01*
X1765300Y877570D02*
X1770380Y882650D01*
X1775460Y877570D01*
X1770380Y872490D01*
X1765300Y877570D01*
X1854200Y886460D02*
X1859280Y891540D01*
X1864360Y886460D01*
X1859280Y881380D01*
X1854200Y886460D01*
X1842320Y890709D02*
X1847400Y895789D01*
X1852480Y890709D01*
X1847400Y885629D01*
X1842320Y890709D01*
X1736073Y933433D02*
X1741153Y938513D01*
X1746233Y933433D01*
X1741153Y928353D01*
X1736073Y933433D01*
X1753870Y929640D02*
X1758950Y934720D01*
X1764030Y929640D01*
X1758950Y924560D01*
X1753870Y929640D01*
X1842320Y929709D02*
X1847400Y934789D01*
X1852480Y929709D01*
X1847400Y924629D01*
X1842320Y929709D01*
X1854200Y933450D02*
X1859280Y938530D01*
X1864360Y933450D01*
X1859280Y928370D01*
X1854200Y933450D01*
X932180Y673100D02*
X937260Y678180D01*
X942340Y673100D01*
X937260Y668020D01*
X932180Y673100D01*
X1129030D02*
X1134110Y678180D01*
X1139190Y673100D01*
X1134110Y668020D01*
X1129030Y673100D01*
X1522730D02*
X1527810Y678180D01*
X1532890Y673100D01*
X1527810Y668020D01*
X1522730Y673100D01*
X1031240Y711200D02*
X1036320Y716280D01*
X1041400Y711200D01*
X1036320Y706120D01*
X1031240Y711200D01*
X1228090D02*
X1233170Y716280D01*
X1238250Y711200D01*
X1233170Y706120D01*
X1228090Y711200D01*
X1424940D02*
X1430020Y716280D01*
X1435100Y711200D01*
X1430020Y706120D01*
X1424940Y711200D01*
X1816862Y488442D02*
X1821942Y493522D01*
X1827022Y488442D01*
X1821942Y483362D01*
X1816862Y488442D01*
X1620012D02*
X1625092Y493522D01*
X1630172Y488442D01*
X1625092Y483362D01*
X1620012Y488442D01*
X1226693Y488061D02*
X1231773Y493141D01*
X1236853Y488061D01*
X1231773Y482981D01*
X1226693Y488061D01*
X930910Y450850D02*
X935990Y455930D01*
X941070Y450850D01*
X935990Y445770D01*
X930910Y450850D01*
X1127760D02*
X1132840Y455930D01*
X1137920Y450850D01*
X1132840Y445770D01*
X1127760Y450850D01*
X1718310D02*
X1723390Y455930D01*
X1728470Y450850D01*
X1723390Y445770D01*
X1718310Y450850D01*
X1066800Y886460D02*
X1071880Y891540D01*
X1076960Y886460D01*
X1071880Y881380D01*
X1066800Y886460D01*
X1841050Y1074859D02*
X1846130Y1079939D01*
X1851210Y1074859D01*
X1846130Y1069779D01*
X1841050Y1074859D01*
X977900Y878840D02*
X982980Y883920D01*
X988060Y878840D01*
X982980Y873760D01*
X977900Y878840D01*
X948673Y933433D02*
X953753Y938513D01*
X958833Y933433D01*
X953753Y928353D01*
X948673Y933433D01*
X1174750Y878840D02*
X1179830Y883920D01*
X1184910Y878840D01*
X1179830Y873760D01*
X1174750Y878840D01*
X1163320Y929640D02*
X1168400Y934720D01*
X1173480Y929640D01*
X1168400Y924560D01*
X1163320Y929640D01*
X1145540Y933450D02*
X1150620Y938530D01*
X1155700Y933450D01*
X1150620Y928370D01*
X1145540Y933450D01*
Y886460D02*
X1150620Y891540D01*
X1155700Y886460D01*
X1150620Y881380D01*
X1145540Y886460D01*
X966470Y929640D02*
X971550Y934720D01*
X976630Y929640D01*
X971550Y924560D01*
X966470Y929640D01*
X1066800Y933450D02*
X1071880Y938530D01*
X1076960Y933450D01*
X1071880Y928370D01*
X1066800Y933450D01*
X1657350D02*
X1662430Y938530D01*
X1667510Y933450D01*
X1662430Y928370D01*
X1657350Y933450D01*
X1539257Y933433D02*
X1544337Y938513D01*
X1549417Y933433D01*
X1544337Y928353D01*
X1539257Y933433D01*
X1557020Y929640D02*
X1562100Y934720D01*
X1567180Y929640D01*
X1562100Y924560D01*
X1557020Y929640D01*
X1568450Y878840D02*
X1573530Y883920D01*
X1578610Y878840D01*
X1573530Y873760D01*
X1568450Y878840D01*
X1539257Y886443D02*
X1544337Y891523D01*
X1549417Y886443D01*
X1544337Y881363D01*
X1539257Y886443D01*
X1645470Y929709D02*
X1650550Y934789D01*
X1655630Y929709D01*
X1650550Y924629D01*
X1645470Y929709D01*
Y890709D02*
X1650550Y895789D01*
X1655630Y890709D01*
X1650550Y885629D01*
X1645470Y890709D01*
X1156150Y1113859D02*
X1161230Y1118939D01*
X1166310Y1113859D01*
X1161230Y1108779D01*
X1156150Y1113859D01*
Y1074859D02*
X1161230Y1079939D01*
X1166310Y1074859D01*
X1161230Y1069779D01*
X1156150Y1074859D01*
X1250500Y1113859D02*
X1255580Y1118939D01*
X1260660Y1113859D01*
X1255580Y1108779D01*
X1250500Y1113859D01*
X1353000D02*
X1358080Y1118939D01*
X1363160Y1113859D01*
X1358080Y1108779D01*
X1353000Y1113859D01*
Y1074859D02*
X1358080Y1079939D01*
X1363160Y1074859D01*
X1358080Y1069779D01*
X1353000Y1074859D01*
X1447350D02*
X1452430Y1079939D01*
X1457510Y1074859D01*
X1452430Y1069779D01*
X1447350Y1074859D01*
Y1113859D02*
X1452430Y1118939D01*
X1457510Y1113859D01*
X1452430Y1108779D01*
X1447350Y1113859D01*
X1549850D02*
X1554930Y1118939D01*
X1560010Y1113859D01*
X1554930Y1108779D01*
X1549850Y1113859D01*
Y1074859D02*
X1554930Y1079939D01*
X1560010Y1074859D01*
X1554930Y1069779D01*
X1549850Y1074859D01*
X1644200Y1113859D02*
X1649280Y1118939D01*
X1654360Y1113859D01*
X1649280Y1108779D01*
X1644200Y1113859D01*
X1746700D02*
X1751780Y1118939D01*
X1756860Y1113859D01*
X1751780Y1108779D01*
X1746700Y1113859D01*
Y1074859D02*
X1751780Y1079939D01*
X1756860Y1074859D01*
X1751780Y1069779D01*
X1746700Y1074859D01*
X1841050Y1113859D02*
X1846130Y1118939D01*
X1851210Y1113859D01*
X1846130Y1108779D01*
X1841050Y1113859D01*
X1251770Y890709D02*
X1256850Y895789D01*
X1261930Y890709D01*
X1256850Y885629D01*
X1251770Y890709D01*
Y929709D02*
X1256850Y934789D01*
X1261930Y929709D01*
X1256850Y924629D01*
X1251770Y929709D01*
X959300Y1113859D02*
X964380Y1118939D01*
X969460Y1113859D01*
X964380Y1108779D01*
X959300Y1113859D01*
M02*
