M48
;Layer_Color=9474304
;FILE_FORMAT=4:4
METRIC,LZ
;TYPE=PLATED
T1F00S00C0.3000
T3F00S00C0.8000
T4F00S00C0.8001
T5F00S00C0.9000
T6F00S00C1.1999
T7F00S00C1.7000
T8F00S00C1.8000
T9F00S00C3.0000
%
T01
X0042164Y0032512
X0043688Y0035687
X0056388
X0062611Y0037719
X0065151Y0037596
X0066294Y0033655
X0065786Y0033147
X0065278Y0032639
X01595435Y00526587
X01605595
Y00538017
X01595435
X01737675Y00585007
X01746565
X01755455
X01765615
Y00596437
X01755455
X01746565
X01737675
X01835465Y00595167
X01844355
X01853245
X01863405
Y00583737
X01853245
X01844355
X01835465
X0195961Y0048514
Y0047498
X0195707Y0070358
Y0071501
X01586545Y00538017
X01577655
Y00526587
X01586545
X0139446Y0052705
X013843
X0137541
X0136652
X01196655Y00529127
Y00540557
X01186495
X01177605
X01168715
Y00529127
X01177605
X01186495
X01086969Y0053213
X0112649Y006985
Y0070739
X0112268Y0071374
X0095123Y0041656
X0093595
X00772325Y00541729
X00764327
X00748327
X00740326
X00732325
X00724327
X00716326
X00708327
X00700326
X00692325
X00676326
X00668325
X00660326
X00652325
X00644327
X00636326
X00628325
X00620326
X00604327
X00596326
X00588658Y00541396
X00580326Y00541729
X00572326
X00564327
X00556326
X00548325
X00532326
X00524327
X00516326
X00508325
X00500327
X00492326
X00484327
X00476326
X00460647
X00460327Y00585727
X00451865Y00586189
X00444325Y00585727
X00436326
X00428325
X00420327
X00412326
X00404325
X00476326
X00484327
X00492326
X00500327
X00508325
X00516326
X00524327
X0053217
X00548325
X00556326
X00564327
X00572326
X00580326
X00588325
X00596326
X006039Y00586154
X00620326Y00585727
X00628325
X00636326
X00644327
X00652325
X00660326
X00668325
X00676326
X00692325
X00700326
X00708327
X00716326
X00724327
X00732325
X00740326
X00748327
X00764327
X00772325
X0055499Y004318
X0054229
X0051562Y0045847
X0050038Y00459018
X00460117Y004597
X004686Y0044708
X00396326Y00585727
X005715Y0086741
X0058039
X0058928
X0059944
Y0087884
X0058928
X0058039
X005715
X00570545Y00919017
X00579435
X00588325
X00598485
Y00931717
X00588325
X00579435
X00570545
Y00943147
X00579435
X00588325
X00598485
X0110744Y0094361
Y0093218
X0111887
Y0094361
X0130429Y0093726
Y009271
X0131445
Y0093726
X0158877Y0098298
Y0099695
X0160274
X0178816Y0083566
X0179705
X0180594
X018161
Y0082423
X0180594
X0179705
X0178816
Y008128
X0179705
X0180594
X018161
X0195834Y0109982
Y0111252
X0202946Y0087122
T03
X0096856Y0030623
X0098856
X0100856
X0102856
X0104856
X0106856
X0108856
X0110856
X0112856
X0114856
X0116856
X01188559
X0118856Y0032623
X0116856
X01148561
X01128561
X01108561
X01088561
X01068561
X01048561
X01028561
X01008561
X00988561
X00968561
X0120856
X0122856
X0124856
X0126856
X0128856
X0130856
X0132856
X0134856
X0136856
X0138856
X01388559Y0030623
X01368559
X01348559
X01328559
X01308559
X01288559
X01268559
X01248559
X01228559
X01208559
X0152863
X0154863
X0156863
X01568631Y0032623
X01548631
X01528631
X01588631
X01608631
X01628631
X01648631
X01668631
X01688631
X01708631
X01728631
X01748631
X0176863
X0178863
X0180863
X0182863
X0184863
X0186863
X0188863
X0190863
X0192863
X0194863
X01948629Y0030623
X01928629
X01908629
X01888629
X01868629
X01848629
X01828629
X01808629
X01788629
X01768629
X01748629
X0172863
X0170863
X0168863
X0166863
X0164863
X0162863
X0160863
X0158863
Y0122444
X0160863
X0162863
X0164863
X0166863
X0168863
X0170863
X0172863
X01748629
X01768629
X01788629
X01808629
X01828629
X01848629
X01868629
X01888629
X01908629
X01928629
X01948629
X0194863Y0124444
X0192863
X0190863
X0188863
X0186863
X0184863
X0182863
X0180863
X0178863
X0176863
X0174863
X0172863
X01708631
X01688631
X01668631
X01648631
X01628631
X01608631
X01588631
X01568631
X01548631
X01528631
X0152863Y0122444
X0154863
X0156863
X01388559
X01368559
X01348559
X01328559
X01308559
X01288559
X01268559
X01248559
X01228559
X01208559
X0120856Y0124444
X0122856
X0124856
X0126856
X0128856
X0130856
X0132856
X0134856
X0136856
X0138856
X0118856
X0116856
X0114856
X0112856
X0110856
X01088561
X01068561
X01048561
X01028561
X01008561
X00988561
X00968561
X0096856Y0122444
X0098856
X0100856
X0102856
X0104856
X0106856
X0108856
X0110856
X0112856
X0114856
X0116856
X01188559
X00843589Y0122968
X00823589
X00803589
X0080359Y0124968
X0082359
X0084359
X0078359
X0076359
X0074359
X00743589Y0122968
X00763589
X00783589
T04
X00355326Y00563728
X00355072Y01080618
T05
X0039878Y0049657
X0042418
T06
X00797326Y00563728
X00797072Y01080618
T07
X0048768Y0125095
X0062738Y0125222
T08
X0046228Y0122555
X0051308
Y0127635
X0046228
X0060198Y0127762
Y0122682
X0065278
Y0127762
T09
X0030781Y002913
X0204804Y002913
X0085217Y0054737
X00303327Y00547446
Y0109617
X00852Y01095969
X0204804Y012581
X0030781
M30
