M48
;Layer_Color=9474304
;FILE_FORMAT=4:4
METRIC,LZ
;TYPE=PLATED
T1F00S00C0.3000
%
T01
X0100076Y0034417
X0101854
X01017183Y00356783
X0100965Y0036322
X0099822Y0036957
X00986133Y00376468
X0097917Y0038735
X0097409Y003937
X0108712Y0034417
X0115316Y0035052
X0117475Y0035941
X0125857Y0036957
X0126873Y0037211
X0125476Y0034417
X01479931Y00344551
X02024199Y00446319
X0198886Y00537919
X020193Y00673608
X0197358Y00683768
X01984074Y00765763
X0182372Y0075565
Y0073406
X0184531Y0070358
X0185928Y0069723
Y0065024
X0184531Y0065913
X0175641Y0065405
X0174117Y0065024
X01724944Y00672969
X0174117Y0069723
X0175641Y0069342
X0172466Y0074803
X0167894Y0074041
X0166243Y0069723
X0167894Y006731
X0166243Y0065151
X0162687Y007112
Y0075565
X016256Y0051181
X01625092Y00488442
X0164211Y0047117
X0166116Y0047498
X0166362Y0042799
X0164215Y004318
X0172339Y0045085
X017399Y0047498
X01757092Y0047117
Y00432239
X017399Y0041656
X0172339Y0050292
X0172589Y00528052
X017272Y0055245
X0169291Y0054102
X0167259
X0182245Y0051181
X01821942Y00488442
X0184281Y00471239
X0185928Y00475361
X0184281Y00432239
X0186563Y0041529
X01978479Y00456479
X01559577Y00471153
X01542368Y0047498
X0153793Y0050292
X015494Y00542584
X0152523
X0151638
X01496846
X01428242Y00511302
Y00488442
X0144653Y0047117
X0145243Y00432239
X0146431Y0042799
X01479931Y00451739
X01527429
X01559577Y00431817
X0154305Y0041402
X0135808Y00432239
X0132969Y00434848
Y0045085
X0128397
X0126873Y0042799
X0125558Y00432239
X0124968Y0047117
X0126746Y0047498
X01231773Y00488061
X012319Y0051181
X01275154Y0053463
X0129286Y00542584
X01316303
X0131445Y0052832
X0132969Y0050419
X0135808Y0047121
X0134747Y0065024
X0133096Y006731
X0134747Y0069723
X0133096Y0074803
X01328493Y00781033
X01320252Y0078105
X0133985
X0135001
X0143002Y0075565
Y007112
X0146558Y0069723
X01481201Y00673989
X0146558Y0065024
X0154432Y0065151
X0152781Y006731
X0154432Y0069723
X0152781Y0074803
X0147955Y0074041
X0128397
X0126873Y0069723
X01284351Y00673989
X0126873Y0065024
X0123317Y007112
X0121031Y007239
X0123317Y0075565
X0113411Y0074803
X0113284Y0076835
X01123967Y00768299
X0111506Y00768316
X0110617Y0076835
X0108712Y0074041
X0107188Y0069723
X01087785Y00673858
X0107188Y0065024
X0115062Y0065151
X0113411Y006731
X0115062Y0069723
X0103632Y007112
Y0075565
X0097028Y0074803
X0094615Y0075057
Y0074295
Y0075819
Y0076581
X0095377Y0069723
X0093726Y006731
X0095377Y0065024
X0093599Y0050419
Y0045085
X0096438Y00471239
X0098171Y0041783
X00967052Y00400598
X010541Y004318
Y0047117
X01034542Y00488442
X0103378Y0051181
X0109601Y00542584
X0110744Y0053594
X0111887Y0052959
X0113157Y0052832
X0113284Y0050419
X0114935Y0047498
X01166513Y0047117
X0113284Y0045085
X0114935Y0042799
X0117856Y0042037
X0108712Y0045085
X00879092Y00740662
X0087376Y0073533
X00867662Y00730502
X0086233Y0072517
X00856232Y00720342
X008509Y0071501
X0035179Y0076073
X00351773Y00769637
Y00778527
X0035179Y007874
X0034544Y0079756
X0033782Y0080518
X0093726Y00893318
X0095377Y0088646
X0098298Y0087884
X0097155Y0092964
X00953753Y00933433
X01035939Y00947039
X0104648Y0094234
X0107188Y0093345
Y0088646
X010541Y0089027
X0108204Y0084967
X0113411Y0085598
X0115062Y0088646
X0117983Y0087884
X011684Y0092964
X0115062Y0093345
X0113411Y0090932
X0114935Y0103124
Y0103886
Y0107061
X0116123Y01074859
Y01113859
X0114935Y011176
X01133729Y01094359
X0108712Y0109347
X0107061Y011176
X0105873Y01113859
X0103505Y0113157
Y0117348
X0108712
X01133729Y01166749
X0105029Y0106299
X0104013Y0106426
X0096393Y0106299
X0096438Y01074859
Y01113859
X009525Y011176
X00936879Y01094359
X0093726Y0116713
X01231392Y01180338
Y01131062
X0125558Y01113859
X0128397Y0109347
Y01077468
X0123801Y01065559
X013462Y0107061
X0135808Y01074859
Y01113859
X013462Y011176
X01330579Y01094359
Y01166749
X0128397Y0117348
X0142875Y01179576
Y011303
X0145243Y01113859
Y01074859
X0148082Y01077468
Y0109347
X01527429Y01094359
X0154305Y011176
X0155493Y01113859
Y01074859
X0154305Y0107061
X01541797Y01018557
X0154178Y0100965
X01544337Y00933433
X015621Y0092964
X0152781Y0090932
X01544337Y00886443
X0157353Y0087884
X0152781Y0085598
X0147955Y0084963
X01465563Y00886477
X014537Y00890709
Y00929709
X0146558Y0093345
X0143002Y0094742
X0136525Y0092964
X01347453Y00933433
X0133096Y0090932
X0134747Y0088646
X0137668Y0087884
X0133096Y0085598
X012954Y0084963
X0126873Y0088646
X0125685Y00890709
Y00929709
X0126873Y0093345
X0123317Y0094742
X0134493Y0102108
X01344947Y01029987
X0148082Y0117348
X01527429Y01166749
X0152908Y008001
X0153924
X0151765
X0150622
X0167386Y0084836
X01662373Y00886403
X0165055Y00890709
Y00929709
X0166243Y0093345
X0162687Y0094742
X01741153Y00933433
X0175895Y0092964
X0172466Y0090932
X0174117Y0088646
X0177038Y0087757
X0172466Y0085598
X01722103Y00812783
X01730993
X01738351Y00811134
X0174879Y008128
X0188849Y0084836
X0185928Y0088646
X018474Y00890709
Y00929709
X0185928Y0093345
X0182372Y0094742
X0173863Y0099822
Y0100838
X017399Y0107061
X0175178Y01074859
Y01113859
X017399Y011176
X01724279Y01094359
X0167767Y0109347
Y01077468
X0164928Y01074859
Y01113859
X016256Y011303
Y01179576
X0167767Y0117348
X01724279Y01166749
X0182245Y0118999
Y011303
X0184613Y01113859
Y01074859
X0187452Y01077468
Y0109347
Y0117348
X0191008Y0116713
X01974342Y0107696
X01976882Y00907669
X02022602Y00897509
X0202311Y0084836
X02017522Y00958469
X01987263Y00989109
X0202057Y010668
X0201549Y01143
X01984502Y01158621
M30
