G04*
G04 #@! TF.GenerationSoftware,Altium Limited,Altium Designer,23.3.1 (30)*
G04*
G04 Layer_Color=32896*
%FSLAX44Y44*%
%MOMM*%
G71*
G04*
G04 #@! TF.SameCoordinates,BD36C32B-B9C7-4E4D-8C4A-4C0C75BD15CB*
G04*
G04*
G04 #@! TF.FilePolarity,Positive*
G04*
G01*
G75*
%ADD11C,0.1000*%
%ADD12C,0.2500*%
%ADD13C,0.2540*%
%ADD16C,0.2000*%
D11*
X847220Y321200D02*
G03*
X847220Y320200I0J-500D01*
G01*
D02*
G03*
X847220Y321200I0J500D01*
G01*
D12*
X1973610Y515400D02*
G03*
X1973610Y515400I-1250J0D01*
G01*
X1968711Y742689D02*
G03*
X1968711Y742689I-1250J0D01*
G01*
X1969473Y1135881D02*
G03*
X1969473Y1135881I-1250J0D01*
G01*
X1972013Y966590D02*
G03*
X1972013Y966590I-1250J0D01*
G01*
D13*
X938530Y278130D02*
X948690D01*
X848360Y295910D02*
X858520D01*
X825500Y345440D02*
X835660D01*
X885190Y295910D02*
X895350D01*
X1278890Y442849D02*
X1289050D01*
X1734820Y436499D02*
X1744980D01*
X1973399Y464480D02*
X1983559D01*
X2019119Y454320D02*
X2029279D01*
X2039058Y475910D02*
Y486070D01*
X2014039Y488610D02*
X2024199D01*
X1951428Y434000D02*
Y444160D01*
Y416220D02*
Y426380D01*
X2014039Y515280D02*
X2024199D01*
X2007689Y533060D02*
Y543220D01*
X2003879Y449240D02*
Y459400D01*
X1980638Y533060D02*
Y543220D01*
X1978860Y434000D02*
Y444160D01*
X1589151Y705739D02*
Y715899D01*
X1968500Y691769D02*
X1978660D01*
X2014220Y681609D02*
X2024380D01*
X1973961Y661289D02*
Y671449D01*
X1975739Y760349D02*
Y770509D01*
X1998980Y676529D02*
Y686689D01*
X2002790Y760349D02*
Y770509D01*
X2009140Y742569D02*
X2019300D01*
X1946529Y643509D02*
Y653669D01*
Y661289D02*
Y671449D01*
X2009140Y715899D02*
X2019300D01*
X2034159Y703199D02*
Y713359D01*
X1969262Y1084961D02*
X1979422D01*
X2014982Y1074801D02*
X2025142D01*
X1974723Y1054481D02*
Y1064641D01*
X1976501Y1153541D02*
Y1163701D01*
X1999742Y1069721D02*
Y1079881D01*
X2003552Y1153541D02*
Y1163701D01*
X2009902Y1135761D02*
X2020062D01*
X1947291Y1036701D02*
Y1046861D01*
Y1054481D02*
Y1064641D01*
X2009902Y1109091D02*
X2020062D01*
X2034921Y1096391D02*
Y1106551D01*
X2017522Y905510D02*
X2027682D01*
X1971802Y915670D02*
X1981962D01*
X1977263Y885190D02*
Y895350D01*
X1979041Y984250D02*
Y994410D01*
X2002282Y900430D02*
Y910590D01*
X2006092Y984250D02*
Y994410D01*
X2012442Y966470D02*
X2022602D01*
X1949831Y867410D02*
Y877570D01*
Y885190D02*
Y895350D01*
X2012442Y939800D02*
X2022602D01*
X2037461Y927100D02*
Y937260D01*
X1263650Y925449D02*
X1273810D01*
X1263650Y894969D02*
X1273810D01*
X1786001Y941959D02*
Y952119D01*
X1815211Y941959D02*
Y952119D01*
X1736090Y894969D02*
X1746250D01*
X1854200D02*
X1864360D01*
X1736090Y925449D02*
X1746250D01*
X1854200D02*
X1864360D01*
X1870710Y901319D02*
X1880870D01*
X1719580D02*
X1729740D01*
X1618361Y705739D02*
Y715899D01*
X1539240Y658749D02*
X1549400D01*
X1657350D02*
X1667510D01*
X1539240Y689229D02*
X1549400D01*
X1657350D02*
X1667510D01*
X1673860Y665099D02*
X1684020D01*
X1522730D02*
X1532890D01*
X1784731Y483489D02*
Y493649D01*
X1813941Y483489D02*
Y493649D01*
X1852930Y436499D02*
X1863090D01*
X1734820Y466979D02*
X1744980D01*
X1854200Y467360D02*
X1864360D01*
X1869440Y442849D02*
X1879600D01*
X1718310D02*
X1728470D01*
X1145540Y658749D02*
X1155700D01*
X1129030Y665099D02*
X1139190D01*
X1145540Y689229D02*
X1155700D01*
X1460500D02*
X1470660D01*
X1280160Y665099D02*
X1290320D01*
X1224661Y705739D02*
Y715899D01*
X1195451Y705739D02*
Y715899D01*
X1421511Y705739D02*
Y715899D01*
X932464Y664968D02*
X942624D01*
X998885Y705608D02*
Y715768D01*
X1028095Y705608D02*
Y715768D01*
X948974Y689098D02*
X959134D01*
X948974Y658618D02*
X959134D01*
X1263650Y689229D02*
X1273810D01*
X1460500Y658749D02*
X1470660D01*
X1477010Y665099D02*
X1487170D01*
X1736374Y689098D02*
X1746534D01*
X1719864Y664968D02*
X1730024D01*
X1736374Y658618D02*
X1746534D01*
X1786285Y705608D02*
Y715768D01*
X1815495Y705608D02*
Y715768D01*
X1854484Y689098D02*
X1864644D01*
X1870994Y664968D02*
X1881154D01*
X1854484Y658618D02*
X1864644D01*
X1263650Y658749D02*
X1273810D01*
X1067084Y689098D02*
X1077244D01*
X1067084Y658618D02*
X1077244D01*
X1083594Y664968D02*
X1093754D01*
X1342390Y658749D02*
X1352550D01*
X1342390Y689229D02*
X1352550D01*
X1325880Y665099D02*
X1336040D01*
X1392301Y705739D02*
Y715899D01*
X1656080Y436499D02*
X1666240D01*
X1672590Y442849D02*
X1682750D01*
X1656080Y466979D02*
X1666240D01*
X1420241Y483489D02*
Y493649D01*
X1391031Y483489D02*
Y493649D01*
X1341120Y466979D02*
X1351280D01*
X1459230Y436499D02*
X1469390D01*
X1475740Y442849D02*
X1485900D01*
X1459230Y466979D02*
X1469390D01*
X1324610Y442849D02*
X1334770D01*
X1341120Y436499D02*
X1351280D01*
X1144270D02*
X1154430D01*
X947420D02*
X957580D01*
X930910Y442849D02*
X941070D01*
X947420Y466979D02*
X957580D01*
X1262380Y436499D02*
X1272540D01*
X1262380Y466979D02*
X1272540D01*
X1223391Y483489D02*
Y493649D01*
X1194181Y483489D02*
Y493649D01*
X1127760Y442849D02*
X1137920D01*
X997331Y483489D02*
Y493649D01*
X1144270Y466979D02*
X1154430D01*
X1026541Y483489D02*
Y493649D01*
X1065530Y466979D02*
X1075690D01*
X1065530Y436499D02*
X1075690D01*
X1082040Y442849D02*
X1092200D01*
X1587881Y483489D02*
Y493649D01*
X1617091Y483489D02*
Y493649D01*
X1537970Y466979D02*
X1548130D01*
X1521460Y442849D02*
X1531620D01*
X1537970Y436499D02*
X1548130D01*
X997331Y1126109D02*
Y1136269D01*
X930910Y1085469D02*
X941070D01*
X947420Y1109599D02*
X957580D01*
X947420Y1079119D02*
X957580D01*
X1026541Y1126109D02*
Y1136269D01*
X1065530Y1109599D02*
X1075690D01*
X1144270D02*
X1154430D01*
X1065530Y1079119D02*
X1075690D01*
X1082040Y1085469D02*
X1092200D01*
X1127760D02*
X1137920D01*
X1144270Y1079119D02*
X1154430D01*
X998601Y941959D02*
Y952119D01*
X932180Y901319D02*
X942340D01*
X948690Y925449D02*
X958850D01*
X948690Y894969D02*
X958850D01*
X1027811Y941959D02*
Y952119D01*
X1066800Y925449D02*
X1076960D01*
X1145540D02*
X1155700D01*
X1066800Y894969D02*
X1076960D01*
X1083310Y901319D02*
X1093470D01*
X1129030D02*
X1139190D01*
X1145540Y894969D02*
X1155700D01*
X1223391Y1126109D02*
Y1136269D01*
X1194181Y1126109D02*
Y1136269D01*
X1262380Y1109599D02*
X1272540D01*
X1341120D02*
X1351280D01*
X1278890Y1085469D02*
X1289050D01*
X1324610D02*
X1334770D01*
X1195451Y941959D02*
Y952119D01*
X1224661Y941959D02*
Y952119D01*
X1262380Y1079119D02*
X1272540D01*
X1341120D02*
X1351280D01*
X1342390Y925449D02*
X1352550D01*
X1420241Y1126109D02*
Y1136269D01*
X1391031Y1126109D02*
Y1136269D01*
X1459230Y1109599D02*
X1469390D01*
X1537970D02*
X1548130D01*
X1521460Y1085469D02*
X1531620D01*
X1475740D02*
X1485900D01*
X1392301Y941959D02*
Y952119D01*
X1421511Y941959D02*
Y952119D01*
X1459230Y1079119D02*
X1469390D01*
X1537970D02*
X1548130D01*
X1460500Y925449D02*
X1470660D01*
X1539240D02*
X1549400D01*
X1280160Y901319D02*
X1290320D01*
X1325880D02*
X1336040D01*
X1342390Y894969D02*
X1352550D01*
X1477010Y901319D02*
X1487170D01*
X1522730D02*
X1532890D01*
X1460500Y894969D02*
X1470660D01*
X1539240D02*
X1549400D01*
X1587881Y1126109D02*
Y1136269D01*
X1617091Y1126109D02*
Y1136269D01*
X1589151Y941959D02*
Y952119D01*
X1618361Y941959D02*
Y952119D01*
X1656080Y1109599D02*
X1666240D01*
X1672590Y1085469D02*
X1682750D01*
X1718310D02*
X1728470D01*
X1734820Y1109599D02*
X1744980D01*
X1657350Y925449D02*
X1667510D01*
X1656080Y1079119D02*
X1666240D01*
X1734820D02*
X1744980D01*
X1657350Y894969D02*
X1667510D01*
X1673860Y901319D02*
X1684020D01*
X1784731Y1126109D02*
Y1136269D01*
X1813941Y1126109D02*
Y1136269D01*
X1852930Y1109599D02*
X1863090D01*
X1869440Y1085469D02*
X1879600D01*
X1852930Y1079119D02*
X1863090D01*
X472440Y1162048D02*
X477518D01*
X474979D01*
Y1177283D01*
X472440Y1174744D01*
X485136D02*
X487675Y1177283D01*
X492753D01*
X495293Y1174744D01*
Y1164587D01*
X492753Y1162048D01*
X487675D01*
X485136Y1164587D01*
Y1174744D01*
X525763Y1177283D02*
X520684D01*
X523224D01*
Y1164587D01*
X520684Y1162048D01*
X518145D01*
X515606Y1164587D01*
X530841Y1172205D02*
Y1164587D01*
X533380Y1162048D01*
X540998D01*
Y1172205D01*
X546076Y1162048D02*
X551155D01*
X548615D01*
Y1177283D01*
X546076D01*
X558772Y1172205D02*
Y1164587D01*
X561311Y1162048D01*
X568929D01*
Y1159509D01*
X566390Y1156970D01*
X563850D01*
X568929Y1162048D02*
Y1172205D01*
X599399Y1162048D02*
X589242D01*
X599399Y1172205D01*
Y1174744D01*
X596860Y1177283D01*
X591781D01*
X589242Y1174744D01*
X604477D02*
X607016Y1177283D01*
X612095D01*
X614634Y1174744D01*
Y1164587D01*
X612095Y1162048D01*
X607016D01*
X604477Y1164587D01*
Y1174744D01*
X629869Y1162048D02*
X619712D01*
X629869Y1172205D01*
Y1174744D01*
X627330Y1177283D01*
X622252D01*
X619712Y1174744D01*
X634947D02*
X637487Y1177283D01*
X642565D01*
X645104Y1174744D01*
Y1172205D01*
X642565Y1169666D01*
X640026D01*
X642565D01*
X645104Y1167127D01*
Y1164587D01*
X642565Y1162048D01*
X637487D01*
X634947Y1164587D01*
X900427Y269241D02*
Y276859D01*
X896618D01*
X895348Y275589D01*
Y273050D01*
X896618Y271780D01*
X900427D01*
X897887D02*
X895348Y269241D01*
X887731D02*
X892809D01*
X887731Y274320D01*
Y275589D01*
X889000Y276859D01*
X891540D01*
X892809Y275589D01*
X885192D02*
X883922Y276859D01*
X881383D01*
X880113Y275589D01*
Y270511D01*
X881383Y269241D01*
X883922D01*
X885192Y270511D01*
Y275589D01*
X881522Y303529D02*
X878983D01*
X880252D01*
Y295911D01*
X881522D01*
X878983D01*
X870096Y302259D02*
X871365Y303529D01*
X873904D01*
X875174Y302259D01*
Y297181D01*
X873904Y295911D01*
X871365D01*
X870096Y297181D01*
X863748Y295911D02*
Y303529D01*
X867556Y299720D01*
X862478D01*
X943608Y303529D02*
X944878Y304799D01*
X947417D01*
X948687Y303529D01*
Y298451D01*
X947417Y297181D01*
X944878D01*
X943608Y298451D01*
X935991Y297181D02*
X941069D01*
X935991Y302260D01*
Y303529D01*
X937260Y304799D01*
X939800D01*
X941069Y303529D01*
X933452D02*
X932182Y304799D01*
X929643D01*
X928373Y303529D01*
Y302260D01*
X929643Y300990D01*
X930912D01*
X929643D01*
X928373Y299720D01*
Y298451D01*
X929643Y297181D01*
X932182D01*
X933452Y298451D01*
X854709Y369569D02*
X855978Y370839D01*
X858518D01*
X859787Y369569D01*
Y364491D01*
X858518Y363221D01*
X855978D01*
X854709Y364491D01*
X847091Y363221D02*
X852170D01*
X847091Y368300D01*
Y369569D01*
X848361Y370839D01*
X850900D01*
X852170Y369569D01*
X844552Y363221D02*
X842013D01*
X843282D01*
Y370839D01*
X844552Y369569D01*
X856614Y276859D02*
X857883Y278129D01*
X860422D01*
X861692Y276859D01*
Y271781D01*
X860422Y270511D01*
X857883D01*
X856614Y271781D01*
X854074Y270511D02*
X851535D01*
X852805D01*
Y278129D01*
X854074Y276859D01*
X847726Y271781D02*
X846457Y270511D01*
X843918D01*
X842648Y271781D01*
Y276859D01*
X843918Y278129D01*
X846457D01*
X847726Y276859D01*
Y275590D01*
X846457Y274320D01*
X842648D01*
X2029592Y1077975D02*
Y1070357D01*
X2033401D01*
X2034671Y1071627D01*
Y1074166D01*
X2033401Y1075436D01*
X2029592D01*
X2032131D02*
X2034671Y1077975D01*
X2037210D02*
X2039749D01*
X2038479D01*
Y1070357D01*
X2037210Y1071627D01*
X2043558Y1076705D02*
X2044827Y1077975D01*
X2047366D01*
X2048636Y1076705D01*
Y1071627D01*
X2047366Y1070357D01*
X2044827D01*
X2043558Y1071627D01*
Y1072897D01*
X2044827Y1074166D01*
X2048636D01*
X2051175Y1079245D02*
X2056254D01*
X2058793Y1071627D02*
X2060062Y1070357D01*
X2062601D01*
X2063871Y1071627D01*
Y1072897D01*
X2062601Y1074166D01*
X2063871Y1075436D01*
Y1076705D01*
X2062601Y1077975D01*
X2060062D01*
X2058793Y1076705D01*
Y1075436D01*
X2060062Y1074166D01*
X2058793Y1072897D01*
Y1071627D01*
X2060062Y1074166D02*
X2062601D01*
X1933072Y1088135D02*
Y1080517D01*
X1936881D01*
X1938150Y1081787D01*
Y1084326D01*
X1936881Y1085596D01*
X1933072D01*
X1935611D02*
X1938150Y1088135D01*
X1940690D02*
X1943229D01*
X1941959D01*
Y1080517D01*
X1940690Y1081787D01*
X1947038D02*
X1948307Y1080517D01*
X1950846D01*
X1952116Y1081787D01*
Y1083057D01*
X1950846Y1084326D01*
X1952116Y1085596D01*
Y1086865D01*
X1950846Y1088135D01*
X1948307D01*
X1947038Y1086865D01*
Y1085596D01*
X1948307Y1084326D01*
X1947038Y1083057D01*
Y1081787D01*
X1948307Y1084326D02*
X1950846D01*
X1954655Y1089405D02*
X1959733D01*
X1962273Y1081787D02*
X1963542Y1080517D01*
X1966082D01*
X1967351Y1081787D01*
Y1083057D01*
X1966082Y1084326D01*
X1967351Y1085596D01*
Y1086865D01*
X1966082Y1088135D01*
X1963542D01*
X1962273Y1086865D01*
Y1085596D01*
X1963542Y1084326D01*
X1962273Y1083057D01*
Y1081787D01*
X1963542Y1084326D02*
X1966082D01*
X1935612Y918844D02*
Y911226D01*
X1939421D01*
X1940690Y912496D01*
Y915035D01*
X1939421Y916305D01*
X1935612D01*
X1938151D02*
X1940690Y918844D01*
X1943230D02*
X1945769D01*
X1944499D01*
Y911226D01*
X1943230Y912496D01*
X1949578D02*
X1950847Y911226D01*
X1953386D01*
X1954656Y912496D01*
Y913766D01*
X1953386Y915035D01*
X1954656Y916305D01*
Y917574D01*
X1953386Y918844D01*
X1950847D01*
X1949578Y917574D01*
Y916305D01*
X1950847Y915035D01*
X1949578Y913766D01*
Y912496D01*
X1950847Y915035D02*
X1953386D01*
X1957195Y920114D02*
X1962274D01*
X1964813Y911226D02*
X1969891D01*
Y912496D01*
X1964813Y917574D01*
Y918844D01*
X2032132Y908684D02*
Y901066D01*
X2035941D01*
X2037211Y902336D01*
Y904875D01*
X2035941Y906145D01*
X2032132D01*
X2034671D02*
X2037211Y908684D01*
X2039750D02*
X2042289D01*
X2041019D01*
Y901066D01*
X2039750Y902336D01*
X2046098Y907414D02*
X2047367Y908684D01*
X2049906D01*
X2051176Y907414D01*
Y902336D01*
X2049906Y901066D01*
X2047367D01*
X2046098Y902336D01*
Y903606D01*
X2047367Y904875D01*
X2051176D01*
X2053715Y909954D02*
X2058793D01*
X2061333Y901066D02*
X2066411D01*
Y902336D01*
X2061333Y907414D01*
Y908684D01*
X2028830Y684783D02*
Y677165D01*
X2032639D01*
X2033909Y678435D01*
Y680974D01*
X2032639Y682244D01*
X2028830D01*
X2031369D02*
X2033909Y684783D01*
X2036448D02*
X2038987D01*
X2037717D01*
Y677165D01*
X2036448Y678435D01*
X2042796Y683513D02*
X2044065Y684783D01*
X2046604D01*
X2047874Y683513D01*
Y678435D01*
X2046604Y677165D01*
X2044065D01*
X2042796Y678435D01*
Y679705D01*
X2044065Y680974D01*
X2047874D01*
X2050413Y686053D02*
X2055491D01*
X2063109Y677165D02*
X2060570Y678435D01*
X2058031Y680974D01*
Y683513D01*
X2059300Y684783D01*
X2061839D01*
X2063109Y683513D01*
Y682244D01*
X2061839Y680974D01*
X2058031D01*
X1932310Y694943D02*
Y687325D01*
X1936119D01*
X1937388Y688595D01*
Y691134D01*
X1936119Y692404D01*
X1932310D01*
X1934849D02*
X1937388Y694943D01*
X1939928D02*
X1942467D01*
X1941197D01*
Y687325D01*
X1939928Y688595D01*
X1946276D02*
X1947545Y687325D01*
X1950084D01*
X1951354Y688595D01*
Y689865D01*
X1950084Y691134D01*
X1951354Y692404D01*
Y693673D01*
X1950084Y694943D01*
X1947545D01*
X1946276Y693673D01*
Y692404D01*
X1947545Y691134D01*
X1946276Y689865D01*
Y688595D01*
X1947545Y691134D02*
X1950084D01*
X1953893Y696213D02*
X1958972D01*
X1966589Y687325D02*
X1964050Y688595D01*
X1961511Y691134D01*
Y693673D01*
X1962780Y694943D01*
X1965320D01*
X1966589Y693673D01*
Y692404D01*
X1965320Y691134D01*
X1961511D01*
X1937209Y467654D02*
Y460036D01*
X1941018D01*
X1942287Y461306D01*
Y463845D01*
X1941018Y465115D01*
X1937209D01*
X1939748D02*
X1942287Y467654D01*
X1944827D02*
X1947366D01*
X1946096D01*
Y460036D01*
X1944827Y461306D01*
X1951175D02*
X1952444Y460036D01*
X1954983D01*
X1956253Y461306D01*
Y462576D01*
X1954983Y463845D01*
X1956253Y465115D01*
Y466384D01*
X1954983Y467654D01*
X1952444D01*
X1951175Y466384D01*
Y465115D01*
X1952444Y463845D01*
X1951175Y462576D01*
Y461306D01*
X1952444Y463845D02*
X1954983D01*
X1958792Y468923D02*
X1963871D01*
X1971488Y460036D02*
X1966410D01*
Y463845D01*
X1968949Y462576D01*
X1970219D01*
X1971488Y463845D01*
Y466384D01*
X1970219Y467654D01*
X1967679D01*
X1966410Y466384D01*
X2033729Y457494D02*
Y449876D01*
X2037538D01*
X2038808Y451146D01*
Y453685D01*
X2037538Y454955D01*
X2033729D01*
X2036268D02*
X2038808Y457494D01*
X2041347D02*
X2043886D01*
X2042616D01*
Y449876D01*
X2041347Y451146D01*
X2047695Y456224D02*
X2048964Y457494D01*
X2051503D01*
X2052773Y456224D01*
Y451146D01*
X2051503Y449876D01*
X2048964D01*
X2047695Y451146D01*
Y452416D01*
X2048964Y453685D01*
X2052773D01*
X2055312Y458764D02*
X2060390D01*
X2068008Y449876D02*
X2062930D01*
Y453685D01*
X2065469Y452416D01*
X2066738D01*
X2068008Y453685D01*
Y456224D01*
X2066738Y457494D01*
X2064199D01*
X2062930Y456224D01*
X1007740Y1141985D02*
Y1149603D01*
X1003931D01*
X1002662Y1148333D01*
Y1145794D01*
X1003931Y1144524D01*
X1007740D01*
X1005201D02*
X1002662Y1141985D01*
X996314D02*
Y1149603D01*
X1000122Y1145794D01*
X995044D01*
X992505Y1141985D02*
X989966D01*
X991235D01*
Y1149603D01*
X992505Y1148333D01*
X986157Y1140715D02*
X981078D01*
X974731Y1141985D02*
Y1149603D01*
X978539Y1145794D01*
X973461D01*
X970922Y1148333D02*
X969652Y1149603D01*
X967113D01*
X965843Y1148333D01*
Y1143255D01*
X967113Y1141985D01*
X969652D01*
X970922Y1143255D01*
Y1148333D01*
X1204590Y1141985D02*
Y1149603D01*
X1200781D01*
X1199511Y1148333D01*
Y1145794D01*
X1200781Y1144524D01*
X1204590D01*
X1202051D02*
X1199511Y1141985D01*
X1193164D02*
Y1149603D01*
X1196972Y1145794D01*
X1191894D01*
X1189355Y1141985D02*
X1186816D01*
X1188085D01*
Y1149603D01*
X1189355Y1148333D01*
X1183007Y1140715D02*
X1177928D01*
X1175389Y1148333D02*
X1174120Y1149603D01*
X1171581D01*
X1170311Y1148333D01*
Y1147063D01*
X1171581Y1145794D01*
X1172850D01*
X1171581D01*
X1170311Y1144524D01*
Y1143255D01*
X1171581Y1141985D01*
X1174120D01*
X1175389Y1143255D01*
X1167772D02*
X1166502Y1141985D01*
X1163963D01*
X1162693Y1143255D01*
Y1148333D01*
X1163963Y1149603D01*
X1166502D01*
X1167772Y1148333D01*
Y1147063D01*
X1166502Y1145794D01*
X1162693D01*
X1401440Y1141985D02*
Y1149603D01*
X1397631D01*
X1396362Y1148333D01*
Y1145794D01*
X1397631Y1144524D01*
X1401440D01*
X1398901D02*
X1396362Y1141985D01*
X1390014D02*
Y1149603D01*
X1393822Y1145794D01*
X1388744D01*
X1386205Y1141985D02*
X1383666D01*
X1384935D01*
Y1149603D01*
X1386205Y1148333D01*
X1379857Y1140715D02*
X1374778D01*
X1372239Y1148333D02*
X1370970Y1149603D01*
X1368430D01*
X1367161Y1148333D01*
Y1147063D01*
X1368430Y1145794D01*
X1369700D01*
X1368430D01*
X1367161Y1144524D01*
Y1143255D01*
X1368430Y1141985D01*
X1370970D01*
X1372239Y1143255D01*
X1364622Y1148333D02*
X1363352Y1149603D01*
X1360813D01*
X1359543Y1148333D01*
Y1147063D01*
X1360813Y1145794D01*
X1359543Y1144524D01*
Y1143255D01*
X1360813Y1141985D01*
X1363352D01*
X1364622Y1143255D01*
Y1144524D01*
X1363352Y1145794D01*
X1364622Y1147063D01*
Y1148333D01*
X1363352Y1145794D02*
X1360813D01*
X1598290Y1141985D02*
Y1149603D01*
X1594481D01*
X1593212Y1148333D01*
Y1145794D01*
X1594481Y1144524D01*
X1598290D01*
X1595751D02*
X1593212Y1141985D01*
X1586864D02*
Y1149603D01*
X1590672Y1145794D01*
X1585594D01*
X1583055Y1141985D02*
X1580516D01*
X1581785D01*
Y1149603D01*
X1583055Y1148333D01*
X1576707Y1140715D02*
X1571629D01*
X1569089Y1148333D02*
X1567820Y1149603D01*
X1565280D01*
X1564011Y1148333D01*
Y1147063D01*
X1565280Y1145794D01*
X1566550D01*
X1565280D01*
X1564011Y1144524D01*
Y1143255D01*
X1565280Y1141985D01*
X1567820D01*
X1569089Y1143255D01*
X1561472Y1149603D02*
X1556393D01*
Y1148333D01*
X1561472Y1143255D01*
Y1141985D01*
X1795140D02*
Y1149603D01*
X1791331D01*
X1790061Y1148333D01*
Y1145794D01*
X1791331Y1144524D01*
X1795140D01*
X1792601D02*
X1790061Y1141985D01*
X1783714D02*
Y1149603D01*
X1787522Y1145794D01*
X1782444D01*
X1779905Y1141985D02*
X1777366D01*
X1778635D01*
Y1149603D01*
X1779905Y1148333D01*
X1773557Y1140715D02*
X1768479D01*
X1765939Y1148333D02*
X1764670Y1149603D01*
X1762130D01*
X1760861Y1148333D01*
Y1147063D01*
X1762130Y1145794D01*
X1763400D01*
X1762130D01*
X1760861Y1144524D01*
Y1143255D01*
X1762130Y1141985D01*
X1764670D01*
X1765939Y1143255D01*
X1753243Y1149603D02*
X1755783Y1148333D01*
X1758322Y1145794D01*
Y1143255D01*
X1757052Y1141985D01*
X1754513D01*
X1753243Y1143255D01*
Y1144524D01*
X1754513Y1145794D01*
X1758322D01*
X1009010Y957835D02*
Y965453D01*
X1005201D01*
X1003932Y964183D01*
Y961644D01*
X1005201Y960374D01*
X1009010D01*
X1006471D02*
X1003932Y957835D01*
X997584D02*
Y965453D01*
X1001392Y961644D01*
X996314D01*
X993775Y957835D02*
X991236D01*
X992505D01*
Y965453D01*
X993775Y964183D01*
X987427Y956565D02*
X982348D01*
X979809Y964183D02*
X978540Y965453D01*
X976001D01*
X974731Y964183D01*
Y962913D01*
X976001Y961644D01*
X977270D01*
X976001D01*
X974731Y960374D01*
Y959105D01*
X976001Y957835D01*
X978540D01*
X979809Y959105D01*
X967113Y965453D02*
X972192D01*
Y961644D01*
X969653Y962913D01*
X968383D01*
X967113Y961644D01*
Y959105D01*
X968383Y957835D01*
X970922D01*
X972192Y959105D01*
X1205860Y957835D02*
Y965453D01*
X1202051D01*
X1200781Y964183D01*
Y961644D01*
X1202051Y960374D01*
X1205860D01*
X1203321D02*
X1200781Y957835D01*
X1194434D02*
Y965453D01*
X1198242Y961644D01*
X1193164D01*
X1190625Y957835D02*
X1188086D01*
X1189355D01*
Y965453D01*
X1190625Y964183D01*
X1184277Y956565D02*
X1179199D01*
X1176659Y964183D02*
X1175390Y965453D01*
X1172850D01*
X1171581Y964183D01*
Y962913D01*
X1172850Y961644D01*
X1174120D01*
X1172850D01*
X1171581Y960374D01*
Y959105D01*
X1172850Y957835D01*
X1175390D01*
X1176659Y959105D01*
X1165233Y957835D02*
Y965453D01*
X1169042Y961644D01*
X1163963D01*
X1402710Y957835D02*
Y965453D01*
X1398901D01*
X1397632Y964183D01*
Y961644D01*
X1398901Y960374D01*
X1402710D01*
X1400171D02*
X1397632Y957835D01*
X1391284D02*
Y965453D01*
X1395092Y961644D01*
X1390014D01*
X1387475Y957835D02*
X1384936D01*
X1386205D01*
Y965453D01*
X1387475Y964183D01*
X1381127Y956565D02*
X1376048D01*
X1373509Y964183D02*
X1372240Y965453D01*
X1369700D01*
X1368431Y964183D01*
Y962913D01*
X1369700Y961644D01*
X1370970D01*
X1369700D01*
X1368431Y960374D01*
Y959105D01*
X1369700Y957835D01*
X1372240D01*
X1373509Y959105D01*
X1365892Y964183D02*
X1364622Y965453D01*
X1362083D01*
X1360813Y964183D01*
Y962913D01*
X1362083Y961644D01*
X1363353D01*
X1362083D01*
X1360813Y960374D01*
Y959105D01*
X1362083Y957835D01*
X1364622D01*
X1365892Y959105D01*
X1599560Y957835D02*
Y965453D01*
X1595751D01*
X1594482Y964183D01*
Y961644D01*
X1595751Y960374D01*
X1599560D01*
X1597021D02*
X1594482Y957835D01*
X1588134D02*
Y965453D01*
X1591942Y961644D01*
X1586864D01*
X1584325Y957835D02*
X1581786D01*
X1583055D01*
Y965453D01*
X1584325Y964183D01*
X1577977Y956565D02*
X1572899D01*
X1570359Y964183D02*
X1569090Y965453D01*
X1566550D01*
X1565281Y964183D01*
Y962913D01*
X1566550Y961644D01*
X1567820D01*
X1566550D01*
X1565281Y960374D01*
Y959105D01*
X1566550Y957835D01*
X1569090D01*
X1570359Y959105D01*
X1557663Y957835D02*
X1562742D01*
X1557663Y962913D01*
Y964183D01*
X1558933Y965453D01*
X1561472D01*
X1562742Y964183D01*
X1793871Y957835D02*
Y965453D01*
X1790062D01*
X1788792Y964183D01*
Y961644D01*
X1790062Y960374D01*
X1793871D01*
X1791331D02*
X1788792Y957835D01*
X1782444D02*
Y965453D01*
X1786253Y961644D01*
X1781175D01*
X1778636Y957835D02*
X1776096D01*
X1777366D01*
Y965453D01*
X1778636Y964183D01*
X1772288Y956565D02*
X1767209D01*
X1764670Y964183D02*
X1763401Y965453D01*
X1760861D01*
X1759592Y964183D01*
Y962913D01*
X1760861Y961644D01*
X1762131D01*
X1760861D01*
X1759592Y960374D01*
Y959105D01*
X1760861Y957835D01*
X1763401D01*
X1764670Y959105D01*
X1757053Y957835D02*
X1754513D01*
X1755783D01*
Y965453D01*
X1757053Y964183D01*
X1796694Y721484D02*
Y729102D01*
X1792885D01*
X1791615Y727832D01*
Y725293D01*
X1792885Y724023D01*
X1796694D01*
X1794155D02*
X1791615Y721484D01*
X1785267D02*
Y729102D01*
X1789076Y725293D01*
X1783998D01*
X1781459Y721484D02*
X1778920D01*
X1780189D01*
Y729102D01*
X1781459Y727832D01*
X1775111Y720215D02*
X1770033D01*
X1767493Y727832D02*
X1766224Y729102D01*
X1763685D01*
X1762415Y727832D01*
Y726563D01*
X1763685Y725293D01*
X1764954D01*
X1763685D01*
X1762415Y724023D01*
Y722754D01*
X1763685Y721484D01*
X1766224D01*
X1767493Y722754D01*
X1759876Y727832D02*
X1758606Y729102D01*
X1756067D01*
X1754797Y727832D01*
Y722754D01*
X1756067Y721484D01*
X1758606D01*
X1759876Y722754D01*
Y727832D01*
X1599560Y721615D02*
Y729233D01*
X1595751D01*
X1594482Y727963D01*
Y725424D01*
X1595751Y724154D01*
X1599560D01*
X1597021D02*
X1594482Y721615D01*
X1588134D02*
Y729233D01*
X1591942Y725424D01*
X1586864D01*
X1584325Y721615D02*
X1581786D01*
X1583055D01*
Y729233D01*
X1584325Y727963D01*
X1577977Y720345D02*
X1572899D01*
X1565281Y721615D02*
X1570359D01*
X1565281Y726693D01*
Y727963D01*
X1566550Y729233D01*
X1569090D01*
X1570359Y727963D01*
X1562742Y722885D02*
X1561472Y721615D01*
X1558933D01*
X1557663Y722885D01*
Y727963D01*
X1558933Y729233D01*
X1561472D01*
X1562742Y727963D01*
Y726693D01*
X1561472Y725424D01*
X1557663D01*
X1402710Y721615D02*
Y729233D01*
X1398901D01*
X1397632Y727963D01*
Y725424D01*
X1398901Y724154D01*
X1402710D01*
X1400171D02*
X1397632Y721615D01*
X1391284D02*
Y729233D01*
X1395092Y725424D01*
X1390014D01*
X1387475Y721615D02*
X1384936D01*
X1386205D01*
Y729233D01*
X1387475Y727963D01*
X1381127Y720345D02*
X1376048D01*
X1368431Y721615D02*
X1373509D01*
X1368431Y726693D01*
Y727963D01*
X1369700Y729233D01*
X1372240D01*
X1373509Y727963D01*
X1365892D02*
X1364622Y729233D01*
X1362083D01*
X1360813Y727963D01*
Y726693D01*
X1362083Y725424D01*
X1360813Y724154D01*
Y722885D01*
X1362083Y721615D01*
X1364622D01*
X1365892Y722885D01*
Y724154D01*
X1364622Y725424D01*
X1365892Y726693D01*
Y727963D01*
X1364622Y725424D02*
X1362083D01*
X1205860Y721615D02*
Y729233D01*
X1202051D01*
X1200781Y727963D01*
Y725424D01*
X1202051Y724154D01*
X1205860D01*
X1203321D02*
X1200781Y721615D01*
X1194434D02*
Y729233D01*
X1198242Y725424D01*
X1193164D01*
X1190625Y721615D02*
X1188086D01*
X1189355D01*
Y729233D01*
X1190625Y727963D01*
X1184277Y720345D02*
X1179199D01*
X1171581Y721615D02*
X1176659D01*
X1171581Y726693D01*
Y727963D01*
X1172850Y729233D01*
X1175390D01*
X1176659Y727963D01*
X1169042Y729233D02*
X1163963D01*
Y727963D01*
X1169042Y722885D01*
Y721615D01*
X1009294Y721484D02*
Y729102D01*
X1005485D01*
X1004215Y727832D01*
Y725293D01*
X1005485Y724023D01*
X1009294D01*
X1006755D02*
X1004215Y721484D01*
X997868D02*
Y729102D01*
X1001676Y725293D01*
X996598D01*
X994059Y721484D02*
X991520D01*
X992789D01*
Y729102D01*
X994059Y727832D01*
X987711Y720215D02*
X982633D01*
X975015Y721484D02*
X980093D01*
X975015Y726563D01*
Y727832D01*
X976284Y729102D01*
X978824D01*
X980093Y727832D01*
X967397Y729102D02*
X969937Y727832D01*
X972476Y725293D01*
Y722754D01*
X971206Y721484D01*
X968667D01*
X967397Y722754D01*
Y724023D01*
X968667Y725293D01*
X972476D01*
X1795140Y499365D02*
Y506983D01*
X1791331D01*
X1790061Y505713D01*
Y503174D01*
X1791331Y501904D01*
X1795140D01*
X1792601D02*
X1790061Y499365D01*
X1783714D02*
Y506983D01*
X1787522Y503174D01*
X1782444D01*
X1779905Y499365D02*
X1777366D01*
X1778635D01*
Y506983D01*
X1779905Y505713D01*
X1773557Y498095D02*
X1768479D01*
X1760861Y499365D02*
X1765939D01*
X1760861Y504443D01*
Y505713D01*
X1762130Y506983D01*
X1764670D01*
X1765939Y505713D01*
X1753243Y506983D02*
X1758322D01*
Y503174D01*
X1755783Y504443D01*
X1754513D01*
X1753243Y503174D01*
Y500635D01*
X1754513Y499365D01*
X1757052D01*
X1758322Y500635D01*
X1598290Y499365D02*
Y506983D01*
X1594481D01*
X1593212Y505713D01*
Y503174D01*
X1594481Y501904D01*
X1598290D01*
X1595751D02*
X1593212Y499365D01*
X1586864D02*
Y506983D01*
X1590672Y503174D01*
X1585594D01*
X1583055Y499365D02*
X1580516D01*
X1581785D01*
Y506983D01*
X1583055Y505713D01*
X1576707Y498095D02*
X1571629D01*
X1564011Y499365D02*
X1569089D01*
X1564011Y504443D01*
Y505713D01*
X1565280Y506983D01*
X1567820D01*
X1569089Y505713D01*
X1557663Y499365D02*
Y506983D01*
X1561472Y503174D01*
X1556393D01*
X1401440Y499365D02*
Y506983D01*
X1397631D01*
X1396362Y505713D01*
Y503174D01*
X1397631Y501904D01*
X1401440D01*
X1398901D02*
X1396362Y499365D01*
X1390014D02*
Y506983D01*
X1393822Y503174D01*
X1388744D01*
X1386205Y499365D02*
X1383666D01*
X1384935D01*
Y506983D01*
X1386205Y505713D01*
X1379857Y498095D02*
X1374778D01*
X1367161Y499365D02*
X1372239D01*
X1367161Y504443D01*
Y505713D01*
X1368430Y506983D01*
X1370970D01*
X1372239Y505713D01*
X1364622D02*
X1363352Y506983D01*
X1360813D01*
X1359543Y505713D01*
Y504443D01*
X1360813Y503174D01*
X1362083D01*
X1360813D01*
X1359543Y501904D01*
Y500635D01*
X1360813Y499365D01*
X1363352D01*
X1364622Y500635D01*
X1204590Y499365D02*
Y506983D01*
X1200781D01*
X1199511Y505713D01*
Y503174D01*
X1200781Y501904D01*
X1204590D01*
X1202051D02*
X1199511Y499365D01*
X1193164D02*
Y506983D01*
X1196972Y503174D01*
X1191894D01*
X1189355Y499365D02*
X1186816D01*
X1188085D01*
Y506983D01*
X1189355Y505713D01*
X1183007Y498095D02*
X1177928D01*
X1170311Y499365D02*
X1175389D01*
X1170311Y504443D01*
Y505713D01*
X1171581Y506983D01*
X1174120D01*
X1175389Y505713D01*
X1162693Y499365D02*
X1167772D01*
X1162693Y504443D01*
Y505713D01*
X1163963Y506983D01*
X1166502D01*
X1167772Y505713D01*
X1005201Y499365D02*
Y506983D01*
X1001392D01*
X1000122Y505713D01*
Y503174D01*
X1001392Y501904D01*
X1005201D01*
X1002662D02*
X1000122Y499365D01*
X993774D02*
Y506983D01*
X997583Y503174D01*
X992505D01*
X989966Y499365D02*
X987426D01*
X988696D01*
Y506983D01*
X989966Y505713D01*
X983618Y498095D02*
X978539D01*
X970922Y499365D02*
X976000D01*
X970922Y504443D01*
Y505713D01*
X972191Y506983D01*
X974731D01*
X976000Y505713D01*
X968383Y499365D02*
X965843D01*
X967113D01*
Y506983D01*
X968383Y505713D01*
X1056633Y1142366D02*
Y1149984D01*
X1052824D01*
X1051555Y1148714D01*
Y1146175D01*
X1052824Y1144905D01*
X1056633D01*
X1054094D02*
X1051555Y1142366D01*
X1045207D02*
Y1149984D01*
X1049016Y1146175D01*
X1043937D01*
X1041398Y1148714D02*
X1040128Y1149984D01*
X1037589D01*
X1036320Y1148714D01*
Y1143636D01*
X1037589Y1142366D01*
X1040128D01*
X1041398Y1143636D01*
Y1148714D01*
X1033780Y1141096D02*
X1028702D01*
X1022354Y1142366D02*
Y1149984D01*
X1026163Y1146175D01*
X1021085D01*
X1018545Y1148714D02*
X1017276Y1149984D01*
X1014737D01*
X1013467Y1148714D01*
Y1143636D01*
X1014737Y1142366D01*
X1017276D01*
X1018545Y1143636D01*
Y1148714D01*
X1253483Y1142366D02*
Y1149984D01*
X1249674D01*
X1248405Y1148714D01*
Y1146175D01*
X1249674Y1144905D01*
X1253483D01*
X1250944D02*
X1248405Y1142366D01*
X1242057D02*
Y1149984D01*
X1245865Y1146175D01*
X1240787D01*
X1238248Y1148714D02*
X1236978Y1149984D01*
X1234439D01*
X1233170Y1148714D01*
Y1143636D01*
X1234439Y1142366D01*
X1236978D01*
X1238248Y1143636D01*
Y1148714D01*
X1230630Y1141096D02*
X1225552D01*
X1223013Y1148714D02*
X1221743Y1149984D01*
X1219204D01*
X1217934Y1148714D01*
Y1147444D01*
X1219204Y1146175D01*
X1220474D01*
X1219204D01*
X1217934Y1144905D01*
Y1143636D01*
X1219204Y1142366D01*
X1221743D01*
X1223013Y1143636D01*
X1215395D02*
X1214126Y1142366D01*
X1211587D01*
X1210317Y1143636D01*
Y1148714D01*
X1211587Y1149984D01*
X1214126D01*
X1215395Y1148714D01*
Y1147444D01*
X1214126Y1146175D01*
X1210317D01*
X1450333Y1142366D02*
Y1149984D01*
X1446524D01*
X1445255Y1148714D01*
Y1146175D01*
X1446524Y1144905D01*
X1450333D01*
X1447794D02*
X1445255Y1142366D01*
X1438907D02*
Y1149984D01*
X1442715Y1146175D01*
X1437637D01*
X1435098Y1148714D02*
X1433828Y1149984D01*
X1431289D01*
X1430020Y1148714D01*
Y1143636D01*
X1431289Y1142366D01*
X1433828D01*
X1435098Y1143636D01*
Y1148714D01*
X1427480Y1141096D02*
X1422402D01*
X1419863Y1148714D02*
X1418593Y1149984D01*
X1416054D01*
X1414785Y1148714D01*
Y1147444D01*
X1416054Y1146175D01*
X1417324D01*
X1416054D01*
X1414785Y1144905D01*
Y1143636D01*
X1416054Y1142366D01*
X1418593D01*
X1419863Y1143636D01*
X1412245Y1148714D02*
X1410976Y1149984D01*
X1408437D01*
X1407167Y1148714D01*
Y1147444D01*
X1408437Y1146175D01*
X1407167Y1144905D01*
Y1143636D01*
X1408437Y1142366D01*
X1410976D01*
X1412245Y1143636D01*
Y1144905D01*
X1410976Y1146175D01*
X1412245Y1147444D01*
Y1148714D01*
X1410976Y1146175D02*
X1408437D01*
X1647183Y1142366D02*
Y1149984D01*
X1643374D01*
X1642105Y1148714D01*
Y1146175D01*
X1643374Y1144905D01*
X1647183D01*
X1644644D02*
X1642105Y1142366D01*
X1635757D02*
Y1149984D01*
X1639565Y1146175D01*
X1634487D01*
X1631948Y1148714D02*
X1630678Y1149984D01*
X1628139D01*
X1626870Y1148714D01*
Y1143636D01*
X1628139Y1142366D01*
X1630678D01*
X1631948Y1143636D01*
Y1148714D01*
X1624330Y1141096D02*
X1619252D01*
X1616713Y1148714D02*
X1615443Y1149984D01*
X1612904D01*
X1611635Y1148714D01*
Y1147444D01*
X1612904Y1146175D01*
X1614174D01*
X1612904D01*
X1611635Y1144905D01*
Y1143636D01*
X1612904Y1142366D01*
X1615443D01*
X1616713Y1143636D01*
X1609095Y1149984D02*
X1604017D01*
Y1148714D01*
X1609095Y1143636D01*
Y1142366D01*
X1844033D02*
Y1149984D01*
X1840224D01*
X1838955Y1148714D01*
Y1146175D01*
X1840224Y1144905D01*
X1844033D01*
X1841494D02*
X1838955Y1142366D01*
X1832607D02*
Y1149984D01*
X1836416Y1146175D01*
X1831337D01*
X1828798Y1148714D02*
X1827528Y1149984D01*
X1824989D01*
X1823720Y1148714D01*
Y1143636D01*
X1824989Y1142366D01*
X1827528D01*
X1828798Y1143636D01*
Y1148714D01*
X1821180Y1141096D02*
X1816102D01*
X1813563Y1148714D02*
X1812293Y1149984D01*
X1809754D01*
X1808484Y1148714D01*
Y1147444D01*
X1809754Y1146175D01*
X1811024D01*
X1809754D01*
X1808484Y1144905D01*
Y1143636D01*
X1809754Y1142366D01*
X1812293D01*
X1813563Y1143636D01*
X1800867Y1149984D02*
X1803406Y1148714D01*
X1805945Y1146175D01*
Y1143636D01*
X1804676Y1142366D01*
X1802137D01*
X1800867Y1143636D01*
Y1144905D01*
X1802137Y1146175D01*
X1805945D01*
X1057903Y958216D02*
Y965834D01*
X1054094D01*
X1052825Y964564D01*
Y962025D01*
X1054094Y960755D01*
X1057903D01*
X1055364D02*
X1052825Y958216D01*
X1046477D02*
Y965834D01*
X1050285Y962025D01*
X1045207D01*
X1042668Y964564D02*
X1041398Y965834D01*
X1038859D01*
X1037590Y964564D01*
Y959486D01*
X1038859Y958216D01*
X1041398D01*
X1042668Y959486D01*
Y964564D01*
X1035050Y956946D02*
X1029972D01*
X1027433Y964564D02*
X1026163Y965834D01*
X1023624D01*
X1022355Y964564D01*
Y963294D01*
X1023624Y962025D01*
X1024894D01*
X1023624D01*
X1022355Y960755D01*
Y959486D01*
X1023624Y958216D01*
X1026163D01*
X1027433Y959486D01*
X1014737Y965834D02*
X1019815D01*
Y962025D01*
X1017276Y963294D01*
X1016007D01*
X1014737Y962025D01*
Y959486D01*
X1016007Y958216D01*
X1018546D01*
X1019815Y959486D01*
X1254753Y958216D02*
Y965834D01*
X1250944D01*
X1249675Y964564D01*
Y962025D01*
X1250944Y960755D01*
X1254753D01*
X1252214D02*
X1249675Y958216D01*
X1243327D02*
Y965834D01*
X1247135Y962025D01*
X1242057D01*
X1239518Y964564D02*
X1238248Y965834D01*
X1235709D01*
X1234440Y964564D01*
Y959486D01*
X1235709Y958216D01*
X1238248D01*
X1239518Y959486D01*
Y964564D01*
X1231900Y956946D02*
X1226822D01*
X1224283Y964564D02*
X1223013Y965834D01*
X1220474D01*
X1219204Y964564D01*
Y963294D01*
X1220474Y962025D01*
X1221744D01*
X1220474D01*
X1219204Y960755D01*
Y959486D01*
X1220474Y958216D01*
X1223013D01*
X1224283Y959486D01*
X1212857Y958216D02*
Y965834D01*
X1216665Y962025D01*
X1211587D01*
X1451603Y958216D02*
Y965834D01*
X1447794D01*
X1446525Y964564D01*
Y962025D01*
X1447794Y960755D01*
X1451603D01*
X1449064D02*
X1446525Y958216D01*
X1440177D02*
Y965834D01*
X1443985Y962025D01*
X1438907D01*
X1436368Y964564D02*
X1435098Y965834D01*
X1432559D01*
X1431290Y964564D01*
Y959486D01*
X1432559Y958216D01*
X1435098D01*
X1436368Y959486D01*
Y964564D01*
X1428750Y956946D02*
X1423672D01*
X1421133Y964564D02*
X1419863Y965834D01*
X1417324D01*
X1416055Y964564D01*
Y963294D01*
X1417324Y962025D01*
X1418594D01*
X1417324D01*
X1416055Y960755D01*
Y959486D01*
X1417324Y958216D01*
X1419863D01*
X1421133Y959486D01*
X1413515Y964564D02*
X1412246Y965834D01*
X1409707D01*
X1408437Y964564D01*
Y963294D01*
X1409707Y962025D01*
X1410976D01*
X1409707D01*
X1408437Y960755D01*
Y959486D01*
X1409707Y958216D01*
X1412246D01*
X1413515Y959486D01*
X1648453Y958216D02*
Y965834D01*
X1644644D01*
X1643375Y964564D01*
Y962025D01*
X1644644Y960755D01*
X1648453D01*
X1645914D02*
X1643375Y958216D01*
X1637027D02*
Y965834D01*
X1640836Y962025D01*
X1635757D01*
X1633218Y964564D02*
X1631948Y965834D01*
X1629409D01*
X1628140Y964564D01*
Y959486D01*
X1629409Y958216D01*
X1631948D01*
X1633218Y959486D01*
Y964564D01*
X1625600Y956946D02*
X1620522D01*
X1617983Y964564D02*
X1616713Y965834D01*
X1614174D01*
X1612905Y964564D01*
Y963294D01*
X1614174Y962025D01*
X1615444D01*
X1614174D01*
X1612905Y960755D01*
Y959486D01*
X1614174Y958216D01*
X1616713D01*
X1617983Y959486D01*
X1605287Y958216D02*
X1610365D01*
X1605287Y963294D01*
Y964564D01*
X1606557Y965834D01*
X1609096D01*
X1610365Y964564D01*
X1842764Y958216D02*
Y965834D01*
X1838955D01*
X1837686Y964564D01*
Y962025D01*
X1838955Y960755D01*
X1842764D01*
X1840225D02*
X1837686Y958216D01*
X1831337D02*
Y965834D01*
X1835146Y962025D01*
X1830068D01*
X1827529Y964564D02*
X1826259Y965834D01*
X1823720D01*
X1822450Y964564D01*
Y959486D01*
X1823720Y958216D01*
X1826259D01*
X1827529Y959486D01*
Y964564D01*
X1819911Y956946D02*
X1814833D01*
X1812294Y964564D02*
X1811024Y965834D01*
X1808485D01*
X1807215Y964564D01*
Y963294D01*
X1808485Y962025D01*
X1809754D01*
X1808485D01*
X1807215Y960755D01*
Y959486D01*
X1808485Y958216D01*
X1811024D01*
X1812294Y959486D01*
X1804676Y958216D02*
X1802137D01*
X1803407D01*
Y965834D01*
X1804676Y964564D01*
X1845587Y721865D02*
Y729483D01*
X1841778D01*
X1840509Y728213D01*
Y725674D01*
X1841778Y724404D01*
X1845587D01*
X1843048D02*
X1840509Y721865D01*
X1834161D02*
Y729483D01*
X1837970Y725674D01*
X1832891D01*
X1830352Y728213D02*
X1829082Y729483D01*
X1826543D01*
X1825274Y728213D01*
Y723135D01*
X1826543Y721865D01*
X1829082D01*
X1830352Y723135D01*
Y728213D01*
X1822734Y720596D02*
X1817656D01*
X1815117Y728213D02*
X1813847Y729483D01*
X1811308D01*
X1810038Y728213D01*
Y726944D01*
X1811308Y725674D01*
X1812578D01*
X1811308D01*
X1810038Y724404D01*
Y723135D01*
X1811308Y721865D01*
X1813847D01*
X1815117Y723135D01*
X1807499Y728213D02*
X1806230Y729483D01*
X1803690D01*
X1802421Y728213D01*
Y723135D01*
X1803690Y721865D01*
X1806230D01*
X1807499Y723135D01*
Y728213D01*
X1648453Y721996D02*
Y729614D01*
X1644644D01*
X1643375Y728344D01*
Y725805D01*
X1644644Y724535D01*
X1648453D01*
X1645914D02*
X1643375Y721996D01*
X1637027D02*
Y729614D01*
X1640836Y725805D01*
X1635757D01*
X1633218Y728344D02*
X1631948Y729614D01*
X1629409D01*
X1628140Y728344D01*
Y723266D01*
X1629409Y721996D01*
X1631948D01*
X1633218Y723266D01*
Y728344D01*
X1625600Y720726D02*
X1620522D01*
X1612905Y721996D02*
X1617983D01*
X1612905Y727074D01*
Y728344D01*
X1614174Y729614D01*
X1616713D01*
X1617983Y728344D01*
X1610365Y723266D02*
X1609096Y721996D01*
X1606557D01*
X1605287Y723266D01*
Y728344D01*
X1606557Y729614D01*
X1609096D01*
X1610365Y728344D01*
Y727074D01*
X1609096Y725805D01*
X1605287D01*
X1451603Y721996D02*
Y729614D01*
X1447794D01*
X1446525Y728344D01*
Y725805D01*
X1447794Y724535D01*
X1451603D01*
X1449064D02*
X1446525Y721996D01*
X1440177D02*
Y729614D01*
X1443985Y725805D01*
X1438907D01*
X1436368Y728344D02*
X1435098Y729614D01*
X1432559D01*
X1431290Y728344D01*
Y723266D01*
X1432559Y721996D01*
X1435098D01*
X1436368Y723266D01*
Y728344D01*
X1428750Y720726D02*
X1423672D01*
X1416055Y721996D02*
X1421133D01*
X1416055Y727074D01*
Y728344D01*
X1417324Y729614D01*
X1419863D01*
X1421133Y728344D01*
X1413515D02*
X1412246Y729614D01*
X1409707D01*
X1408437Y728344D01*
Y727074D01*
X1409707Y725805D01*
X1408437Y724535D01*
Y723266D01*
X1409707Y721996D01*
X1412246D01*
X1413515Y723266D01*
Y724535D01*
X1412246Y725805D01*
X1413515Y727074D01*
Y728344D01*
X1412246Y725805D02*
X1409707D01*
X1254753Y721996D02*
Y729614D01*
X1250944D01*
X1249675Y728344D01*
Y725805D01*
X1250944Y724535D01*
X1254753D01*
X1252214D02*
X1249675Y721996D01*
X1243327D02*
Y729614D01*
X1247135Y725805D01*
X1242057D01*
X1239518Y728344D02*
X1238248Y729614D01*
X1235709D01*
X1234440Y728344D01*
Y723266D01*
X1235709Y721996D01*
X1238248D01*
X1239518Y723266D01*
Y728344D01*
X1231900Y720726D02*
X1226822D01*
X1219204Y721996D02*
X1224283D01*
X1219204Y727074D01*
Y728344D01*
X1220474Y729614D01*
X1223013D01*
X1224283Y728344D01*
X1216665Y729614D02*
X1211587D01*
Y728344D01*
X1216665Y723266D01*
Y721996D01*
X1058187Y721865D02*
Y729483D01*
X1054378D01*
X1053109Y728213D01*
Y725674D01*
X1054378Y724404D01*
X1058187D01*
X1055648D02*
X1053109Y721865D01*
X1046761D02*
Y729483D01*
X1050570Y725674D01*
X1045491D01*
X1042952Y728213D02*
X1041682Y729483D01*
X1039143D01*
X1037874Y728213D01*
Y723135D01*
X1039143Y721865D01*
X1041682D01*
X1042952Y723135D01*
Y728213D01*
X1035334Y720596D02*
X1030256D01*
X1022638Y721865D02*
X1027717D01*
X1022638Y726944D01*
Y728213D01*
X1023908Y729483D01*
X1026447D01*
X1027717Y728213D01*
X1015021Y729483D02*
X1017560Y728213D01*
X1020099Y725674D01*
Y723135D01*
X1018830Y721865D01*
X1016291D01*
X1015021Y723135D01*
Y724404D01*
X1016291Y725674D01*
X1020099D01*
X1844033Y499746D02*
Y507364D01*
X1840224D01*
X1838955Y506094D01*
Y503555D01*
X1840224Y502285D01*
X1844033D01*
X1841494D02*
X1838955Y499746D01*
X1832607D02*
Y507364D01*
X1836416Y503555D01*
X1831337D01*
X1828798Y506094D02*
X1827528Y507364D01*
X1824989D01*
X1823720Y506094D01*
Y501016D01*
X1824989Y499746D01*
X1827528D01*
X1828798Y501016D01*
Y506094D01*
X1821180Y498476D02*
X1816102D01*
X1808484Y499746D02*
X1813563D01*
X1808484Y504824D01*
Y506094D01*
X1809754Y507364D01*
X1812293D01*
X1813563Y506094D01*
X1800867Y507364D02*
X1805945D01*
Y503555D01*
X1803406Y504824D01*
X1802137D01*
X1800867Y503555D01*
Y501016D01*
X1802137Y499746D01*
X1804676D01*
X1805945Y501016D01*
X1647183Y499746D02*
Y507364D01*
X1643374D01*
X1642105Y506094D01*
Y503555D01*
X1643374Y502285D01*
X1647183D01*
X1644644D02*
X1642105Y499746D01*
X1635757D02*
Y507364D01*
X1639565Y503555D01*
X1634487D01*
X1631948Y506094D02*
X1630678Y507364D01*
X1628139D01*
X1626870Y506094D01*
Y501016D01*
X1628139Y499746D01*
X1630678D01*
X1631948Y501016D01*
Y506094D01*
X1624330Y498476D02*
X1619252D01*
X1611635Y499746D02*
X1616713D01*
X1611635Y504824D01*
Y506094D01*
X1612904Y507364D01*
X1615443D01*
X1616713Y506094D01*
X1605287Y499746D02*
Y507364D01*
X1609095Y503555D01*
X1604017D01*
X1450333Y499746D02*
Y507364D01*
X1446524D01*
X1445255Y506094D01*
Y503555D01*
X1446524Y502285D01*
X1450333D01*
X1447794D02*
X1445255Y499746D01*
X1438907D02*
Y507364D01*
X1442715Y503555D01*
X1437637D01*
X1435098Y506094D02*
X1433828Y507364D01*
X1431289D01*
X1430020Y506094D01*
Y501016D01*
X1431289Y499746D01*
X1433828D01*
X1435098Y501016D01*
Y506094D01*
X1427480Y498476D02*
X1422402D01*
X1414785Y499746D02*
X1419863D01*
X1414785Y504824D01*
Y506094D01*
X1416054Y507364D01*
X1418593D01*
X1419863Y506094D01*
X1412245D02*
X1410976Y507364D01*
X1408437D01*
X1407167Y506094D01*
Y504824D01*
X1408437Y503555D01*
X1409706D01*
X1408437D01*
X1407167Y502285D01*
Y501016D01*
X1408437Y499746D01*
X1410976D01*
X1412245Y501016D01*
X1253483Y499746D02*
Y507364D01*
X1249674D01*
X1248405Y506094D01*
Y503555D01*
X1249674Y502285D01*
X1253483D01*
X1250944D02*
X1248405Y499746D01*
X1242057D02*
Y507364D01*
X1245865Y503555D01*
X1240787D01*
X1238248Y506094D02*
X1236978Y507364D01*
X1234439D01*
X1233170Y506094D01*
Y501016D01*
X1234439Y499746D01*
X1236978D01*
X1238248Y501016D01*
Y506094D01*
X1230630Y498476D02*
X1225552D01*
X1217934Y499746D02*
X1223013D01*
X1217934Y504824D01*
Y506094D01*
X1219204Y507364D01*
X1221743D01*
X1223013Y506094D01*
X1210317Y499746D02*
X1215395D01*
X1210317Y504824D01*
Y506094D01*
X1211587Y507364D01*
X1214126D01*
X1215395Y506094D01*
X1054094Y499746D02*
Y507364D01*
X1050285D01*
X1049016Y506094D01*
Y503555D01*
X1050285Y502285D01*
X1054094D01*
X1051555D02*
X1049016Y499746D01*
X1042667D02*
Y507364D01*
X1046476Y503555D01*
X1041398D01*
X1038859Y506094D02*
X1037589Y507364D01*
X1035050D01*
X1033780Y506094D01*
Y501016D01*
X1035050Y499746D01*
X1037589D01*
X1038859Y501016D01*
Y506094D01*
X1031241Y498476D02*
X1026163D01*
X1018545Y499746D02*
X1023624D01*
X1018545Y504824D01*
Y506094D01*
X1019815Y507364D01*
X1022354D01*
X1023624Y506094D01*
X1016006Y499746D02*
X1013467D01*
X1014737D01*
Y507364D01*
X1016006Y506094D01*
X973448Y1054736D02*
Y1062354D01*
X969639D01*
X968370Y1061084D01*
Y1058545D01*
X969639Y1057275D01*
X973448D01*
X970909D02*
X968370Y1054736D01*
X965831D02*
X963291D01*
X964561D01*
Y1062354D01*
X965831Y1061084D01*
X954404Y1062354D02*
X959483D01*
Y1058545D01*
X956944Y1059814D01*
X955674D01*
X954404Y1058545D01*
Y1056006D01*
X955674Y1054736D01*
X958213D01*
X959483Y1056006D01*
X951865Y1053466D02*
X946787D01*
X940439Y1054736D02*
Y1062354D01*
X944248Y1058545D01*
X939169D01*
X936630Y1061084D02*
X935360Y1062354D01*
X932821D01*
X931552Y1061084D01*
Y1056006D01*
X932821Y1054736D01*
X935360D01*
X936630Y1056006D01*
Y1061084D01*
X1170298Y1054736D02*
Y1062354D01*
X1166489D01*
X1165220Y1061084D01*
Y1058545D01*
X1166489Y1057275D01*
X1170298D01*
X1167759D02*
X1165220Y1054736D01*
X1162681D02*
X1160142D01*
X1161411D01*
Y1062354D01*
X1162681Y1061084D01*
X1151254Y1062354D02*
X1156333D01*
Y1058545D01*
X1153794Y1059814D01*
X1152524D01*
X1151254Y1058545D01*
Y1056006D01*
X1152524Y1054736D01*
X1155063D01*
X1156333Y1056006D01*
X1148715Y1053466D02*
X1143637D01*
X1141098Y1061084D02*
X1139828Y1062354D01*
X1137289D01*
X1136019Y1061084D01*
Y1059814D01*
X1137289Y1058545D01*
X1138559D01*
X1137289D01*
X1136019Y1057275D01*
Y1056006D01*
X1137289Y1054736D01*
X1139828D01*
X1141098Y1056006D01*
X1133480D02*
X1132210Y1054736D01*
X1129671D01*
X1128402Y1056006D01*
Y1061084D01*
X1129671Y1062354D01*
X1132210D01*
X1133480Y1061084D01*
Y1059814D01*
X1132210Y1058545D01*
X1128402D01*
X1367148Y1054736D02*
Y1062354D01*
X1363339D01*
X1362070Y1061084D01*
Y1058545D01*
X1363339Y1057275D01*
X1367148D01*
X1364609D02*
X1362070Y1054736D01*
X1359531D02*
X1356991D01*
X1358261D01*
Y1062354D01*
X1359531Y1061084D01*
X1348104Y1062354D02*
X1353183D01*
Y1058545D01*
X1350644Y1059814D01*
X1349374D01*
X1348104Y1058545D01*
Y1056006D01*
X1349374Y1054736D01*
X1351913D01*
X1353183Y1056006D01*
X1345565Y1053466D02*
X1340487D01*
X1337948Y1061084D02*
X1336678Y1062354D01*
X1334139D01*
X1332869Y1061084D01*
Y1059814D01*
X1334139Y1058545D01*
X1335408D01*
X1334139D01*
X1332869Y1057275D01*
Y1056006D01*
X1334139Y1054736D01*
X1336678D01*
X1337948Y1056006D01*
X1330330Y1061084D02*
X1329061Y1062354D01*
X1326521D01*
X1325252Y1061084D01*
Y1059814D01*
X1326521Y1058545D01*
X1325252Y1057275D01*
Y1056006D01*
X1326521Y1054736D01*
X1329061D01*
X1330330Y1056006D01*
Y1057275D01*
X1329061Y1058545D01*
X1330330Y1059814D01*
Y1061084D01*
X1329061Y1058545D02*
X1326521D01*
X1563998Y1054736D02*
Y1062354D01*
X1560189D01*
X1558920Y1061084D01*
Y1058545D01*
X1560189Y1057275D01*
X1563998D01*
X1561459D02*
X1558920Y1054736D01*
X1556381D02*
X1553842D01*
X1555111D01*
Y1062354D01*
X1556381Y1061084D01*
X1544954Y1062354D02*
X1550033D01*
Y1058545D01*
X1547494Y1059814D01*
X1546224D01*
X1544954Y1058545D01*
Y1056006D01*
X1546224Y1054736D01*
X1548763D01*
X1550033Y1056006D01*
X1542415Y1053466D02*
X1537337D01*
X1534798Y1061084D02*
X1533528Y1062354D01*
X1530989D01*
X1529719Y1061084D01*
Y1059814D01*
X1530989Y1058545D01*
X1532258D01*
X1530989D01*
X1529719Y1057275D01*
Y1056006D01*
X1530989Y1054736D01*
X1533528D01*
X1534798Y1056006D01*
X1527180Y1062354D02*
X1522102D01*
Y1061084D01*
X1527180Y1056006D01*
Y1054736D01*
X1760848D02*
Y1062354D01*
X1757039D01*
X1755770Y1061084D01*
Y1058545D01*
X1757039Y1057275D01*
X1760848D01*
X1758309D02*
X1755770Y1054736D01*
X1753231D02*
X1750692D01*
X1751961D01*
Y1062354D01*
X1753231Y1061084D01*
X1741804Y1062354D02*
X1746883D01*
Y1058545D01*
X1744344Y1059814D01*
X1743074D01*
X1741804Y1058545D01*
Y1056006D01*
X1743074Y1054736D01*
X1745613D01*
X1746883Y1056006D01*
X1739265Y1053466D02*
X1734187D01*
X1731648Y1061084D02*
X1730378Y1062354D01*
X1727839D01*
X1726569Y1061084D01*
Y1059814D01*
X1727839Y1058545D01*
X1729108D01*
X1727839D01*
X1726569Y1057275D01*
Y1056006D01*
X1727839Y1054736D01*
X1730378D01*
X1731648Y1056006D01*
X1718952Y1062354D02*
X1721491Y1061084D01*
X1724030Y1058545D01*
Y1056006D01*
X1722760Y1054736D01*
X1720221D01*
X1718952Y1056006D01*
Y1057275D01*
X1720221Y1058545D01*
X1724030D01*
X974718Y870586D02*
Y878204D01*
X970909D01*
X969640Y876934D01*
Y874395D01*
X970909Y873125D01*
X974718D01*
X972179D02*
X969640Y870586D01*
X967101D02*
X964561D01*
X965831D01*
Y878204D01*
X967101Y876934D01*
X955674Y878204D02*
X960753D01*
Y874395D01*
X958214Y875664D01*
X956944D01*
X955674Y874395D01*
Y871856D01*
X956944Y870586D01*
X959483D01*
X960753Y871856D01*
X953135Y869316D02*
X948057D01*
X945518Y876934D02*
X944248Y878204D01*
X941709D01*
X940439Y876934D01*
Y875664D01*
X941709Y874395D01*
X942979D01*
X941709D01*
X940439Y873125D01*
Y871856D01*
X941709Y870586D01*
X944248D01*
X945518Y871856D01*
X932822Y878204D02*
X937900D01*
Y874395D01*
X935361Y875664D01*
X934091D01*
X932822Y874395D01*
Y871856D01*
X934091Y870586D01*
X936630D01*
X937900Y871856D01*
X1171568Y870586D02*
Y878204D01*
X1167759D01*
X1166490Y876934D01*
Y874395D01*
X1167759Y873125D01*
X1171568D01*
X1169029D02*
X1166490Y870586D01*
X1163951D02*
X1161412D01*
X1162681D01*
Y878204D01*
X1163951Y876934D01*
X1152524Y878204D02*
X1157603D01*
Y874395D01*
X1155064Y875664D01*
X1153794D01*
X1152524Y874395D01*
Y871856D01*
X1153794Y870586D01*
X1156333D01*
X1157603Y871856D01*
X1149985Y869316D02*
X1144907D01*
X1142368Y876934D02*
X1141098Y878204D01*
X1138559D01*
X1137289Y876934D01*
Y875664D01*
X1138559Y874395D01*
X1139828D01*
X1138559D01*
X1137289Y873125D01*
Y871856D01*
X1138559Y870586D01*
X1141098D01*
X1142368Y871856D01*
X1130941Y870586D02*
Y878204D01*
X1134750Y874395D01*
X1129672D01*
X1368418Y870586D02*
Y878204D01*
X1364609D01*
X1363340Y876934D01*
Y874395D01*
X1364609Y873125D01*
X1368418D01*
X1365879D02*
X1363340Y870586D01*
X1360801D02*
X1358262D01*
X1359531D01*
Y878204D01*
X1360801Y876934D01*
X1349374Y878204D02*
X1354453D01*
Y874395D01*
X1351914Y875664D01*
X1350644D01*
X1349374Y874395D01*
Y871856D01*
X1350644Y870586D01*
X1353183D01*
X1354453Y871856D01*
X1346835Y869316D02*
X1341757D01*
X1339218Y876934D02*
X1337948Y878204D01*
X1335409D01*
X1334139Y876934D01*
Y875664D01*
X1335409Y874395D01*
X1336678D01*
X1335409D01*
X1334139Y873125D01*
Y871856D01*
X1335409Y870586D01*
X1337948D01*
X1339218Y871856D01*
X1331600Y876934D02*
X1330331Y878204D01*
X1327791D01*
X1326522Y876934D01*
Y875664D01*
X1327791Y874395D01*
X1329061D01*
X1327791D01*
X1326522Y873125D01*
Y871856D01*
X1327791Y870586D01*
X1330331D01*
X1331600Y871856D01*
X1565268Y870586D02*
Y878204D01*
X1561459D01*
X1560190Y876934D01*
Y874395D01*
X1561459Y873125D01*
X1565268D01*
X1562729D02*
X1560190Y870586D01*
X1557651D02*
X1555112D01*
X1556381D01*
Y878204D01*
X1557651Y876934D01*
X1546224Y878204D02*
X1551303D01*
Y874395D01*
X1548764Y875664D01*
X1547494D01*
X1546224Y874395D01*
Y871856D01*
X1547494Y870586D01*
X1550033D01*
X1551303Y871856D01*
X1543685Y869316D02*
X1538607D01*
X1536068Y876934D02*
X1534798Y878204D01*
X1532259D01*
X1530989Y876934D01*
Y875664D01*
X1532259Y874395D01*
X1533528D01*
X1532259D01*
X1530989Y873125D01*
Y871856D01*
X1532259Y870586D01*
X1534798D01*
X1536068Y871856D01*
X1523372Y870586D02*
X1528450D01*
X1523372Y875664D01*
Y876934D01*
X1524641Y878204D01*
X1527180D01*
X1528450Y876934D01*
X1759579Y870586D02*
Y878204D01*
X1755770D01*
X1754501Y876934D01*
Y874395D01*
X1755770Y873125D01*
X1759579D01*
X1757040D02*
X1754501Y870586D01*
X1751962D02*
X1749422D01*
X1750692D01*
Y878204D01*
X1751962Y876934D01*
X1740535Y878204D02*
X1745614D01*
Y874395D01*
X1743074Y875664D01*
X1741805D01*
X1740535Y874395D01*
Y871856D01*
X1741805Y870586D01*
X1744344D01*
X1745614Y871856D01*
X1737996Y869316D02*
X1732918D01*
X1730379Y876934D02*
X1729109Y878204D01*
X1726570D01*
X1725300Y876934D01*
Y875664D01*
X1726570Y874395D01*
X1727839D01*
X1726570D01*
X1725300Y873125D01*
Y871856D01*
X1726570Y870586D01*
X1729109D01*
X1730379Y871856D01*
X1722761Y870586D02*
X1720222D01*
X1721491D01*
Y878204D01*
X1722761Y876934D01*
X1762402Y634235D02*
Y641853D01*
X1758593D01*
X1757324Y640583D01*
Y638044D01*
X1758593Y636774D01*
X1762402D01*
X1759863D02*
X1757324Y634235D01*
X1754785D02*
X1752245D01*
X1753515D01*
Y641853D01*
X1754785Y640583D01*
X1743358Y641853D02*
X1748437D01*
Y638044D01*
X1745898Y639314D01*
X1744628D01*
X1743358Y638044D01*
Y635505D01*
X1744628Y634235D01*
X1747167D01*
X1748437Y635505D01*
X1740819Y632966D02*
X1735741D01*
X1733202Y640583D02*
X1731932Y641853D01*
X1729393D01*
X1728123Y640583D01*
Y639314D01*
X1729393Y638044D01*
X1730663D01*
X1729393D01*
X1728123Y636774D01*
Y635505D01*
X1729393Y634235D01*
X1731932D01*
X1733202Y635505D01*
X1725584Y640583D02*
X1724315Y641853D01*
X1721775D01*
X1720506Y640583D01*
Y635505D01*
X1721775Y634235D01*
X1724315D01*
X1725584Y635505D01*
Y640583D01*
X1565268Y634366D02*
Y641984D01*
X1561459D01*
X1560190Y640714D01*
Y638175D01*
X1561459Y636905D01*
X1565268D01*
X1562729D02*
X1560190Y634366D01*
X1557651D02*
X1555112D01*
X1556381D01*
Y641984D01*
X1557651Y640714D01*
X1546224Y641984D02*
X1551303D01*
Y638175D01*
X1548764Y639444D01*
X1547494D01*
X1546224Y638175D01*
Y635636D01*
X1547494Y634366D01*
X1550033D01*
X1551303Y635636D01*
X1543685Y633096D02*
X1538607D01*
X1530989Y634366D02*
X1536068D01*
X1530989Y639444D01*
Y640714D01*
X1532259Y641984D01*
X1534798D01*
X1536068Y640714D01*
X1528450Y635636D02*
X1527180Y634366D01*
X1524641D01*
X1523372Y635636D01*
Y640714D01*
X1524641Y641984D01*
X1527180D01*
X1528450Y640714D01*
Y639444D01*
X1527180Y638175D01*
X1523372D01*
X1368418Y634366D02*
Y641984D01*
X1364609D01*
X1363340Y640714D01*
Y638175D01*
X1364609Y636905D01*
X1368418D01*
X1365879D02*
X1363340Y634366D01*
X1360801D02*
X1358262D01*
X1359531D01*
Y641984D01*
X1360801Y640714D01*
X1349374Y641984D02*
X1354453D01*
Y638175D01*
X1351914Y639444D01*
X1350644D01*
X1349374Y638175D01*
Y635636D01*
X1350644Y634366D01*
X1353183D01*
X1354453Y635636D01*
X1346835Y633096D02*
X1341757D01*
X1334139Y634366D02*
X1339218D01*
X1334139Y639444D01*
Y640714D01*
X1335409Y641984D01*
X1337948D01*
X1339218Y640714D01*
X1331600D02*
X1330331Y641984D01*
X1327791D01*
X1326522Y640714D01*
Y639444D01*
X1327791Y638175D01*
X1326522Y636905D01*
Y635636D01*
X1327791Y634366D01*
X1330331D01*
X1331600Y635636D01*
Y636905D01*
X1330331Y638175D01*
X1331600Y639444D01*
Y640714D01*
X1330331Y638175D02*
X1327791D01*
X1171568Y634366D02*
Y641984D01*
X1167759D01*
X1166490Y640714D01*
Y638175D01*
X1167759Y636905D01*
X1171568D01*
X1169029D02*
X1166490Y634366D01*
X1163951D02*
X1161412D01*
X1162681D01*
Y641984D01*
X1163951Y640714D01*
X1152524Y641984D02*
X1157603D01*
Y638175D01*
X1155064Y639444D01*
X1153794D01*
X1152524Y638175D01*
Y635636D01*
X1153794Y634366D01*
X1156333D01*
X1157603Y635636D01*
X1149985Y633096D02*
X1144907D01*
X1137289Y634366D02*
X1142368D01*
X1137289Y639444D01*
Y640714D01*
X1138559Y641984D01*
X1141098D01*
X1142368Y640714D01*
X1134750Y641984D02*
X1129672D01*
Y640714D01*
X1134750Y635636D01*
Y634366D01*
X975002Y634235D02*
Y641853D01*
X971193D01*
X969924Y640583D01*
Y638044D01*
X971193Y636774D01*
X975002D01*
X972463D02*
X969924Y634235D01*
X967385D02*
X964846D01*
X966115D01*
Y641853D01*
X967385Y640583D01*
X955958Y641853D02*
X961037D01*
Y638044D01*
X958497Y639314D01*
X957228D01*
X955958Y638044D01*
Y635505D01*
X957228Y634235D01*
X959767D01*
X961037Y635505D01*
X953419Y632966D02*
X948341D01*
X940723Y634235D02*
X945802D01*
X940723Y639314D01*
Y640583D01*
X941993Y641853D01*
X944532D01*
X945802Y640583D01*
X933106Y641853D02*
X935645Y640583D01*
X938184Y638044D01*
Y635505D01*
X936915Y634235D01*
X934375D01*
X933106Y635505D01*
Y636774D01*
X934375Y638044D01*
X938184D01*
X1760848Y412116D02*
Y419734D01*
X1757039D01*
X1755770Y418464D01*
Y415925D01*
X1757039Y414655D01*
X1760848D01*
X1758309D02*
X1755770Y412116D01*
X1753231D02*
X1750692D01*
X1751961D01*
Y419734D01*
X1753231Y418464D01*
X1741804Y419734D02*
X1746883D01*
Y415925D01*
X1744344Y417194D01*
X1743074D01*
X1741804Y415925D01*
Y413386D01*
X1743074Y412116D01*
X1745613D01*
X1746883Y413386D01*
X1739265Y410846D02*
X1734187D01*
X1726569Y412116D02*
X1731648D01*
X1726569Y417194D01*
Y418464D01*
X1727839Y419734D01*
X1730378D01*
X1731648Y418464D01*
X1718952Y419734D02*
X1724030D01*
Y415925D01*
X1721491Y417194D01*
X1720221D01*
X1718952Y415925D01*
Y413386D01*
X1720221Y412116D01*
X1722760D01*
X1724030Y413386D01*
X1563998Y412116D02*
Y419734D01*
X1560189D01*
X1558920Y418464D01*
Y415925D01*
X1560189Y414655D01*
X1563998D01*
X1561459D02*
X1558920Y412116D01*
X1556381D02*
X1553842D01*
X1555111D01*
Y419734D01*
X1556381Y418464D01*
X1544954Y419734D02*
X1550033D01*
Y415925D01*
X1547494Y417194D01*
X1546224D01*
X1544954Y415925D01*
Y413386D01*
X1546224Y412116D01*
X1548763D01*
X1550033Y413386D01*
X1542415Y410846D02*
X1537337D01*
X1529719Y412116D02*
X1534798D01*
X1529719Y417194D01*
Y418464D01*
X1530989Y419734D01*
X1533528D01*
X1534798Y418464D01*
X1523371Y412116D02*
Y419734D01*
X1527180Y415925D01*
X1522102D01*
X1367148Y412116D02*
Y419734D01*
X1363339D01*
X1362070Y418464D01*
Y415925D01*
X1363339Y414655D01*
X1367148D01*
X1364609D02*
X1362070Y412116D01*
X1359531D02*
X1356991D01*
X1358261D01*
Y419734D01*
X1359531Y418464D01*
X1348104Y419734D02*
X1353183D01*
Y415925D01*
X1350644Y417194D01*
X1349374D01*
X1348104Y415925D01*
Y413386D01*
X1349374Y412116D01*
X1351913D01*
X1353183Y413386D01*
X1345565Y410846D02*
X1340487D01*
X1332869Y412116D02*
X1337948D01*
X1332869Y417194D01*
Y418464D01*
X1334139Y419734D01*
X1336678D01*
X1337948Y418464D01*
X1330330D02*
X1329061Y419734D01*
X1326521D01*
X1325252Y418464D01*
Y417194D01*
X1326521Y415925D01*
X1327791D01*
X1326521D01*
X1325252Y414655D01*
Y413386D01*
X1326521Y412116D01*
X1329061D01*
X1330330Y413386D01*
X1170298Y412116D02*
Y419734D01*
X1166489D01*
X1165220Y418464D01*
Y415925D01*
X1166489Y414655D01*
X1170298D01*
X1167759D02*
X1165220Y412116D01*
X1162681D02*
X1160142D01*
X1161411D01*
Y419734D01*
X1162681Y418464D01*
X1151254Y419734D02*
X1156333D01*
Y415925D01*
X1153794Y417194D01*
X1152524D01*
X1151254Y415925D01*
Y413386D01*
X1152524Y412116D01*
X1155063D01*
X1156333Y413386D01*
X1148715Y410846D02*
X1143637D01*
X1136019Y412116D02*
X1141098D01*
X1136019Y417194D01*
Y418464D01*
X1137289Y419734D01*
X1139828D01*
X1141098Y418464D01*
X1128402Y412116D02*
X1133480D01*
X1128402Y417194D01*
Y418464D01*
X1129671Y419734D01*
X1132210D01*
X1133480Y418464D01*
X970909Y412116D02*
Y419734D01*
X967100D01*
X965831Y418464D01*
Y415925D01*
X967100Y414655D01*
X970909D01*
X968370D02*
X965831Y412116D01*
X963291D02*
X960752D01*
X962022D01*
Y419734D01*
X963291Y418464D01*
X951865Y419734D02*
X956944D01*
Y415925D01*
X954404Y417194D01*
X953135D01*
X951865Y415925D01*
Y413386D01*
X953135Y412116D01*
X955674D01*
X956944Y413386D01*
X949326Y410846D02*
X944248D01*
X936630Y412116D02*
X941709D01*
X936630Y417194D01*
Y418464D01*
X937900Y419734D01*
X940439D01*
X941709Y418464D01*
X934091Y412116D02*
X931552D01*
X932821D01*
Y419734D01*
X934091Y418464D01*
X1091558Y1054736D02*
Y1062354D01*
X1087749D01*
X1086480Y1061084D01*
Y1058545D01*
X1087749Y1057275D01*
X1091558D01*
X1089019D02*
X1086480Y1054736D01*
X1083941D02*
X1081402D01*
X1082671D01*
Y1062354D01*
X1083941Y1061084D01*
X1073784Y1054736D02*
Y1062354D01*
X1077593Y1058545D01*
X1072514D01*
X1069975Y1053466D02*
X1064897D01*
X1058549Y1054736D02*
Y1062354D01*
X1062358Y1058545D01*
X1057279D01*
X1054740Y1061084D02*
X1053471Y1062354D01*
X1050931D01*
X1049662Y1061084D01*
Y1056006D01*
X1050931Y1054736D01*
X1053471D01*
X1054740Y1056006D01*
Y1061084D01*
X1288408Y1054736D02*
Y1062354D01*
X1284599D01*
X1283330Y1061084D01*
Y1058545D01*
X1284599Y1057275D01*
X1288408D01*
X1285869D02*
X1283330Y1054736D01*
X1280791D02*
X1278251D01*
X1279521D01*
Y1062354D01*
X1280791Y1061084D01*
X1270634Y1054736D02*
Y1062354D01*
X1274443Y1058545D01*
X1269364D01*
X1266825Y1053466D02*
X1261747D01*
X1259208Y1061084D02*
X1257938Y1062354D01*
X1255399D01*
X1254129Y1061084D01*
Y1059814D01*
X1255399Y1058545D01*
X1256668D01*
X1255399D01*
X1254129Y1057275D01*
Y1056006D01*
X1255399Y1054736D01*
X1257938D01*
X1259208Y1056006D01*
X1251590D02*
X1250321Y1054736D01*
X1247781D01*
X1246512Y1056006D01*
Y1061084D01*
X1247781Y1062354D01*
X1250321D01*
X1251590Y1061084D01*
Y1059814D01*
X1250321Y1058545D01*
X1246512D01*
X1485258Y1054736D02*
Y1062354D01*
X1481449D01*
X1480180Y1061084D01*
Y1058545D01*
X1481449Y1057275D01*
X1485258D01*
X1482719D02*
X1480180Y1054736D01*
X1477641D02*
X1475101D01*
X1476371D01*
Y1062354D01*
X1477641Y1061084D01*
X1467484Y1054736D02*
Y1062354D01*
X1471293Y1058545D01*
X1466214D01*
X1463675Y1053466D02*
X1458597D01*
X1456058Y1061084D02*
X1454788Y1062354D01*
X1452249D01*
X1450979Y1061084D01*
Y1059814D01*
X1452249Y1058545D01*
X1453519D01*
X1452249D01*
X1450979Y1057275D01*
Y1056006D01*
X1452249Y1054736D01*
X1454788D01*
X1456058Y1056006D01*
X1448440Y1061084D02*
X1447171Y1062354D01*
X1444631D01*
X1443362Y1061084D01*
Y1059814D01*
X1444631Y1058545D01*
X1443362Y1057275D01*
Y1056006D01*
X1444631Y1054736D01*
X1447171D01*
X1448440Y1056006D01*
Y1057275D01*
X1447171Y1058545D01*
X1448440Y1059814D01*
Y1061084D01*
X1447171Y1058545D02*
X1444631D01*
X1682108Y1054736D02*
Y1062354D01*
X1678299D01*
X1677030Y1061084D01*
Y1058545D01*
X1678299Y1057275D01*
X1682108D01*
X1679569D02*
X1677030Y1054736D01*
X1674491D02*
X1671951D01*
X1673221D01*
Y1062354D01*
X1674491Y1061084D01*
X1664334Y1054736D02*
Y1062354D01*
X1668143Y1058545D01*
X1663064D01*
X1660525Y1053466D02*
X1655447D01*
X1652908Y1061084D02*
X1651638Y1062354D01*
X1649099D01*
X1647829Y1061084D01*
Y1059814D01*
X1649099Y1058545D01*
X1650368D01*
X1649099D01*
X1647829Y1057275D01*
Y1056006D01*
X1649099Y1054736D01*
X1651638D01*
X1652908Y1056006D01*
X1645290Y1062354D02*
X1640212D01*
Y1061084D01*
X1645290Y1056006D01*
Y1054736D01*
X1878958D02*
Y1062354D01*
X1875149D01*
X1873880Y1061084D01*
Y1058545D01*
X1875149Y1057275D01*
X1878958D01*
X1876419D02*
X1873880Y1054736D01*
X1871341D02*
X1868802D01*
X1870071D01*
Y1062354D01*
X1871341Y1061084D01*
X1861184Y1054736D02*
Y1062354D01*
X1864993Y1058545D01*
X1859914D01*
X1857375Y1053466D02*
X1852297D01*
X1849758Y1061084D02*
X1848488Y1062354D01*
X1845949D01*
X1844679Y1061084D01*
Y1059814D01*
X1845949Y1058545D01*
X1847218D01*
X1845949D01*
X1844679Y1057275D01*
Y1056006D01*
X1845949Y1054736D01*
X1848488D01*
X1849758Y1056006D01*
X1837062Y1062354D02*
X1839601Y1061084D01*
X1842140Y1058545D01*
Y1056006D01*
X1840871Y1054736D01*
X1838331D01*
X1837062Y1056006D01*
Y1057275D01*
X1838331Y1058545D01*
X1842140D01*
X1092828Y870586D02*
Y878204D01*
X1089019D01*
X1087750Y876934D01*
Y874395D01*
X1089019Y873125D01*
X1092828D01*
X1090289D02*
X1087750Y870586D01*
X1085211D02*
X1082672D01*
X1083941D01*
Y878204D01*
X1085211Y876934D01*
X1075054Y870586D02*
Y878204D01*
X1078863Y874395D01*
X1073784D01*
X1071245Y869316D02*
X1066167D01*
X1063628Y876934D02*
X1062358Y878204D01*
X1059819D01*
X1058549Y876934D01*
Y875664D01*
X1059819Y874395D01*
X1061088D01*
X1059819D01*
X1058549Y873125D01*
Y871856D01*
X1059819Y870586D01*
X1062358D01*
X1063628Y871856D01*
X1050932Y878204D02*
X1056010D01*
Y874395D01*
X1053471Y875664D01*
X1052201D01*
X1050932Y874395D01*
Y871856D01*
X1052201Y870586D01*
X1054741D01*
X1056010Y871856D01*
X1289678Y870586D02*
Y878204D01*
X1285869D01*
X1284600Y876934D01*
Y874395D01*
X1285869Y873125D01*
X1289678D01*
X1287139D02*
X1284600Y870586D01*
X1282061D02*
X1279521D01*
X1280791D01*
Y878204D01*
X1282061Y876934D01*
X1271904Y870586D02*
Y878204D01*
X1275713Y874395D01*
X1270634D01*
X1268095Y869316D02*
X1263017D01*
X1260478Y876934D02*
X1259208Y878204D01*
X1256669D01*
X1255399Y876934D01*
Y875664D01*
X1256669Y874395D01*
X1257939D01*
X1256669D01*
X1255399Y873125D01*
Y871856D01*
X1256669Y870586D01*
X1259208D01*
X1260478Y871856D01*
X1249051Y870586D02*
Y878204D01*
X1252860Y874395D01*
X1247782D01*
X1486528Y870586D02*
Y878204D01*
X1482719D01*
X1481450Y876934D01*
Y874395D01*
X1482719Y873125D01*
X1486528D01*
X1483989D02*
X1481450Y870586D01*
X1478911D02*
X1476371D01*
X1477641D01*
Y878204D01*
X1478911Y876934D01*
X1468754Y870586D02*
Y878204D01*
X1472563Y874395D01*
X1467484D01*
X1464945Y869316D02*
X1459867D01*
X1457328Y876934D02*
X1456058Y878204D01*
X1453519D01*
X1452249Y876934D01*
Y875664D01*
X1453519Y874395D01*
X1454789D01*
X1453519D01*
X1452249Y873125D01*
Y871856D01*
X1453519Y870586D01*
X1456058D01*
X1457328Y871856D01*
X1449710Y876934D02*
X1448441Y878204D01*
X1445901D01*
X1444632Y876934D01*
Y875664D01*
X1445901Y874395D01*
X1447171D01*
X1445901D01*
X1444632Y873125D01*
Y871856D01*
X1445901Y870586D01*
X1448441D01*
X1449710Y871856D01*
X1683378Y870586D02*
Y878204D01*
X1679569D01*
X1678300Y876934D01*
Y874395D01*
X1679569Y873125D01*
X1683378D01*
X1680839D02*
X1678300Y870586D01*
X1675761D02*
X1673221D01*
X1674491D01*
Y878204D01*
X1675761Y876934D01*
X1665604Y870586D02*
Y878204D01*
X1669413Y874395D01*
X1664334D01*
X1661795Y869316D02*
X1656717D01*
X1654178Y876934D02*
X1652908Y878204D01*
X1650369D01*
X1649099Y876934D01*
Y875664D01*
X1650369Y874395D01*
X1651638D01*
X1650369D01*
X1649099Y873125D01*
Y871856D01*
X1650369Y870586D01*
X1652908D01*
X1654178Y871856D01*
X1641482Y870586D02*
X1646560D01*
X1641482Y875664D01*
Y876934D01*
X1642751Y878204D01*
X1645291D01*
X1646560Y876934D01*
X1877689Y870586D02*
Y878204D01*
X1873880D01*
X1872611Y876934D01*
Y874395D01*
X1873880Y873125D01*
X1877689D01*
X1875150D02*
X1872611Y870586D01*
X1870072D02*
X1867532D01*
X1868802D01*
Y878204D01*
X1870072Y876934D01*
X1859915Y870586D02*
Y878204D01*
X1863724Y874395D01*
X1858645D01*
X1856106Y869316D02*
X1851028D01*
X1848488Y876934D02*
X1847219Y878204D01*
X1844680D01*
X1843410Y876934D01*
Y875664D01*
X1844680Y874395D01*
X1845949D01*
X1844680D01*
X1843410Y873125D01*
Y871856D01*
X1844680Y870586D01*
X1847219D01*
X1848488Y871856D01*
X1840871Y870586D02*
X1838332D01*
X1839601D01*
Y878204D01*
X1840871Y876934D01*
X1880512Y634235D02*
Y641853D01*
X1876703D01*
X1875434Y640583D01*
Y638044D01*
X1876703Y636774D01*
X1880512D01*
X1877973D02*
X1875434Y634235D01*
X1872895D02*
X1870356D01*
X1871625D01*
Y641853D01*
X1872895Y640583D01*
X1862738Y634235D02*
Y641853D01*
X1866547Y638044D01*
X1861468D01*
X1858929Y632966D02*
X1853851D01*
X1851312Y640583D02*
X1850042Y641853D01*
X1847503D01*
X1846233Y640583D01*
Y639314D01*
X1847503Y638044D01*
X1848772D01*
X1847503D01*
X1846233Y636774D01*
Y635505D01*
X1847503Y634235D01*
X1850042D01*
X1851312Y635505D01*
X1843694Y640583D02*
X1842424Y641853D01*
X1839885D01*
X1838616Y640583D01*
Y635505D01*
X1839885Y634235D01*
X1842424D01*
X1843694Y635505D01*
Y640583D01*
X1683378Y634366D02*
Y641984D01*
X1679569D01*
X1678300Y640714D01*
Y638175D01*
X1679569Y636905D01*
X1683378D01*
X1680839D02*
X1678300Y634366D01*
X1675761D02*
X1673221D01*
X1674491D01*
Y641984D01*
X1675761Y640714D01*
X1665604Y634366D02*
Y641984D01*
X1669413Y638175D01*
X1664334D01*
X1661795Y633096D02*
X1656717D01*
X1649099Y634366D02*
X1654178D01*
X1649099Y639444D01*
Y640714D01*
X1650369Y641984D01*
X1652908D01*
X1654178Y640714D01*
X1646560Y635636D02*
X1645291Y634366D01*
X1642751D01*
X1641482Y635636D01*
Y640714D01*
X1642751Y641984D01*
X1645291D01*
X1646560Y640714D01*
Y639444D01*
X1645291Y638175D01*
X1641482D01*
X1486528Y634366D02*
Y641984D01*
X1482719D01*
X1481450Y640714D01*
Y638175D01*
X1482719Y636905D01*
X1486528D01*
X1483989D02*
X1481450Y634366D01*
X1478911D02*
X1476371D01*
X1477641D01*
Y641984D01*
X1478911Y640714D01*
X1468754Y634366D02*
Y641984D01*
X1472563Y638175D01*
X1467484D01*
X1464945Y633096D02*
X1459867D01*
X1452249Y634366D02*
X1457328D01*
X1452249Y639444D01*
Y640714D01*
X1453519Y641984D01*
X1456058D01*
X1457328Y640714D01*
X1449710D02*
X1448441Y641984D01*
X1445901D01*
X1444632Y640714D01*
Y639444D01*
X1445901Y638175D01*
X1444632Y636905D01*
Y635636D01*
X1445901Y634366D01*
X1448441D01*
X1449710Y635636D01*
Y636905D01*
X1448441Y638175D01*
X1449710Y639444D01*
Y640714D01*
X1448441Y638175D02*
X1445901D01*
X1289678Y634366D02*
Y641984D01*
X1285869D01*
X1284600Y640714D01*
Y638175D01*
X1285869Y636905D01*
X1289678D01*
X1287139D02*
X1284600Y634366D01*
X1282061D02*
X1279521D01*
X1280791D01*
Y641984D01*
X1282061Y640714D01*
X1271904Y634366D02*
Y641984D01*
X1275713Y638175D01*
X1270634D01*
X1268095Y633096D02*
X1263017D01*
X1255399Y634366D02*
X1260478D01*
X1255399Y639444D01*
Y640714D01*
X1256669Y641984D01*
X1259208D01*
X1260478Y640714D01*
X1252860Y641984D02*
X1247782D01*
Y640714D01*
X1252860Y635636D01*
Y634366D01*
X1093112Y634235D02*
Y641853D01*
X1089303D01*
X1088034Y640583D01*
Y638044D01*
X1089303Y636774D01*
X1093112D01*
X1090573D02*
X1088034Y634235D01*
X1085495D02*
X1082955D01*
X1084225D01*
Y641853D01*
X1085495Y640583D01*
X1075338Y634235D02*
Y641853D01*
X1079147Y638044D01*
X1074068D01*
X1071529Y632966D02*
X1066451D01*
X1058833Y634235D02*
X1063912D01*
X1058833Y639314D01*
Y640583D01*
X1060103Y641853D01*
X1062642D01*
X1063912Y640583D01*
X1051216Y641853D02*
X1053755Y640583D01*
X1056294Y638044D01*
Y635505D01*
X1055024Y634235D01*
X1052485D01*
X1051216Y635505D01*
Y636774D01*
X1052485Y638044D01*
X1056294D01*
X1878958Y412116D02*
Y419734D01*
X1875149D01*
X1873880Y418464D01*
Y415925D01*
X1875149Y414655D01*
X1878958D01*
X1876419D02*
X1873880Y412116D01*
X1871341D02*
X1868802D01*
X1870071D01*
Y419734D01*
X1871341Y418464D01*
X1861184Y412116D02*
Y419734D01*
X1864993Y415925D01*
X1859914D01*
X1857375Y410846D02*
X1852297D01*
X1844679Y412116D02*
X1849758D01*
X1844679Y417194D01*
Y418464D01*
X1845949Y419734D01*
X1848488D01*
X1849758Y418464D01*
X1837062Y419734D02*
X1842140D01*
Y415925D01*
X1839601Y417194D01*
X1838331D01*
X1837062Y415925D01*
Y413386D01*
X1838331Y412116D01*
X1840871D01*
X1842140Y413386D01*
X1682108Y412116D02*
Y419734D01*
X1678299D01*
X1677030Y418464D01*
Y415925D01*
X1678299Y414655D01*
X1682108D01*
X1679569D02*
X1677030Y412116D01*
X1674491D02*
X1671951D01*
X1673221D01*
Y419734D01*
X1674491Y418464D01*
X1664334Y412116D02*
Y419734D01*
X1668143Y415925D01*
X1663064D01*
X1660525Y410846D02*
X1655447D01*
X1647829Y412116D02*
X1652908D01*
X1647829Y417194D01*
Y418464D01*
X1649099Y419734D01*
X1651638D01*
X1652908Y418464D01*
X1641481Y412116D02*
Y419734D01*
X1645290Y415925D01*
X1640212D01*
X1485258Y412116D02*
Y419734D01*
X1481449D01*
X1480180Y418464D01*
Y415925D01*
X1481449Y414655D01*
X1485258D01*
X1482719D02*
X1480180Y412116D01*
X1477641D02*
X1475101D01*
X1476371D01*
Y419734D01*
X1477641Y418464D01*
X1467484Y412116D02*
Y419734D01*
X1471293Y415925D01*
X1466214D01*
X1463675Y410846D02*
X1458597D01*
X1450979Y412116D02*
X1456058D01*
X1450979Y417194D01*
Y418464D01*
X1452249Y419734D01*
X1454788D01*
X1456058Y418464D01*
X1448440D02*
X1447171Y419734D01*
X1444631D01*
X1443362Y418464D01*
Y417194D01*
X1444631Y415925D01*
X1445901D01*
X1444631D01*
X1443362Y414655D01*
Y413386D01*
X1444631Y412116D01*
X1447171D01*
X1448440Y413386D01*
X1288408Y412116D02*
Y419734D01*
X1284599D01*
X1283330Y418464D01*
Y415925D01*
X1284599Y414655D01*
X1288408D01*
X1285869D02*
X1283330Y412116D01*
X1280791D02*
X1278251D01*
X1279521D01*
Y419734D01*
X1280791Y418464D01*
X1270634Y412116D02*
Y419734D01*
X1274443Y415925D01*
X1269364D01*
X1266825Y410846D02*
X1261747D01*
X1254129Y412116D02*
X1259208D01*
X1254129Y417194D01*
Y418464D01*
X1255399Y419734D01*
X1257938D01*
X1259208Y418464D01*
X1246512Y412116D02*
X1251590D01*
X1246512Y417194D01*
Y418464D01*
X1247781Y419734D01*
X1250321D01*
X1251590Y418464D01*
X1089019Y412116D02*
Y419734D01*
X1085210D01*
X1083941Y418464D01*
Y415925D01*
X1085210Y414655D01*
X1089019D01*
X1086480D02*
X1083941Y412116D01*
X1081402D02*
X1078862D01*
X1080132D01*
Y419734D01*
X1081402Y418464D01*
X1071245Y412116D02*
Y419734D01*
X1075054Y415925D01*
X1069975D01*
X1067436Y410846D02*
X1062358D01*
X1054740Y412116D02*
X1059818D01*
X1054740Y417194D01*
Y418464D01*
X1056010Y419734D01*
X1058549D01*
X1059818Y418464D01*
X1052201Y412116D02*
X1049662D01*
X1050931D01*
Y419734D01*
X1052201Y418464D01*
X973448Y1127126D02*
Y1134744D01*
X969639D01*
X968370Y1133474D01*
Y1130935D01*
X969639Y1129665D01*
X973448D01*
X970909D02*
X968370Y1127126D01*
X965831D02*
X963291D01*
X964561D01*
Y1134744D01*
X965831Y1133474D01*
X959483D02*
X958213Y1134744D01*
X955674D01*
X954404Y1133474D01*
Y1132204D01*
X955674Y1130935D01*
X956944D01*
X955674D01*
X954404Y1129665D01*
Y1128396D01*
X955674Y1127126D01*
X958213D01*
X959483Y1128396D01*
X951865Y1125856D02*
X946787D01*
X940439Y1127126D02*
Y1134744D01*
X944248Y1130935D01*
X939169D01*
X936630Y1133474D02*
X935360Y1134744D01*
X932821D01*
X931552Y1133474D01*
Y1128396D01*
X932821Y1127126D01*
X935360D01*
X936630Y1128396D01*
Y1133474D01*
X1170298Y1127126D02*
Y1134744D01*
X1166489D01*
X1165220Y1133474D01*
Y1130935D01*
X1166489Y1129665D01*
X1170298D01*
X1167759D02*
X1165220Y1127126D01*
X1162681D02*
X1160142D01*
X1161411D01*
Y1134744D01*
X1162681Y1133474D01*
X1156333D02*
X1155063Y1134744D01*
X1152524D01*
X1151254Y1133474D01*
Y1132204D01*
X1152524Y1130935D01*
X1153794D01*
X1152524D01*
X1151254Y1129665D01*
Y1128396D01*
X1152524Y1127126D01*
X1155063D01*
X1156333Y1128396D01*
X1148715Y1125856D02*
X1143637D01*
X1141098Y1133474D02*
X1139828Y1134744D01*
X1137289D01*
X1136019Y1133474D01*
Y1132204D01*
X1137289Y1130935D01*
X1138559D01*
X1137289D01*
X1136019Y1129665D01*
Y1128396D01*
X1137289Y1127126D01*
X1139828D01*
X1141098Y1128396D01*
X1133480D02*
X1132210Y1127126D01*
X1129671D01*
X1128402Y1128396D01*
Y1133474D01*
X1129671Y1134744D01*
X1132210D01*
X1133480Y1133474D01*
Y1132204D01*
X1132210Y1130935D01*
X1128402D01*
X1367148Y1127126D02*
Y1134744D01*
X1363339D01*
X1362070Y1133474D01*
Y1130935D01*
X1363339Y1129665D01*
X1367148D01*
X1364609D02*
X1362070Y1127126D01*
X1359531D02*
X1356991D01*
X1358261D01*
Y1134744D01*
X1359531Y1133474D01*
X1353183D02*
X1351913Y1134744D01*
X1349374D01*
X1348104Y1133474D01*
Y1132204D01*
X1349374Y1130935D01*
X1350644D01*
X1349374D01*
X1348104Y1129665D01*
Y1128396D01*
X1349374Y1127126D01*
X1351913D01*
X1353183Y1128396D01*
X1345565Y1125856D02*
X1340487D01*
X1337948Y1133474D02*
X1336678Y1134744D01*
X1334139D01*
X1332869Y1133474D01*
Y1132204D01*
X1334139Y1130935D01*
X1335408D01*
X1334139D01*
X1332869Y1129665D01*
Y1128396D01*
X1334139Y1127126D01*
X1336678D01*
X1337948Y1128396D01*
X1330330Y1133474D02*
X1329061Y1134744D01*
X1326521D01*
X1325252Y1133474D01*
Y1132204D01*
X1326521Y1130935D01*
X1325252Y1129665D01*
Y1128396D01*
X1326521Y1127126D01*
X1329061D01*
X1330330Y1128396D01*
Y1129665D01*
X1329061Y1130935D01*
X1330330Y1132204D01*
Y1133474D01*
X1329061Y1130935D02*
X1326521D01*
X1563998Y1127126D02*
Y1134744D01*
X1560189D01*
X1558920Y1133474D01*
Y1130935D01*
X1560189Y1129665D01*
X1563998D01*
X1561459D02*
X1558920Y1127126D01*
X1556381D02*
X1553842D01*
X1555111D01*
Y1134744D01*
X1556381Y1133474D01*
X1550033D02*
X1548763Y1134744D01*
X1546224D01*
X1544954Y1133474D01*
Y1132204D01*
X1546224Y1130935D01*
X1547494D01*
X1546224D01*
X1544954Y1129665D01*
Y1128396D01*
X1546224Y1127126D01*
X1548763D01*
X1550033Y1128396D01*
X1542415Y1125856D02*
X1537337D01*
X1534798Y1133474D02*
X1533528Y1134744D01*
X1530989D01*
X1529719Y1133474D01*
Y1132204D01*
X1530989Y1130935D01*
X1532258D01*
X1530989D01*
X1529719Y1129665D01*
Y1128396D01*
X1530989Y1127126D01*
X1533528D01*
X1534798Y1128396D01*
X1527180Y1134744D02*
X1522102D01*
Y1133474D01*
X1527180Y1128396D01*
Y1127126D01*
X1760848D02*
Y1134744D01*
X1757039D01*
X1755770Y1133474D01*
Y1130935D01*
X1757039Y1129665D01*
X1760848D01*
X1758309D02*
X1755770Y1127126D01*
X1753231D02*
X1750692D01*
X1751961D01*
Y1134744D01*
X1753231Y1133474D01*
X1746883D02*
X1745613Y1134744D01*
X1743074D01*
X1741804Y1133474D01*
Y1132204D01*
X1743074Y1130935D01*
X1744344D01*
X1743074D01*
X1741804Y1129665D01*
Y1128396D01*
X1743074Y1127126D01*
X1745613D01*
X1746883Y1128396D01*
X1739265Y1125856D02*
X1734187D01*
X1731648Y1133474D02*
X1730378Y1134744D01*
X1727839D01*
X1726569Y1133474D01*
Y1132204D01*
X1727839Y1130935D01*
X1729108D01*
X1727839D01*
X1726569Y1129665D01*
Y1128396D01*
X1727839Y1127126D01*
X1730378D01*
X1731648Y1128396D01*
X1718952Y1134744D02*
X1721491Y1133474D01*
X1724030Y1130935D01*
Y1128396D01*
X1722760Y1127126D01*
X1720221D01*
X1718952Y1128396D01*
Y1129665D01*
X1720221Y1130935D01*
X1724030D01*
X974718Y942976D02*
Y950594D01*
X970909D01*
X969640Y949324D01*
Y946785D01*
X970909Y945515D01*
X974718D01*
X972179D02*
X969640Y942976D01*
X967101D02*
X964561D01*
X965831D01*
Y950594D01*
X967101Y949324D01*
X960753D02*
X959483Y950594D01*
X956944D01*
X955674Y949324D01*
Y948054D01*
X956944Y946785D01*
X958214D01*
X956944D01*
X955674Y945515D01*
Y944246D01*
X956944Y942976D01*
X959483D01*
X960753Y944246D01*
X953135Y941706D02*
X948057D01*
X945518Y949324D02*
X944248Y950594D01*
X941709D01*
X940439Y949324D01*
Y948054D01*
X941709Y946785D01*
X942979D01*
X941709D01*
X940439Y945515D01*
Y944246D01*
X941709Y942976D01*
X944248D01*
X945518Y944246D01*
X932822Y950594D02*
X937900D01*
Y946785D01*
X935361Y948054D01*
X934091D01*
X932822Y946785D01*
Y944246D01*
X934091Y942976D01*
X936630D01*
X937900Y944246D01*
X1171568Y942976D02*
Y950594D01*
X1167759D01*
X1166490Y949324D01*
Y946785D01*
X1167759Y945515D01*
X1171568D01*
X1169029D02*
X1166490Y942976D01*
X1163951D02*
X1161412D01*
X1162681D01*
Y950594D01*
X1163951Y949324D01*
X1157603D02*
X1156333Y950594D01*
X1153794D01*
X1152524Y949324D01*
Y948054D01*
X1153794Y946785D01*
X1155064D01*
X1153794D01*
X1152524Y945515D01*
Y944246D01*
X1153794Y942976D01*
X1156333D01*
X1157603Y944246D01*
X1149985Y941706D02*
X1144907D01*
X1142368Y949324D02*
X1141098Y950594D01*
X1138559D01*
X1137289Y949324D01*
Y948054D01*
X1138559Y946785D01*
X1139828D01*
X1138559D01*
X1137289Y945515D01*
Y944246D01*
X1138559Y942976D01*
X1141098D01*
X1142368Y944246D01*
X1130941Y942976D02*
Y950594D01*
X1134750Y946785D01*
X1129672D01*
X1368418Y942976D02*
Y950594D01*
X1364609D01*
X1363340Y949324D01*
Y946785D01*
X1364609Y945515D01*
X1368418D01*
X1365879D02*
X1363340Y942976D01*
X1360801D02*
X1358262D01*
X1359531D01*
Y950594D01*
X1360801Y949324D01*
X1354453D02*
X1353183Y950594D01*
X1350644D01*
X1349374Y949324D01*
Y948054D01*
X1350644Y946785D01*
X1351914D01*
X1350644D01*
X1349374Y945515D01*
Y944246D01*
X1350644Y942976D01*
X1353183D01*
X1354453Y944246D01*
X1346835Y941706D02*
X1341757D01*
X1339218Y949324D02*
X1337948Y950594D01*
X1335409D01*
X1334139Y949324D01*
Y948054D01*
X1335409Y946785D01*
X1336678D01*
X1335409D01*
X1334139Y945515D01*
Y944246D01*
X1335409Y942976D01*
X1337948D01*
X1339218Y944246D01*
X1331600Y949324D02*
X1330331Y950594D01*
X1327791D01*
X1326522Y949324D01*
Y948054D01*
X1327791Y946785D01*
X1329061D01*
X1327791D01*
X1326522Y945515D01*
Y944246D01*
X1327791Y942976D01*
X1330331D01*
X1331600Y944246D01*
X1565268Y942976D02*
Y950594D01*
X1561459D01*
X1560190Y949324D01*
Y946785D01*
X1561459Y945515D01*
X1565268D01*
X1562729D02*
X1560190Y942976D01*
X1557651D02*
X1555112D01*
X1556381D01*
Y950594D01*
X1557651Y949324D01*
X1551303D02*
X1550033Y950594D01*
X1547494D01*
X1546224Y949324D01*
Y948054D01*
X1547494Y946785D01*
X1548764D01*
X1547494D01*
X1546224Y945515D01*
Y944246D01*
X1547494Y942976D01*
X1550033D01*
X1551303Y944246D01*
X1543685Y941706D02*
X1538607D01*
X1536068Y949324D02*
X1534798Y950594D01*
X1532259D01*
X1530989Y949324D01*
Y948054D01*
X1532259Y946785D01*
X1533528D01*
X1532259D01*
X1530989Y945515D01*
Y944246D01*
X1532259Y942976D01*
X1534798D01*
X1536068Y944246D01*
X1523372Y942976D02*
X1528450D01*
X1523372Y948054D01*
Y949324D01*
X1524641Y950594D01*
X1527180D01*
X1528450Y949324D01*
X1759579Y942976D02*
Y950594D01*
X1755770D01*
X1754501Y949324D01*
Y946785D01*
X1755770Y945515D01*
X1759579D01*
X1757040D02*
X1754501Y942976D01*
X1751962D02*
X1749422D01*
X1750692D01*
Y950594D01*
X1751962Y949324D01*
X1745614D02*
X1744344Y950594D01*
X1741805D01*
X1740535Y949324D01*
Y948054D01*
X1741805Y946785D01*
X1743074D01*
X1741805D01*
X1740535Y945515D01*
Y944246D01*
X1741805Y942976D01*
X1744344D01*
X1745614Y944246D01*
X1737996Y941706D02*
X1732918D01*
X1730379Y949324D02*
X1729109Y950594D01*
X1726570D01*
X1725300Y949324D01*
Y948054D01*
X1726570Y946785D01*
X1727839D01*
X1726570D01*
X1725300Y945515D01*
Y944246D01*
X1726570Y942976D01*
X1729109D01*
X1730379Y944246D01*
X1722761Y942976D02*
X1720222D01*
X1721491D01*
Y950594D01*
X1722761Y949324D01*
X1762402Y706625D02*
Y714243D01*
X1758593D01*
X1757324Y712973D01*
Y710434D01*
X1758593Y709164D01*
X1762402D01*
X1759863D02*
X1757324Y706625D01*
X1754785D02*
X1752245D01*
X1753515D01*
Y714243D01*
X1754785Y712973D01*
X1748437D02*
X1747167Y714243D01*
X1744628D01*
X1743358Y712973D01*
Y711704D01*
X1744628Y710434D01*
X1745898D01*
X1744628D01*
X1743358Y709164D01*
Y707895D01*
X1744628Y706625D01*
X1747167D01*
X1748437Y707895D01*
X1740819Y705356D02*
X1735741D01*
X1733202Y712973D02*
X1731932Y714243D01*
X1729393D01*
X1728123Y712973D01*
Y711704D01*
X1729393Y710434D01*
X1730663D01*
X1729393D01*
X1728123Y709164D01*
Y707895D01*
X1729393Y706625D01*
X1731932D01*
X1733202Y707895D01*
X1725584Y712973D02*
X1724315Y714243D01*
X1721775D01*
X1720506Y712973D01*
Y707895D01*
X1721775Y706625D01*
X1724315D01*
X1725584Y707895D01*
Y712973D01*
X1565268Y706756D02*
Y714374D01*
X1561459D01*
X1560190Y713104D01*
Y710565D01*
X1561459Y709295D01*
X1565268D01*
X1562729D02*
X1560190Y706756D01*
X1557651D02*
X1555112D01*
X1556381D01*
Y714374D01*
X1557651Y713104D01*
X1551303D02*
X1550033Y714374D01*
X1547494D01*
X1546224Y713104D01*
Y711834D01*
X1547494Y710565D01*
X1548764D01*
X1547494D01*
X1546224Y709295D01*
Y708026D01*
X1547494Y706756D01*
X1550033D01*
X1551303Y708026D01*
X1543685Y705486D02*
X1538607D01*
X1530989Y706756D02*
X1536068D01*
X1530989Y711834D01*
Y713104D01*
X1532259Y714374D01*
X1534798D01*
X1536068Y713104D01*
X1528450Y708026D02*
X1527180Y706756D01*
X1524641D01*
X1523372Y708026D01*
Y713104D01*
X1524641Y714374D01*
X1527180D01*
X1528450Y713104D01*
Y711834D01*
X1527180Y710565D01*
X1523372D01*
X1368418Y706756D02*
Y714374D01*
X1364609D01*
X1363340Y713104D01*
Y710565D01*
X1364609Y709295D01*
X1368418D01*
X1365879D02*
X1363340Y706756D01*
X1360801D02*
X1358262D01*
X1359531D01*
Y714374D01*
X1360801Y713104D01*
X1354453D02*
X1353183Y714374D01*
X1350644D01*
X1349374Y713104D01*
Y711834D01*
X1350644Y710565D01*
X1351914D01*
X1350644D01*
X1349374Y709295D01*
Y708026D01*
X1350644Y706756D01*
X1353183D01*
X1354453Y708026D01*
X1346835Y705486D02*
X1341757D01*
X1334139Y706756D02*
X1339218D01*
X1334139Y711834D01*
Y713104D01*
X1335409Y714374D01*
X1337948D01*
X1339218Y713104D01*
X1331600D02*
X1330331Y714374D01*
X1327791D01*
X1326522Y713104D01*
Y711834D01*
X1327791Y710565D01*
X1326522Y709295D01*
Y708026D01*
X1327791Y706756D01*
X1330331D01*
X1331600Y708026D01*
Y709295D01*
X1330331Y710565D01*
X1331600Y711834D01*
Y713104D01*
X1330331Y710565D02*
X1327791D01*
X1171568Y706756D02*
Y714374D01*
X1167759D01*
X1166490Y713104D01*
Y710565D01*
X1167759Y709295D01*
X1171568D01*
X1169029D02*
X1166490Y706756D01*
X1163951D02*
X1161412D01*
X1162681D01*
Y714374D01*
X1163951Y713104D01*
X1157603D02*
X1156333Y714374D01*
X1153794D01*
X1152524Y713104D01*
Y711834D01*
X1153794Y710565D01*
X1155064D01*
X1153794D01*
X1152524Y709295D01*
Y708026D01*
X1153794Y706756D01*
X1156333D01*
X1157603Y708026D01*
X1149985Y705486D02*
X1144907D01*
X1137289Y706756D02*
X1142368D01*
X1137289Y711834D01*
Y713104D01*
X1138559Y714374D01*
X1141098D01*
X1142368Y713104D01*
X1134750Y714374D02*
X1129672D01*
Y713104D01*
X1134750Y708026D01*
Y706756D01*
X975002Y706625D02*
Y714243D01*
X971193D01*
X969924Y712973D01*
Y710434D01*
X971193Y709164D01*
X975002D01*
X972463D02*
X969924Y706625D01*
X967385D02*
X964846D01*
X966115D01*
Y714243D01*
X967385Y712973D01*
X961037D02*
X959767Y714243D01*
X957228D01*
X955958Y712973D01*
Y711704D01*
X957228Y710434D01*
X958497D01*
X957228D01*
X955958Y709164D01*
Y707895D01*
X957228Y706625D01*
X959767D01*
X961037Y707895D01*
X953419Y705356D02*
X948341D01*
X940723Y706625D02*
X945802D01*
X940723Y711704D01*
Y712973D01*
X941993Y714243D01*
X944532D01*
X945802Y712973D01*
X933106Y714243D02*
X935645Y712973D01*
X938184Y710434D01*
Y707895D01*
X936915Y706625D01*
X934375D01*
X933106Y707895D01*
Y709164D01*
X934375Y710434D01*
X938184D01*
X1760848Y484506D02*
Y492124D01*
X1757039D01*
X1755770Y490854D01*
Y488315D01*
X1757039Y487045D01*
X1760848D01*
X1758309D02*
X1755770Y484506D01*
X1753231D02*
X1750692D01*
X1751961D01*
Y492124D01*
X1753231Y490854D01*
X1746883D02*
X1745613Y492124D01*
X1743074D01*
X1741804Y490854D01*
Y489584D01*
X1743074Y488315D01*
X1744344D01*
X1743074D01*
X1741804Y487045D01*
Y485776D01*
X1743074Y484506D01*
X1745613D01*
X1746883Y485776D01*
X1739265Y483236D02*
X1734187D01*
X1726569Y484506D02*
X1731648D01*
X1726569Y489584D01*
Y490854D01*
X1727839Y492124D01*
X1730378D01*
X1731648Y490854D01*
X1718952Y492124D02*
X1724030D01*
Y488315D01*
X1721491Y489584D01*
X1720221D01*
X1718952Y488315D01*
Y485776D01*
X1720221Y484506D01*
X1722760D01*
X1724030Y485776D01*
X1563998Y484506D02*
Y492124D01*
X1560189D01*
X1558920Y490854D01*
Y488315D01*
X1560189Y487045D01*
X1563998D01*
X1561459D02*
X1558920Y484506D01*
X1556381D02*
X1553842D01*
X1555111D01*
Y492124D01*
X1556381Y490854D01*
X1550033D02*
X1548763Y492124D01*
X1546224D01*
X1544954Y490854D01*
Y489584D01*
X1546224Y488315D01*
X1547494D01*
X1546224D01*
X1544954Y487045D01*
Y485776D01*
X1546224Y484506D01*
X1548763D01*
X1550033Y485776D01*
X1542415Y483236D02*
X1537337D01*
X1529719Y484506D02*
X1534798D01*
X1529719Y489584D01*
Y490854D01*
X1530989Y492124D01*
X1533528D01*
X1534798Y490854D01*
X1523371Y484506D02*
Y492124D01*
X1527180Y488315D01*
X1522102D01*
X1367148Y484506D02*
Y492124D01*
X1363339D01*
X1362070Y490854D01*
Y488315D01*
X1363339Y487045D01*
X1367148D01*
X1364609D02*
X1362070Y484506D01*
X1359531D02*
X1356991D01*
X1358261D01*
Y492124D01*
X1359531Y490854D01*
X1353183D02*
X1351913Y492124D01*
X1349374D01*
X1348104Y490854D01*
Y489584D01*
X1349374Y488315D01*
X1350644D01*
X1349374D01*
X1348104Y487045D01*
Y485776D01*
X1349374Y484506D01*
X1351913D01*
X1353183Y485776D01*
X1345565Y483236D02*
X1340487D01*
X1332869Y484506D02*
X1337948D01*
X1332869Y489584D01*
Y490854D01*
X1334139Y492124D01*
X1336678D01*
X1337948Y490854D01*
X1330330D02*
X1329061Y492124D01*
X1326521D01*
X1325252Y490854D01*
Y489584D01*
X1326521Y488315D01*
X1327791D01*
X1326521D01*
X1325252Y487045D01*
Y485776D01*
X1326521Y484506D01*
X1329061D01*
X1330330Y485776D01*
X1170298Y484506D02*
Y492124D01*
X1166489D01*
X1165220Y490854D01*
Y488315D01*
X1166489Y487045D01*
X1170298D01*
X1167759D02*
X1165220Y484506D01*
X1162681D02*
X1160142D01*
X1161411D01*
Y492124D01*
X1162681Y490854D01*
X1156333D02*
X1155063Y492124D01*
X1152524D01*
X1151254Y490854D01*
Y489584D01*
X1152524Y488315D01*
X1153794D01*
X1152524D01*
X1151254Y487045D01*
Y485776D01*
X1152524Y484506D01*
X1155063D01*
X1156333Y485776D01*
X1148715Y483236D02*
X1143637D01*
X1136019Y484506D02*
X1141098D01*
X1136019Y489584D01*
Y490854D01*
X1137289Y492124D01*
X1139828D01*
X1141098Y490854D01*
X1128402Y484506D02*
X1133480D01*
X1128402Y489584D01*
Y490854D01*
X1129671Y492124D01*
X1132210D01*
X1133480Y490854D01*
X970909Y484506D02*
Y492124D01*
X967100D01*
X965831Y490854D01*
Y488315D01*
X967100Y487045D01*
X970909D01*
X968370D02*
X965831Y484506D01*
X963291D02*
X960752D01*
X962022D01*
Y492124D01*
X963291Y490854D01*
X956944D02*
X955674Y492124D01*
X953135D01*
X951865Y490854D01*
Y489584D01*
X953135Y488315D01*
X954404D01*
X953135D01*
X951865Y487045D01*
Y485776D01*
X953135Y484506D01*
X955674D01*
X956944Y485776D01*
X949326Y483236D02*
X944248D01*
X936630Y484506D02*
X941709D01*
X936630Y489584D01*
Y490854D01*
X937900Y492124D01*
X940439D01*
X941709Y490854D01*
X934091Y484506D02*
X931552D01*
X932821D01*
Y492124D01*
X934091Y490854D01*
X1091558Y1127126D02*
Y1134744D01*
X1087749D01*
X1086480Y1133474D01*
Y1130935D01*
X1087749Y1129665D01*
X1091558D01*
X1089019D02*
X1086480Y1127126D01*
X1083941D02*
X1081402D01*
X1082671D01*
Y1134744D01*
X1083941Y1133474D01*
X1072514Y1127126D02*
X1077593D01*
X1072514Y1132204D01*
Y1133474D01*
X1073784Y1134744D01*
X1076323D01*
X1077593Y1133474D01*
X1069975Y1125856D02*
X1064897D01*
X1058549Y1127126D02*
Y1134744D01*
X1062358Y1130935D01*
X1057279D01*
X1054740Y1133474D02*
X1053471Y1134744D01*
X1050931D01*
X1049662Y1133474D01*
Y1128396D01*
X1050931Y1127126D01*
X1053471D01*
X1054740Y1128396D01*
Y1133474D01*
X1288408Y1127126D02*
Y1134744D01*
X1284599D01*
X1283330Y1133474D01*
Y1130935D01*
X1284599Y1129665D01*
X1288408D01*
X1285869D02*
X1283330Y1127126D01*
X1280791D02*
X1278251D01*
X1279521D01*
Y1134744D01*
X1280791Y1133474D01*
X1269364Y1127126D02*
X1274443D01*
X1269364Y1132204D01*
Y1133474D01*
X1270634Y1134744D01*
X1273173D01*
X1274443Y1133474D01*
X1266825Y1125856D02*
X1261747D01*
X1259208Y1133474D02*
X1257938Y1134744D01*
X1255399D01*
X1254129Y1133474D01*
Y1132204D01*
X1255399Y1130935D01*
X1256668D01*
X1255399D01*
X1254129Y1129665D01*
Y1128396D01*
X1255399Y1127126D01*
X1257938D01*
X1259208Y1128396D01*
X1251590D02*
X1250321Y1127126D01*
X1247781D01*
X1246512Y1128396D01*
Y1133474D01*
X1247781Y1134744D01*
X1250321D01*
X1251590Y1133474D01*
Y1132204D01*
X1250321Y1130935D01*
X1246512D01*
X1485258Y1127126D02*
Y1134744D01*
X1481449D01*
X1480180Y1133474D01*
Y1130935D01*
X1481449Y1129665D01*
X1485258D01*
X1482719D02*
X1480180Y1127126D01*
X1477641D02*
X1475101D01*
X1476371D01*
Y1134744D01*
X1477641Y1133474D01*
X1466214Y1127126D02*
X1471293D01*
X1466214Y1132204D01*
Y1133474D01*
X1467484Y1134744D01*
X1470023D01*
X1471293Y1133474D01*
X1463675Y1125856D02*
X1458597D01*
X1456058Y1133474D02*
X1454788Y1134744D01*
X1452249D01*
X1450979Y1133474D01*
Y1132204D01*
X1452249Y1130935D01*
X1453519D01*
X1452249D01*
X1450979Y1129665D01*
Y1128396D01*
X1452249Y1127126D01*
X1454788D01*
X1456058Y1128396D01*
X1448440Y1133474D02*
X1447171Y1134744D01*
X1444631D01*
X1443362Y1133474D01*
Y1132204D01*
X1444631Y1130935D01*
X1443362Y1129665D01*
Y1128396D01*
X1444631Y1127126D01*
X1447171D01*
X1448440Y1128396D01*
Y1129665D01*
X1447171Y1130935D01*
X1448440Y1132204D01*
Y1133474D01*
X1447171Y1130935D02*
X1444631D01*
X1682108Y1127126D02*
Y1134744D01*
X1678299D01*
X1677030Y1133474D01*
Y1130935D01*
X1678299Y1129665D01*
X1682108D01*
X1679569D02*
X1677030Y1127126D01*
X1674491D02*
X1671951D01*
X1673221D01*
Y1134744D01*
X1674491Y1133474D01*
X1663064Y1127126D02*
X1668143D01*
X1663064Y1132204D01*
Y1133474D01*
X1664334Y1134744D01*
X1666873D01*
X1668143Y1133474D01*
X1660525Y1125856D02*
X1655447D01*
X1652908Y1133474D02*
X1651638Y1134744D01*
X1649099D01*
X1647829Y1133474D01*
Y1132204D01*
X1649099Y1130935D01*
X1650368D01*
X1649099D01*
X1647829Y1129665D01*
Y1128396D01*
X1649099Y1127126D01*
X1651638D01*
X1652908Y1128396D01*
X1645290Y1134744D02*
X1640212D01*
Y1133474D01*
X1645290Y1128396D01*
Y1127126D01*
X1878958D02*
Y1134744D01*
X1875149D01*
X1873880Y1133474D01*
Y1130935D01*
X1875149Y1129665D01*
X1878958D01*
X1876419D02*
X1873880Y1127126D01*
X1871341D02*
X1868802D01*
X1870071D01*
Y1134744D01*
X1871341Y1133474D01*
X1859914Y1127126D02*
X1864993D01*
X1859914Y1132204D01*
Y1133474D01*
X1861184Y1134744D01*
X1863723D01*
X1864993Y1133474D01*
X1857375Y1125856D02*
X1852297D01*
X1849758Y1133474D02*
X1848488Y1134744D01*
X1845949D01*
X1844679Y1133474D01*
Y1132204D01*
X1845949Y1130935D01*
X1847218D01*
X1845949D01*
X1844679Y1129665D01*
Y1128396D01*
X1845949Y1127126D01*
X1848488D01*
X1849758Y1128396D01*
X1837062Y1134744D02*
X1839601Y1133474D01*
X1842140Y1130935D01*
Y1128396D01*
X1840871Y1127126D01*
X1838331D01*
X1837062Y1128396D01*
Y1129665D01*
X1838331Y1130935D01*
X1842140D01*
X1092828Y942976D02*
Y950594D01*
X1089019D01*
X1087750Y949324D01*
Y946785D01*
X1089019Y945515D01*
X1092828D01*
X1090289D02*
X1087750Y942976D01*
X1085211D02*
X1082672D01*
X1083941D01*
Y950594D01*
X1085211Y949324D01*
X1073784Y942976D02*
X1078863D01*
X1073784Y948054D01*
Y949324D01*
X1075054Y950594D01*
X1077593D01*
X1078863Y949324D01*
X1071245Y941706D02*
X1066167D01*
X1063628Y949324D02*
X1062358Y950594D01*
X1059819D01*
X1058549Y949324D01*
Y948054D01*
X1059819Y946785D01*
X1061088D01*
X1059819D01*
X1058549Y945515D01*
Y944246D01*
X1059819Y942976D01*
X1062358D01*
X1063628Y944246D01*
X1050932Y950594D02*
X1056010D01*
Y946785D01*
X1053471Y948054D01*
X1052201D01*
X1050932Y946785D01*
Y944246D01*
X1052201Y942976D01*
X1054741D01*
X1056010Y944246D01*
X1289678Y942976D02*
Y950594D01*
X1285869D01*
X1284600Y949324D01*
Y946785D01*
X1285869Y945515D01*
X1289678D01*
X1287139D02*
X1284600Y942976D01*
X1282061D02*
X1279521D01*
X1280791D01*
Y950594D01*
X1282061Y949324D01*
X1270634Y942976D02*
X1275713D01*
X1270634Y948054D01*
Y949324D01*
X1271904Y950594D01*
X1274443D01*
X1275713Y949324D01*
X1268095Y941706D02*
X1263017D01*
X1260478Y949324D02*
X1259208Y950594D01*
X1256669D01*
X1255399Y949324D01*
Y948054D01*
X1256669Y946785D01*
X1257939D01*
X1256669D01*
X1255399Y945515D01*
Y944246D01*
X1256669Y942976D01*
X1259208D01*
X1260478Y944246D01*
X1249051Y942976D02*
Y950594D01*
X1252860Y946785D01*
X1247782D01*
X1486528Y942976D02*
Y950594D01*
X1482719D01*
X1481450Y949324D01*
Y946785D01*
X1482719Y945515D01*
X1486528D01*
X1483989D02*
X1481450Y942976D01*
X1478911D02*
X1476371D01*
X1477641D01*
Y950594D01*
X1478911Y949324D01*
X1467484Y942976D02*
X1472563D01*
X1467484Y948054D01*
Y949324D01*
X1468754Y950594D01*
X1471293D01*
X1472563Y949324D01*
X1464945Y941706D02*
X1459867D01*
X1457328Y949324D02*
X1456058Y950594D01*
X1453519D01*
X1452249Y949324D01*
Y948054D01*
X1453519Y946785D01*
X1454789D01*
X1453519D01*
X1452249Y945515D01*
Y944246D01*
X1453519Y942976D01*
X1456058D01*
X1457328Y944246D01*
X1449710Y949324D02*
X1448441Y950594D01*
X1445901D01*
X1444632Y949324D01*
Y948054D01*
X1445901Y946785D01*
X1447171D01*
X1445901D01*
X1444632Y945515D01*
Y944246D01*
X1445901Y942976D01*
X1448441D01*
X1449710Y944246D01*
X1683378Y942976D02*
Y950594D01*
X1679569D01*
X1678300Y949324D01*
Y946785D01*
X1679569Y945515D01*
X1683378D01*
X1680839D02*
X1678300Y942976D01*
X1675761D02*
X1673221D01*
X1674491D01*
Y950594D01*
X1675761Y949324D01*
X1664334Y942976D02*
X1669413D01*
X1664334Y948054D01*
Y949324D01*
X1665604Y950594D01*
X1668143D01*
X1669413Y949324D01*
X1661795Y941706D02*
X1656717D01*
X1654178Y949324D02*
X1652908Y950594D01*
X1650369D01*
X1649099Y949324D01*
Y948054D01*
X1650369Y946785D01*
X1651638D01*
X1650369D01*
X1649099Y945515D01*
Y944246D01*
X1650369Y942976D01*
X1652908D01*
X1654178Y944246D01*
X1641482Y942976D02*
X1646560D01*
X1641482Y948054D01*
Y949324D01*
X1642751Y950594D01*
X1645291D01*
X1646560Y949324D01*
X1877689Y942976D02*
Y950594D01*
X1873880D01*
X1872611Y949324D01*
Y946785D01*
X1873880Y945515D01*
X1877689D01*
X1875150D02*
X1872611Y942976D01*
X1870072D02*
X1867532D01*
X1868802D01*
Y950594D01*
X1870072Y949324D01*
X1858645Y942976D02*
X1863724D01*
X1858645Y948054D01*
Y949324D01*
X1859915Y950594D01*
X1862454D01*
X1863724Y949324D01*
X1856106Y941706D02*
X1851028D01*
X1848488Y949324D02*
X1847219Y950594D01*
X1844680D01*
X1843410Y949324D01*
Y948054D01*
X1844680Y946785D01*
X1845949D01*
X1844680D01*
X1843410Y945515D01*
Y944246D01*
X1844680Y942976D01*
X1847219D01*
X1848488Y944246D01*
X1840871Y942976D02*
X1838332D01*
X1839601D01*
Y950594D01*
X1840871Y949324D01*
X1880512Y706625D02*
Y714243D01*
X1876703D01*
X1875434Y712973D01*
Y710434D01*
X1876703Y709164D01*
X1880512D01*
X1877973D02*
X1875434Y706625D01*
X1872895D02*
X1870356D01*
X1871625D01*
Y714243D01*
X1872895Y712973D01*
X1861468Y706625D02*
X1866547D01*
X1861468Y711704D01*
Y712973D01*
X1862738Y714243D01*
X1865277D01*
X1866547Y712973D01*
X1858929Y705356D02*
X1853851D01*
X1851312Y712973D02*
X1850042Y714243D01*
X1847503D01*
X1846233Y712973D01*
Y711704D01*
X1847503Y710434D01*
X1848772D01*
X1847503D01*
X1846233Y709164D01*
Y707895D01*
X1847503Y706625D01*
X1850042D01*
X1851312Y707895D01*
X1843694Y712973D02*
X1842424Y714243D01*
X1839885D01*
X1838616Y712973D01*
Y707895D01*
X1839885Y706625D01*
X1842424D01*
X1843694Y707895D01*
Y712973D01*
X1683378Y706756D02*
Y714374D01*
X1679569D01*
X1678300Y713104D01*
Y710565D01*
X1679569Y709295D01*
X1683378D01*
X1680839D02*
X1678300Y706756D01*
X1675761D02*
X1673221D01*
X1674491D01*
Y714374D01*
X1675761Y713104D01*
X1664334Y706756D02*
X1669413D01*
X1664334Y711834D01*
Y713104D01*
X1665604Y714374D01*
X1668143D01*
X1669413Y713104D01*
X1661795Y705486D02*
X1656717D01*
X1649099Y706756D02*
X1654178D01*
X1649099Y711834D01*
Y713104D01*
X1650369Y714374D01*
X1652908D01*
X1654178Y713104D01*
X1646560Y708026D02*
X1645291Y706756D01*
X1642751D01*
X1641482Y708026D01*
Y713104D01*
X1642751Y714374D01*
X1645291D01*
X1646560Y713104D01*
Y711834D01*
X1645291Y710565D01*
X1641482D01*
X1486528Y706756D02*
Y714374D01*
X1482719D01*
X1481450Y713104D01*
Y710565D01*
X1482719Y709295D01*
X1486528D01*
X1483989D02*
X1481450Y706756D01*
X1478911D02*
X1476371D01*
X1477641D01*
Y714374D01*
X1478911Y713104D01*
X1467484Y706756D02*
X1472563D01*
X1467484Y711834D01*
Y713104D01*
X1468754Y714374D01*
X1471293D01*
X1472563Y713104D01*
X1464945Y705486D02*
X1459867D01*
X1452249Y706756D02*
X1457328D01*
X1452249Y711834D01*
Y713104D01*
X1453519Y714374D01*
X1456058D01*
X1457328Y713104D01*
X1449710D02*
X1448441Y714374D01*
X1445901D01*
X1444632Y713104D01*
Y711834D01*
X1445901Y710565D01*
X1444632Y709295D01*
Y708026D01*
X1445901Y706756D01*
X1448441D01*
X1449710Y708026D01*
Y709295D01*
X1448441Y710565D01*
X1449710Y711834D01*
Y713104D01*
X1448441Y710565D02*
X1445901D01*
X1289678Y706756D02*
Y714374D01*
X1285869D01*
X1284600Y713104D01*
Y710565D01*
X1285869Y709295D01*
X1289678D01*
X1287139D02*
X1284600Y706756D01*
X1282061D02*
X1279521D01*
X1280791D01*
Y714374D01*
X1282061Y713104D01*
X1270634Y706756D02*
X1275713D01*
X1270634Y711834D01*
Y713104D01*
X1271904Y714374D01*
X1274443D01*
X1275713Y713104D01*
X1268095Y705486D02*
X1263017D01*
X1255399Y706756D02*
X1260478D01*
X1255399Y711834D01*
Y713104D01*
X1256669Y714374D01*
X1259208D01*
X1260478Y713104D01*
X1252860Y714374D02*
X1247782D01*
Y713104D01*
X1252860Y708026D01*
Y706756D01*
X1093112Y706625D02*
Y714243D01*
X1089303D01*
X1088034Y712973D01*
Y710434D01*
X1089303Y709164D01*
X1093112D01*
X1090573D02*
X1088034Y706625D01*
X1085495D02*
X1082955D01*
X1084225D01*
Y714243D01*
X1085495Y712973D01*
X1074068Y706625D02*
X1079147D01*
X1074068Y711704D01*
Y712973D01*
X1075338Y714243D01*
X1077877D01*
X1079147Y712973D01*
X1071529Y705356D02*
X1066451D01*
X1058833Y706625D02*
X1063912D01*
X1058833Y711704D01*
Y712973D01*
X1060103Y714243D01*
X1062642D01*
X1063912Y712973D01*
X1051216Y714243D02*
X1053755Y712973D01*
X1056294Y710434D01*
Y707895D01*
X1055024Y706625D01*
X1052485D01*
X1051216Y707895D01*
Y709164D01*
X1052485Y710434D01*
X1056294D01*
X1880228Y484887D02*
Y492505D01*
X1876419D01*
X1875150Y491235D01*
Y488696D01*
X1876419Y487426D01*
X1880228D01*
X1877689D02*
X1875150Y484887D01*
X1872611D02*
X1870072D01*
X1871341D01*
Y492505D01*
X1872611Y491235D01*
X1861184Y484887D02*
X1866263D01*
X1861184Y489965D01*
Y491235D01*
X1862454Y492505D01*
X1864993D01*
X1866263Y491235D01*
X1858645Y483617D02*
X1853567D01*
X1845949Y484887D02*
X1851028D01*
X1845949Y489965D01*
Y491235D01*
X1847219Y492505D01*
X1849758D01*
X1851028Y491235D01*
X1838332Y492505D02*
X1843410D01*
Y488696D01*
X1840871Y489965D01*
X1839601D01*
X1838332Y488696D01*
Y486157D01*
X1839601Y484887D01*
X1842141D01*
X1843410Y486157D01*
X1682108Y484506D02*
Y492124D01*
X1678299D01*
X1677030Y490854D01*
Y488315D01*
X1678299Y487045D01*
X1682108D01*
X1679569D02*
X1677030Y484506D01*
X1674491D02*
X1671951D01*
X1673221D01*
Y492124D01*
X1674491Y490854D01*
X1663064Y484506D02*
X1668143D01*
X1663064Y489584D01*
Y490854D01*
X1664334Y492124D01*
X1666873D01*
X1668143Y490854D01*
X1660525Y483236D02*
X1655447D01*
X1647829Y484506D02*
X1652908D01*
X1647829Y489584D01*
Y490854D01*
X1649099Y492124D01*
X1651638D01*
X1652908Y490854D01*
X1641481Y484506D02*
Y492124D01*
X1645290Y488315D01*
X1640212D01*
X1485258Y484506D02*
Y492124D01*
X1481449D01*
X1480180Y490854D01*
Y488315D01*
X1481449Y487045D01*
X1485258D01*
X1482719D02*
X1480180Y484506D01*
X1477641D02*
X1475101D01*
X1476371D01*
Y492124D01*
X1477641Y490854D01*
X1466214Y484506D02*
X1471293D01*
X1466214Y489584D01*
Y490854D01*
X1467484Y492124D01*
X1470023D01*
X1471293Y490854D01*
X1463675Y483236D02*
X1458597D01*
X1450979Y484506D02*
X1456058D01*
X1450979Y489584D01*
Y490854D01*
X1452249Y492124D01*
X1454788D01*
X1456058Y490854D01*
X1448440D02*
X1447171Y492124D01*
X1444631D01*
X1443362Y490854D01*
Y489584D01*
X1444631Y488315D01*
X1445901D01*
X1444631D01*
X1443362Y487045D01*
Y485776D01*
X1444631Y484506D01*
X1447171D01*
X1448440Y485776D01*
X1288408Y484506D02*
Y492124D01*
X1284599D01*
X1283330Y490854D01*
Y488315D01*
X1284599Y487045D01*
X1288408D01*
X1285869D02*
X1283330Y484506D01*
X1280791D02*
X1278251D01*
X1279521D01*
Y492124D01*
X1280791Y490854D01*
X1269364Y484506D02*
X1274443D01*
X1269364Y489584D01*
Y490854D01*
X1270634Y492124D01*
X1273173D01*
X1274443Y490854D01*
X1266825Y483236D02*
X1261747D01*
X1254129Y484506D02*
X1259208D01*
X1254129Y489584D01*
Y490854D01*
X1255399Y492124D01*
X1257938D01*
X1259208Y490854D01*
X1246512Y484506D02*
X1251590D01*
X1246512Y489584D01*
Y490854D01*
X1247781Y492124D01*
X1250321D01*
X1251590Y490854D01*
X1089019Y484506D02*
Y492124D01*
X1085210D01*
X1083941Y490854D01*
Y488315D01*
X1085210Y487045D01*
X1089019D01*
X1086480D02*
X1083941Y484506D01*
X1081402D02*
X1078862D01*
X1080132D01*
Y492124D01*
X1081402Y490854D01*
X1069975Y484506D02*
X1075054D01*
X1069975Y489584D01*
Y490854D01*
X1071245Y492124D01*
X1073784D01*
X1075054Y490854D01*
X1067436Y483236D02*
X1062358D01*
X1054740Y484506D02*
X1059818D01*
X1054740Y489584D01*
Y490854D01*
X1056010Y492124D01*
X1058549D01*
X1059818Y490854D01*
X1052201Y484506D02*
X1049662D01*
X1050931D01*
Y492124D01*
X1052201Y490854D01*
X2051436Y1104645D02*
Y1097027D01*
X2055245D01*
X2056514Y1098297D01*
Y1100836D01*
X2055245Y1102106D01*
X2051436D01*
X2053975D02*
X2056514Y1104645D01*
X2059053D02*
X2061593D01*
X2060323D01*
Y1097027D01*
X2059053Y1098297D01*
X2065401Y1104645D02*
X2067941D01*
X2066671D01*
Y1097027D01*
X2065401Y1098297D01*
X2071749Y1105915D02*
X2076828D01*
X2079367Y1098297D02*
X2080636Y1097027D01*
X2083176D01*
X2084445Y1098297D01*
Y1099567D01*
X2083176Y1100836D01*
X2084445Y1102106D01*
Y1103375D01*
X2083176Y1104645D01*
X2080636D01*
X2079367Y1103375D01*
Y1102106D01*
X2080636Y1100836D01*
X2079367Y1099567D01*
Y1098297D01*
X2080636Y1100836D02*
X2083176D01*
X2053976Y935354D02*
Y927736D01*
X2057785D01*
X2059054Y929006D01*
Y931545D01*
X2057785Y932815D01*
X2053976D01*
X2056515D02*
X2059054Y935354D01*
X2061593D02*
X2064133D01*
X2062863D01*
Y927736D01*
X2061593Y929006D01*
X2067941Y935354D02*
X2070481D01*
X2069211D01*
Y927736D01*
X2067941Y929006D01*
X2074289Y936624D02*
X2079368D01*
X2081907Y927736D02*
X2086985D01*
Y929006D01*
X2081907Y934084D01*
Y935354D01*
X2050674Y711453D02*
Y703835D01*
X2054483D01*
X2055752Y705105D01*
Y707644D01*
X2054483Y708914D01*
X2050674D01*
X2053213D02*
X2055752Y711453D01*
X2058291D02*
X2060831D01*
X2059561D01*
Y703835D01*
X2058291Y705105D01*
X2064639Y711453D02*
X2067179D01*
X2065909D01*
Y703835D01*
X2064639Y705105D01*
X2070987Y712723D02*
X2076066D01*
X2083683Y703835D02*
X2081144Y705105D01*
X2078605Y707644D01*
Y710183D01*
X2079875Y711453D01*
X2082414D01*
X2083683Y710183D01*
Y708914D01*
X2082414Y707644D01*
X2078605D01*
X2055573Y484164D02*
Y476546D01*
X2059382D01*
X2060651Y477816D01*
Y480355D01*
X2059382Y481625D01*
X2055573D01*
X2058112D02*
X2060651Y484164D01*
X2063190D02*
X2065730D01*
X2064460D01*
Y476546D01*
X2063190Y477816D01*
X2069538Y484164D02*
X2072078D01*
X2070808D01*
Y476546D01*
X2069538Y477816D01*
X2075886Y485434D02*
X2080965D01*
X2088582Y476546D02*
X2083504D01*
Y480355D01*
X2086043Y479086D01*
X2087313D01*
X2088582Y480355D01*
Y482894D01*
X2087313Y484164D01*
X2084774D01*
X2083504Y482894D01*
X2024512Y1119885D02*
Y1112267D01*
X2028321D01*
X2029590Y1113537D01*
Y1116076D01*
X2028321Y1117346D01*
X2024512D01*
X2027051D02*
X2029590Y1119885D01*
X2032130D02*
X2034669D01*
X2033399D01*
Y1112267D01*
X2032130Y1113537D01*
X2038478D02*
X2039747Y1112267D01*
X2042286D01*
X2043556Y1113537D01*
Y1118615D01*
X2042286Y1119885D01*
X2039747D01*
X2038478Y1118615D01*
Y1113537D01*
X2046095Y1121155D02*
X2051174D01*
X2053713Y1113537D02*
X2054982Y1112267D01*
X2057522D01*
X2058791Y1113537D01*
Y1114807D01*
X2057522Y1116076D01*
X2058791Y1117346D01*
Y1118615D01*
X2057522Y1119885D01*
X2054982D01*
X2053713Y1118615D01*
Y1117346D01*
X2054982Y1116076D01*
X2053713Y1114807D01*
Y1113537D01*
X2054982Y1116076D02*
X2057522D01*
X2027052Y950594D02*
Y942976D01*
X2030861D01*
X2032130Y944246D01*
Y946785D01*
X2030861Y948055D01*
X2027052D01*
X2029591D02*
X2032130Y950594D01*
X2034670D02*
X2037209D01*
X2035939D01*
Y942976D01*
X2034670Y944246D01*
X2041018D02*
X2042287Y942976D01*
X2044826D01*
X2046096Y944246D01*
Y949324D01*
X2044826Y950594D01*
X2042287D01*
X2041018Y949324D01*
Y944246D01*
X2048635Y951864D02*
X2053714D01*
X2056253Y942976D02*
X2061331D01*
Y944246D01*
X2056253Y949324D01*
Y950594D01*
X2023750Y726693D02*
Y719075D01*
X2027559D01*
X2028828Y720345D01*
Y722884D01*
X2027559Y724154D01*
X2023750D01*
X2026289D02*
X2028828Y726693D01*
X2031368D02*
X2033907D01*
X2032637D01*
Y719075D01*
X2031368Y720345D01*
X2037716D02*
X2038985Y719075D01*
X2041524D01*
X2042794Y720345D01*
Y725423D01*
X2041524Y726693D01*
X2038985D01*
X2037716Y725423D01*
Y720345D01*
X2045333Y727963D02*
X2050412D01*
X2058029Y719075D02*
X2055490Y720345D01*
X2052951Y722884D01*
Y725423D01*
X2054220Y726693D01*
X2056759D01*
X2058029Y725423D01*
Y724154D01*
X2056759Y722884D01*
X2052951D01*
X2028649Y499404D02*
Y491786D01*
X2032458D01*
X2033728Y493056D01*
Y495595D01*
X2032458Y496865D01*
X2028649D01*
X2031188D02*
X2033728Y499404D01*
X2036267D02*
X2038806D01*
X2037536D01*
Y491786D01*
X2036267Y493056D01*
X2042615D02*
X2043884Y491786D01*
X2046423D01*
X2047693Y493056D01*
Y498134D01*
X2046423Y499404D01*
X2043884D01*
X2042615Y498134D01*
Y493056D01*
X2050232Y500673D02*
X2055311D01*
X2062928Y491786D02*
X2057850D01*
Y495595D01*
X2060389Y494326D01*
X2061658D01*
X2062928Y495595D01*
Y498134D01*
X2061658Y499404D01*
X2059119D01*
X2057850Y498134D01*
X1905385Y1062735D02*
Y1055117D01*
X1909194D01*
X1910464Y1056387D01*
Y1058926D01*
X1909194Y1060196D01*
X1905385D01*
X1907924D02*
X1910464Y1062735D01*
X1913003Y1061465D02*
X1914272Y1062735D01*
X1916811D01*
X1918081Y1061465D01*
Y1056387D01*
X1916811Y1055117D01*
X1914272D01*
X1913003Y1056387D01*
Y1057657D01*
X1914272Y1058926D01*
X1918081D01*
X1920620Y1064005D02*
X1925699D01*
X1928238Y1056387D02*
X1929507Y1055117D01*
X1932047D01*
X1933316Y1056387D01*
Y1057657D01*
X1932047Y1058926D01*
X1933316Y1060196D01*
Y1061465D01*
X1932047Y1062735D01*
X1929507D01*
X1928238Y1061465D01*
Y1060196D01*
X1929507Y1058926D01*
X1928238Y1057657D01*
Y1056387D01*
X1929507Y1058926D02*
X1932047D01*
X1907925Y893444D02*
Y885826D01*
X1911734D01*
X1913004Y887096D01*
Y889635D01*
X1911734Y890905D01*
X1907925D01*
X1910464D02*
X1913004Y893444D01*
X1915543Y892174D02*
X1916812Y893444D01*
X1919351D01*
X1920621Y892174D01*
Y887096D01*
X1919351Y885826D01*
X1916812D01*
X1915543Y887096D01*
Y888366D01*
X1916812Y889635D01*
X1920621D01*
X1923160Y894714D02*
X1928239D01*
X1930778Y885826D02*
X1935856D01*
Y887096D01*
X1930778Y892174D01*
Y893444D01*
X1904623Y669543D02*
Y661925D01*
X1908432D01*
X1909702Y663195D01*
Y665734D01*
X1908432Y667004D01*
X1904623D01*
X1907162D02*
X1909702Y669543D01*
X1912241Y668273D02*
X1913510Y669543D01*
X1916049D01*
X1917319Y668273D01*
Y663195D01*
X1916049Y661925D01*
X1913510D01*
X1912241Y663195D01*
Y664465D01*
X1913510Y665734D01*
X1917319D01*
X1919858Y670813D02*
X1924937D01*
X1932554Y661925D02*
X1930015Y663195D01*
X1927476Y665734D01*
Y668273D01*
X1928745Y669543D01*
X1931284D01*
X1932554Y668273D01*
Y667004D01*
X1931284Y665734D01*
X1927476D01*
X1909522Y442254D02*
Y434636D01*
X1913331D01*
X1914601Y435906D01*
Y438445D01*
X1913331Y439715D01*
X1909522D01*
X1912061D02*
X1914601Y442254D01*
X1917140Y440984D02*
X1918409Y442254D01*
X1920948D01*
X1922218Y440984D01*
Y435906D01*
X1920948Y434636D01*
X1918409D01*
X1917140Y435906D01*
Y437176D01*
X1918409Y438445D01*
X1922218D01*
X1924757Y443523D02*
X1929836D01*
X1937453Y434636D02*
X1932375D01*
Y438445D01*
X1934914Y437176D01*
X1936183D01*
X1937453Y438445D01*
Y440984D01*
X1936183Y442254D01*
X1933644D01*
X1932375Y440984D01*
X1905385Y1044955D02*
Y1037337D01*
X1909194D01*
X1910464Y1038607D01*
Y1041146D01*
X1909194Y1042416D01*
X1905385D01*
X1907924D02*
X1910464Y1044955D01*
X1913003Y1038607D02*
X1914272Y1037337D01*
X1916811D01*
X1918081Y1038607D01*
Y1039877D01*
X1916811Y1041146D01*
X1918081Y1042416D01*
Y1043685D01*
X1916811Y1044955D01*
X1914272D01*
X1913003Y1043685D01*
Y1042416D01*
X1914272Y1041146D01*
X1913003Y1039877D01*
Y1038607D01*
X1914272Y1041146D02*
X1916811D01*
X1920620Y1046225D02*
X1925699D01*
X1928238Y1038607D02*
X1929507Y1037337D01*
X1932047D01*
X1933316Y1038607D01*
Y1039877D01*
X1932047Y1041146D01*
X1933316Y1042416D01*
Y1043685D01*
X1932047Y1044955D01*
X1929507D01*
X1928238Y1043685D01*
Y1042416D01*
X1929507Y1041146D01*
X1928238Y1039877D01*
Y1038607D01*
X1929507Y1041146D02*
X1932047D01*
X1907925Y875664D02*
Y868046D01*
X1911734D01*
X1913004Y869316D01*
Y871855D01*
X1911734Y873125D01*
X1907925D01*
X1910464D02*
X1913004Y875664D01*
X1915543Y869316D02*
X1916812Y868046D01*
X1919351D01*
X1920621Y869316D01*
Y870586D01*
X1919351Y871855D01*
X1920621Y873125D01*
Y874394D01*
X1919351Y875664D01*
X1916812D01*
X1915543Y874394D01*
Y873125D01*
X1916812Y871855D01*
X1915543Y870586D01*
Y869316D01*
X1916812Y871855D02*
X1919351D01*
X1923160Y876934D02*
X1928239D01*
X1930778Y868046D02*
X1935856D01*
Y869316D01*
X1930778Y874394D01*
Y875664D01*
X1904623Y651763D02*
Y644145D01*
X1908432D01*
X1909702Y645415D01*
Y647954D01*
X1908432Y649224D01*
X1904623D01*
X1907162D02*
X1909702Y651763D01*
X1912241Y645415D02*
X1913510Y644145D01*
X1916049D01*
X1917319Y645415D01*
Y646685D01*
X1916049Y647954D01*
X1917319Y649224D01*
Y650493D01*
X1916049Y651763D01*
X1913510D01*
X1912241Y650493D01*
Y649224D01*
X1913510Y647954D01*
X1912241Y646685D01*
Y645415D01*
X1913510Y647954D02*
X1916049D01*
X1919858Y653033D02*
X1924937D01*
X1932554Y644145D02*
X1930015Y645415D01*
X1927476Y647954D01*
Y650493D01*
X1928745Y651763D01*
X1931284D01*
X1932554Y650493D01*
Y649224D01*
X1931284Y647954D01*
X1927476D01*
X1909522Y424474D02*
Y416856D01*
X1913331D01*
X1914601Y418126D01*
Y420665D01*
X1913331Y421935D01*
X1909522D01*
X1912061D02*
X1914601Y424474D01*
X1917140Y418126D02*
X1918409Y416856D01*
X1920948D01*
X1922218Y418126D01*
Y419396D01*
X1920948Y420665D01*
X1922218Y421935D01*
Y423204D01*
X1920948Y424474D01*
X1918409D01*
X1917140Y423204D01*
Y421935D01*
X1918409Y420665D01*
X1917140Y419396D01*
Y418126D01*
X1918409Y420665D02*
X1920948D01*
X1924757Y425743D02*
X1929836D01*
X1937453Y416856D02*
X1932375D01*
Y420665D01*
X1934914Y419396D01*
X1936183D01*
X1937453Y420665D01*
Y423204D01*
X1936183Y424474D01*
X1933644D01*
X1932375Y423204D01*
X1933072Y1116075D02*
Y1108457D01*
X1936881D01*
X1938150Y1109727D01*
Y1112266D01*
X1936881Y1113536D01*
X1933072D01*
X1945768Y1109727D02*
X1944498Y1108457D01*
X1941959D01*
X1940690Y1109727D01*
Y1110997D01*
X1941959Y1112266D01*
X1944498D01*
X1945768Y1113536D01*
Y1114805D01*
X1944498Y1116075D01*
X1941959D01*
X1940690Y1114805D01*
X1948307Y1116075D02*
X1950846D01*
X1949577D01*
Y1108457D01*
X1948307Y1109727D01*
X1954655Y1117345D02*
X1959733D01*
X1962273Y1109727D02*
X1963542Y1108457D01*
X1966082D01*
X1967351Y1109727D01*
Y1110997D01*
X1966082Y1112266D01*
X1967351Y1113536D01*
Y1114805D01*
X1966082Y1116075D01*
X1963542D01*
X1962273Y1114805D01*
Y1113536D01*
X1963542Y1112266D01*
X1962273Y1110997D01*
Y1109727D01*
X1963542Y1112266D02*
X1966082D01*
X1935612Y946784D02*
Y939166D01*
X1939421D01*
X1940690Y940436D01*
Y942975D01*
X1939421Y944245D01*
X1935612D01*
X1948308Y940436D02*
X1947038Y939166D01*
X1944499D01*
X1943230Y940436D01*
Y941706D01*
X1944499Y942975D01*
X1947038D01*
X1948308Y944245D01*
Y945514D01*
X1947038Y946784D01*
X1944499D01*
X1943230Y945514D01*
X1950847Y946784D02*
X1953386D01*
X1952117D01*
Y939166D01*
X1950847Y940436D01*
X1957195Y948054D02*
X1962274D01*
X1964813Y939166D02*
X1969891D01*
Y940436D01*
X1964813Y945514D01*
Y946784D01*
X1932310Y722883D02*
Y715265D01*
X1936119D01*
X1937388Y716535D01*
Y719074D01*
X1936119Y720344D01*
X1932310D01*
X1945006Y716535D02*
X1943736Y715265D01*
X1941197D01*
X1939928Y716535D01*
Y717805D01*
X1941197Y719074D01*
X1943736D01*
X1945006Y720344D01*
Y721613D01*
X1943736Y722883D01*
X1941197D01*
X1939928Y721613D01*
X1947545Y722883D02*
X1950084D01*
X1948815D01*
Y715265D01*
X1947545Y716535D01*
X1953893Y724153D02*
X1958972D01*
X1966589Y715265D02*
X1964050Y716535D01*
X1961511Y719074D01*
Y721613D01*
X1962780Y722883D01*
X1965320D01*
X1966589Y721613D01*
Y720344D01*
X1965320Y719074D01*
X1961511D01*
X1937209Y495594D02*
Y487976D01*
X1941018D01*
X1942287Y489246D01*
Y491785D01*
X1941018Y493055D01*
X1937209D01*
X1949905Y489246D02*
X1948635Y487976D01*
X1946096D01*
X1944827Y489246D01*
Y490516D01*
X1946096Y491785D01*
X1948635D01*
X1949905Y493055D01*
Y494324D01*
X1948635Y495594D01*
X1946096D01*
X1944827Y494324D01*
X1952444Y495594D02*
X1954983D01*
X1953714D01*
Y487976D01*
X1952444Y489246D01*
X1958792Y496864D02*
X1963871D01*
X1971488Y487976D02*
X1966410D01*
Y491785D01*
X1968949Y490516D01*
X1970219D01*
X1971488Y491785D01*
Y494324D01*
X1970219Y495594D01*
X1967679D01*
X1966410Y494324D01*
X1026790Y1063243D02*
X1024251D01*
X1025520D01*
Y1055625D01*
X1026790D01*
X1024251D01*
X1015364Y1061973D02*
X1016633Y1063243D01*
X1019172D01*
X1020442Y1061973D01*
Y1056895D01*
X1019172Y1055625D01*
X1016633D01*
X1015364Y1056895D01*
X1007746Y1055625D02*
X1012824D01*
X1007746Y1060703D01*
Y1061973D01*
X1009016Y1063243D01*
X1011555D01*
X1012824Y1061973D01*
X1005207Y1054355D02*
X1000128D01*
X993781Y1055625D02*
Y1063243D01*
X997589Y1059434D01*
X992511D01*
X989972Y1061973D02*
X988702Y1063243D01*
X986163D01*
X984893Y1061973D01*
Y1056895D01*
X986163Y1055625D01*
X988702D01*
X989972Y1056895D01*
Y1061973D01*
X1223640Y1063243D02*
X1221101D01*
X1222370D01*
Y1055625D01*
X1223640D01*
X1221101D01*
X1212214Y1061973D02*
X1213483Y1063243D01*
X1216022D01*
X1217292Y1061973D01*
Y1056895D01*
X1216022Y1055625D01*
X1213483D01*
X1212214Y1056895D01*
X1204596Y1055625D02*
X1209674D01*
X1204596Y1060703D01*
Y1061973D01*
X1205866Y1063243D01*
X1208405D01*
X1209674Y1061973D01*
X1202057Y1054355D02*
X1196979D01*
X1194439Y1061973D02*
X1193170Y1063243D01*
X1190630D01*
X1189361Y1061973D01*
Y1060703D01*
X1190630Y1059434D01*
X1191900D01*
X1190630D01*
X1189361Y1058164D01*
Y1056895D01*
X1190630Y1055625D01*
X1193170D01*
X1194439Y1056895D01*
X1186822D02*
X1185552Y1055625D01*
X1183013D01*
X1181743Y1056895D01*
Y1061973D01*
X1183013Y1063243D01*
X1185552D01*
X1186822Y1061973D01*
Y1060703D01*
X1185552Y1059434D01*
X1181743D01*
X1420490Y1063243D02*
X1417951D01*
X1419220D01*
Y1055625D01*
X1420490D01*
X1417951D01*
X1409064Y1061973D02*
X1410333Y1063243D01*
X1412872D01*
X1414142Y1061973D01*
Y1056895D01*
X1412872Y1055625D01*
X1410333D01*
X1409064Y1056895D01*
X1401446Y1055625D02*
X1406524D01*
X1401446Y1060703D01*
Y1061973D01*
X1402716Y1063243D01*
X1405255D01*
X1406524Y1061973D01*
X1398907Y1054355D02*
X1393828D01*
X1391289Y1061973D02*
X1390020Y1063243D01*
X1387480D01*
X1386211Y1061973D01*
Y1060703D01*
X1387480Y1059434D01*
X1388750D01*
X1387480D01*
X1386211Y1058164D01*
Y1056895D01*
X1387480Y1055625D01*
X1390020D01*
X1391289Y1056895D01*
X1383672Y1061973D02*
X1382402Y1063243D01*
X1379863D01*
X1378593Y1061973D01*
Y1060703D01*
X1379863Y1059434D01*
X1378593Y1058164D01*
Y1056895D01*
X1379863Y1055625D01*
X1382402D01*
X1383672Y1056895D01*
Y1058164D01*
X1382402Y1059434D01*
X1383672Y1060703D01*
Y1061973D01*
X1382402Y1059434D02*
X1379863D01*
X1617340Y1063243D02*
X1614801D01*
X1616070D01*
Y1055625D01*
X1617340D01*
X1614801D01*
X1605914Y1061973D02*
X1607183Y1063243D01*
X1609722D01*
X1610992Y1061973D01*
Y1056895D01*
X1609722Y1055625D01*
X1607183D01*
X1605914Y1056895D01*
X1598296Y1055625D02*
X1603374D01*
X1598296Y1060703D01*
Y1061973D01*
X1599566Y1063243D01*
X1602105D01*
X1603374Y1061973D01*
X1595757Y1054355D02*
X1590679D01*
X1588139Y1061973D02*
X1586870Y1063243D01*
X1584330D01*
X1583061Y1061973D01*
Y1060703D01*
X1584330Y1059434D01*
X1585600D01*
X1584330D01*
X1583061Y1058164D01*
Y1056895D01*
X1584330Y1055625D01*
X1586870D01*
X1588139Y1056895D01*
X1580522Y1063243D02*
X1575443D01*
Y1061973D01*
X1580522Y1056895D01*
Y1055625D01*
X1814190Y1063243D02*
X1811651D01*
X1812920D01*
Y1055625D01*
X1814190D01*
X1811651D01*
X1802764Y1061973D02*
X1804033Y1063243D01*
X1806572D01*
X1807842Y1061973D01*
Y1056895D01*
X1806572Y1055625D01*
X1804033D01*
X1802764Y1056895D01*
X1795146Y1055625D02*
X1800224D01*
X1795146Y1060703D01*
Y1061973D01*
X1796416Y1063243D01*
X1798955D01*
X1800224Y1061973D01*
X1792607Y1054355D02*
X1787529D01*
X1784989Y1061973D02*
X1783720Y1063243D01*
X1781181D01*
X1779911Y1061973D01*
Y1060703D01*
X1781181Y1059434D01*
X1782450D01*
X1781181D01*
X1779911Y1058164D01*
Y1056895D01*
X1781181Y1055625D01*
X1783720D01*
X1784989Y1056895D01*
X1772293Y1063243D02*
X1774833Y1061973D01*
X1777372Y1059434D01*
Y1056895D01*
X1776102Y1055625D01*
X1773563D01*
X1772293Y1056895D01*
Y1058164D01*
X1773563Y1059434D01*
X1777372D01*
X1028060Y879093D02*
X1025521D01*
X1026790D01*
Y871475D01*
X1028060D01*
X1025521D01*
X1016634Y877823D02*
X1017903Y879093D01*
X1020442D01*
X1021712Y877823D01*
Y872745D01*
X1020442Y871475D01*
X1017903D01*
X1016634Y872745D01*
X1009016Y871475D02*
X1014094D01*
X1009016Y876553D01*
Y877823D01*
X1010286Y879093D01*
X1012825D01*
X1014094Y877823D01*
X1006477Y870205D02*
X1001398D01*
X998859Y877823D02*
X997590Y879093D01*
X995051D01*
X993781Y877823D01*
Y876553D01*
X995051Y875284D01*
X996320D01*
X995051D01*
X993781Y874014D01*
Y872745D01*
X995051Y871475D01*
X997590D01*
X998859Y872745D01*
X986163Y879093D02*
X991242D01*
Y875284D01*
X988703Y876553D01*
X987433D01*
X986163Y875284D01*
Y872745D01*
X987433Y871475D01*
X989972D01*
X991242Y872745D01*
X1224910Y879093D02*
X1222371D01*
X1223640D01*
Y871475D01*
X1224910D01*
X1222371D01*
X1213484Y877823D02*
X1214753Y879093D01*
X1217292D01*
X1218562Y877823D01*
Y872745D01*
X1217292Y871475D01*
X1214753D01*
X1213484Y872745D01*
X1205866Y871475D02*
X1210944D01*
X1205866Y876553D01*
Y877823D01*
X1207136Y879093D01*
X1209675D01*
X1210944Y877823D01*
X1203327Y870205D02*
X1198249D01*
X1195709Y877823D02*
X1194440Y879093D01*
X1191900D01*
X1190631Y877823D01*
Y876553D01*
X1191900Y875284D01*
X1193170D01*
X1191900D01*
X1190631Y874014D01*
Y872745D01*
X1191900Y871475D01*
X1194440D01*
X1195709Y872745D01*
X1184283Y871475D02*
Y879093D01*
X1188092Y875284D01*
X1183013D01*
X1421760Y879093D02*
X1419221D01*
X1420490D01*
Y871475D01*
X1421760D01*
X1419221D01*
X1410334Y877823D02*
X1411603Y879093D01*
X1414142D01*
X1415412Y877823D01*
Y872745D01*
X1414142Y871475D01*
X1411603D01*
X1410334Y872745D01*
X1402716Y871475D02*
X1407794D01*
X1402716Y876553D01*
Y877823D01*
X1403986Y879093D01*
X1406525D01*
X1407794Y877823D01*
X1400177Y870205D02*
X1395099D01*
X1392559Y877823D02*
X1391290Y879093D01*
X1388750D01*
X1387481Y877823D01*
Y876553D01*
X1388750Y875284D01*
X1390020D01*
X1388750D01*
X1387481Y874014D01*
Y872745D01*
X1388750Y871475D01*
X1391290D01*
X1392559Y872745D01*
X1384942Y877823D02*
X1383672Y879093D01*
X1381133D01*
X1379863Y877823D01*
Y876553D01*
X1381133Y875284D01*
X1382403D01*
X1381133D01*
X1379863Y874014D01*
Y872745D01*
X1381133Y871475D01*
X1383672D01*
X1384942Y872745D01*
X1618610Y879093D02*
X1616071D01*
X1617340D01*
Y871475D01*
X1618610D01*
X1616071D01*
X1607184Y877823D02*
X1608453Y879093D01*
X1610992D01*
X1612262Y877823D01*
Y872745D01*
X1610992Y871475D01*
X1608453D01*
X1607184Y872745D01*
X1599566Y871475D02*
X1604644D01*
X1599566Y876553D01*
Y877823D01*
X1600836Y879093D01*
X1603375D01*
X1604644Y877823D01*
X1597027Y870205D02*
X1591949D01*
X1589409Y877823D02*
X1588140Y879093D01*
X1585600D01*
X1584331Y877823D01*
Y876553D01*
X1585600Y875284D01*
X1586870D01*
X1585600D01*
X1584331Y874014D01*
Y872745D01*
X1585600Y871475D01*
X1588140D01*
X1589409Y872745D01*
X1576713Y871475D02*
X1581792D01*
X1576713Y876553D01*
Y877823D01*
X1577983Y879093D01*
X1580522D01*
X1581792Y877823D01*
X1812921Y879093D02*
X1810381D01*
X1811651D01*
Y871475D01*
X1812921D01*
X1810381D01*
X1801494Y877823D02*
X1802764Y879093D01*
X1805303D01*
X1806573Y877823D01*
Y872745D01*
X1805303Y871475D01*
X1802764D01*
X1801494Y872745D01*
X1793877Y871475D02*
X1798955D01*
X1793877Y876553D01*
Y877823D01*
X1795146Y879093D01*
X1797686D01*
X1798955Y877823D01*
X1791338Y870205D02*
X1786259D01*
X1783720Y877823D02*
X1782451Y879093D01*
X1779911D01*
X1778642Y877823D01*
Y876553D01*
X1779911Y875284D01*
X1781181D01*
X1779911D01*
X1778642Y874014D01*
Y872745D01*
X1779911Y871475D01*
X1782451D01*
X1783720Y872745D01*
X1776103Y871475D02*
X1773563D01*
X1774833D01*
Y879093D01*
X1776103Y877823D01*
X1815744Y642742D02*
X1813205D01*
X1814474D01*
Y635124D01*
X1815744D01*
X1813205D01*
X1804317Y641472D02*
X1805587Y642742D01*
X1808126D01*
X1809396Y641472D01*
Y636394D01*
X1808126Y635124D01*
X1805587D01*
X1804317Y636394D01*
X1796700Y635124D02*
X1801778D01*
X1796700Y640203D01*
Y641472D01*
X1797970Y642742D01*
X1800509D01*
X1801778Y641472D01*
X1794161Y633855D02*
X1789082D01*
X1786543Y641472D02*
X1785274Y642742D01*
X1782735D01*
X1781465Y641472D01*
Y640203D01*
X1782735Y638933D01*
X1784004D01*
X1782735D01*
X1781465Y637663D01*
Y636394D01*
X1782735Y635124D01*
X1785274D01*
X1786543Y636394D01*
X1778926Y641472D02*
X1777656Y642742D01*
X1775117D01*
X1773847Y641472D01*
Y636394D01*
X1775117Y635124D01*
X1777656D01*
X1778926Y636394D01*
Y641472D01*
X1618610Y642873D02*
X1616071D01*
X1617340D01*
Y635255D01*
X1618610D01*
X1616071D01*
X1607184Y641603D02*
X1608453Y642873D01*
X1610992D01*
X1612262Y641603D01*
Y636525D01*
X1610992Y635255D01*
X1608453D01*
X1607184Y636525D01*
X1599566Y635255D02*
X1604644D01*
X1599566Y640333D01*
Y641603D01*
X1600836Y642873D01*
X1603375D01*
X1604644Y641603D01*
X1597027Y633985D02*
X1591949D01*
X1584331Y635255D02*
X1589409D01*
X1584331Y640333D01*
Y641603D01*
X1585600Y642873D01*
X1588140D01*
X1589409Y641603D01*
X1581792Y636525D02*
X1580522Y635255D01*
X1577983D01*
X1576713Y636525D01*
Y641603D01*
X1577983Y642873D01*
X1580522D01*
X1581792Y641603D01*
Y640333D01*
X1580522Y639064D01*
X1576713D01*
X1421760Y642873D02*
X1419221D01*
X1420490D01*
Y635255D01*
X1421760D01*
X1419221D01*
X1410334Y641603D02*
X1411603Y642873D01*
X1414142D01*
X1415412Y641603D01*
Y636525D01*
X1414142Y635255D01*
X1411603D01*
X1410334Y636525D01*
X1402716Y635255D02*
X1407794D01*
X1402716Y640333D01*
Y641603D01*
X1403986Y642873D01*
X1406525D01*
X1407794Y641603D01*
X1400177Y633985D02*
X1395099D01*
X1387481Y635255D02*
X1392559D01*
X1387481Y640333D01*
Y641603D01*
X1388750Y642873D01*
X1391290D01*
X1392559Y641603D01*
X1384942D02*
X1383672Y642873D01*
X1381133D01*
X1379863Y641603D01*
Y640333D01*
X1381133Y639064D01*
X1379863Y637794D01*
Y636525D01*
X1381133Y635255D01*
X1383672D01*
X1384942Y636525D01*
Y637794D01*
X1383672Y639064D01*
X1384942Y640333D01*
Y641603D01*
X1383672Y639064D02*
X1381133D01*
X1224910Y642873D02*
X1222371D01*
X1223640D01*
Y635255D01*
X1224910D01*
X1222371D01*
X1213484Y641603D02*
X1214753Y642873D01*
X1217292D01*
X1218562Y641603D01*
Y636525D01*
X1217292Y635255D01*
X1214753D01*
X1213484Y636525D01*
X1205866Y635255D02*
X1210944D01*
X1205866Y640333D01*
Y641603D01*
X1207136Y642873D01*
X1209675D01*
X1210944Y641603D01*
X1203327Y633985D02*
X1198249D01*
X1190631Y635255D02*
X1195709D01*
X1190631Y640333D01*
Y641603D01*
X1191900Y642873D01*
X1194440D01*
X1195709Y641603D01*
X1188092Y642873D02*
X1183013D01*
Y641603D01*
X1188092Y636525D01*
Y635255D01*
X1028344Y642742D02*
X1025805D01*
X1027074D01*
Y635124D01*
X1028344D01*
X1025805D01*
X1016917Y641472D02*
X1018187Y642742D01*
X1020726D01*
X1021996Y641472D01*
Y636394D01*
X1020726Y635124D01*
X1018187D01*
X1016917Y636394D01*
X1009300Y635124D02*
X1014378D01*
X1009300Y640203D01*
Y641472D01*
X1010570Y642742D01*
X1013109D01*
X1014378Y641472D01*
X1006761Y633855D02*
X1001683D01*
X994065Y635124D02*
X999143D01*
X994065Y640203D01*
Y641472D01*
X995334Y642742D01*
X997874D01*
X999143Y641472D01*
X986447Y642742D02*
X988987Y641472D01*
X991526Y638933D01*
Y636394D01*
X990256Y635124D01*
X987717D01*
X986447Y636394D01*
Y637663D01*
X987717Y638933D01*
X991526D01*
X1814190Y420623D02*
X1811651D01*
X1812920D01*
Y413005D01*
X1814190D01*
X1811651D01*
X1802764Y419353D02*
X1804033Y420623D01*
X1806572D01*
X1807842Y419353D01*
Y414275D01*
X1806572Y413005D01*
X1804033D01*
X1802764Y414275D01*
X1795146Y413005D02*
X1800224D01*
X1795146Y418083D01*
Y419353D01*
X1796416Y420623D01*
X1798955D01*
X1800224Y419353D01*
X1792607Y411735D02*
X1787529D01*
X1779911Y413005D02*
X1784989D01*
X1779911Y418083D01*
Y419353D01*
X1781181Y420623D01*
X1783720D01*
X1784989Y419353D01*
X1772293Y420623D02*
X1777372D01*
Y416814D01*
X1774833Y418083D01*
X1773563D01*
X1772293Y416814D01*
Y414275D01*
X1773563Y413005D01*
X1776102D01*
X1777372Y414275D01*
X1617340Y420623D02*
X1614801D01*
X1616070D01*
Y413005D01*
X1617340D01*
X1614801D01*
X1605914Y419353D02*
X1607183Y420623D01*
X1609722D01*
X1610992Y419353D01*
Y414275D01*
X1609722Y413005D01*
X1607183D01*
X1605914Y414275D01*
X1598296Y413005D02*
X1603374D01*
X1598296Y418083D01*
Y419353D01*
X1599566Y420623D01*
X1602105D01*
X1603374Y419353D01*
X1595757Y411735D02*
X1590679D01*
X1583061Y413005D02*
X1588139D01*
X1583061Y418083D01*
Y419353D01*
X1584330Y420623D01*
X1586870D01*
X1588139Y419353D01*
X1576713Y413005D02*
Y420623D01*
X1580522Y416814D01*
X1575443D01*
X1420490Y420623D02*
X1417951D01*
X1419220D01*
Y413005D01*
X1420490D01*
X1417951D01*
X1409064Y419353D02*
X1410333Y420623D01*
X1412872D01*
X1414142Y419353D01*
Y414275D01*
X1412872Y413005D01*
X1410333D01*
X1409064Y414275D01*
X1401446Y413005D02*
X1406524D01*
X1401446Y418083D01*
Y419353D01*
X1402716Y420623D01*
X1405255D01*
X1406524Y419353D01*
X1398907Y411735D02*
X1393828D01*
X1386211Y413005D02*
X1391289D01*
X1386211Y418083D01*
Y419353D01*
X1387480Y420623D01*
X1390020D01*
X1391289Y419353D01*
X1383672D02*
X1382402Y420623D01*
X1379863D01*
X1378593Y419353D01*
Y418083D01*
X1379863Y416814D01*
X1381133D01*
X1379863D01*
X1378593Y415544D01*
Y414275D01*
X1379863Y413005D01*
X1382402D01*
X1383672Y414275D01*
X1223640Y420623D02*
X1221101D01*
X1222370D01*
Y413005D01*
X1223640D01*
X1221101D01*
X1212214Y419353D02*
X1213483Y420623D01*
X1216022D01*
X1217292Y419353D01*
Y414275D01*
X1216022Y413005D01*
X1213483D01*
X1212214Y414275D01*
X1204596Y413005D02*
X1209674D01*
X1204596Y418083D01*
Y419353D01*
X1205866Y420623D01*
X1208405D01*
X1209674Y419353D01*
X1202057Y411735D02*
X1196979D01*
X1189361Y413005D02*
X1194439D01*
X1189361Y418083D01*
Y419353D01*
X1190630Y420623D01*
X1193170D01*
X1194439Y419353D01*
X1181743Y413005D02*
X1186822D01*
X1181743Y418083D01*
Y419353D01*
X1183013Y420623D01*
X1185552D01*
X1186822Y419353D01*
X1024251Y420623D02*
X1021712D01*
X1022981D01*
Y413005D01*
X1024251D01*
X1021712D01*
X1012824Y419353D02*
X1014094Y420623D01*
X1016633D01*
X1017903Y419353D01*
Y414275D01*
X1016633Y413005D01*
X1014094D01*
X1012824Y414275D01*
X1005207Y413005D02*
X1010285D01*
X1005207Y418083D01*
Y419353D01*
X1006476Y420623D01*
X1009016D01*
X1010285Y419353D01*
X1002668Y411735D02*
X997589D01*
X989972Y413005D02*
X995050D01*
X989972Y418083D01*
Y419353D01*
X991241Y420623D01*
X993781D01*
X995050Y419353D01*
X987433Y413005D02*
X984893D01*
X986163D01*
Y420623D01*
X987433Y419353D01*
X1104264Y1080140D02*
X1105534Y1078871D01*
Y1076331D01*
X1104264Y1075062D01*
X1099186D01*
X1097916Y1076331D01*
Y1078871D01*
X1099186Y1080140D01*
X1097916Y1082679D02*
Y1085219D01*
Y1083949D01*
X1105534D01*
X1104264Y1082679D01*
X1105534Y1089027D02*
Y1094106D01*
X1104264D01*
X1099186Y1089027D01*
X1097916D01*
X1096646Y1096645D02*
Y1101723D01*
X1097916Y1108071D02*
X1105534D01*
X1101725Y1104262D01*
Y1109341D01*
X1104264Y1111880D02*
X1105534Y1113149D01*
Y1115689D01*
X1104264Y1116958D01*
X1099186D01*
X1097916Y1115689D01*
Y1113149D01*
X1099186Y1111880D01*
X1104264D01*
X1301114Y1080140D02*
X1302384Y1078871D01*
Y1076331D01*
X1301114Y1075062D01*
X1296036D01*
X1294766Y1076331D01*
Y1078871D01*
X1296036Y1080140D01*
X1294766Y1082679D02*
Y1085219D01*
Y1083949D01*
X1302384D01*
X1301114Y1082679D01*
X1302384Y1089027D02*
Y1094106D01*
X1301114D01*
X1296036Y1089027D01*
X1294766D01*
X1293496Y1096645D02*
Y1101723D01*
X1301114Y1104262D02*
X1302384Y1105532D01*
Y1108071D01*
X1301114Y1109341D01*
X1299844D01*
X1298575Y1108071D01*
Y1106802D01*
Y1108071D01*
X1297305Y1109341D01*
X1296036D01*
X1294766Y1108071D01*
Y1105532D01*
X1296036Y1104262D01*
Y1111880D02*
X1294766Y1113149D01*
Y1115689D01*
X1296036Y1116958D01*
X1301114D01*
X1302384Y1115689D01*
Y1113149D01*
X1301114Y1111880D01*
X1299844D01*
X1298575Y1113149D01*
Y1116958D01*
X1497964Y1080140D02*
X1499234Y1078871D01*
Y1076331D01*
X1497964Y1075062D01*
X1492886D01*
X1491616Y1076331D01*
Y1078871D01*
X1492886Y1080140D01*
X1491616Y1082679D02*
Y1085219D01*
Y1083949D01*
X1499234D01*
X1497964Y1082679D01*
X1499234Y1089027D02*
Y1094106D01*
X1497964D01*
X1492886Y1089027D01*
X1491616D01*
X1490346Y1096645D02*
Y1101723D01*
X1497964Y1104262D02*
X1499234Y1105532D01*
Y1108071D01*
X1497964Y1109341D01*
X1496694D01*
X1495425Y1108071D01*
Y1106802D01*
Y1108071D01*
X1494155Y1109341D01*
X1492886D01*
X1491616Y1108071D01*
Y1105532D01*
X1492886Y1104262D01*
X1497964Y1111880D02*
X1499234Y1113149D01*
Y1115689D01*
X1497964Y1116958D01*
X1496694D01*
X1495425Y1115689D01*
X1494155Y1116958D01*
X1492886D01*
X1491616Y1115689D01*
Y1113149D01*
X1492886Y1111880D01*
X1494155D01*
X1495425Y1113149D01*
X1496694Y1111880D01*
X1497964D01*
X1495425Y1113149D02*
Y1115689D01*
X1694814Y1080140D02*
X1696084Y1078871D01*
Y1076331D01*
X1694814Y1075062D01*
X1689736D01*
X1688466Y1076331D01*
Y1078871D01*
X1689736Y1080140D01*
X1688466Y1082679D02*
Y1085219D01*
Y1083949D01*
X1696084D01*
X1694814Y1082679D01*
X1696084Y1089027D02*
Y1094106D01*
X1694814D01*
X1689736Y1089027D01*
X1688466D01*
X1687196Y1096645D02*
Y1101723D01*
X1694814Y1104262D02*
X1696084Y1105532D01*
Y1108071D01*
X1694814Y1109341D01*
X1693544D01*
X1692275Y1108071D01*
Y1106802D01*
Y1108071D01*
X1691005Y1109341D01*
X1689736D01*
X1688466Y1108071D01*
Y1105532D01*
X1689736Y1104262D01*
X1696084Y1111880D02*
Y1116958D01*
X1694814D01*
X1689736Y1111880D01*
X1688466D01*
X1891664Y1080140D02*
X1892934Y1078871D01*
Y1076331D01*
X1891664Y1075062D01*
X1886586D01*
X1885316Y1076331D01*
Y1078871D01*
X1886586Y1080140D01*
X1885316Y1082679D02*
Y1085219D01*
Y1083949D01*
X1892934D01*
X1891664Y1082679D01*
X1892934Y1089027D02*
Y1094106D01*
X1891664D01*
X1886586Y1089027D01*
X1885316D01*
X1884046Y1096645D02*
Y1101723D01*
X1891664Y1104262D02*
X1892934Y1105532D01*
Y1108071D01*
X1891664Y1109341D01*
X1890394D01*
X1889125Y1108071D01*
Y1106802D01*
Y1108071D01*
X1887855Y1109341D01*
X1886586D01*
X1885316Y1108071D01*
Y1105532D01*
X1886586Y1104262D01*
X1892934Y1116958D02*
X1891664Y1114419D01*
X1889125Y1111880D01*
X1886586D01*
X1885316Y1113149D01*
Y1115689D01*
X1886586Y1116958D01*
X1887855D01*
X1889125Y1115689D01*
Y1111880D01*
X1105534Y895990D02*
X1106804Y894721D01*
Y892181D01*
X1105534Y890912D01*
X1100456D01*
X1099186Y892181D01*
Y894721D01*
X1100456Y895990D01*
X1099186Y898529D02*
Y901068D01*
Y899799D01*
X1106804D01*
X1105534Y898529D01*
X1106804Y904877D02*
Y909956D01*
X1105534D01*
X1100456Y904877D01*
X1099186D01*
X1097916Y912495D02*
Y917573D01*
X1105534Y920112D02*
X1106804Y921382D01*
Y923921D01*
X1105534Y925191D01*
X1104264D01*
X1102995Y923921D01*
Y922652D01*
Y923921D01*
X1101725Y925191D01*
X1100456D01*
X1099186Y923921D01*
Y921382D01*
X1100456Y920112D01*
X1106804Y932808D02*
Y927730D01*
X1102995D01*
X1104264Y930269D01*
Y931539D01*
X1102995Y932808D01*
X1100456D01*
X1099186Y931539D01*
Y928999D01*
X1100456Y927730D01*
X1302384Y895990D02*
X1303654Y894721D01*
Y892181D01*
X1302384Y890912D01*
X1297306D01*
X1296036Y892181D01*
Y894721D01*
X1297306Y895990D01*
X1296036Y898529D02*
Y901068D01*
Y899799D01*
X1303654D01*
X1302384Y898529D01*
X1303654Y904877D02*
Y909956D01*
X1302384D01*
X1297306Y904877D01*
X1296036D01*
X1294766Y912495D02*
Y917573D01*
X1302384Y920112D02*
X1303654Y921382D01*
Y923921D01*
X1302384Y925191D01*
X1301114D01*
X1299845Y923921D01*
Y922652D01*
Y923921D01*
X1298575Y925191D01*
X1297306D01*
X1296036Y923921D01*
Y921382D01*
X1297306Y920112D01*
X1296036Y931539D02*
X1303654D01*
X1299845Y927730D01*
Y932808D01*
X1499234Y895990D02*
X1500504Y894721D01*
Y892181D01*
X1499234Y890912D01*
X1494156D01*
X1492886Y892181D01*
Y894721D01*
X1494156Y895990D01*
X1492886Y898529D02*
Y901068D01*
Y899799D01*
X1500504D01*
X1499234Y898529D01*
X1500504Y904877D02*
Y909956D01*
X1499234D01*
X1494156Y904877D01*
X1492886D01*
X1491616Y912495D02*
Y917573D01*
X1499234Y920112D02*
X1500504Y921382D01*
Y923921D01*
X1499234Y925191D01*
X1497964D01*
X1496695Y923921D01*
Y922652D01*
Y923921D01*
X1495425Y925191D01*
X1494156D01*
X1492886Y923921D01*
Y921382D01*
X1494156Y920112D01*
X1499234Y927730D02*
X1500504Y928999D01*
Y931539D01*
X1499234Y932808D01*
X1497964D01*
X1496695Y931539D01*
Y930269D01*
Y931539D01*
X1495425Y932808D01*
X1494156D01*
X1492886Y931539D01*
Y928999D01*
X1494156Y927730D01*
X1696084Y895990D02*
X1697354Y894721D01*
Y892181D01*
X1696084Y890912D01*
X1691006D01*
X1689736Y892181D01*
Y894721D01*
X1691006Y895990D01*
X1689736Y898529D02*
Y901068D01*
Y899799D01*
X1697354D01*
X1696084Y898529D01*
X1697354Y904877D02*
Y909956D01*
X1696084D01*
X1691006Y904877D01*
X1689736D01*
X1688466Y912495D02*
Y917573D01*
X1696084Y920112D02*
X1697354Y921382D01*
Y923921D01*
X1696084Y925191D01*
X1694814D01*
X1693545Y923921D01*
Y922652D01*
Y923921D01*
X1692275Y925191D01*
X1691006D01*
X1689736Y923921D01*
Y921382D01*
X1691006Y920112D01*
X1689736Y932808D02*
Y927730D01*
X1694814Y932808D01*
X1696084D01*
X1697354Y931539D01*
Y928999D01*
X1696084Y927730D01*
X1892934Y895990D02*
X1894204Y894721D01*
Y892181D01*
X1892934Y890912D01*
X1887856D01*
X1886586Y892181D01*
Y894721D01*
X1887856Y895990D01*
X1886586Y898529D02*
Y901068D01*
Y899799D01*
X1894204D01*
X1892934Y898529D01*
X1894204Y904877D02*
Y909956D01*
X1892934D01*
X1887856Y904877D01*
X1886586D01*
X1885316Y912495D02*
Y917573D01*
X1892934Y920112D02*
X1894204Y921382D01*
Y923921D01*
X1892934Y925191D01*
X1891664D01*
X1890395Y923921D01*
Y922652D01*
Y923921D01*
X1889125Y925191D01*
X1887856D01*
X1886586Y923921D01*
Y921382D01*
X1887856Y920112D01*
X1886586Y927730D02*
Y930269D01*
Y928999D01*
X1894204D01*
X1892934Y927730D01*
X1893218Y659639D02*
X1894487Y658370D01*
Y655831D01*
X1893218Y654561D01*
X1888140D01*
X1886870Y655831D01*
Y658370D01*
X1888140Y659639D01*
X1886870Y662178D02*
Y664718D01*
Y663448D01*
X1894487D01*
X1893218Y662178D01*
X1894487Y668526D02*
Y673605D01*
X1893218D01*
X1888140Y668526D01*
X1886870D01*
X1885600Y676144D02*
Y681222D01*
X1893218Y683762D02*
X1894487Y685031D01*
Y687570D01*
X1893218Y688840D01*
X1891948D01*
X1890679Y687570D01*
Y686301D01*
Y687570D01*
X1889409Y688840D01*
X1888140D01*
X1886870Y687570D01*
Y685031D01*
X1888140Y683762D01*
X1893218Y691379D02*
X1894487Y692649D01*
Y695188D01*
X1893218Y696457D01*
X1888140D01*
X1886870Y695188D01*
Y692649D01*
X1888140Y691379D01*
X1893218D01*
X1696084Y659770D02*
X1697354Y658501D01*
Y655961D01*
X1696084Y654692D01*
X1691006D01*
X1689736Y655961D01*
Y658501D01*
X1691006Y659770D01*
X1689736Y662309D02*
Y664848D01*
Y663579D01*
X1697354D01*
X1696084Y662309D01*
X1697354Y668657D02*
Y673736D01*
X1696084D01*
X1691006Y668657D01*
X1689736D01*
X1688466Y676275D02*
Y681353D01*
X1689736Y688971D02*
Y683892D01*
X1694814Y688971D01*
X1696084D01*
X1697354Y687701D01*
Y685162D01*
X1696084Y683892D01*
X1691006Y691510D02*
X1689736Y692779D01*
Y695319D01*
X1691006Y696588D01*
X1696084D01*
X1697354Y695319D01*
Y692779D01*
X1696084Y691510D01*
X1694814D01*
X1693545Y692779D01*
Y696588D01*
X1499234Y659770D02*
X1500504Y658501D01*
Y655961D01*
X1499234Y654692D01*
X1494156D01*
X1492886Y655961D01*
Y658501D01*
X1494156Y659770D01*
X1492886Y662309D02*
Y664848D01*
Y663579D01*
X1500504D01*
X1499234Y662309D01*
X1500504Y668657D02*
Y673736D01*
X1499234D01*
X1494156Y668657D01*
X1492886D01*
X1491616Y676275D02*
Y681353D01*
X1492886Y688971D02*
Y683892D01*
X1497964Y688971D01*
X1499234D01*
X1500504Y687701D01*
Y685162D01*
X1499234Y683892D01*
Y691510D02*
X1500504Y692779D01*
Y695319D01*
X1499234Y696588D01*
X1497964D01*
X1496695Y695319D01*
X1495425Y696588D01*
X1494156D01*
X1492886Y695319D01*
Y692779D01*
X1494156Y691510D01*
X1495425D01*
X1496695Y692779D01*
X1497964Y691510D01*
X1499234D01*
X1496695Y692779D02*
Y695319D01*
X1302384Y659770D02*
X1303654Y658501D01*
Y655961D01*
X1302384Y654692D01*
X1297306D01*
X1296036Y655961D01*
Y658501D01*
X1297306Y659770D01*
X1296036Y662309D02*
Y664848D01*
Y663579D01*
X1303654D01*
X1302384Y662309D01*
X1303654Y668657D02*
Y673736D01*
X1302384D01*
X1297306Y668657D01*
X1296036D01*
X1294766Y676275D02*
Y681353D01*
X1296036Y688971D02*
Y683892D01*
X1301114Y688971D01*
X1302384D01*
X1303654Y687701D01*
Y685162D01*
X1302384Y683892D01*
X1303654Y691510D02*
Y696588D01*
X1302384D01*
X1297306Y691510D01*
X1296036D01*
X1105818Y659639D02*
X1107087Y658370D01*
Y655831D01*
X1105818Y654561D01*
X1100740D01*
X1099470Y655831D01*
Y658370D01*
X1100740Y659639D01*
X1099470Y662178D02*
Y664718D01*
Y663448D01*
X1107087D01*
X1105818Y662178D01*
X1107087Y668527D02*
Y673605D01*
X1105818D01*
X1100740Y668527D01*
X1099470D01*
X1098200Y676144D02*
Y681222D01*
X1099470Y688840D02*
Y683762D01*
X1104548Y688840D01*
X1105818D01*
X1107087Y687570D01*
Y685031D01*
X1105818Y683762D01*
X1107087Y696457D02*
X1105818Y693918D01*
X1103279Y691379D01*
X1100740D01*
X1099470Y692649D01*
Y695188D01*
X1100740Y696457D01*
X1102009D01*
X1103279Y695188D01*
Y691379D01*
X1891664Y437520D02*
X1892934Y436251D01*
Y433711D01*
X1891664Y432442D01*
X1886586D01*
X1885316Y433711D01*
Y436251D01*
X1886586Y437520D01*
X1885316Y440059D02*
Y442598D01*
Y441329D01*
X1892934D01*
X1891664Y440059D01*
X1892934Y446407D02*
Y451486D01*
X1891664D01*
X1886586Y446407D01*
X1885316D01*
X1884046Y454025D02*
Y459103D01*
X1885316Y466721D02*
Y461642D01*
X1890394Y466721D01*
X1891664D01*
X1892934Y465451D01*
Y462912D01*
X1891664Y461642D01*
X1892934Y474338D02*
Y469260D01*
X1889125D01*
X1890394Y471799D01*
Y473069D01*
X1889125Y474338D01*
X1886586D01*
X1885316Y473069D01*
Y470530D01*
X1886586Y469260D01*
X1694814Y437520D02*
X1696084Y436250D01*
Y433711D01*
X1694814Y432442D01*
X1689736D01*
X1688466Y433711D01*
Y436250D01*
X1689736Y437520D01*
X1688466Y440059D02*
Y442598D01*
Y441329D01*
X1696084D01*
X1694814Y440059D01*
X1696084Y446407D02*
Y451486D01*
X1694814D01*
X1689736Y446407D01*
X1688466D01*
X1687196Y454025D02*
Y459103D01*
X1688466Y466721D02*
Y461642D01*
X1693544Y466721D01*
X1694814D01*
X1696084Y465451D01*
Y462912D01*
X1694814Y461642D01*
X1688466Y473069D02*
X1696084D01*
X1692275Y469260D01*
Y474338D01*
X1497964Y437520D02*
X1499234Y436251D01*
Y433711D01*
X1497964Y432442D01*
X1492886D01*
X1491616Y433711D01*
Y436251D01*
X1492886Y437520D01*
X1491616Y440059D02*
Y442598D01*
Y441329D01*
X1499234D01*
X1497964Y440059D01*
X1499234Y446407D02*
Y451486D01*
X1497964D01*
X1492886Y446407D01*
X1491616D01*
X1490346Y454025D02*
Y459103D01*
X1491616Y466721D02*
Y461642D01*
X1496694Y466721D01*
X1497964D01*
X1499234Y465451D01*
Y462912D01*
X1497964Y461642D01*
Y469260D02*
X1499234Y470530D01*
Y473069D01*
X1497964Y474338D01*
X1496694D01*
X1495425Y473069D01*
Y471799D01*
Y473069D01*
X1494155Y474338D01*
X1492886D01*
X1491616Y473069D01*
Y470530D01*
X1492886Y469260D01*
X1301114Y437520D02*
X1302384Y436250D01*
Y433711D01*
X1301114Y432442D01*
X1296036D01*
X1294766Y433711D01*
Y436250D01*
X1296036Y437520D01*
X1294766Y440059D02*
Y442598D01*
Y441329D01*
X1302384D01*
X1301114Y440059D01*
X1302384Y446407D02*
Y451486D01*
X1301114D01*
X1296036Y446407D01*
X1294766D01*
X1293496Y454025D02*
Y459103D01*
X1294766Y466721D02*
Y461642D01*
X1299844Y466721D01*
X1301114D01*
X1302384Y465451D01*
Y462912D01*
X1301114Y461642D01*
X1294766Y474338D02*
Y469260D01*
X1299844Y474338D01*
X1301114D01*
X1302384Y473069D01*
Y470529D01*
X1301114Y469260D01*
X1104264Y437520D02*
X1105534Y436251D01*
Y433711D01*
X1104264Y432442D01*
X1099186D01*
X1097916Y433711D01*
Y436251D01*
X1099186Y437520D01*
X1097916Y440059D02*
Y442598D01*
Y441329D01*
X1105534D01*
X1104264Y440059D01*
X1105534Y446407D02*
Y451486D01*
X1104264D01*
X1099186Y446407D01*
X1097916D01*
X1096646Y454025D02*
Y459103D01*
X1097916Y466721D02*
Y461642D01*
X1102994Y466721D01*
X1104264D01*
X1105534Y465451D01*
Y462912D01*
X1104264Y461642D01*
X1097916Y469260D02*
Y471799D01*
Y470530D01*
X1105534D01*
X1104264Y469260D01*
X925194Y1080140D02*
X926464Y1078870D01*
Y1076331D01*
X925194Y1075062D01*
X920116D01*
X918846Y1076331D01*
Y1078870D01*
X920116Y1080140D01*
X918846Y1082679D02*
Y1085219D01*
Y1083949D01*
X926464D01*
X925194Y1082679D01*
X926464Y1094106D02*
X925194Y1091566D01*
X922655Y1089027D01*
X920116D01*
X918846Y1090297D01*
Y1092836D01*
X920116Y1094106D01*
X921385D01*
X922655Y1092836D01*
Y1089027D01*
X917576Y1096645D02*
Y1101723D01*
X918846Y1108071D02*
X926464D01*
X922655Y1104262D01*
Y1109341D01*
X925194Y1111880D02*
X926464Y1113149D01*
Y1115689D01*
X925194Y1116958D01*
X920116D01*
X918846Y1115689D01*
Y1113149D01*
X920116Y1111880D01*
X925194D01*
X1122044Y1080140D02*
X1123314Y1078871D01*
Y1076331D01*
X1122044Y1075062D01*
X1116966D01*
X1115696Y1076331D01*
Y1078871D01*
X1116966Y1080140D01*
X1115696Y1082679D02*
Y1085219D01*
Y1083949D01*
X1123314D01*
X1122044Y1082679D01*
X1123314Y1094106D02*
X1122044Y1091566D01*
X1119505Y1089027D01*
X1116966D01*
X1115696Y1090297D01*
Y1092836D01*
X1116966Y1094106D01*
X1118235D01*
X1119505Y1092836D01*
Y1089027D01*
X1114426Y1096645D02*
Y1101723D01*
X1122044Y1104262D02*
X1123314Y1105532D01*
Y1108071D01*
X1122044Y1109341D01*
X1120774D01*
X1119505Y1108071D01*
Y1106802D01*
Y1108071D01*
X1118235Y1109341D01*
X1116966D01*
X1115696Y1108071D01*
Y1105532D01*
X1116966Y1104262D01*
Y1111880D02*
X1115696Y1113149D01*
Y1115689D01*
X1116966Y1116958D01*
X1122044D01*
X1123314Y1115689D01*
Y1113149D01*
X1122044Y1111880D01*
X1120774D01*
X1119505Y1113149D01*
Y1116958D01*
X1318894Y1080140D02*
X1320164Y1078871D01*
Y1076331D01*
X1318894Y1075062D01*
X1313816D01*
X1312546Y1076331D01*
Y1078871D01*
X1313816Y1080140D01*
X1312546Y1082679D02*
Y1085219D01*
Y1083949D01*
X1320164D01*
X1318894Y1082679D01*
X1320164Y1094106D02*
X1318894Y1091566D01*
X1316355Y1089027D01*
X1313816D01*
X1312546Y1090297D01*
Y1092836D01*
X1313816Y1094106D01*
X1315085D01*
X1316355Y1092836D01*
Y1089027D01*
X1311276Y1096645D02*
Y1101723D01*
X1318894Y1104262D02*
X1320164Y1105532D01*
Y1108071D01*
X1318894Y1109341D01*
X1317624D01*
X1316355Y1108071D01*
Y1106802D01*
Y1108071D01*
X1315085Y1109341D01*
X1313816D01*
X1312546Y1108071D01*
Y1105532D01*
X1313816Y1104262D01*
X1318894Y1111880D02*
X1320164Y1113149D01*
Y1115689D01*
X1318894Y1116958D01*
X1317624D01*
X1316355Y1115689D01*
X1315085Y1116958D01*
X1313816D01*
X1312546Y1115689D01*
Y1113149D01*
X1313816Y1111880D01*
X1315085D01*
X1316355Y1113149D01*
X1317624Y1111880D01*
X1318894D01*
X1316355Y1113149D02*
Y1115689D01*
X1515744Y1080140D02*
X1517014Y1078871D01*
Y1076331D01*
X1515744Y1075062D01*
X1510666D01*
X1509396Y1076331D01*
Y1078871D01*
X1510666Y1080140D01*
X1509396Y1082679D02*
Y1085219D01*
Y1083949D01*
X1517014D01*
X1515744Y1082679D01*
X1517014Y1094106D02*
X1515744Y1091566D01*
X1513205Y1089027D01*
X1510666D01*
X1509396Y1090297D01*
Y1092836D01*
X1510666Y1094106D01*
X1511935D01*
X1513205Y1092836D01*
Y1089027D01*
X1508126Y1096645D02*
Y1101723D01*
X1515744Y1104262D02*
X1517014Y1105532D01*
Y1108071D01*
X1515744Y1109341D01*
X1514474D01*
X1513205Y1108071D01*
Y1106802D01*
Y1108071D01*
X1511935Y1109341D01*
X1510666D01*
X1509396Y1108071D01*
Y1105532D01*
X1510666Y1104262D01*
X1517014Y1111880D02*
Y1116958D01*
X1515744D01*
X1510666Y1111880D01*
X1509396D01*
X1712594Y1080140D02*
X1713864Y1078871D01*
Y1076331D01*
X1712594Y1075062D01*
X1707516D01*
X1706246Y1076331D01*
Y1078871D01*
X1707516Y1080140D01*
X1706246Y1082679D02*
Y1085219D01*
Y1083949D01*
X1713864D01*
X1712594Y1082679D01*
X1713864Y1094106D02*
X1712594Y1091566D01*
X1710055Y1089027D01*
X1707516D01*
X1706246Y1090297D01*
Y1092836D01*
X1707516Y1094106D01*
X1708785D01*
X1710055Y1092836D01*
Y1089027D01*
X1704976Y1096645D02*
Y1101723D01*
X1712594Y1104262D02*
X1713864Y1105532D01*
Y1108071D01*
X1712594Y1109341D01*
X1711324D01*
X1710055Y1108071D01*
Y1106802D01*
Y1108071D01*
X1708785Y1109341D01*
X1707516D01*
X1706246Y1108071D01*
Y1105532D01*
X1707516Y1104262D01*
X1713864Y1116958D02*
X1712594Y1114419D01*
X1710055Y1111880D01*
X1707516D01*
X1706246Y1113149D01*
Y1115689D01*
X1707516Y1116958D01*
X1708785D01*
X1710055Y1115689D01*
Y1111880D01*
X926464Y895990D02*
X927734Y894721D01*
Y892181D01*
X926464Y890912D01*
X921386D01*
X920116Y892181D01*
Y894721D01*
X921386Y895990D01*
X920116Y898529D02*
Y901068D01*
Y899799D01*
X927734D01*
X926464Y898529D01*
X927734Y909956D02*
X926464Y907416D01*
X923925Y904877D01*
X921386D01*
X920116Y906147D01*
Y908686D01*
X921386Y909956D01*
X922655D01*
X923925Y908686D01*
Y904877D01*
X918846Y912495D02*
Y917573D01*
X926464Y920112D02*
X927734Y921382D01*
Y923921D01*
X926464Y925191D01*
X925194D01*
X923925Y923921D01*
Y922652D01*
Y923921D01*
X922655Y925191D01*
X921386D01*
X920116Y923921D01*
Y921382D01*
X921386Y920112D01*
X927734Y932808D02*
Y927730D01*
X923925D01*
X925194Y930269D01*
Y931539D01*
X923925Y932808D01*
X921386D01*
X920116Y931539D01*
Y928999D01*
X921386Y927730D01*
X1123314Y895990D02*
X1124584Y894721D01*
Y892181D01*
X1123314Y890912D01*
X1118236D01*
X1116966Y892181D01*
Y894721D01*
X1118236Y895990D01*
X1116966Y898529D02*
Y901068D01*
Y899799D01*
X1124584D01*
X1123314Y898529D01*
X1124584Y909956D02*
X1123314Y907416D01*
X1120775Y904877D01*
X1118236D01*
X1116966Y906147D01*
Y908686D01*
X1118236Y909956D01*
X1119505D01*
X1120775Y908686D01*
Y904877D01*
X1115696Y912495D02*
Y917573D01*
X1123314Y920112D02*
X1124584Y921382D01*
Y923921D01*
X1123314Y925191D01*
X1122044D01*
X1120775Y923921D01*
Y922652D01*
Y923921D01*
X1119505Y925191D01*
X1118236D01*
X1116966Y923921D01*
Y921382D01*
X1118236Y920112D01*
X1116966Y931539D02*
X1124584D01*
X1120775Y927730D01*
Y932808D01*
X1320164Y895990D02*
X1321434Y894721D01*
Y892181D01*
X1320164Y890912D01*
X1315086D01*
X1313816Y892181D01*
Y894721D01*
X1315086Y895990D01*
X1313816Y898529D02*
Y901068D01*
Y899799D01*
X1321434D01*
X1320164Y898529D01*
X1321434Y909956D02*
X1320164Y907416D01*
X1317625Y904877D01*
X1315086D01*
X1313816Y906147D01*
Y908686D01*
X1315086Y909956D01*
X1316355D01*
X1317625Y908686D01*
Y904877D01*
X1312546Y912495D02*
Y917573D01*
X1320164Y920112D02*
X1321434Y921382D01*
Y923921D01*
X1320164Y925191D01*
X1318894D01*
X1317625Y923921D01*
Y922652D01*
Y923921D01*
X1316355Y925191D01*
X1315086D01*
X1313816Y923921D01*
Y921382D01*
X1315086Y920112D01*
X1320164Y927730D02*
X1321434Y928999D01*
Y931539D01*
X1320164Y932808D01*
X1318894D01*
X1317625Y931539D01*
Y930269D01*
Y931539D01*
X1316355Y932808D01*
X1315086D01*
X1313816Y931539D01*
Y928999D01*
X1315086Y927730D01*
X1517014Y895990D02*
X1518284Y894721D01*
Y892181D01*
X1517014Y890912D01*
X1511936D01*
X1510666Y892181D01*
Y894721D01*
X1511936Y895990D01*
X1510666Y898529D02*
Y901068D01*
Y899799D01*
X1518284D01*
X1517014Y898529D01*
X1518284Y909956D02*
X1517014Y907416D01*
X1514475Y904877D01*
X1511936D01*
X1510666Y906147D01*
Y908686D01*
X1511936Y909956D01*
X1513205D01*
X1514475Y908686D01*
Y904877D01*
X1509396Y912495D02*
Y917573D01*
X1517014Y920112D02*
X1518284Y921382D01*
Y923921D01*
X1517014Y925191D01*
X1515744D01*
X1514475Y923921D01*
Y922652D01*
Y923921D01*
X1513205Y925191D01*
X1511936D01*
X1510666Y923921D01*
Y921382D01*
X1511936Y920112D01*
X1510666Y932808D02*
Y927730D01*
X1515744Y932808D01*
X1517014D01*
X1518284Y931539D01*
Y928999D01*
X1517014Y927730D01*
X1713864Y895990D02*
X1715134Y894721D01*
Y892181D01*
X1713864Y890912D01*
X1708786D01*
X1707516Y892181D01*
Y894721D01*
X1708786Y895990D01*
X1707516Y898529D02*
Y901068D01*
Y899799D01*
X1715134D01*
X1713864Y898529D01*
X1715134Y909956D02*
X1713864Y907416D01*
X1711325Y904877D01*
X1708786D01*
X1707516Y906147D01*
Y908686D01*
X1708786Y909956D01*
X1710055D01*
X1711325Y908686D01*
Y904877D01*
X1706246Y912495D02*
Y917573D01*
X1713864Y920112D02*
X1715134Y921382D01*
Y923921D01*
X1713864Y925191D01*
X1712594D01*
X1711325Y923921D01*
Y922652D01*
Y923921D01*
X1710055Y925191D01*
X1708786D01*
X1707516Y923921D01*
Y921382D01*
X1708786Y920112D01*
X1707516Y927730D02*
Y930269D01*
Y928999D01*
X1715134D01*
X1713864Y927730D01*
X1714148Y659639D02*
X1715417Y658370D01*
Y655831D01*
X1714148Y654561D01*
X1709070D01*
X1707800Y655831D01*
Y658370D01*
X1709070Y659639D01*
X1707800Y662178D02*
Y664718D01*
Y663448D01*
X1715417D01*
X1714148Y662178D01*
X1715417Y673605D02*
X1714148Y671066D01*
X1711609Y668526D01*
X1709070D01*
X1707800Y669796D01*
Y672335D01*
X1709070Y673605D01*
X1710339D01*
X1711609Y672335D01*
Y668526D01*
X1706530Y676144D02*
Y681222D01*
X1714148Y683762D02*
X1715417Y685031D01*
Y687570D01*
X1714148Y688840D01*
X1712878D01*
X1711609Y687570D01*
Y686301D01*
Y687570D01*
X1710339Y688840D01*
X1709070D01*
X1707800Y687570D01*
Y685031D01*
X1709070Y683762D01*
X1714148Y691379D02*
X1715417Y692649D01*
Y695188D01*
X1714148Y696457D01*
X1709070D01*
X1707800Y695188D01*
Y692649D01*
X1709070Y691379D01*
X1714148D01*
X1517014Y659770D02*
X1518284Y658501D01*
Y655961D01*
X1517014Y654692D01*
X1511936D01*
X1510666Y655961D01*
Y658501D01*
X1511936Y659770D01*
X1510666Y662309D02*
Y664848D01*
Y663579D01*
X1518284D01*
X1517014Y662309D01*
X1518284Y673736D02*
X1517014Y671196D01*
X1514475Y668657D01*
X1511936D01*
X1510666Y669927D01*
Y672466D01*
X1511936Y673736D01*
X1513205D01*
X1514475Y672466D01*
Y668657D01*
X1509396Y676275D02*
Y681353D01*
X1510666Y688971D02*
Y683892D01*
X1515744Y688971D01*
X1517014D01*
X1518284Y687701D01*
Y685162D01*
X1517014Y683892D01*
X1511936Y691510D02*
X1510666Y692779D01*
Y695319D01*
X1511936Y696588D01*
X1517014D01*
X1518284Y695319D01*
Y692779D01*
X1517014Y691510D01*
X1515744D01*
X1514475Y692779D01*
Y696588D01*
X1320164Y659770D02*
X1321434Y658501D01*
Y655961D01*
X1320164Y654692D01*
X1315086D01*
X1313816Y655961D01*
Y658501D01*
X1315086Y659770D01*
X1313816Y662309D02*
Y664848D01*
Y663579D01*
X1321434D01*
X1320164Y662309D01*
X1321434Y673736D02*
X1320164Y671196D01*
X1317625Y668657D01*
X1315086D01*
X1313816Y669927D01*
Y672466D01*
X1315086Y673736D01*
X1316355D01*
X1317625Y672466D01*
Y668657D01*
X1312546Y676275D02*
Y681353D01*
X1313816Y688971D02*
Y683892D01*
X1318894Y688971D01*
X1320164D01*
X1321434Y687701D01*
Y685162D01*
X1320164Y683892D01*
Y691510D02*
X1321434Y692779D01*
Y695319D01*
X1320164Y696588D01*
X1318894D01*
X1317625Y695319D01*
X1316355Y696588D01*
X1315086D01*
X1313816Y695319D01*
Y692779D01*
X1315086Y691510D01*
X1316355D01*
X1317625Y692779D01*
X1318894Y691510D01*
X1320164D01*
X1317625Y692779D02*
Y695319D01*
X1123314Y659770D02*
X1124584Y658501D01*
Y655961D01*
X1123314Y654692D01*
X1118236D01*
X1116966Y655961D01*
Y658501D01*
X1118236Y659770D01*
X1116966Y662309D02*
Y664848D01*
Y663579D01*
X1124584D01*
X1123314Y662309D01*
X1124584Y673736D02*
X1123314Y671196D01*
X1120775Y668657D01*
X1118236D01*
X1116966Y669927D01*
Y672466D01*
X1118236Y673736D01*
X1119505D01*
X1120775Y672466D01*
Y668657D01*
X1115696Y676275D02*
Y681353D01*
X1116966Y688971D02*
Y683892D01*
X1122044Y688971D01*
X1123314D01*
X1124584Y687701D01*
Y685162D01*
X1123314Y683892D01*
X1124584Y691510D02*
Y696588D01*
X1123314D01*
X1118236Y691510D01*
X1116966D01*
X926748Y659639D02*
X928018Y658370D01*
Y655831D01*
X926748Y654561D01*
X921670D01*
X920400Y655831D01*
Y658370D01*
X921670Y659639D01*
X920400Y662178D02*
Y664718D01*
Y663448D01*
X928018D01*
X926748Y662178D01*
X928018Y673605D02*
X926748Y671066D01*
X924209Y668527D01*
X921670D01*
X920400Y669796D01*
Y672335D01*
X921670Y673605D01*
X922939D01*
X924209Y672335D01*
Y668527D01*
X919130Y676144D02*
Y681222D01*
X920400Y688840D02*
Y683762D01*
X925478Y688840D01*
X926748D01*
X928018Y687570D01*
Y685031D01*
X926748Y683762D01*
X928018Y696457D02*
X926748Y693918D01*
X924209Y691379D01*
X921670D01*
X920400Y692649D01*
Y695188D01*
X921670Y696457D01*
X922939D01*
X924209Y695188D01*
Y691379D01*
X1712594Y437520D02*
X1713864Y436251D01*
Y433711D01*
X1712594Y432442D01*
X1707516D01*
X1706246Y433711D01*
Y436251D01*
X1707516Y437520D01*
X1706246Y440059D02*
Y442598D01*
Y441329D01*
X1713864D01*
X1712594Y440059D01*
X1713864Y451486D02*
X1712594Y448946D01*
X1710055Y446407D01*
X1707516D01*
X1706246Y447677D01*
Y450216D01*
X1707516Y451486D01*
X1708785D01*
X1710055Y450216D01*
Y446407D01*
X1704976Y454025D02*
Y459103D01*
X1706246Y466721D02*
Y461642D01*
X1711324Y466721D01*
X1712594D01*
X1713864Y465451D01*
Y462912D01*
X1712594Y461642D01*
X1713864Y474338D02*
Y469260D01*
X1710055D01*
X1711324Y471799D01*
Y473069D01*
X1710055Y474338D01*
X1707516D01*
X1706246Y473069D01*
Y470530D01*
X1707516Y469260D01*
X1515744Y437520D02*
X1517014Y436250D01*
Y433711D01*
X1515744Y432442D01*
X1510666D01*
X1509396Y433711D01*
Y436250D01*
X1510666Y437520D01*
X1509396Y440059D02*
Y442598D01*
Y441329D01*
X1517014D01*
X1515744Y440059D01*
X1517014Y451486D02*
X1515744Y448946D01*
X1513205Y446407D01*
X1510666D01*
X1509396Y447677D01*
Y450216D01*
X1510666Y451486D01*
X1511935D01*
X1513205Y450216D01*
Y446407D01*
X1508126Y454025D02*
Y459103D01*
X1509396Y466721D02*
Y461642D01*
X1514474Y466721D01*
X1515744D01*
X1517014Y465451D01*
Y462912D01*
X1515744Y461642D01*
X1509396Y473069D02*
X1517014D01*
X1513205Y469260D01*
Y474338D01*
X1318894Y437520D02*
X1320164Y436251D01*
Y433711D01*
X1318894Y432442D01*
X1313816D01*
X1312546Y433711D01*
Y436251D01*
X1313816Y437520D01*
X1312546Y440059D02*
Y442598D01*
Y441329D01*
X1320164D01*
X1318894Y440059D01*
X1320164Y451486D02*
X1318894Y448946D01*
X1316355Y446407D01*
X1313816D01*
X1312546Y447677D01*
Y450216D01*
X1313816Y451486D01*
X1315085D01*
X1316355Y450216D01*
Y446407D01*
X1311276Y454025D02*
Y459103D01*
X1312546Y466721D02*
Y461642D01*
X1317624Y466721D01*
X1318894D01*
X1320164Y465451D01*
Y462912D01*
X1318894Y461642D01*
Y469260D02*
X1320164Y470530D01*
Y473069D01*
X1318894Y474338D01*
X1317624D01*
X1316355Y473069D01*
Y471799D01*
Y473069D01*
X1315085Y474338D01*
X1313816D01*
X1312546Y473069D01*
Y470530D01*
X1313816Y469260D01*
X1122044Y437520D02*
X1123314Y436251D01*
Y433711D01*
X1122044Y432442D01*
X1116966D01*
X1115696Y433711D01*
Y436251D01*
X1116966Y437520D01*
X1115696Y440059D02*
Y442598D01*
Y441329D01*
X1123314D01*
X1122044Y440059D01*
X1123314Y451486D02*
X1122044Y448946D01*
X1119505Y446407D01*
X1116966D01*
X1115696Y447677D01*
Y450216D01*
X1116966Y451486D01*
X1118235D01*
X1119505Y450216D01*
Y446407D01*
X1114426Y454025D02*
Y459103D01*
X1115696Y466721D02*
Y461642D01*
X1120774Y466721D01*
X1122044D01*
X1123314Y465451D01*
Y462912D01*
X1122044Y461642D01*
X1115696Y474338D02*
Y469260D01*
X1120774Y474338D01*
X1122044D01*
X1123314Y473069D01*
Y470530D01*
X1122044Y469260D01*
X925194Y437520D02*
X926464Y436251D01*
Y433711D01*
X925194Y432442D01*
X920116D01*
X918846Y433711D01*
Y436251D01*
X920116Y437520D01*
X918846Y440059D02*
Y442598D01*
Y441329D01*
X926464D01*
X925194Y440059D01*
X926464Y451486D02*
X925194Y448946D01*
X922655Y446407D01*
X920116D01*
X918846Y447677D01*
Y450216D01*
X920116Y451486D01*
X921385D01*
X922655Y450216D01*
Y446407D01*
X917576Y454025D02*
Y459103D01*
X918846Y466721D02*
Y461642D01*
X923924Y466721D01*
X925194D01*
X926464Y465451D01*
Y462912D01*
X925194Y461642D01*
X918846Y469260D02*
Y471799D01*
Y470530D01*
X926464D01*
X925194Y469260D01*
X2029590Y1127507D02*
X2028321Y1126237D01*
X2025782D01*
X2024512Y1127507D01*
Y1132585D01*
X2025782Y1133855D01*
X2028321D01*
X2029590Y1132585D01*
X2032130Y1133855D02*
X2034669D01*
X2033399D01*
Y1126237D01*
X2032130Y1127507D01*
X2043556Y1126237D02*
X2038478D01*
Y1130046D01*
X2041017Y1128777D01*
X2042286D01*
X2043556Y1130046D01*
Y1132585D01*
X2042286Y1133855D01*
X2039747D01*
X2038478Y1132585D01*
X2046095Y1135125D02*
X2051174D01*
X2053713Y1127507D02*
X2054982Y1126237D01*
X2057522D01*
X2058791Y1127507D01*
Y1128777D01*
X2057522Y1130046D01*
X2058791Y1131316D01*
Y1132585D01*
X2057522Y1133855D01*
X2054982D01*
X2053713Y1132585D01*
Y1131316D01*
X2054982Y1130046D01*
X2053713Y1128777D01*
Y1127507D01*
X2054982Y1130046D02*
X2057522D01*
X2032130Y958216D02*
X2030861Y956946D01*
X2028322D01*
X2027052Y958216D01*
Y963294D01*
X2028322Y964564D01*
X2030861D01*
X2032130Y963294D01*
X2034670Y964564D02*
X2037209D01*
X2035939D01*
Y956946D01*
X2034670Y958216D01*
X2046096Y956946D02*
X2041018D01*
Y960755D01*
X2043557Y959486D01*
X2044826D01*
X2046096Y960755D01*
Y963294D01*
X2044826Y964564D01*
X2042287D01*
X2041018Y963294D01*
X2048635Y965834D02*
X2053714D01*
X2056253Y956946D02*
X2061331D01*
Y958216D01*
X2056253Y963294D01*
Y964564D01*
X2028828Y734315D02*
X2027559Y733045D01*
X2025020D01*
X2023750Y734315D01*
Y739393D01*
X2025020Y740663D01*
X2027559D01*
X2028828Y739393D01*
X2031368Y740663D02*
X2033907D01*
X2032637D01*
Y733045D01*
X2031368Y734315D01*
X2042794Y733045D02*
X2037716D01*
Y736854D01*
X2040255Y735585D01*
X2041524D01*
X2042794Y736854D01*
Y739393D01*
X2041524Y740663D01*
X2038985D01*
X2037716Y739393D01*
X2045333Y741933D02*
X2050412D01*
X2058029Y733045D02*
X2055490Y734315D01*
X2052951Y736854D01*
Y739393D01*
X2054220Y740663D01*
X2056759D01*
X2058029Y739393D01*
Y738124D01*
X2056759Y736854D01*
X2052951D01*
X2033728Y507026D02*
X2032458Y505756D01*
X2029919D01*
X2028649Y507026D01*
Y512104D01*
X2029919Y513374D01*
X2032458D01*
X2033728Y512104D01*
X2036267Y513374D02*
X2038806D01*
X2037536D01*
Y505756D01*
X2036267Y507026D01*
X2047693Y505756D02*
X2042615D01*
Y509565D01*
X2045154Y508296D01*
X2046423D01*
X2047693Y509565D01*
Y512104D01*
X2046423Y513374D01*
X2043884D01*
X2042615Y512104D01*
X2050232Y514644D02*
X2055311D01*
X2062928Y505756D02*
X2057850D01*
Y509565D01*
X2060389Y508296D01*
X2061658D01*
X2062928Y509565D01*
Y512104D01*
X2061658Y513374D01*
X2059119D01*
X2057850Y512104D01*
X2024129Y1155447D02*
X2022860Y1154177D01*
X2020321D01*
X2019051Y1155447D01*
Y1160525D01*
X2020321Y1161795D01*
X2022860D01*
X2024129Y1160525D01*
X2026669Y1161795D02*
X2029208D01*
X2027938D01*
Y1154177D01*
X2026669Y1155447D01*
X2036825Y1161795D02*
Y1154177D01*
X2033017Y1157986D01*
X2038095D01*
X2040634Y1163065D02*
X2045712D01*
X2048252Y1155447D02*
X2049521Y1154177D01*
X2052061D01*
X2053330Y1155447D01*
Y1156717D01*
X2052061Y1157986D01*
X2053330Y1159256D01*
Y1160525D01*
X2052061Y1161795D01*
X2049521D01*
X2048252Y1160525D01*
Y1159256D01*
X2049521Y1157986D01*
X2048252Y1156717D01*
Y1155447D01*
X2049521Y1157986D02*
X2052061D01*
X2026669Y986156D02*
X2025400Y984886D01*
X2022861D01*
X2021591Y986156D01*
Y991234D01*
X2022861Y992504D01*
X2025400D01*
X2026669Y991234D01*
X2029209Y992504D02*
X2031748D01*
X2030478D01*
Y984886D01*
X2029209Y986156D01*
X2039365Y992504D02*
Y984886D01*
X2035557Y988695D01*
X2040635D01*
X2043174Y993774D02*
X2048253D01*
X2050792Y984886D02*
X2055870D01*
Y986156D01*
X2050792Y991234D01*
Y992504D01*
X2023367Y762255D02*
X2022098Y760985D01*
X2019559D01*
X2018289Y762255D01*
Y767333D01*
X2019559Y768603D01*
X2022098D01*
X2023367Y767333D01*
X2025907Y768603D02*
X2028446D01*
X2027176D01*
Y760985D01*
X2025907Y762255D01*
X2036063Y768603D02*
Y760985D01*
X2032255Y764794D01*
X2037333D01*
X2039872Y769873D02*
X2044951D01*
X2052568Y760985D02*
X2050029Y762255D01*
X2047490Y764794D01*
Y767333D01*
X2048759Y768603D01*
X2051299D01*
X2052568Y767333D01*
Y766064D01*
X2051299Y764794D01*
X2047490D01*
X2028266Y534966D02*
X2026997Y533696D01*
X2024458D01*
X2023188Y534966D01*
Y540044D01*
X2024458Y541314D01*
X2026997D01*
X2028266Y540044D01*
X2030806Y541314D02*
X2033345D01*
X2032075D01*
Y533696D01*
X2030806Y534966D01*
X2040962Y541314D02*
Y533696D01*
X2037154Y537505D01*
X2042232D01*
X2044771Y542584D02*
X2049850D01*
X2057467Y533696D02*
X2052389D01*
Y537505D01*
X2054928Y536236D01*
X2056198D01*
X2057467Y537505D01*
Y540044D01*
X2056198Y541314D01*
X2053658D01*
X2052389Y540044D01*
X2000378Y1060192D02*
X1999108Y1061462D01*
Y1064001D01*
X2000378Y1065271D01*
X2005456D01*
X2006726Y1064001D01*
Y1061462D01*
X2005456Y1060192D01*
X2006726Y1057653D02*
Y1055114D01*
Y1056384D01*
X1999108D01*
X2000378Y1057653D01*
Y1051305D02*
X1999108Y1050036D01*
Y1047497D01*
X2000378Y1046227D01*
X2001648D01*
X2002917Y1047497D01*
Y1048766D01*
Y1047497D01*
X2004187Y1046227D01*
X2005456D01*
X2006726Y1047497D01*
Y1050036D01*
X2005456Y1051305D01*
X2007996Y1043688D02*
Y1038609D01*
X2000378Y1036070D02*
X1999108Y1034801D01*
Y1032262D01*
X2000378Y1030992D01*
X2001648D01*
X2002917Y1032262D01*
X2004187Y1030992D01*
X2005456D01*
X2006726Y1032262D01*
Y1034801D01*
X2005456Y1036070D01*
X2004187D01*
X2002917Y1034801D01*
X2001648Y1036070D01*
X2000378D01*
X2002917Y1034801D02*
Y1032262D01*
X2002918Y890901D02*
X2001648Y892171D01*
Y894710D01*
X2002918Y895980D01*
X2007996D01*
X2009266Y894710D01*
Y892171D01*
X2007996Y890901D01*
X2009266Y888362D02*
Y885823D01*
Y887093D01*
X2001648D01*
X2002918Y888362D01*
Y882014D02*
X2001648Y880745D01*
Y878206D01*
X2002918Y876936D01*
X2004188D01*
X2005457Y878206D01*
Y879475D01*
Y878206D01*
X2006727Y876936D01*
X2007996D01*
X2009266Y878206D01*
Y880745D01*
X2007996Y882014D01*
X2010536Y874397D02*
Y869318D01*
X2001648Y866779D02*
Y861701D01*
X2002918D01*
X2007996Y866779D01*
X2009266D01*
X1999616Y667001D02*
X1998346Y668270D01*
Y670809D01*
X1999616Y672079D01*
X2004694D01*
X2005964Y670809D01*
Y668270D01*
X2004694Y667001D01*
X2005964Y664461D02*
Y661922D01*
Y663192D01*
X1998346D01*
X1999616Y664461D01*
Y658113D02*
X1998346Y656844D01*
Y654305D01*
X1999616Y653035D01*
X2000886D01*
X2002155Y654305D01*
Y655574D01*
Y654305D01*
X2003425Y653035D01*
X2004694D01*
X2005964Y654305D01*
Y656844D01*
X2004694Y658113D01*
X2007234Y650496D02*
Y645417D01*
X1998346Y637800D02*
X1999616Y640339D01*
X2002155Y642878D01*
X2004694D01*
X2005964Y641609D01*
Y639070D01*
X2004694Y637800D01*
X2003425D01*
X2002155Y639070D01*
Y642878D01*
X2004515Y439711D02*
X2003245Y440981D01*
Y443520D01*
X2004515Y444790D01*
X2009593D01*
X2010863Y443520D01*
Y440981D01*
X2009593Y439711D01*
X2010863Y437172D02*
Y434633D01*
Y435903D01*
X2003245D01*
X2004515Y437172D01*
Y430824D02*
X2003245Y429555D01*
Y427016D01*
X2004515Y425746D01*
X2005785D01*
X2007054Y427016D01*
Y428285D01*
Y427016D01*
X2008324Y425746D01*
X2009593D01*
X2010863Y427016D01*
Y429555D01*
X2009593Y430824D01*
X2012133Y423207D02*
Y418129D01*
X2003245Y410511D02*
Y415589D01*
X2007054D01*
X2005785Y413050D01*
Y411781D01*
X2007054Y410511D01*
X2009593D01*
X2010863Y411781D01*
Y414320D01*
X2009593Y415589D01*
X1933960Y1155447D02*
X1932690Y1154177D01*
X1930151D01*
X1928881Y1155447D01*
Y1160525D01*
X1930151Y1161795D01*
X1932690D01*
X1933960Y1160525D01*
X1936499Y1161795D02*
X1939038D01*
X1937768D01*
Y1154177D01*
X1936499Y1155447D01*
X1947925Y1161795D02*
X1942847D01*
X1947925Y1156717D01*
Y1155447D01*
X1946655Y1154177D01*
X1944116D01*
X1942847Y1155447D01*
X1950464Y1163065D02*
X1955542D01*
X1958082Y1155447D02*
X1959351Y1154177D01*
X1961891D01*
X1963160Y1155447D01*
Y1156717D01*
X1961891Y1157986D01*
X1963160Y1159256D01*
Y1160525D01*
X1961891Y1161795D01*
X1959351D01*
X1958082Y1160525D01*
Y1159256D01*
X1959351Y1157986D01*
X1958082Y1156717D01*
Y1155447D01*
X1959351Y1157986D02*
X1961891D01*
X1936499Y986156D02*
X1935230Y984886D01*
X1932691D01*
X1931421Y986156D01*
Y991234D01*
X1932691Y992504D01*
X1935230D01*
X1936499Y991234D01*
X1939039Y992504D02*
X1941578D01*
X1940308D01*
Y984886D01*
X1939039Y986156D01*
X1950465Y992504D02*
X1945387D01*
X1950465Y987426D01*
Y986156D01*
X1949195Y984886D01*
X1946656D01*
X1945387Y986156D01*
X1953004Y993774D02*
X1958082D01*
X1960622Y984886D02*
X1965700D01*
Y986156D01*
X1960622Y991234D01*
Y992504D01*
X1933197Y762255D02*
X1931928Y760985D01*
X1929389D01*
X1928119Y762255D01*
Y767333D01*
X1929389Y768603D01*
X1931928D01*
X1933197Y767333D01*
X1935737Y768603D02*
X1938276D01*
X1937006D01*
Y760985D01*
X1935737Y762255D01*
X1947163Y768603D02*
X1942085D01*
X1947163Y763525D01*
Y762255D01*
X1945893Y760985D01*
X1943354D01*
X1942085Y762255D01*
X1949702Y769873D02*
X1954780D01*
X1962398Y760985D02*
X1959859Y762255D01*
X1957320Y764794D01*
Y767333D01*
X1958589Y768603D01*
X1961129D01*
X1962398Y767333D01*
Y766064D01*
X1961129Y764794D01*
X1957320D01*
X1938096Y534966D02*
X1936827Y533696D01*
X1934288D01*
X1933018Y534966D01*
Y540044D01*
X1934288Y541314D01*
X1936827D01*
X1938096Y540044D01*
X1940636Y541314D02*
X1943175D01*
X1941905D01*
Y533696D01*
X1940636Y534966D01*
X1952062Y541314D02*
X1946984D01*
X1952062Y536236D01*
Y534966D01*
X1950792Y533696D01*
X1948253D01*
X1946984Y534966D01*
X1954601Y542584D02*
X1959680D01*
X1967297Y533696D02*
X1962219D01*
Y537505D01*
X1964758Y536236D01*
X1966028D01*
X1967297Y537505D01*
Y540044D01*
X1966028Y541314D01*
X1963488D01*
X1962219Y540044D01*
X1967995Y1043687D02*
X1966726Y1042417D01*
X1964187D01*
X1962917Y1043687D01*
Y1048765D01*
X1964187Y1050035D01*
X1966726D01*
X1967995Y1048765D01*
X1970535Y1050035D02*
X1973074D01*
X1971804D01*
Y1042417D01*
X1970535Y1043687D01*
X1976882Y1050035D02*
X1979422D01*
X1978152D01*
Y1042417D01*
X1976882Y1043687D01*
X1983230Y1051305D02*
X1988309D01*
X1990848Y1043687D02*
X1992117Y1042417D01*
X1994657D01*
X1995926Y1043687D01*
Y1044957D01*
X1994657Y1046226D01*
X1995926Y1047496D01*
Y1048765D01*
X1994657Y1050035D01*
X1992117D01*
X1990848Y1048765D01*
Y1047496D01*
X1992117Y1046226D01*
X1990848Y1044957D01*
Y1043687D01*
X1992117Y1046226D02*
X1994657D01*
X1970535Y874396D02*
X1969266Y873126D01*
X1966727D01*
X1965457Y874396D01*
Y879474D01*
X1966727Y880744D01*
X1969266D01*
X1970535Y879474D01*
X1973074Y880744D02*
X1975614D01*
X1974344D01*
Y873126D01*
X1973074Y874396D01*
X1979422Y880744D02*
X1981962D01*
X1980692D01*
Y873126D01*
X1979422Y874396D01*
X1985770Y882014D02*
X1990849D01*
X1993388Y873126D02*
X1998466D01*
Y874396D01*
X1993388Y879474D01*
Y880744D01*
X1967233Y650495D02*
X1965964Y649225D01*
X1963425D01*
X1962155Y650495D01*
Y655573D01*
X1963425Y656843D01*
X1965964D01*
X1967233Y655573D01*
X1969772Y656843D02*
X1972312D01*
X1971042D01*
Y649225D01*
X1969772Y650495D01*
X1976120Y656843D02*
X1978660D01*
X1977390D01*
Y649225D01*
X1976120Y650495D01*
X1982468Y658113D02*
X1987547D01*
X1995164Y649225D02*
X1992625Y650495D01*
X1990086Y653034D01*
Y655573D01*
X1991355Y656843D01*
X1993895D01*
X1995164Y655573D01*
Y654304D01*
X1993895Y653034D01*
X1990086D01*
X1972132Y423206D02*
X1970863Y421936D01*
X1968324D01*
X1967054Y423206D01*
Y428284D01*
X1968324Y429554D01*
X1970863D01*
X1972132Y428284D01*
X1974671Y429554D02*
X1977211D01*
X1975941D01*
Y421936D01*
X1974671Y423206D01*
X1981019Y429554D02*
X1983559D01*
X1982289D01*
Y421936D01*
X1981019Y423206D01*
X1987367Y430824D02*
X1992446D01*
X2000063Y421936D02*
X1994985D01*
Y425745D01*
X1997524Y424476D01*
X1998794D01*
X2000063Y425745D01*
Y428284D01*
X1998794Y429554D01*
X1996254D01*
X1994985Y428284D01*
D16*
X856470Y315200D02*
X865220D01*
X877220D02*
X885220D01*
X857220Y345200D02*
X865220D01*
X877220D02*
X885220D01*
X1821971Y935459D02*
X1836721D01*
X1818471Y885209D02*
Y935209D01*
X1781471Y885209D02*
X1818471D01*
X1781471D02*
Y935209D01*
X1818471D01*
X1625121Y699239D02*
X1639871D01*
X1621621Y648989D02*
Y698989D01*
X1584621Y648989D02*
X1621621D01*
X1584621D02*
Y698989D01*
X1621621D01*
X1780201Y476739D02*
X1817201D01*
X1780201Y426739D02*
Y476739D01*
Y426739D02*
X1817201D01*
Y476739D01*
X1820701Y476989D02*
X1835451D01*
X994355Y698858D02*
X1031355D01*
X994355Y648858D02*
Y698858D01*
Y648858D02*
X1031355D01*
Y698858D01*
X1034855Y699108D02*
X1049605D01*
X1190921Y698989D02*
X1227921D01*
X1190921Y648989D02*
Y698989D01*
Y648989D02*
X1227921D01*
Y698989D01*
X1231421Y699239D02*
X1246171D01*
X1387771Y698989D02*
X1424771D01*
X1387771Y648989D02*
Y698989D01*
Y648989D02*
X1424771D01*
Y698989D01*
X1428271Y699239D02*
X1443021D01*
X1781755Y698858D02*
X1818755D01*
X1781755Y648858D02*
Y698858D01*
Y648858D02*
X1818755D01*
Y698858D01*
X1822255Y699108D02*
X1837005D01*
X1386501Y476739D02*
X1423501D01*
X1386501Y426739D02*
Y476739D01*
Y426739D02*
X1423501D01*
Y476739D01*
X1427001Y476989D02*
X1441751D01*
X1189651Y476739D02*
X1226651D01*
X1189651Y426739D02*
Y476739D01*
Y426739D02*
X1226651D01*
Y476739D01*
X1230151Y476989D02*
X1244901D01*
X992801Y476739D02*
X1029801D01*
X992801Y426739D02*
Y476739D01*
Y426739D02*
X1029801D01*
Y476739D01*
X1033301Y476989D02*
X1048051D01*
X1583351Y476739D02*
X1620351D01*
X1583351Y426739D02*
Y476739D01*
Y426739D02*
X1620351D01*
Y476739D01*
X1623851Y476989D02*
X1638601D01*
X1033301Y1119609D02*
X1048051D01*
X1029801Y1069359D02*
Y1119359D01*
X992801Y1069359D02*
X1029801D01*
X992801D02*
Y1119359D01*
X1029801D01*
X994071Y935209D02*
X1031071D01*
X994071Y885209D02*
Y935209D01*
Y885209D02*
X1031071D01*
Y935209D01*
X1034571Y935459D02*
X1049321D01*
X1189651Y1119359D02*
X1226651D01*
X1189651Y1069359D02*
Y1119359D01*
Y1069359D02*
X1226651D01*
Y1119359D01*
X1230151Y1119609D02*
X1244901D01*
X1386501Y1119359D02*
X1423501D01*
X1386501Y1069359D02*
Y1119359D01*
Y1069359D02*
X1423501D01*
Y1119359D01*
X1427001Y1119609D02*
X1441751D01*
X1190921Y935209D02*
X1227921D01*
X1190921Y885209D02*
Y935209D01*
Y885209D02*
X1227921D01*
Y935209D01*
X1231421Y935459D02*
X1246171D01*
X1387771Y935209D02*
X1424771D01*
X1387771Y885209D02*
Y935209D01*
Y885209D02*
X1424771D01*
Y935209D01*
X1428271Y935459D02*
X1443021D01*
X1583351Y1119359D02*
X1620351D01*
X1583351Y1069359D02*
Y1119359D01*
Y1069359D02*
X1620351D01*
Y1119359D01*
X1623851Y1119609D02*
X1638601D01*
X1584621Y935209D02*
X1621621D01*
X1584621Y885209D02*
Y935209D01*
Y885209D02*
X1621621D01*
Y935209D01*
X1625121Y935459D02*
X1639871D01*
X1780201Y1119359D02*
X1817201D01*
X1780201Y1069359D02*
Y1119359D01*
Y1069359D02*
X1817201D01*
Y1119359D01*
X1820701Y1119609D02*
X1835451D01*
M02*
