G04*
G04 #@! TF.GenerationSoftware,Altium Limited,Altium Designer,23.3.1 (30)*
G04*
G04 Layer_Color=8388736*
%FSLAX44Y44*%
%MOMM*%
G71*
G04*
G04 #@! TF.SameCoordinates,BD36C32B-B9C7-4E4D-8C4A-4C0C75BD15CB*
G04*
G04*
G04 #@! TF.FilePolarity,Negative*
G04*
G01*
G75*
%ADD36C,0.0000*%
%ADD37R,0.7033X2.2032*%
%ADD38C,2.0000*%
%ADD39R,0.9906X1.1684*%
%ADD40R,1.3032X1.9032*%
%ADD41R,1.9032X1.3032*%
%ADD42R,3.7032X3.2032*%
%ADD43R,1.0532X0.4832*%
%ADD44R,1.8532X2.6032*%
%ADD45R,0.4232X0.9032*%
%ADD46R,1.1684X0.9906*%
%ADD47R,0.5032X0.8532*%
%ADD48R,2.8632X1.3032*%
%ADD49R,1.6782X0.6532*%
%ADD50R,0.7032X0.8032*%
%ADD51R,0.6232X1.9832*%
%ADD52R,4.4032X3.2032*%
%ADD53R,2.7032X1.6032*%
%ADD54R,4.9032X3.5532*%
%ADD55R,1.0532X1.6532*%
%ADD56O,3.4532X1.2032*%
%ADD57O,1.2032X3.4532*%
%ADD58R,0.2032X0.2032*%
%ADD59C,1.0033*%
%ADD60C,1.4031*%
%ADD61C,2.8702*%
%ADD62C,2.7432*%
%ADD63R,2.1032X2.1032*%
%ADD64C,2.1032*%
%ADD65C,1.4032*%
%ADD66C,0.7032*%
D36*
X432890Y496570D02*
G03*
X432890Y496570I-8710J0D01*
G01*
X407490D02*
G03*
X407490Y496570I-8710J0D01*
G01*
D37*
X460073Y1058619D02*
D03*
Y1102617D02*
D03*
X452072Y1058619D02*
D03*
Y1102617D02*
D03*
X444071Y1058619D02*
D03*
Y1102617D02*
D03*
X436072Y1058619D02*
D03*
X428071D02*
D03*
X420073D02*
D03*
X412072D02*
D03*
X404071D02*
D03*
X396072D02*
D03*
X388071D02*
D03*
X380073D02*
D03*
X436072Y1102617D02*
D03*
X428071D02*
D03*
X420073D02*
D03*
X412072D02*
D03*
X404071D02*
D03*
X396072D02*
D03*
X388071D02*
D03*
X380073D02*
D03*
X772071Y1058619D02*
D03*
X764073D02*
D03*
X756072D02*
D03*
X748073D02*
D03*
X740072D02*
D03*
X732071D02*
D03*
X724073D02*
D03*
X716072D02*
D03*
X708073D02*
D03*
X700072D02*
D03*
X692071D02*
D03*
X684073D02*
D03*
X676072D02*
D03*
X668071D02*
D03*
X660072D02*
D03*
X652071D02*
D03*
X644073D02*
D03*
X636072D02*
D03*
X628071D02*
D03*
X620072D02*
D03*
X612071D02*
D03*
X604073D02*
D03*
X596072D02*
D03*
X588071D02*
D03*
X580073D02*
D03*
X572071D02*
D03*
X564073D02*
D03*
X556072D02*
D03*
X548071D02*
D03*
X540073D02*
D03*
X532072D02*
D03*
X772071Y1102617D02*
D03*
X764073D02*
D03*
X756072D02*
D03*
X748073D02*
D03*
X740072D02*
D03*
X732071D02*
D03*
X724073D02*
D03*
X716072D02*
D03*
X708073D02*
D03*
X700072D02*
D03*
X692071D02*
D03*
X684073D02*
D03*
X676072D02*
D03*
X668071D02*
D03*
X660072D02*
D03*
X652071D02*
D03*
X644073D02*
D03*
X636072D02*
D03*
X628071D02*
D03*
X620072D02*
D03*
X612071D02*
D03*
X604073D02*
D03*
X596072D02*
D03*
X588071D02*
D03*
X580073D02*
D03*
X572071D02*
D03*
X564073D02*
D03*
X556072D02*
D03*
X548071D02*
D03*
X540073D02*
D03*
X532072D02*
D03*
X524073Y1058619D02*
D03*
Y1102617D02*
D03*
X516072Y1058619D02*
D03*
Y1102617D02*
D03*
X508071Y1058619D02*
D03*
Y1102617D02*
D03*
X500073Y1058619D02*
D03*
Y1102617D02*
D03*
X492072Y1058619D02*
D03*
Y1102617D02*
D03*
X484073Y1058619D02*
D03*
Y1102617D02*
D03*
X476072Y1058619D02*
D03*
Y1102617D02*
D03*
X468071Y1058619D02*
D03*
Y1102617D02*
D03*
X652325Y541729D02*
D03*
X644327D02*
D03*
X636326D02*
D03*
X628325D02*
D03*
X620326D02*
D03*
X612325D02*
D03*
X604327D02*
D03*
X596326D02*
D03*
X588325D02*
D03*
X580326D02*
D03*
X572326D02*
D03*
X564327D02*
D03*
X556326D02*
D03*
X548325D02*
D03*
X540327D02*
D03*
X532326D02*
D03*
X772325D02*
D03*
X764327D02*
D03*
X756326D02*
D03*
X748327D02*
D03*
X740326D02*
D03*
X732325D02*
D03*
X724327D02*
D03*
X716326D02*
D03*
X708327D02*
D03*
X700326D02*
D03*
X692325D02*
D03*
X684327D02*
D03*
X676326D02*
D03*
X668325D02*
D03*
X660326D02*
D03*
X772325Y585727D02*
D03*
X764327D02*
D03*
X756326D02*
D03*
X748327D02*
D03*
X740326D02*
D03*
X732325D02*
D03*
X724327D02*
D03*
X716326D02*
D03*
X708327D02*
D03*
X700326D02*
D03*
X692325D02*
D03*
X684327D02*
D03*
X676326D02*
D03*
X668325D02*
D03*
X660326D02*
D03*
X652325D02*
D03*
X644327D02*
D03*
X636326D02*
D03*
X628325D02*
D03*
X620326D02*
D03*
X612325D02*
D03*
X604327D02*
D03*
X596326D02*
D03*
X588325D02*
D03*
X580326D02*
D03*
X572326D02*
D03*
X564327D02*
D03*
X556326D02*
D03*
X548325D02*
D03*
X540327D02*
D03*
X532326D02*
D03*
X524327Y541729D02*
D03*
X516326D02*
D03*
X508325D02*
D03*
X500327D02*
D03*
X492326D02*
D03*
Y585727D02*
D03*
X484327Y541729D02*
D03*
Y585727D02*
D03*
X476326Y541729D02*
D03*
Y585727D02*
D03*
X468325Y541729D02*
D03*
Y585727D02*
D03*
X460327Y541729D02*
D03*
Y585727D02*
D03*
X452326Y541729D02*
D03*
Y585727D02*
D03*
X444325Y541729D02*
D03*
Y585727D02*
D03*
X436326Y541729D02*
D03*
Y585727D02*
D03*
X428325Y541729D02*
D03*
Y585727D02*
D03*
X420327Y541729D02*
D03*
Y585727D02*
D03*
X412326Y541729D02*
D03*
X404325D02*
D03*
X396326D02*
D03*
Y585727D02*
D03*
X388325Y541729D02*
D03*
X380327D02*
D03*
X524327Y585727D02*
D03*
X516326D02*
D03*
X508325D02*
D03*
X500327D02*
D03*
X412326D02*
D03*
X404325D02*
D03*
X388325D02*
D03*
X380327D02*
D03*
D38*
X308610Y1212850D02*
D03*
X353060Y290830D02*
D03*
X2048510Y337820D02*
D03*
D39*
X1412748Y947039D02*
D03*
X1428750D02*
D03*
X1955800Y524129D02*
D03*
X1939798D02*
D03*
X1992249Y916559D02*
D03*
X2008251D02*
D03*
X1996059Y832739D02*
D03*
X2012061D02*
D03*
X1985010D02*
D03*
X1969008D02*
D03*
X2027428Y889889D02*
D03*
X2043430D02*
D03*
X1939798Y931799D02*
D03*
X1955800D02*
D03*
Y949579D02*
D03*
X1939798D02*
D03*
X1983232Y931799D02*
D03*
X1967230D02*
D03*
X2027428Y482219D02*
D03*
X2043430D02*
D03*
X1939798Y541909D02*
D03*
X1955800D02*
D03*
X1996059Y425069D02*
D03*
X2012061D02*
D03*
X1992249Y508889D02*
D03*
X2008251D02*
D03*
X1969008Y425069D02*
D03*
X1985010D02*
D03*
X1983232Y524129D02*
D03*
X1967230D02*
D03*
X397129Y1250950D02*
D03*
X413131D02*
D03*
X1982724Y747649D02*
D03*
X1966722D02*
D03*
X1984502Y648589D02*
D03*
X1968500D02*
D03*
X1399540Y947039D02*
D03*
X1383538D02*
D03*
X1033780Y488569D02*
D03*
X1017778D02*
D03*
X1004570D02*
D03*
X988568D02*
D03*
X1822450Y710819D02*
D03*
X1806448D02*
D03*
X1793240D02*
D03*
X1777238D02*
D03*
X1231900Y947039D02*
D03*
X1215898D02*
D03*
X1202690D02*
D03*
X1186688D02*
D03*
X989838D02*
D03*
X1005840D02*
D03*
X1609598Y710819D02*
D03*
X1625600D02*
D03*
X1580388D02*
D03*
X1596390D02*
D03*
X1214628Y488569D02*
D03*
X1230630D02*
D03*
X1411478D02*
D03*
X1427480D02*
D03*
X1382268D02*
D03*
X1398270D02*
D03*
X1939290Y765429D02*
D03*
X1955292D02*
D03*
Y747649D02*
D03*
X1939290D02*
D03*
X2042922Y705739D02*
D03*
X2026920D02*
D03*
X2011553Y648589D02*
D03*
X1995551D02*
D03*
X2007743Y732409D02*
D03*
X1991741D02*
D03*
X1019048Y710819D02*
D03*
X1035050D02*
D03*
X989838D02*
D03*
X1005840D02*
D03*
X1412748D02*
D03*
X1428750D02*
D03*
X1383538D02*
D03*
X1399540D02*
D03*
X1608328Y488569D02*
D03*
X1624330D02*
D03*
X1579118D02*
D03*
X1595120D02*
D03*
X1186688Y710819D02*
D03*
X1202690D02*
D03*
X1215898D02*
D03*
X1231900D02*
D03*
X1185418Y488569D02*
D03*
X1201420D02*
D03*
X1805178D02*
D03*
X1821180D02*
D03*
X1775968D02*
D03*
X1791970D02*
D03*
X1806448Y947039D02*
D03*
X1822450D02*
D03*
X1777238D02*
D03*
X1793240D02*
D03*
X1609598D02*
D03*
X1625600D02*
D03*
X1580388D02*
D03*
X1596390D02*
D03*
X1019048D02*
D03*
X1035050D02*
D03*
X1805178Y1131189D02*
D03*
X1821180D02*
D03*
X1775968D02*
D03*
X1791970D02*
D03*
X1608328D02*
D03*
X1624330D02*
D03*
X1579118D02*
D03*
X1595120D02*
D03*
X1411478D02*
D03*
X1427480D02*
D03*
X1382268D02*
D03*
X1398270D02*
D03*
X1214628D02*
D03*
X1230630D02*
D03*
X1185418D02*
D03*
X1201420D02*
D03*
X1017778D02*
D03*
X1033780D02*
D03*
X988568D02*
D03*
X1004570D02*
D03*
X2043430Y1087120D02*
D03*
X2027428D02*
D03*
X1955800Y1129030D02*
D03*
X1939798D02*
D03*
Y1146810D02*
D03*
X1955800D02*
D03*
X2012061Y1029970D02*
D03*
X1996059D02*
D03*
X2008251Y1113790D02*
D03*
X1992249D02*
D03*
X1969008Y1029970D02*
D03*
X1985010D02*
D03*
X1967230Y1129030D02*
D03*
X1983232D02*
D03*
X514731Y330200D02*
D03*
X498729D02*
D03*
X514731Y344170D02*
D03*
X498729D02*
D03*
X514731Y316230D02*
D03*
X498729D02*
D03*
X437261Y325120D02*
D03*
X421259D02*
D03*
X437261Y340360D02*
D03*
X421259D02*
D03*
X474091Y485140D02*
D03*
X458089D02*
D03*
X502031D02*
D03*
X486029D02*
D03*
X482981Y468630D02*
D03*
X466979D02*
D03*
D40*
X356870Y334010D02*
D03*
X392430D02*
D03*
D41*
X656590Y257810D02*
D03*
Y293370D02*
D03*
D42*
X683780Y325840D02*
D03*
Y415840D02*
D03*
X812280Y370840D02*
D03*
D43*
X853930Y310990D02*
D03*
Y305990D02*
D03*
Y300990D02*
D03*
Y295990D02*
D03*
Y290990D02*
D03*
X883430D02*
D03*
Y295990D02*
D03*
Y300990D02*
D03*
Y305990D02*
D03*
Y310990D02*
D03*
D44*
X868680Y300990D02*
D03*
D45*
X866180Y285490D02*
D03*
X871180D02*
D03*
Y316490D02*
D03*
X866180D02*
D03*
D46*
X839470Y295021D02*
D03*
Y279019D02*
D03*
X904240Y295021D02*
D03*
Y279019D02*
D03*
X854710Y322199D02*
D03*
Y338201D02*
D03*
X899160Y312039D02*
D03*
Y328041D02*
D03*
X935990Y1093470D02*
D03*
Y1077468D02*
D03*
X1974850Y1111631D02*
D03*
Y1095629D02*
D03*
X2020570Y1121791D02*
D03*
Y1105789D02*
D03*
X2020062Y740410D02*
D03*
Y724408D02*
D03*
X1974342Y730250D02*
D03*
Y714248D02*
D03*
X2020570Y924560D02*
D03*
Y908558D02*
D03*
X1974850Y914400D02*
D03*
Y898398D02*
D03*
X2015490Y863600D02*
D03*
Y847598D02*
D03*
Y874268D02*
D03*
Y890270D02*
D03*
X2020570Y516890D02*
D03*
Y500888D02*
D03*
X1974850Y506730D02*
D03*
Y490728D02*
D03*
X2015490Y466598D02*
D03*
Y482600D02*
D03*
Y455930D02*
D03*
Y439928D02*
D03*
X1739900Y444500D02*
D03*
Y428498D02*
D03*
X711200Y268859D02*
D03*
Y284861D02*
D03*
X1465580Y886968D02*
D03*
Y902970D02*
D03*
X1347470D02*
D03*
Y886968D02*
D03*
X1465580Y933450D02*
D03*
Y917448D02*
D03*
X1347470D02*
D03*
Y933450D02*
D03*
X1330960Y909320D02*
D03*
Y893318D02*
D03*
X1482090D02*
D03*
Y909320D02*
D03*
X1087120Y434848D02*
D03*
Y450850D02*
D03*
X1070610Y428498D02*
D03*
Y444500D02*
D03*
X952500D02*
D03*
Y428498D02*
D03*
X1070610Y474980D02*
D03*
Y458978D02*
D03*
X952500D02*
D03*
Y474980D02*
D03*
X935990Y450850D02*
D03*
Y434848D02*
D03*
X1859280Y650748D02*
D03*
Y666750D02*
D03*
X1741170D02*
D03*
Y650748D02*
D03*
X1859280Y697230D02*
D03*
Y681228D02*
D03*
X1741170D02*
D03*
Y697230D02*
D03*
X1724660Y673100D02*
D03*
Y657098D02*
D03*
X1875790D02*
D03*
Y673100D02*
D03*
X1268730Y886968D02*
D03*
Y902970D02*
D03*
X1150620D02*
D03*
Y886968D02*
D03*
X1268730Y933450D02*
D03*
Y917448D02*
D03*
X1150620D02*
D03*
Y933450D02*
D03*
X1134110Y909320D02*
D03*
Y893318D02*
D03*
X1285240D02*
D03*
Y909320D02*
D03*
X1662430Y681228D02*
D03*
Y697230D02*
D03*
X1678940Y673100D02*
D03*
Y657098D02*
D03*
X1662430Y666750D02*
D03*
Y650748D02*
D03*
X1346200Y474980D02*
D03*
Y458978D02*
D03*
X1464310D02*
D03*
Y474980D02*
D03*
X2014982Y706120D02*
D03*
Y690118D02*
D03*
X1071880Y666750D02*
D03*
Y650748D02*
D03*
X1088390Y673100D02*
D03*
Y657098D02*
D03*
X2014982Y663448D02*
D03*
Y679450D02*
D03*
X953770Y697230D02*
D03*
Y681228D02*
D03*
X1071880D02*
D03*
Y697230D02*
D03*
X953770Y650748D02*
D03*
Y666750D02*
D03*
X937260Y657098D02*
D03*
Y673100D02*
D03*
X1482090D02*
D03*
Y657098D02*
D03*
X1465580Y666750D02*
D03*
Y650748D02*
D03*
Y681228D02*
D03*
Y697230D02*
D03*
X1347470D02*
D03*
Y681228D02*
D03*
X1330960Y657098D02*
D03*
Y673100D02*
D03*
X1347470Y650748D02*
D03*
Y666750D02*
D03*
X1661160Y444500D02*
D03*
Y428498D02*
D03*
Y458978D02*
D03*
Y474980D02*
D03*
X1677670Y450850D02*
D03*
Y434848D02*
D03*
X1134110Y657098D02*
D03*
Y673100D02*
D03*
X1150620Y697230D02*
D03*
Y681228D02*
D03*
X1268730D02*
D03*
Y697230D02*
D03*
X1150620Y650748D02*
D03*
Y666750D02*
D03*
X1285240Y673100D02*
D03*
Y657098D02*
D03*
X1268730Y666750D02*
D03*
Y650748D02*
D03*
X1267460Y444500D02*
D03*
Y428498D02*
D03*
X1149350Y474980D02*
D03*
Y458978D02*
D03*
X1132840Y434848D02*
D03*
Y450850D02*
D03*
X1283970D02*
D03*
Y434848D02*
D03*
X1149350Y428498D02*
D03*
Y444500D02*
D03*
X1267460Y458978D02*
D03*
Y474980D02*
D03*
X1464310Y444500D02*
D03*
Y428498D02*
D03*
X1480820Y450850D02*
D03*
Y434848D02*
D03*
X1346200Y428498D02*
D03*
Y444500D02*
D03*
X1329690Y434848D02*
D03*
Y450850D02*
D03*
X1544320Y650748D02*
D03*
Y666750D02*
D03*
Y697230D02*
D03*
Y681228D02*
D03*
X1527810Y657098D02*
D03*
Y673100D02*
D03*
X1739900Y475361D02*
D03*
Y459359D02*
D03*
X1723390Y434848D02*
D03*
Y450850D02*
D03*
X1874520D02*
D03*
Y434848D02*
D03*
X1858010Y459359D02*
D03*
Y475361D02*
D03*
Y443611D02*
D03*
Y427609D02*
D03*
X1526540Y434848D02*
D03*
Y450850D02*
D03*
X1543050Y428498D02*
D03*
Y444500D02*
D03*
Y474980D02*
D03*
Y458978D02*
D03*
X1859280Y902970D02*
D03*
Y886968D02*
D03*
X1741170D02*
D03*
Y902970D02*
D03*
X1859280Y917448D02*
D03*
Y933450D02*
D03*
X1741170D02*
D03*
Y917448D02*
D03*
X1724660Y893318D02*
D03*
Y909320D02*
D03*
X1875790D02*
D03*
Y893318D02*
D03*
X1662430Y902970D02*
D03*
Y886968D02*
D03*
X1544320D02*
D03*
Y902970D02*
D03*
X1662430Y917448D02*
D03*
Y933450D02*
D03*
X1544320D02*
D03*
Y917448D02*
D03*
X1527810Y893318D02*
D03*
Y909320D02*
D03*
X1678940D02*
D03*
Y893318D02*
D03*
X1071880Y902970D02*
D03*
Y886968D02*
D03*
X953770D02*
D03*
Y902970D02*
D03*
X1071880Y917448D02*
D03*
Y933450D02*
D03*
X953770D02*
D03*
Y917448D02*
D03*
X937260Y893318D02*
D03*
Y909320D02*
D03*
X1088390D02*
D03*
Y893318D02*
D03*
X1858010Y1087120D02*
D03*
Y1071118D02*
D03*
X1739900D02*
D03*
Y1087120D02*
D03*
X1858010Y1101598D02*
D03*
Y1117600D02*
D03*
X1739900D02*
D03*
Y1101598D02*
D03*
X1723390Y1077468D02*
D03*
Y1093470D02*
D03*
X1874520D02*
D03*
Y1077468D02*
D03*
X1661160Y1087120D02*
D03*
Y1071118D02*
D03*
X1543050D02*
D03*
Y1087120D02*
D03*
X1661160Y1101598D02*
D03*
Y1117600D02*
D03*
X1543050D02*
D03*
Y1101598D02*
D03*
X1526540Y1077468D02*
D03*
Y1093470D02*
D03*
X1677670D02*
D03*
Y1077468D02*
D03*
X1464310Y1087120D02*
D03*
Y1071118D02*
D03*
X1346200D02*
D03*
Y1087120D02*
D03*
X1464310Y1101598D02*
D03*
Y1117600D02*
D03*
X1346200D02*
D03*
Y1101598D02*
D03*
X1329690Y1077468D02*
D03*
Y1093470D02*
D03*
X1480820D02*
D03*
Y1077468D02*
D03*
X1267460Y1087120D02*
D03*
Y1071118D02*
D03*
X1149350D02*
D03*
Y1087120D02*
D03*
X1267460Y1101598D02*
D03*
Y1117600D02*
D03*
X1149350D02*
D03*
Y1101598D02*
D03*
X1132840Y1077468D02*
D03*
Y1093470D02*
D03*
X1283970D02*
D03*
Y1077468D02*
D03*
X1070610Y1087120D02*
D03*
Y1071118D02*
D03*
X952500D02*
D03*
Y1087120D02*
D03*
X1070610Y1101598D02*
D03*
Y1117600D02*
D03*
X952500D02*
D03*
Y1101598D02*
D03*
X1087120Y1093470D02*
D03*
Y1077468D02*
D03*
X2015490Y1087501D02*
D03*
Y1071499D02*
D03*
Y1044829D02*
D03*
Y1060831D02*
D03*
X468630Y333121D02*
D03*
Y317119D02*
D03*
X529590Y336931D02*
D03*
Y320929D02*
D03*
X482600Y333121D02*
D03*
Y317119D02*
D03*
X454660Y333121D02*
D03*
Y317119D02*
D03*
X693420Y284861D02*
D03*
Y268859D02*
D03*
X676910Y284861D02*
D03*
Y268859D02*
D03*
D47*
X1975231Y858729D02*
D03*
X1980231D02*
D03*
X1985231D02*
D03*
X1990231D02*
D03*
X1995231D02*
D03*
X2000231D02*
D03*
Y879729D02*
D03*
X1995231D02*
D03*
X1990231D02*
D03*
X1985231D02*
D03*
X1980231D02*
D03*
X1975231D02*
D03*
Y451059D02*
D03*
X1980231D02*
D03*
X1985231D02*
D03*
X1990231D02*
D03*
X1995231D02*
D03*
X2000231D02*
D03*
Y472059D02*
D03*
X1995231D02*
D03*
X1990231D02*
D03*
X1985231D02*
D03*
X1980231D02*
D03*
X1975231D02*
D03*
Y1076960D02*
D03*
X1980231D02*
D03*
X1985231D02*
D03*
X1990231D02*
D03*
X1995231D02*
D03*
X2000231D02*
D03*
Y1055960D02*
D03*
X1995231D02*
D03*
X1990231D02*
D03*
X1985231D02*
D03*
X1980231D02*
D03*
X1975231D02*
D03*
X1974723Y695579D02*
D03*
X1979723D02*
D03*
X1984723D02*
D03*
X1989723D02*
D03*
X1994723D02*
D03*
X1999723D02*
D03*
Y674579D02*
D03*
X1994723D02*
D03*
X1989723D02*
D03*
X1984723D02*
D03*
X1979723D02*
D03*
X1974723D02*
D03*
D48*
X1987731Y869229D02*
D03*
Y461559D02*
D03*
Y1066460D02*
D03*
X1987223Y685079D02*
D03*
D49*
X1436159Y929709D02*
D03*
Y923209D02*
D03*
Y916709D02*
D03*
Y910209D02*
D03*
Y903709D02*
D03*
Y897209D02*
D03*
Y890709D02*
D03*
X1377399D02*
D03*
Y897209D02*
D03*
Y903709D02*
D03*
Y910209D02*
D03*
Y916709D02*
D03*
Y923209D02*
D03*
Y929709D02*
D03*
X1041189Y471239D02*
D03*
Y464739D02*
D03*
Y458239D02*
D03*
Y451739D02*
D03*
Y445239D02*
D03*
Y438739D02*
D03*
Y432239D02*
D03*
X982429D02*
D03*
Y438739D02*
D03*
Y445239D02*
D03*
Y451739D02*
D03*
Y458239D02*
D03*
Y464739D02*
D03*
Y471239D02*
D03*
X1829859Y693489D02*
D03*
Y686989D02*
D03*
Y680489D02*
D03*
Y673989D02*
D03*
Y667489D02*
D03*
Y660989D02*
D03*
Y654489D02*
D03*
X1771099D02*
D03*
Y660989D02*
D03*
Y667489D02*
D03*
Y673989D02*
D03*
Y680489D02*
D03*
Y686989D02*
D03*
Y693489D02*
D03*
X1239309Y929709D02*
D03*
Y923209D02*
D03*
Y916709D02*
D03*
Y910209D02*
D03*
Y903709D02*
D03*
Y897209D02*
D03*
Y890709D02*
D03*
X1180549D02*
D03*
Y897209D02*
D03*
Y903709D02*
D03*
Y910209D02*
D03*
Y916709D02*
D03*
Y923209D02*
D03*
Y929709D02*
D03*
X1574249Y693489D02*
D03*
Y686989D02*
D03*
Y680489D02*
D03*
Y673989D02*
D03*
Y667489D02*
D03*
Y660989D02*
D03*
Y654489D02*
D03*
X1633009D02*
D03*
Y660989D02*
D03*
Y667489D02*
D03*
Y673989D02*
D03*
Y680489D02*
D03*
Y686989D02*
D03*
Y693489D02*
D03*
X983699D02*
D03*
Y686989D02*
D03*
Y680489D02*
D03*
Y673989D02*
D03*
Y667489D02*
D03*
Y660989D02*
D03*
Y654489D02*
D03*
X1042459D02*
D03*
Y660989D02*
D03*
Y667489D02*
D03*
Y673989D02*
D03*
Y680489D02*
D03*
Y686989D02*
D03*
Y693489D02*
D03*
X1377399D02*
D03*
Y686989D02*
D03*
Y680489D02*
D03*
Y673989D02*
D03*
Y667489D02*
D03*
Y660989D02*
D03*
Y654489D02*
D03*
X1436159D02*
D03*
Y660989D02*
D03*
Y667489D02*
D03*
Y673989D02*
D03*
Y680489D02*
D03*
Y686989D02*
D03*
Y693489D02*
D03*
X1572979Y471239D02*
D03*
Y464739D02*
D03*
Y458239D02*
D03*
Y451739D02*
D03*
Y445239D02*
D03*
Y438739D02*
D03*
Y432239D02*
D03*
X1631739D02*
D03*
Y438739D02*
D03*
Y445239D02*
D03*
Y451739D02*
D03*
Y458239D02*
D03*
Y464739D02*
D03*
Y471239D02*
D03*
X1180549Y693489D02*
D03*
Y686989D02*
D03*
Y680489D02*
D03*
Y673989D02*
D03*
Y667489D02*
D03*
Y660989D02*
D03*
Y654489D02*
D03*
X1239309D02*
D03*
Y660989D02*
D03*
Y667489D02*
D03*
Y673989D02*
D03*
Y680489D02*
D03*
Y686989D02*
D03*
Y693489D02*
D03*
X1179279Y471239D02*
D03*
Y464739D02*
D03*
Y458239D02*
D03*
Y451739D02*
D03*
Y445239D02*
D03*
Y438739D02*
D03*
Y432239D02*
D03*
X1238039D02*
D03*
Y438739D02*
D03*
Y445239D02*
D03*
Y451739D02*
D03*
Y458239D02*
D03*
Y464739D02*
D03*
Y471239D02*
D03*
X1376129D02*
D03*
Y464739D02*
D03*
Y458239D02*
D03*
Y451739D02*
D03*
Y445239D02*
D03*
Y438739D02*
D03*
Y432239D02*
D03*
X1434889D02*
D03*
Y438739D02*
D03*
Y445239D02*
D03*
Y451739D02*
D03*
Y458239D02*
D03*
Y464739D02*
D03*
Y471239D02*
D03*
X1769829D02*
D03*
Y464739D02*
D03*
Y458239D02*
D03*
Y451739D02*
D03*
Y445239D02*
D03*
Y438739D02*
D03*
Y432239D02*
D03*
X1828589D02*
D03*
Y438739D02*
D03*
Y445239D02*
D03*
Y451739D02*
D03*
Y458239D02*
D03*
Y464739D02*
D03*
Y471239D02*
D03*
X1771099Y929709D02*
D03*
Y923209D02*
D03*
Y916709D02*
D03*
Y910209D02*
D03*
Y903709D02*
D03*
Y897209D02*
D03*
Y890709D02*
D03*
X1829859D02*
D03*
Y897209D02*
D03*
Y903709D02*
D03*
Y910209D02*
D03*
Y916709D02*
D03*
Y923209D02*
D03*
Y929709D02*
D03*
X1574249D02*
D03*
Y923209D02*
D03*
Y916709D02*
D03*
Y910209D02*
D03*
Y903709D02*
D03*
Y897209D02*
D03*
Y890709D02*
D03*
X1633009D02*
D03*
Y897209D02*
D03*
Y903709D02*
D03*
Y910209D02*
D03*
Y916709D02*
D03*
Y923209D02*
D03*
Y929709D02*
D03*
X983699D02*
D03*
Y923209D02*
D03*
Y916709D02*
D03*
Y910209D02*
D03*
Y903709D02*
D03*
Y897209D02*
D03*
Y890709D02*
D03*
X1042459D02*
D03*
Y897209D02*
D03*
Y903709D02*
D03*
Y910209D02*
D03*
Y916709D02*
D03*
Y923209D02*
D03*
Y929709D02*
D03*
X1769829Y1113859D02*
D03*
Y1107359D02*
D03*
Y1100859D02*
D03*
Y1094359D02*
D03*
Y1087859D02*
D03*
Y1081359D02*
D03*
Y1074859D02*
D03*
X1828589D02*
D03*
Y1081359D02*
D03*
Y1087859D02*
D03*
Y1094359D02*
D03*
Y1100859D02*
D03*
Y1107359D02*
D03*
Y1113859D02*
D03*
X1572979D02*
D03*
Y1107359D02*
D03*
Y1100859D02*
D03*
Y1094359D02*
D03*
Y1087859D02*
D03*
Y1081359D02*
D03*
Y1074859D02*
D03*
X1631739D02*
D03*
Y1081359D02*
D03*
Y1087859D02*
D03*
Y1094359D02*
D03*
Y1100859D02*
D03*
Y1107359D02*
D03*
Y1113859D02*
D03*
X1376129D02*
D03*
Y1107359D02*
D03*
Y1100859D02*
D03*
Y1094359D02*
D03*
Y1087859D02*
D03*
Y1081359D02*
D03*
Y1074859D02*
D03*
X1434889D02*
D03*
Y1081359D02*
D03*
Y1087859D02*
D03*
Y1094359D02*
D03*
Y1100859D02*
D03*
Y1107359D02*
D03*
Y1113859D02*
D03*
X1179279D02*
D03*
Y1107359D02*
D03*
Y1100859D02*
D03*
Y1094359D02*
D03*
Y1087859D02*
D03*
Y1081359D02*
D03*
Y1074859D02*
D03*
X1238039D02*
D03*
Y1081359D02*
D03*
Y1087859D02*
D03*
Y1094359D02*
D03*
Y1100859D02*
D03*
Y1107359D02*
D03*
Y1113859D02*
D03*
X982429D02*
D03*
Y1107359D02*
D03*
Y1100859D02*
D03*
Y1094359D02*
D03*
Y1087859D02*
D03*
Y1081359D02*
D03*
Y1074859D02*
D03*
X1041189D02*
D03*
Y1081359D02*
D03*
Y1087859D02*
D03*
Y1094359D02*
D03*
Y1100859D02*
D03*
Y1107359D02*
D03*
Y1113859D02*
D03*
D50*
X472370Y500380D02*
D03*
X495370D02*
D03*
D51*
X462239Y432290D02*
D03*
X468739D02*
D03*
X475239D02*
D03*
X481739D02*
D03*
X488239D02*
D03*
X494739D02*
D03*
X501240D02*
D03*
X507740D02*
D03*
X514240D02*
D03*
X520740Y372890D02*
D03*
Y432290D02*
D03*
X514240Y372890D02*
D03*
X507740D02*
D03*
X501240D02*
D03*
X494740D02*
D03*
X488240D02*
D03*
X481740D02*
D03*
X475240D02*
D03*
X468740D02*
D03*
X462240D02*
D03*
D52*
X491490Y402590D02*
D03*
D53*
X626110Y357240D02*
D03*
Y308240D02*
D03*
X563880Y355970D02*
D03*
Y306970D02*
D03*
D54*
X632460Y408630D02*
D03*
X561340Y401320D02*
D03*
D55*
X613410Y432630D02*
D03*
X626110D02*
D03*
X638810D02*
D03*
X651510D02*
D03*
Y377630D02*
D03*
X638810D02*
D03*
X626110D02*
D03*
X613410D02*
D03*
X580390Y377320D02*
D03*
X567690D02*
D03*
X554990D02*
D03*
X542290D02*
D03*
Y432320D02*
D03*
X554990D02*
D03*
X567690D02*
D03*
X580390D02*
D03*
D56*
X366390Y388340D02*
D03*
D57*
X333390Y434340D02*
D03*
X396390D02*
D03*
D58*
X852170Y547370D02*
D03*
X303327Y547446D02*
D03*
Y1096170D02*
D03*
X852000Y1095969D02*
D03*
D59*
X355326Y563728D02*
D03*
X355072Y1080618D02*
D03*
D60*
X797326Y563728D02*
D03*
X797072Y1080618D02*
D03*
D61*
X513080Y1225550D02*
D03*
X462280D02*
D03*
Y1276350D02*
D03*
X513080D02*
D03*
X652780Y1226820D02*
D03*
X601980D02*
D03*
Y1277620D02*
D03*
X652780D02*
D03*
D62*
X487680Y1250950D02*
D03*
X627380Y1252220D02*
D03*
D63*
X424180Y496570D02*
D03*
D64*
X398780D02*
D03*
D65*
X743589Y1229680D02*
D03*
X743590Y1249680D02*
D03*
X763589Y1229680D02*
D03*
X783589D02*
D03*
X803589D02*
D03*
X823589D02*
D03*
X843589D02*
D03*
X763590Y1249680D02*
D03*
X783590D02*
D03*
X803590D02*
D03*
X823590D02*
D03*
X843590D02*
D03*
X1708631Y326230D02*
D03*
X1948630D02*
D03*
X1928630D02*
D03*
X1908630D02*
D03*
X1888630D02*
D03*
X1868630D02*
D03*
X1848630D02*
D03*
X1828630D02*
D03*
X1808630D02*
D03*
X1788630D02*
D03*
X1768630D02*
D03*
X1748631D02*
D03*
X1728631D02*
D03*
X1688631D02*
D03*
X1668631D02*
D03*
X1648631D02*
D03*
X1628631D02*
D03*
X1608631D02*
D03*
X1588631D02*
D03*
X1568631D02*
D03*
X1548631D02*
D03*
X1948629Y306230D02*
D03*
X1928629D02*
D03*
X1908629D02*
D03*
X1888629D02*
D03*
X1868629D02*
D03*
X1848629D02*
D03*
X1828629D02*
D03*
X1808629D02*
D03*
X1788629D02*
D03*
X1768629D02*
D03*
X1748629D02*
D03*
X1728630D02*
D03*
X1708630D02*
D03*
X1688630D02*
D03*
X1668630D02*
D03*
X1648630D02*
D03*
X1628630D02*
D03*
X1608630D02*
D03*
X1588630D02*
D03*
X1568630D02*
D03*
X1548630D02*
D03*
X1528631Y326230D02*
D03*
X1528630Y306230D02*
D03*
X1388560Y326230D02*
D03*
X1368560D02*
D03*
X1348560D02*
D03*
X1328560D02*
D03*
X1308560D02*
D03*
X1288560D02*
D03*
X1268560D02*
D03*
X1248560D02*
D03*
X1228560D02*
D03*
X1208560D02*
D03*
X1188560D02*
D03*
X1168560D02*
D03*
X1148561D02*
D03*
X1128561D02*
D03*
X1108561D02*
D03*
X1088561D02*
D03*
X1068561D02*
D03*
X1048561D02*
D03*
X1028561D02*
D03*
X1008561D02*
D03*
X988561D02*
D03*
X1388559Y306230D02*
D03*
X1368559D02*
D03*
X1348559D02*
D03*
X1328559D02*
D03*
X1308559D02*
D03*
X1288559D02*
D03*
X1268559D02*
D03*
X1248559D02*
D03*
X1228559D02*
D03*
X1208559D02*
D03*
X1188559D02*
D03*
X1168560D02*
D03*
X1148560D02*
D03*
X1128560D02*
D03*
X1108560D02*
D03*
X1088560D02*
D03*
X1068560D02*
D03*
X1048560D02*
D03*
X1028560D02*
D03*
X1008560D02*
D03*
X988560D02*
D03*
X968561Y326230D02*
D03*
X968560Y306230D02*
D03*
X1948630Y1244440D02*
D03*
X1928630D02*
D03*
X1908630D02*
D03*
X1888630D02*
D03*
X1868630D02*
D03*
X1848630D02*
D03*
X1828630D02*
D03*
X1808630D02*
D03*
X1788630D02*
D03*
X1768630D02*
D03*
X1748630D02*
D03*
X1728630D02*
D03*
X1708631D02*
D03*
X1688631D02*
D03*
X1668631D02*
D03*
X1648631D02*
D03*
X1628631D02*
D03*
X1608631D02*
D03*
X1588631D02*
D03*
X1568631D02*
D03*
X1548631D02*
D03*
X1948629Y1224440D02*
D03*
X1928629D02*
D03*
X1908629D02*
D03*
X1888629D02*
D03*
X1868629D02*
D03*
X1848629D02*
D03*
X1828629D02*
D03*
X1808629D02*
D03*
X1788629D02*
D03*
X1768629D02*
D03*
X1748629D02*
D03*
X1728630D02*
D03*
X1708630D02*
D03*
X1688630D02*
D03*
X1668630D02*
D03*
X1648630D02*
D03*
X1628630D02*
D03*
X1608630D02*
D03*
X1588630D02*
D03*
X1568630D02*
D03*
X1548630D02*
D03*
X1528631Y1244440D02*
D03*
X1528630Y1224440D02*
D03*
X1388560Y1244440D02*
D03*
X1368560D02*
D03*
X1348560D02*
D03*
X1328560D02*
D03*
X1308560D02*
D03*
X1288560D02*
D03*
X1268560D02*
D03*
X1248560D02*
D03*
X1228560D02*
D03*
X1208560D02*
D03*
X1188560D02*
D03*
X1168560D02*
D03*
X1148560D02*
D03*
X1128560D02*
D03*
X1108560D02*
D03*
X1088561D02*
D03*
X1068561D02*
D03*
X1048561D02*
D03*
X1028561D02*
D03*
X1008561D02*
D03*
X988561D02*
D03*
X1388559Y1224440D02*
D03*
X1368559D02*
D03*
X1348559D02*
D03*
X1328559D02*
D03*
X1308559D02*
D03*
X1288559D02*
D03*
X1268559D02*
D03*
X1248559D02*
D03*
X1228559D02*
D03*
X1208559D02*
D03*
X1188559D02*
D03*
X1168560D02*
D03*
X1148560D02*
D03*
X1128560D02*
D03*
X1108560D02*
D03*
X1088560D02*
D03*
X1068560D02*
D03*
X1048560D02*
D03*
X1028560D02*
D03*
X1008560D02*
D03*
X988560D02*
D03*
X968561Y1244440D02*
D03*
X968560Y1224440D02*
D03*
D66*
X1482090Y673100D02*
D03*
X1777238Y710819D02*
D03*
X514731Y316230D02*
D03*
X498729Y344170D02*
D03*
X529590Y336931D02*
D03*
M02*
