M48
;Layer_Color=9474304
;FILE_FORMAT=4:4
METRIC,LZ
;TYPE=PLATED
T1F00S00C0.3000
%
T01
X00514731Y0031623
X0052959Y00336931
X00498729Y0034417
X0095758Y003937
X011557
X0135255
X015494
X0174752
X0198501
Y0042545
X0202057Y0051689
X0198501Y0061468
X01984836Y00648255
X0202057Y0074041
X01974342Y0073025
X0185928Y0069723
X01842701Y00693489
X01843209Y00654489
X0185928Y0065024
X0187579Y006731
Y0062484
X017526Y0061468
X0172466Y0063246
X0174117Y0065024
X0175891Y00654507
X0172466Y006731
X0174117Y0069723
X0176657Y0070993
X01777238Y00710819
X0167894Y006731
Y0062484
X01645481Y00654489
X01645851Y00693489
X016002Y0075442
X0161036Y0076704
X01642658Y00471239
X0166116Y0047498
X016789Y00451739
X0166116Y0042799
X01642658Y00432239
X0172212Y0045212
Y0040767
X01755971Y00432239
X01756479Y00471239
X01775841Y00488569
X01841431Y00471239
X01842331Y00432239
X01873631Y00451739
Y0040136
X0197485Y0050673
X01578991Y00488569
X01559629Y00471239
X0154305Y0047498
X01527429Y00451739
X0154305Y0042926
X01559121Y00432239
X015367Y0040767
X0147955Y0040132
X0146431Y0042799
X01447361Y00432239
X01447731Y00471239
X0146431Y0047498
X01479931Y00451739
X01382268Y00488569
X01361509Y00471239
X013462Y0047498
X0132842Y0045212
X013462Y0042926
X01361879Y00432239
X0132842Y0040767
X0128524Y0040132
X0126746Y0042799
X01250228Y00432239
X01249346Y00471239
X01267443Y00474963
X01284652Y00451739
X0128524Y0062484
Y006731
X0133096
Y0063246
X0135763Y0061468
X0136521Y00654644
X0137287Y0070739
X01383538Y00710819
X01449001Y00693489
X01449509Y00654489
X0148209Y006731
X0152781
Y0063246
X0155575Y0061468
X0156206Y00654489
X0156972Y0070739
X0158115Y007112
X0158623Y0076073
X01583616Y0077335
X0144018Y0077978
X0143002Y00782219
X01413527Y00783573
X0140462Y0078359
X0148209Y0062484
X01252659Y00654489
X0125349Y0069342
X01187069Y00710819
X0117729Y0070739
X0116836Y00654489
X0115697Y0061468
X0113411Y0063246
Y006731
X01088805
X0107188Y0065024
X01055809Y00654489
X01055301Y00693489
X0098933Y007112
X0098044Y0070739
X0097151Y00654489
X00975784Y00615104
X0093726Y006731
X0090043Y0069219
X0088757Y0078994
X0088003
X0087249
X00864551Y00789621
X0087249Y0056515
X0094615Y0051435
X0095504
X0096266
X0097028Y005207
X0099314Y005334
X0100457Y0053975
X0101417Y0054539
X00988568Y00488188
X00969511Y00471239
X00968179Y00432239
X0094361Y0040767
X0093599Y0045085
X01055809Y00432239
X01055301Y00471239
X01086231Y00451739
X0113157Y0045212
X0114935Y0047498
X01166542Y00471239
X01185291Y00488569
X01165029Y00432239
X0114935Y0042799
X0113157Y0040767
X0108585Y0040132
X0108839Y0062484
X00452326Y00541729
X00444325
X00436326
X00428325
X00420327
X00412326
X00404325
X00396566Y00541964
X0036052Y0061976
X0035276Y00619443
X00345223Y00619259
X003377Y00619768
X0033016Y0061976
X0032258Y0061976
X00315044Y00619527
X0030734Y0061976
X003962Y01102617
X00404071
X00412072
X00420073
X00428071
X00436072
X00444071
X00452072
X00460073
X00476072
X00484073
X00492072
X00500073
X00508071
X00516072
X00524073
X00532072
X00548071
X00556072
X00564073
X00572071
X00580073
X00588071
X00596072
X00604073
X00620072
X00628071
X00636072
X00644073
X00652071
X00660072
X00668071
X00676072
X00692071
X00700072
X00708073
X00716072
X00724073
X00732071
X00740072
X00748073
X00756452Y0104013
X00753332Y00887802
X00760872Y00887854
X0077089Y00888024
X0077851
X0078613
X00795067Y0088574
X00800429Y00880439
X00806144Y00874724
X00812494Y00868374
X0081788Y0086233
X0082423Y0085598
X00830295Y00849915
X00836312Y00818532
X00843765Y00817394
X00854882Y0081657
X0085667Y00824198
X0093599Y0084963
X0095377
Y0088646
X00968428Y0089049
X00968208Y00929709
X00953753Y00933433
X00938149Y00910209
X0096139Y0096774
X0098933Y0097536
Y0094742
X01057841Y00929709
X0107188Y0093345
X01087501Y00910209
X0107188Y0088646
X01057442Y00890709
X0106553Y0085598
X0108458Y0086233
X01134555Y00909764
X01165058Y0089027
X01164659Y00929709
X0118622Y00947039
X0118618Y0097536
X0113411Y0096774
X0108712Y0095885
X0107061Y0107061
X01056172Y01074859
X01056571Y01113859
X0107061Y011176
X0108712Y0109347
X01133729Y01094359
X0114935Y011176
X01163389Y01113859
X01185418Y01131062
X011811Y0118745
X01133348Y0116713
X0108712Y0117729
X00988568Y0118745
Y01131189
X00966539Y01113859
X009525Y011176
Y01071118
X00966938Y0107442
X0114935Y0107061
X01164007Y0107464
X0100711Y0079883
X0099695
X00987123Y00800433
X00977883Y00801156
X01254292Y00890709
X0126873Y0088646
X01284351Y00910209
X0126873Y0093345
X01254691Y00929709
X0128524Y0095885
X0128016Y009906
X0126873Y00989838
X0132715Y0099187
X013462
X0133223Y0096774
X01347453Y00933433
X01361509Y00929709
X01383157Y0094742
X0138303Y0097536
X01361908Y0089027
X0134747Y0088646
X01331849Y00910209
X01451142Y00890709
X01465563Y00886477
X01481201Y00910209
X0146558Y0093345
X01451541Y00929709
X0148082Y0095885
X0148844Y0099568
X0149606
X0152908Y0096774
X0155329Y0098933
X0156083
X0157988Y0097536
X01580261Y00947039
X01558359Y00929709
X01544337Y00933433
X01528699Y00910209
X01544337Y00886443
X01558758Y0089027
X01557488Y0107442
X0154305Y0107061
X01527429Y01094359
X0154305Y011176
X01557089Y01113859
X01579118Y01131189
X01527429Y01166749
X0147955Y0117729
X0146431Y011176
X01450271Y01113859
X01449872Y01074859
X0146431Y0107061
X01479931Y01094359
X01382268Y01131062
X01360239Y01113859
X013462Y011176
X01330579Y01094359
X013462Y0107061
X01360858Y0107464
X0126746Y0107061
X01253022Y01074859
X01253421Y01113859
X0126746Y011176
X01283081Y01094359
X0127127Y0117729
X01330579Y01166749
X0137795Y0118745
X0158877
X016764Y0117729
X01724279Y01166749
Y01094359
X01676781
X0166116Y011176
X01647121Y01113859
X01646722Y01074859
X0166116Y0107061
X01684003Y01010937
X0169291Y0101092
X0173228
X0174117
X01743727Y01033797
X01743702Y01041337
X0175387Y0107442
X01753939Y01113859
X01776349Y01131189
X0177673Y0118745
X0187325Y0117729
X0185801Y011176
X01843971Y01113859
X0184277Y0107442
X0185801Y0107061
X01873631Y01094359
X018669Y0099568
X01859297Y0098937
X0187452Y0095885
X0185928Y0093345
X01844842Y00929709
Y00890709
X0185928Y0088646
X01874901Y00910209
X0197485Y009144
Y01111631
X0177673Y0097536
X01776857Y0094742
X01755209Y00929709
X01741153Y00933433
X0172466Y0090932
X0171172Y0088519
X0170418
X0169664
X016891
X0166243Y0088646
X01647992Y00890709
X01648391Y00929709
X0166243Y0093345
X01678051Y00910209
X0167767Y0095885
X0172466Y0096774
X01741187Y00887713
X01755608Y0089027
X01985121Y0083285
X0202057Y0092456
X0203962Y0097536
X0198501Y0102997
X0202057Y01121791
Y0118745
M30
