G04*
G04 #@! TF.GenerationSoftware,Altium Limited,Altium Designer,23.3.1 (30)*
G04*
G04 Layer_Color=128*
%FSLAX44Y44*%
%MOMM*%
G71*
G04*
G04 #@! TF.SameCoordinates,BD36C32B-B9C7-4E4D-8C4A-4C0C75BD15CB*
G04*
G04*
G04 #@! TF.FilePolarity,Positive*
G04*
G01*
G75*
%ADD84C,0.1270*%
D84*
X1208810Y723900D02*
X1211810D01*
X1210310Y722400D02*
Y725400D01*
X951000Y1117600D02*
X954000D01*
X952500Y1116100D02*
Y1119100D01*
X935760Y893318D02*
X938760D01*
X937260Y891818D02*
Y894818D01*
X1328190Y434848D02*
X1331190D01*
X1329690Y433348D02*
Y436348D01*
X1069110Y1117600D02*
X1072110D01*
X1070610Y1116100D02*
Y1119100D01*
X1038630Y1064260D02*
X1041630D01*
X1040130Y1062760D02*
Y1065760D01*
X1048790Y1062990D02*
X1051790D01*
X1050290Y1061490D02*
Y1064490D01*
X1236510Y1065559D02*
X1239510D01*
X1238010Y1064059D02*
Y1067059D01*
X1282470Y1077468D02*
X1285470D01*
X1283970Y1075968D02*
Y1078968D01*
X1479320Y1077468D02*
X1482320D01*
X1480820Y1075968D02*
Y1078968D01*
X1676170Y1077468D02*
X1679170D01*
X1677670Y1075968D02*
Y1078968D01*
X1873020Y1077468D02*
X1876020D01*
X1874520Y1075968D02*
Y1078968D01*
X1983002Y1158621D02*
X1986002D01*
X1984502Y1157121D02*
Y1160121D01*
X1972842Y1076960D02*
X1975842D01*
X1974342Y1075460D02*
Y1078460D01*
X2019070Y1066800D02*
X2022070D01*
X2020570Y1065300D02*
Y1068300D01*
X2016022Y958469D02*
X2019022D01*
X2017522Y956969D02*
Y959969D01*
X1314803Y542584D02*
X1317803D01*
X1316303Y541084D02*
Y544084D01*
X1312950Y528320D02*
X1315950D01*
X1314450Y526820D02*
Y529820D01*
X1291360Y542584D02*
X1294360D01*
X1292860Y541084D02*
Y544084D01*
X1523730Y542584D02*
X1526730D01*
X1525230Y541084D02*
Y544084D01*
X1547900Y542584D02*
X1550900D01*
X1549400Y541084D02*
Y544084D01*
X1495346Y542584D02*
X1498346D01*
X1496846Y541084D02*
Y544084D01*
X1514880Y542584D02*
X1517880D01*
X1516380Y541084D02*
Y544084D01*
X1536430Y502920D02*
X1539430D01*
X1537930Y501420D02*
Y504420D01*
X1725700Y552450D02*
X1728700D01*
X1727200Y550950D02*
Y553950D01*
X1105940Y535940D02*
X1108940D01*
X1107440Y534440D02*
Y537440D01*
X1094510Y542584D02*
X1097510D01*
X1096010Y541084D02*
Y544084D01*
X1671090Y541020D02*
X1674090D01*
X1672590Y539520D02*
Y542520D01*
X1691410Y541020D02*
X1694410D01*
X1692910Y539520D02*
Y542520D01*
X1724390Y528052D02*
X1727390D01*
X1725890Y526553D02*
Y529552D01*
X2013990Y1143000D02*
X2016990D01*
X2015490Y1141500D02*
Y1144500D01*
X1908580Y1167130D02*
X1911580D01*
X1910080Y1165630D02*
Y1168630D01*
X1738400Y1070610D02*
X1741400D01*
X1739900Y1069110D02*
Y1072110D01*
X1738400Y1117600D02*
X1741400D01*
X1739900Y1116100D02*
Y1119100D01*
X1737130Y998220D02*
X1740130D01*
X1738630Y996720D02*
Y999720D01*
X1737130Y1008380D02*
X1740130D01*
X1738630Y1006880D02*
Y1009880D01*
X1540297Y1018557D02*
X1543297D01*
X1541797Y1017057D02*
Y1020057D01*
X1541550Y1070610D02*
X1544550D01*
X1543050Y1069110D02*
Y1072110D01*
X1541550Y1117600D02*
X1544550D01*
X1543050Y1116100D02*
Y1119100D01*
X1540280Y1009650D02*
X1543280D01*
X1541780Y1008150D02*
Y1011150D01*
X1647780Y1074859D02*
X1650780D01*
X1649280Y1073359D02*
Y1076359D01*
X1343447Y1029987D02*
X1346447D01*
X1344947Y1028487D02*
Y1031487D01*
X1344700Y1070610D02*
X1347700D01*
X1346200Y1069110D02*
Y1072110D01*
X1343430Y1021080D02*
X1346430D01*
X1344930Y1019580D02*
Y1022580D01*
X1344700Y1117600D02*
X1347700D01*
X1346200Y1116100D02*
Y1119100D01*
X1147850Y1038860D02*
X1150850D01*
X1149350Y1037360D02*
Y1040360D01*
X1147850Y1070610D02*
X1150850D01*
X1149350Y1069110D02*
Y1072110D01*
X1147850Y1117600D02*
X1150850D01*
X1149350Y1116100D02*
Y1119100D01*
X1147850Y1031240D02*
X1150850D01*
X1149350Y1029740D02*
Y1032740D01*
X962430Y1062990D02*
X965430D01*
X963930Y1061490D02*
Y1064490D01*
X962880Y1074859D02*
X965880D01*
X964380Y1073359D02*
Y1076359D01*
X1526310Y855980D02*
X1529310D01*
X1527810Y854480D02*
Y857480D01*
X1526310Y909320D02*
X1529310D01*
X1527810Y907820D02*
Y910820D01*
X1329460Y855980D02*
X1332460D01*
X1330960Y854480D02*
Y857480D01*
X1329460Y909320D02*
X1332460D01*
X1330960Y907820D02*
Y910820D01*
X1293900Y849630D02*
X1296900D01*
X1295400Y848130D02*
Y851130D01*
X1044980Y942340D02*
X1047980D01*
X1046480Y940840D02*
Y943840D01*
X1080540Y849670D02*
X1083540D01*
X1082040Y848170D02*
Y851170D01*
X350273Y769637D02*
X353273D01*
X351773Y768137D02*
Y771137D01*
X350273Y778527D02*
X353273D01*
X351773Y777027D02*
Y780027D01*
X350290Y787400D02*
X353290D01*
X351790Y785900D02*
Y788900D01*
X350290Y760730D02*
X353290D01*
X351790Y759230D02*
Y762230D01*
X336320Y805180D02*
X339320D01*
X337820Y803680D02*
Y806680D01*
X343940Y797560D02*
X346940D01*
X345440Y796060D02*
Y799060D01*
X877592Y740662D02*
X880592D01*
X879092Y739162D02*
Y742162D01*
X860830Y725170D02*
X863830D01*
X862330Y723670D02*
Y726670D01*
X872260Y735330D02*
X875260D01*
X873760Y733830D02*
Y736830D01*
X866162Y730502D02*
X869162D01*
X867662Y729002D02*
Y732002D01*
X854732Y720342D02*
X857732D01*
X856232Y718842D02*
Y721842D01*
X849400Y715010D02*
X852400D01*
X850900Y713510D02*
Y716510D01*
X2021610Y848360D02*
X2024610D01*
X2023110Y846860D02*
Y849860D01*
X1985763Y989109D02*
X1988763D01*
X1987263Y987609D02*
Y990609D01*
X1975382Y907669D02*
X1978382D01*
X1976882Y906169D02*
Y909169D01*
X2021102Y897509D02*
X2024102D01*
X2022602Y896009D02*
Y899009D01*
X1886990Y848360D02*
X1889990D01*
X1888490Y846860D02*
Y849860D01*
X1739670Y886460D02*
X1742670D01*
X1741170Y884960D02*
Y887960D01*
X1736851Y811134D02*
X1739850D01*
X1738351Y809634D02*
Y812634D01*
X1720603Y812783D02*
X1723603D01*
X1722103Y811283D02*
Y814283D01*
X1729493Y812783D02*
X1732493D01*
X1730993Y811283D02*
Y814283D01*
X1747290Y812800D02*
X1750290D01*
X1748790Y811300D02*
Y814300D01*
X1504720Y800100D02*
X1507720D01*
X1506220Y798600D02*
Y801600D01*
X1516150Y800100D02*
X1519150D01*
X1517650Y798600D02*
Y801600D01*
X1660873Y886403D02*
X1663873D01*
X1662373Y884903D02*
Y887903D01*
X1672360Y848360D02*
X1675360D01*
X1673860Y846860D02*
Y849860D01*
X1723160Y855980D02*
X1726160D01*
X1724660Y854480D02*
Y857480D01*
X1723160Y909320D02*
X1726160D01*
X1724660Y907820D02*
Y910820D01*
X1537740Y800100D02*
X1540740D01*
X1539240Y798600D02*
Y801600D01*
X1527580Y800100D02*
X1530580D01*
X1529080Y798600D02*
Y801600D01*
X1326993Y781033D02*
X1329993D01*
X1328493Y779533D02*
Y782533D01*
X1318752Y781050D02*
X1321752D01*
X1320252Y779550D02*
Y782550D01*
X1345970Y886460D02*
X1348970D01*
X1347470Y884960D02*
Y887960D01*
X1478050Y849630D02*
X1481050D01*
X1479550Y848130D02*
Y851130D01*
X1348510Y781050D02*
X1351510D01*
X1350010Y779550D02*
Y782550D01*
X1338350Y781050D02*
X1341350D01*
X1339850Y779550D02*
Y782550D01*
X1104670Y768350D02*
X1107670D01*
X1106170Y766850D02*
Y769850D01*
X1267230Y886460D02*
X1270230D01*
X1268730Y884960D02*
Y887960D01*
X1122467Y768299D02*
X1125467D01*
X1123967Y766799D02*
Y769799D01*
X1113560Y768316D02*
X1116560D01*
X1115060Y766816D02*
Y769816D01*
X1132610Y855980D02*
X1135610D01*
X1134110Y854480D02*
Y857480D01*
X1132610Y909320D02*
X1135610D01*
X1134110Y907820D02*
Y910820D01*
X1131340Y768350D02*
X1134340D01*
X1132840Y766850D02*
Y769850D01*
X1052600Y890270D02*
X1055600D01*
X1054100Y888770D02*
Y891770D01*
X944650Y750570D02*
X947650D01*
X946150Y749070D02*
Y752070D01*
X944650Y742950D02*
X947650D01*
X946150Y741450D02*
Y744450D01*
X952270Y886460D02*
X955270D01*
X953770Y884960D02*
Y887960D01*
X944650Y758190D02*
X947650D01*
X946150Y756690D02*
Y759690D01*
X944650Y765810D02*
X947650D01*
X946150Y764310D02*
Y767310D01*
X1034820Y755650D02*
X1037820D01*
X1036320Y754150D02*
Y757150D01*
X1231670Y755650D02*
X1234670D01*
X1233170Y754150D02*
Y757150D01*
X1428520Y755650D02*
X1431520D01*
X1430020Y754150D02*
Y757150D01*
X1625370Y755650D02*
X1628370D01*
X1626870Y754150D02*
Y757150D01*
X1822220Y755650D02*
X1825220D01*
X1823720Y754150D02*
Y757150D01*
X1723160Y748030D02*
X1726160D01*
X1724660Y746530D02*
Y749530D01*
X1526310Y748030D02*
X1529310D01*
X1527810Y746530D02*
Y749530D01*
X1329460Y748030D02*
X1332460D01*
X1330960Y746530D02*
Y749530D01*
X1132610Y748030D02*
X1135610D01*
X1134110Y746530D02*
Y749530D01*
X968780Y748030D02*
X971780D01*
X970280Y746530D02*
Y749530D01*
X1677440Y740410D02*
X1680440D01*
X1678940Y738910D02*
Y741910D01*
X1478050Y740410D02*
X1481050D01*
X1479550Y738910D02*
Y741910D01*
X1282470Y740410D02*
X1285470D01*
X1283970Y738910D02*
Y741910D01*
X1085620Y740410D02*
X1088620D01*
X1087120Y738910D02*
Y741910D01*
X1117370Y529590D02*
X1120370D01*
X1118870Y528090D02*
Y531090D01*
X1130070Y528320D02*
X1133070D01*
X1131570Y526820D02*
Y529820D01*
X1721890Y502920D02*
X1724890D01*
X1723390Y501420D02*
Y504420D01*
X1525929Y451739D02*
X1528929D01*
X1527429Y450239D02*
Y453239D01*
X1131340Y504190D02*
X1134340D01*
X1132840Y502690D02*
Y505690D01*
X1147850Y474980D02*
X1150850D01*
X1149350Y473480D02*
Y476480D01*
X1147850Y427990D02*
X1150850D01*
X1149350Y426490D02*
Y429490D01*
X1177060Y420370D02*
X1180060D01*
X1178560Y418870D02*
Y421870D01*
X1230400Y511810D02*
X1233400D01*
X1231900Y510310D02*
Y513310D01*
X1032280Y511810D02*
X1035280D01*
X1033780Y510310D02*
Y513310D01*
X1329460Y673100D02*
X1332460D01*
X1330960Y671600D02*
Y674600D01*
X1086285Y673858D02*
X1089285D01*
X1087785Y672358D02*
Y675358D01*
X1282851Y673989D02*
X1285851D01*
X1284351Y672489D02*
Y675489D01*
X1479701Y673989D02*
X1482701D01*
X1481201Y672489D02*
Y675489D01*
X1723444Y672969D02*
X1726444D01*
X1724944Y671469D02*
Y674469D01*
X1677440Y673100D02*
X1680440D01*
X1678940Y671600D02*
Y674600D01*
X1822220Y734060D02*
X1825220D01*
X1823720Y732560D02*
Y735560D01*
X1843810Y703580D02*
X1846810D01*
X1845310Y702080D02*
Y705080D01*
X1857780Y697230D02*
X1860780D01*
X1859280Y695730D02*
Y698730D01*
X1625370Y711200D02*
X1628370D01*
X1626870Y709700D02*
Y712700D01*
X1273654Y534630D02*
X1276654D01*
X1275154Y533130D02*
Y536130D01*
X1843810Y659130D02*
X1846810D01*
X1845310Y657630D02*
Y660630D01*
X1857780Y650240D02*
X1860780D01*
X1859280Y648740D02*
Y651740D01*
X1754910Y654050D02*
X1757910D01*
X1756410Y652550D02*
Y655550D01*
X1739670Y650240D02*
X1742670D01*
X1741170Y648740D02*
Y651740D01*
X1739670Y697230D02*
X1742670D01*
X1741170Y695730D02*
Y698730D01*
X1660930Y651510D02*
X1663930D01*
X1662430Y650010D02*
Y653010D01*
X1660930Y697230D02*
X1663930D01*
X1662430Y695730D02*
Y698730D01*
X1542820Y697230D02*
X1545820D01*
X1544320Y695730D02*
Y698730D01*
X1542820Y651510D02*
X1545820D01*
X1544320Y650010D02*
Y653010D01*
X1464080Y650240D02*
X1467080D01*
X1465580Y648740D02*
Y651740D01*
X1464080Y697230D02*
X1467080D01*
X1465580Y695730D02*
Y698730D01*
X1345970Y697230D02*
X1348970D01*
X1347470Y695730D02*
Y698730D01*
X1345970Y650240D02*
X1348970D01*
X1347470Y648740D02*
Y651740D01*
X1267230Y650240D02*
X1270230D01*
X1268730Y648740D02*
Y651740D01*
X1267230Y697230D02*
X1270230D01*
X1268730Y695730D02*
Y698730D01*
X1149120Y697230D02*
X1152120D01*
X1150620Y695730D02*
Y698730D01*
X1149120Y651510D02*
X1152120D01*
X1150620Y650010D02*
Y653010D01*
X1070380Y650240D02*
X1073380D01*
X1071880Y648740D02*
Y651740D01*
X1070380Y697230D02*
X1073380D01*
X1071880Y695730D02*
Y698730D01*
X952270Y650240D02*
X955270D01*
X953770Y648740D02*
Y651740D01*
X952270Y697230D02*
X955270D01*
X953770Y695730D02*
Y698730D01*
X1820950Y511810D02*
X1823950D01*
X1822450Y510310D02*
Y513310D01*
X1624100Y511810D02*
X1627100D01*
X1625600Y510310D02*
Y513310D01*
X1328190Y504190D02*
X1331190D01*
X1329690Y502690D02*
Y505690D01*
X1426742Y511302D02*
X1429742D01*
X1428242Y509802D02*
Y512802D01*
X934490Y504190D02*
X937490D01*
X935990Y502690D02*
Y505690D01*
X1478431Y344551D02*
X1481431D01*
X1479931Y343051D02*
Y346051D01*
X1478431Y451739D02*
X1481431D01*
X1479931Y450239D02*
Y453239D01*
X1253260Y344170D02*
X1256260D01*
X1254760Y342670D02*
Y345670D01*
X1282470Y450850D02*
X1285470D01*
X1283970Y449350D02*
Y452350D01*
X1085620Y344170D02*
X1088620D01*
X1087120Y342670D02*
Y345670D01*
X1085620Y450850D02*
X1088620D01*
X1087120Y449350D02*
Y452350D01*
X1662120Y427990D02*
X1665120D01*
X1663620Y426490D02*
Y429490D01*
X1165013Y471170D02*
X1168013D01*
X1166513Y469670D02*
Y472670D01*
X1151660Y350520D02*
X1154660D01*
X1153160Y349020D02*
Y352020D01*
X1265960Y474980D02*
X1268960D01*
X1267460Y473480D02*
Y476480D01*
X1267230Y427990D02*
X1270230D01*
X1268730Y426490D02*
Y429490D01*
X1356580Y471210D02*
X1359580D01*
X1358080Y469710D02*
Y472710D01*
X1426742Y488442D02*
X1429742D01*
X1428242Y486942D02*
Y489942D01*
X1356580Y432239D02*
X1359580D01*
X1358080Y430739D02*
Y433739D01*
X1462810Y427990D02*
X1465810D01*
X1464310Y426490D02*
Y429490D01*
X1248180Y471170D02*
X1251180D01*
X1249680Y469670D02*
Y472670D01*
X1173250Y359410D02*
X1176250D01*
X1174750Y357910D02*
Y360910D01*
X1254080Y432239D02*
X1257080D01*
X1255580Y430739D02*
Y433739D01*
X1052600Y431800D02*
X1055600D01*
X1054100Y430300D02*
Y433300D01*
X1033042Y488442D02*
X1036042D01*
X1034542Y486942D02*
Y489942D01*
X1052600Y471170D02*
X1055600D01*
X1054100Y469670D02*
Y472670D01*
X962880Y471239D02*
X965880D01*
X964380Y469739D02*
Y472739D01*
X1008150Y363220D02*
X1011150D01*
X1009650Y361720D02*
Y364720D01*
X972590Y393700D02*
X975590D01*
X974090Y392200D02*
Y395200D01*
X1015683Y356783D02*
X1018683D01*
X1017183Y355283D02*
Y358283D01*
X999260Y344170D02*
X1002260D01*
X1000760Y342670D02*
Y345670D01*
X1017040Y344170D02*
X1020040D01*
X1018540Y342670D02*
Y345670D01*
X996720Y369570D02*
X999720D01*
X998220Y368070D02*
Y371070D01*
X977670Y387350D02*
X980670D01*
X979170Y385850D02*
Y388850D01*
X984633Y376468D02*
X987633D01*
X986133Y374968D02*
Y377968D01*
X1257070Y369570D02*
X1260070D01*
X1258570Y368070D02*
Y371070D01*
X1267230Y372110D02*
X1270230D01*
X1268730Y370610D02*
Y373610D01*
X965552Y400598D02*
X968552D01*
X967052Y399098D02*
Y402098D01*
X1450930Y432239D02*
X1453930D01*
X1452430Y430739D02*
Y433739D01*
X980210Y417830D02*
X983210D01*
X981710Y416330D02*
Y419330D01*
X1445030Y471170D02*
X1448030D01*
X1446530Y469670D02*
Y472670D01*
X1864130Y415290D02*
X1867130D01*
X1865630Y413790D02*
Y416790D01*
X1857780Y475361D02*
X1860780D01*
X1859280Y473861D02*
Y476861D01*
X1541550Y414020D02*
X1544550D01*
X1543050Y412520D02*
Y415520D01*
X1540868Y474980D02*
X1543868D01*
X1542368Y473480D02*
Y476480D01*
X1738400Y416560D02*
X1741400D01*
X1739900Y415060D02*
Y418060D01*
X1640650Y431800D02*
X1643650D01*
X1642150Y430300D02*
Y433300D01*
X1640610Y471170D02*
X1643610D01*
X1642110Y469670D02*
Y472670D01*
X1659660Y474980D02*
X1662660D01*
X1661160Y473480D02*
Y476480D01*
X1558077Y471153D02*
X1561077D01*
X1559577Y469653D02*
Y472653D01*
X1558077Y431817D02*
X1561077D01*
X1559577Y430317D02*
Y433317D01*
X1841310Y471239D02*
X1844310D01*
X1842810Y469739D02*
Y472739D01*
X1841310Y432239D02*
X1844310D01*
X1842810Y430739D02*
Y433739D01*
X1755592Y432239D02*
X1758592D01*
X1757092Y430739D02*
Y433739D01*
X1738400Y474980D02*
X1741400D01*
X1739900Y473480D02*
Y476480D01*
X1755592Y471170D02*
X1758592D01*
X1757092Y469670D02*
Y472670D01*
X1754910Y693420D02*
X1757910D01*
X1756410Y691920D02*
Y694920D01*
X1982574Y765763D02*
X1985574D01*
X1984074Y764263D02*
Y767263D01*
X1972080Y683768D02*
X1975080D01*
X1973580Y682268D02*
Y685268D01*
X2017800Y673608D02*
X2020800D01*
X2019300Y672108D02*
Y675108D01*
X1976979Y456479D02*
X1979979D01*
X1978479Y454979D02*
Y457979D01*
X1987360Y537919D02*
X1990360D01*
X1988860Y536419D02*
Y539419D01*
X2022699Y446319D02*
X2025699D01*
X2024199Y444819D02*
Y447819D01*
X1267230Y933450D02*
X1270230D01*
X1268730Y931950D02*
Y934950D01*
X1282470Y1173480D02*
X1285470D01*
X1283970Y1171980D02*
Y1174980D01*
X1085620Y1173480D02*
X1088620D01*
X1087120Y1171980D02*
Y1174980D01*
X1328190Y450850D02*
X1331190D01*
X1329690Y449350D02*
Y452350D01*
X1375180Y878840D02*
X1378180D01*
X1376680Y877340D02*
Y880340D01*
X1345953Y933433D02*
X1348953D01*
X1347453Y931933D02*
Y934933D01*
X1363750Y929640D02*
X1366750D01*
X1365250Y928140D02*
Y931140D01*
X1464063Y886477D02*
X1467063D01*
X1465563Y884977D02*
Y887977D01*
X1452200Y890709D02*
X1455200D01*
X1453700Y889209D02*
Y892209D01*
X1452200Y929709D02*
X1455200D01*
X1453700Y928209D02*
Y931209D01*
X1464080Y933450D02*
X1467080D01*
X1465580Y931950D02*
Y934950D01*
X1428520Y947420D02*
X1431520D01*
X1430020Y945920D02*
Y948920D01*
X1676170Y1173480D02*
X1679170D01*
X1677670Y1171980D02*
Y1174980D01*
X1820950Y1189990D02*
X1823950D01*
X1822450Y1188490D02*
Y1191490D01*
X1873020Y1093470D02*
X1876020D01*
X1874520Y1091970D02*
Y1094970D01*
X1873020Y1173480D02*
X1876020D01*
X1874520Y1171980D02*
Y1174980D01*
X1676170Y1093470D02*
X1679170D01*
X1677670Y1091970D02*
Y1094970D01*
X1479320Y1093470D02*
X1482320D01*
X1480820Y1091970D02*
Y1094970D01*
X1479320Y1173480D02*
X1482320D01*
X1480820Y1171980D02*
Y1174980D01*
X1282470Y1093470D02*
X1285470D01*
X1283970Y1091970D02*
Y1094970D01*
X1085620Y1093470D02*
X1088620D01*
X1087120Y1091970D02*
Y1094970D01*
X1624100Y1179576D02*
X1627100D01*
X1625600Y1178076D02*
Y1181076D01*
X1427250Y1179576D02*
X1430250D01*
X1428750Y1178076D02*
Y1181076D01*
X935760Y1167130D02*
X938760D01*
X937260Y1165630D02*
Y1168630D01*
X1132229Y1166749D02*
X1135229D01*
X1133729Y1165249D02*
Y1168249D01*
X1329079Y1166749D02*
X1332079D01*
X1330579Y1165249D02*
Y1168249D01*
X1525929Y1166749D02*
X1528929D01*
X1527429Y1165249D02*
Y1168249D01*
X1722779Y1166749D02*
X1725779D01*
X1724279Y1165249D02*
Y1168249D01*
X935379Y1094359D02*
X938379D01*
X936879Y1092859D02*
Y1095859D01*
X1132229Y1094359D02*
X1135229D01*
X1133729Y1092859D02*
Y1095859D01*
X1722779Y1094359D02*
X1725779D01*
X1724279Y1092859D02*
Y1095859D01*
X1525929Y1094359D02*
X1528929D01*
X1527429Y1092859D02*
Y1095859D01*
X1329079Y1094359D02*
X1332079D01*
X1330579Y1092859D02*
Y1095859D01*
X1820950Y1130300D02*
X1823950D01*
X1822450Y1128800D02*
Y1131800D01*
X1624100Y1130300D02*
X1627100D01*
X1625600Y1128800D02*
Y1131800D01*
X1427250Y1130300D02*
X1430250D01*
X1428750Y1128800D02*
Y1131800D01*
X1229892Y1180338D02*
X1232892D01*
X1231392Y1178838D02*
Y1181838D01*
X1229892Y1131062D02*
X1232892D01*
X1231392Y1129562D02*
Y1132562D01*
X1033550Y1131570D02*
X1036550D01*
X1035050Y1130070D02*
Y1133070D01*
X1033550Y1173480D02*
X1036550D01*
X1035050Y1171980D02*
Y1174980D01*
X1057230Y1113859D02*
X1060230D01*
X1058730Y1112359D02*
Y1115359D01*
X1822220Y947420D02*
X1825220D01*
X1823720Y945920D02*
Y948920D01*
X1625370Y947420D02*
X1628370D01*
X1626870Y945920D02*
Y948920D01*
X1231670Y947420D02*
X1234670D01*
X1233170Y945920D02*
Y948920D01*
X1034439Y947039D02*
X1037439D01*
X1035939Y945539D02*
Y948539D01*
X1768880Y877570D02*
X1771880D01*
X1770380Y876070D02*
Y879070D01*
X1857780Y886460D02*
X1860780D01*
X1859280Y884960D02*
Y887960D01*
X1845900Y890709D02*
X1848900D01*
X1847400Y889209D02*
Y892209D01*
X1739653Y933433D02*
X1742653D01*
X1741153Y931933D02*
Y934933D01*
X1757450Y929640D02*
X1760450D01*
X1758950Y928140D02*
Y931140D01*
X1845900Y929709D02*
X1848900D01*
X1847400Y928209D02*
Y931209D01*
X1857780Y933450D02*
X1860780D01*
X1859280Y931950D02*
Y934950D01*
X935760Y673100D02*
X938760D01*
X937260Y671600D02*
Y674600D01*
X1132610Y673100D02*
X1135610D01*
X1134110Y671600D02*
Y674600D01*
X1526310Y673100D02*
X1529310D01*
X1527810Y671600D02*
Y674600D01*
X1034820Y711200D02*
X1037820D01*
X1036320Y709700D02*
Y712700D01*
X1231670Y711200D02*
X1234670D01*
X1233170Y709700D02*
Y712700D01*
X1428520Y711200D02*
X1431520D01*
X1430020Y709700D02*
Y712700D01*
X1820442Y488442D02*
X1823442D01*
X1821942Y486942D02*
Y489942D01*
X1623592Y488442D02*
X1626592D01*
X1625092Y486942D02*
Y489942D01*
X1230273Y488061D02*
X1233273D01*
X1231773Y486561D02*
Y489561D01*
X934490Y450850D02*
X937490D01*
X935990Y449350D02*
Y452350D01*
X1131340Y450850D02*
X1134340D01*
X1132840Y449350D02*
Y452350D01*
X1721890Y450850D02*
X1724890D01*
X1723390Y449350D02*
Y452350D01*
X1070380Y886460D02*
X1073380D01*
X1071880Y884960D02*
Y887960D01*
X1844630Y1074859D02*
X1847630D01*
X1846130Y1073359D02*
Y1076359D01*
X981480Y878840D02*
X984480D01*
X982980Y877340D02*
Y880340D01*
X952253Y933433D02*
X955253D01*
X953753Y931933D02*
Y934933D01*
X1178330Y878840D02*
X1181330D01*
X1179830Y877340D02*
Y880340D01*
X1166900Y929640D02*
X1169900D01*
X1168400Y928140D02*
Y931140D01*
X1149120Y933450D02*
X1152120D01*
X1150620Y931950D02*
Y934950D01*
X1149120Y886460D02*
X1152120D01*
X1150620Y884960D02*
Y887960D01*
X970050Y929640D02*
X973050D01*
X971550Y928140D02*
Y931140D01*
X1070380Y933450D02*
X1073380D01*
X1071880Y931950D02*
Y934950D01*
X1660930Y933450D02*
X1663930D01*
X1662430Y931950D02*
Y934950D01*
X1542837Y933433D02*
X1545837D01*
X1544337Y931933D02*
Y934933D01*
X1560600Y929640D02*
X1563600D01*
X1562100Y928140D02*
Y931140D01*
X1572030Y878840D02*
X1575030D01*
X1573530Y877340D02*
Y880340D01*
X1542837Y886443D02*
X1545837D01*
X1544337Y884943D02*
Y887943D01*
X1649050Y929709D02*
X1652050D01*
X1650550Y928209D02*
Y931209D01*
X1649050Y890709D02*
X1652050D01*
X1650550Y889209D02*
Y892209D01*
X1159730Y1113859D02*
X1162730D01*
X1161230Y1112359D02*
Y1115359D01*
X1159730Y1074859D02*
X1162730D01*
X1161230Y1073359D02*
Y1076359D01*
X1254080Y1113859D02*
X1257080D01*
X1255580Y1112359D02*
Y1115359D01*
X1356580Y1113859D02*
X1359580D01*
X1358080Y1112359D02*
Y1115359D01*
X1356580Y1074859D02*
X1359580D01*
X1358080Y1073359D02*
Y1076359D01*
X1450930Y1074859D02*
X1453930D01*
X1452430Y1073359D02*
Y1076359D01*
X1450930Y1113859D02*
X1453930D01*
X1452430Y1112359D02*
Y1115359D01*
X1553430Y1113859D02*
X1556430D01*
X1554930Y1112359D02*
Y1115359D01*
X1553430Y1074859D02*
X1556430D01*
X1554930Y1073359D02*
Y1076359D01*
X1647780Y1113859D02*
X1650780D01*
X1649280Y1112359D02*
Y1115359D01*
X1750280Y1113859D02*
X1753280D01*
X1751780Y1112359D02*
Y1115359D01*
X1750280Y1074859D02*
X1753280D01*
X1751780Y1073359D02*
Y1076359D01*
X1844630Y1113859D02*
X1847630D01*
X1846130Y1112359D02*
Y1115359D01*
X1255350Y890709D02*
X1258350D01*
X1256850Y889209D02*
Y892209D01*
X1255350Y929709D02*
X1258350D01*
X1256850Y928209D02*
Y931209D01*
X962880Y1113859D02*
X965880D01*
X964380Y1112359D02*
Y1115359D01*
M02*
