G04*
G04 #@! TF.GenerationSoftware,Altium Limited,Altium Designer,23.3.1 (30)*
G04*
G04 Layer_Color=128*
%FSLAX44Y44*%
%MOMM*%
G71*
G04*
G04 #@! TF.SameCoordinates,BD36C32B-B9C7-4E4D-8C4A-4C0C75BD15CB*
G04*
G04*
G04 #@! TF.FilePolarity,Positive*
G04*
G01*
G75*
%ADD18C,1.0000*%
%ADD19R,0.7874X0.9652*%
%ADD23R,0.8500X0.2800*%
%ADD24R,1.6500X2.4000*%
%ADD25R,0.2200X0.7000*%
%ADD26R,0.9652X0.7874*%
%ADD27R,0.3000X0.6500*%
%ADD28R,2.6600X1.1000*%
%ADD29R,1.4750X0.4500*%
D18*
X307340Y336550D02*
D03*
X2048510Y1212850D02*
D03*
X2002790Y290830D02*
D03*
D19*
X2031057Y480990D02*
D03*
X2047059D02*
D03*
X1943427Y439080D02*
D03*
X1959429D02*
D03*
Y421300D02*
D03*
X1943427D02*
D03*
X1999688Y538140D02*
D03*
X2015690D02*
D03*
X1995878Y454320D02*
D03*
X2011880D02*
D03*
X1988639Y538140D02*
D03*
X1972637D02*
D03*
X1986861Y439080D02*
D03*
X1970859D02*
D03*
X1597152Y710819D02*
D03*
X1581150D02*
D03*
X1965960Y666369D02*
D03*
X1981962D02*
D03*
X1967738Y765429D02*
D03*
X1983740D02*
D03*
X2006981Y681609D02*
D03*
X1990979D02*
D03*
X2010791Y765429D02*
D03*
X1994789D02*
D03*
X1938528Y648589D02*
D03*
X1954530D02*
D03*
Y666369D02*
D03*
X1938528D02*
D03*
X2042160Y708279D02*
D03*
X2026158D02*
D03*
X1966722Y1059561D02*
D03*
X1982724D02*
D03*
X1968500Y1158621D02*
D03*
X1984502D02*
D03*
X2007743Y1074801D02*
D03*
X1991741D02*
D03*
X2011553Y1158621D02*
D03*
X1995551D02*
D03*
X1939290Y1041781D02*
D03*
X1955292D02*
D03*
Y1059561D02*
D03*
X1939290D02*
D03*
X2042922Y1101471D02*
D03*
X2026920D02*
D03*
X1985264Y890270D02*
D03*
X1969262D02*
D03*
X1987042Y989330D02*
D03*
X1971040D02*
D03*
X1994281Y905510D02*
D03*
X2010283D02*
D03*
X1998091Y989330D02*
D03*
X2014093D02*
D03*
X1957832Y872490D02*
D03*
X1941830D02*
D03*
Y890270D02*
D03*
X1957832D02*
D03*
X2029460Y932180D02*
D03*
X2045462D02*
D03*
X1778000Y947039D02*
D03*
X1794002D02*
D03*
X1807210D02*
D03*
X1823212D02*
D03*
X1610360Y710819D02*
D03*
X1626362D02*
D03*
X1792732Y488569D02*
D03*
X1776730D02*
D03*
X1821942D02*
D03*
X1805940D02*
D03*
X1232662Y710819D02*
D03*
X1216660D02*
D03*
X1203452D02*
D03*
X1187450D02*
D03*
X1429512D02*
D03*
X1413510D02*
D03*
X1006886Y710688D02*
D03*
X990884D02*
D03*
X1036096D02*
D03*
X1020094D02*
D03*
X1794286D02*
D03*
X1778284D02*
D03*
X1823496D02*
D03*
X1807494D02*
D03*
X1400302Y710819D02*
D03*
X1384300D02*
D03*
X1428242Y488569D02*
D03*
X1412240D02*
D03*
X1399032D02*
D03*
X1383030D02*
D03*
X1231392D02*
D03*
X1215390D02*
D03*
X1202182D02*
D03*
X1186180D02*
D03*
X1005332D02*
D03*
X989330D02*
D03*
X1034542D02*
D03*
X1018540D02*
D03*
X1595882D02*
D03*
X1579880D02*
D03*
X1625092D02*
D03*
X1609090D02*
D03*
X989330Y1131189D02*
D03*
X1005332D02*
D03*
X1018540D02*
D03*
X1034542D02*
D03*
X1006602Y947039D02*
D03*
X990600D02*
D03*
X1035812D02*
D03*
X1019810D02*
D03*
X1231392Y1131189D02*
D03*
X1215390D02*
D03*
X1202182D02*
D03*
X1186180D02*
D03*
X1203452Y947039D02*
D03*
X1187450D02*
D03*
X1232662D02*
D03*
X1216660D02*
D03*
X1428242Y1131189D02*
D03*
X1412240D02*
D03*
X1399032D02*
D03*
X1383030D02*
D03*
X1400302Y947039D02*
D03*
X1384300D02*
D03*
X1429512D02*
D03*
X1413510D02*
D03*
X1595882Y1131189D02*
D03*
X1579880D02*
D03*
X1625092D02*
D03*
X1609090D02*
D03*
X1597152Y947039D02*
D03*
X1581150D02*
D03*
X1626362D02*
D03*
X1610360D02*
D03*
X1792732Y1131189D02*
D03*
X1776730D02*
D03*
X1821942D02*
D03*
X1805940D02*
D03*
D23*
X856470Y320200D02*
D03*
Y325200D02*
D03*
Y330200D02*
D03*
Y335200D02*
D03*
Y340200D02*
D03*
X885970D02*
D03*
Y335200D02*
D03*
Y330200D02*
D03*
Y325200D02*
D03*
Y320200D02*
D03*
D24*
X871220Y330200D02*
D03*
D25*
X868720Y345700D02*
D03*
X873720D02*
D03*
Y314700D02*
D03*
X868720D02*
D03*
D26*
X943610Y270129D02*
D03*
Y286131D02*
D03*
X853440Y303911D02*
D03*
Y287909D02*
D03*
X830580Y337439D02*
D03*
Y353441D02*
D03*
X890270Y303911D02*
D03*
Y287909D02*
D03*
X1283970Y450850D02*
D03*
Y434848D02*
D03*
X1739900Y428498D02*
D03*
Y444500D02*
D03*
X1978479Y472481D02*
D03*
Y456479D02*
D03*
X2024199Y462321D02*
D03*
Y446319D02*
D03*
X2019119Y496611D02*
D03*
Y480609D02*
D03*
Y507279D02*
D03*
Y523281D02*
D03*
X1973580Y683768D02*
D03*
Y699770D02*
D03*
X2019300Y673608D02*
D03*
Y689610D02*
D03*
X2014220Y750570D02*
D03*
Y734568D02*
D03*
Y707898D02*
D03*
Y723900D02*
D03*
X1974342Y1076960D02*
D03*
Y1092962D02*
D03*
X2020062Y1066800D02*
D03*
Y1082802D02*
D03*
X2014982Y1143762D02*
D03*
Y1127760D02*
D03*
Y1101090D02*
D03*
Y1117092D02*
D03*
X2022602Y897509D02*
D03*
Y913511D02*
D03*
X1976882Y907669D02*
D03*
Y923671D02*
D03*
X2017522Y958469D02*
D03*
Y974471D02*
D03*
Y947801D02*
D03*
Y931799D02*
D03*
X1268730Y917448D02*
D03*
Y933450D02*
D03*
Y902970D02*
D03*
Y886968D02*
D03*
X1741170D02*
D03*
Y902970D02*
D03*
X1859280D02*
D03*
Y886968D02*
D03*
X1741170Y933450D02*
D03*
Y917448D02*
D03*
X1859280D02*
D03*
Y933450D02*
D03*
X1875790Y909320D02*
D03*
Y893318D02*
D03*
X1724660D02*
D03*
Y909320D02*
D03*
X1544320Y650748D02*
D03*
Y666750D02*
D03*
X1662430D02*
D03*
Y650748D02*
D03*
X1544320Y697230D02*
D03*
Y681228D02*
D03*
X1662430D02*
D03*
Y697230D02*
D03*
X1678940Y673100D02*
D03*
Y657098D02*
D03*
X1527810D02*
D03*
Y673100D02*
D03*
X1858010Y428498D02*
D03*
Y444500D02*
D03*
X1739900Y458978D02*
D03*
Y474980D02*
D03*
X1859280Y475361D02*
D03*
Y459359D02*
D03*
X1874520Y434848D02*
D03*
Y450850D02*
D03*
X1723390D02*
D03*
Y434848D02*
D03*
X1150620Y666750D02*
D03*
Y650748D02*
D03*
X1134110Y673100D02*
D03*
Y657098D02*
D03*
X1150620Y681228D02*
D03*
Y697230D02*
D03*
X1465580D02*
D03*
Y681228D02*
D03*
X1285240Y657098D02*
D03*
Y673100D02*
D03*
X937544Y672969D02*
D03*
Y656967D02*
D03*
X954054Y681097D02*
D03*
Y697099D02*
D03*
Y666619D02*
D03*
Y650617D02*
D03*
X1268730Y697230D02*
D03*
Y681228D02*
D03*
X1465580Y650748D02*
D03*
Y666750D02*
D03*
X1482090Y657098D02*
D03*
Y673100D02*
D03*
X1741454Y681097D02*
D03*
Y697099D02*
D03*
X1724944Y672969D02*
D03*
Y656967D02*
D03*
X1741454Y666619D02*
D03*
Y650617D02*
D03*
X1859564Y697099D02*
D03*
Y681097D02*
D03*
X1876074Y656967D02*
D03*
Y672969D02*
D03*
X1859564Y650617D02*
D03*
Y666619D02*
D03*
X1268730Y650748D02*
D03*
Y666750D02*
D03*
X1072164Y697099D02*
D03*
Y681097D02*
D03*
Y650617D02*
D03*
Y666619D02*
D03*
X1088674Y656967D02*
D03*
Y672969D02*
D03*
X1347470Y666750D02*
D03*
Y650748D02*
D03*
Y681228D02*
D03*
Y697230D02*
D03*
X1330960Y673100D02*
D03*
Y657098D02*
D03*
X1661160Y428498D02*
D03*
Y444500D02*
D03*
X1677670Y434848D02*
D03*
Y450850D02*
D03*
X1661160Y474980D02*
D03*
Y458978D02*
D03*
X1346200D02*
D03*
Y474980D02*
D03*
X1464310Y428498D02*
D03*
Y444500D02*
D03*
X1480820Y434848D02*
D03*
Y450850D02*
D03*
X1464310Y474980D02*
D03*
Y458978D02*
D03*
X1329690Y450850D02*
D03*
Y434848D02*
D03*
X1346200Y444500D02*
D03*
Y428498D02*
D03*
X1149350Y444500D02*
D03*
Y428498D02*
D03*
X952500Y444500D02*
D03*
Y428498D02*
D03*
X935990Y434848D02*
D03*
Y450850D02*
D03*
X952500Y458978D02*
D03*
Y474980D02*
D03*
X1267460Y428498D02*
D03*
Y444500D02*
D03*
Y474980D02*
D03*
Y458978D02*
D03*
X1132840Y450850D02*
D03*
Y434848D02*
D03*
X1149350Y458978D02*
D03*
Y474980D02*
D03*
X1070610D02*
D03*
Y458978D02*
D03*
Y428498D02*
D03*
Y444500D02*
D03*
X1087120Y434848D02*
D03*
Y450850D02*
D03*
X1543050Y458978D02*
D03*
Y474980D02*
D03*
X1526540Y450850D02*
D03*
Y434848D02*
D03*
X1543050Y444500D02*
D03*
Y428498D02*
D03*
X935990Y1077468D02*
D03*
Y1093470D02*
D03*
X952500Y1117600D02*
D03*
Y1101598D02*
D03*
Y1071118D02*
D03*
Y1087120D02*
D03*
X1070610Y1101598D02*
D03*
Y1117600D02*
D03*
X1149350Y1101598D02*
D03*
Y1117600D02*
D03*
X1070610Y1087120D02*
D03*
Y1071118D02*
D03*
X1087120Y1093470D02*
D03*
Y1077468D02*
D03*
X1132840Y1093470D02*
D03*
Y1077468D02*
D03*
X1149350Y1087120D02*
D03*
Y1071118D02*
D03*
X937260Y909320D02*
D03*
Y893318D02*
D03*
X953770Y917448D02*
D03*
Y933450D02*
D03*
Y902970D02*
D03*
Y886968D02*
D03*
X1071880Y933450D02*
D03*
Y917448D02*
D03*
X1150620D02*
D03*
Y933450D02*
D03*
X1071880Y886968D02*
D03*
Y902970D02*
D03*
X1088390Y893318D02*
D03*
Y909320D02*
D03*
X1134110D02*
D03*
Y893318D02*
D03*
X1150620Y902970D02*
D03*
Y886968D02*
D03*
X1267460Y1117600D02*
D03*
Y1101598D02*
D03*
X1346200D02*
D03*
Y1117600D02*
D03*
X1283970Y1077468D02*
D03*
Y1093470D02*
D03*
X1329690D02*
D03*
Y1077468D02*
D03*
X1267460Y1071118D02*
D03*
Y1087120D02*
D03*
X1346200D02*
D03*
Y1071118D02*
D03*
X1347470Y917448D02*
D03*
Y933450D02*
D03*
X1464310Y1117600D02*
D03*
Y1101598D02*
D03*
X1543050D02*
D03*
Y1117600D02*
D03*
X1526540Y1093470D02*
D03*
Y1077468D02*
D03*
X1480820D02*
D03*
Y1093470D02*
D03*
X1464310Y1071118D02*
D03*
Y1087120D02*
D03*
X1543050D02*
D03*
Y1071118D02*
D03*
X1465580Y933450D02*
D03*
Y917448D02*
D03*
X1544320D02*
D03*
Y933450D02*
D03*
X1285240Y893318D02*
D03*
Y909320D02*
D03*
X1330960D02*
D03*
Y893318D02*
D03*
X1347470Y902970D02*
D03*
Y886968D02*
D03*
X1482090Y893318D02*
D03*
Y909320D02*
D03*
X1527810D02*
D03*
Y893318D02*
D03*
X1465580Y886968D02*
D03*
Y902970D02*
D03*
X1544320D02*
D03*
Y886968D02*
D03*
X1661160Y1117600D02*
D03*
Y1101598D02*
D03*
X1677670Y1077468D02*
D03*
Y1093470D02*
D03*
X1723390D02*
D03*
Y1077468D02*
D03*
X1739900Y1101598D02*
D03*
Y1117600D02*
D03*
X1662430Y933450D02*
D03*
Y917448D02*
D03*
X1661160Y1071118D02*
D03*
Y1087120D02*
D03*
X1739900D02*
D03*
Y1071118D02*
D03*
X1662430Y886968D02*
D03*
Y902970D02*
D03*
X1678940Y893318D02*
D03*
Y909320D02*
D03*
X1858010Y1117600D02*
D03*
Y1101598D02*
D03*
X1874520Y1077468D02*
D03*
Y1093470D02*
D03*
X1858010Y1071118D02*
D03*
Y1087120D02*
D03*
D27*
X1978860Y512150D02*
D03*
X1983860D02*
D03*
X1988860D02*
D03*
X1993860D02*
D03*
X1998860D02*
D03*
X2003860D02*
D03*
Y491150D02*
D03*
X1998860D02*
D03*
X1993860D02*
D03*
X1988860D02*
D03*
X1983860D02*
D03*
X1978860D02*
D03*
X1973961Y718439D02*
D03*
X1978961D02*
D03*
X1983961D02*
D03*
X1988961D02*
D03*
X1993961D02*
D03*
X1998961D02*
D03*
Y739439D02*
D03*
X1993961D02*
D03*
X1988961D02*
D03*
X1983961D02*
D03*
X1978961D02*
D03*
X1973961D02*
D03*
X1974723Y1111631D02*
D03*
X1979723D02*
D03*
X1984723D02*
D03*
X1989723D02*
D03*
X1994723D02*
D03*
X1999723D02*
D03*
Y1132631D02*
D03*
X1994723D02*
D03*
X1989723D02*
D03*
X1984723D02*
D03*
X1979723D02*
D03*
X1974723D02*
D03*
X1977263Y963340D02*
D03*
X1982263D02*
D03*
X1987263D02*
D03*
X1992263D02*
D03*
X1997263D02*
D03*
X2002263D02*
D03*
Y942340D02*
D03*
X1997263D02*
D03*
X1992263D02*
D03*
X1987263D02*
D03*
X1982263D02*
D03*
X1977263D02*
D03*
D28*
X1991360Y501650D02*
D03*
X1986461Y728939D02*
D03*
X1987223Y1122131D02*
D03*
X1989763Y952840D02*
D03*
D29*
X1770591Y929709D02*
D03*
Y923209D02*
D03*
Y916709D02*
D03*
Y910209D02*
D03*
Y903709D02*
D03*
Y897209D02*
D03*
Y890709D02*
D03*
X1829351D02*
D03*
Y897209D02*
D03*
Y903709D02*
D03*
Y910209D02*
D03*
Y916709D02*
D03*
Y923209D02*
D03*
Y929709D02*
D03*
X1573741Y693489D02*
D03*
Y686989D02*
D03*
Y680489D02*
D03*
Y673989D02*
D03*
Y667489D02*
D03*
Y660989D02*
D03*
Y654489D02*
D03*
X1632501D02*
D03*
Y660989D02*
D03*
Y667489D02*
D03*
Y673989D02*
D03*
Y680489D02*
D03*
Y686989D02*
D03*
Y693489D02*
D03*
X1828081Y471239D02*
D03*
Y464739D02*
D03*
Y458239D02*
D03*
Y451739D02*
D03*
Y445239D02*
D03*
Y438739D02*
D03*
Y432239D02*
D03*
X1769321D02*
D03*
Y438739D02*
D03*
Y445239D02*
D03*
Y451739D02*
D03*
Y458239D02*
D03*
Y464739D02*
D03*
Y471239D02*
D03*
X1042235Y693358D02*
D03*
Y686858D02*
D03*
Y680358D02*
D03*
Y673858D02*
D03*
Y667358D02*
D03*
Y660858D02*
D03*
Y654358D02*
D03*
X983475D02*
D03*
Y660858D02*
D03*
Y667358D02*
D03*
Y673858D02*
D03*
Y680358D02*
D03*
Y686858D02*
D03*
Y693358D02*
D03*
X1238801Y693489D02*
D03*
Y686989D02*
D03*
Y680489D02*
D03*
Y673989D02*
D03*
Y667489D02*
D03*
Y660989D02*
D03*
Y654489D02*
D03*
X1180041D02*
D03*
Y660989D02*
D03*
Y667489D02*
D03*
Y673989D02*
D03*
Y680489D02*
D03*
Y686989D02*
D03*
Y693489D02*
D03*
X1435651D02*
D03*
Y686989D02*
D03*
Y680489D02*
D03*
Y673989D02*
D03*
Y667489D02*
D03*
Y660989D02*
D03*
Y654489D02*
D03*
X1376891D02*
D03*
Y660989D02*
D03*
Y667489D02*
D03*
Y673989D02*
D03*
Y680489D02*
D03*
Y686989D02*
D03*
Y693489D02*
D03*
X1829635Y693358D02*
D03*
Y686858D02*
D03*
Y680358D02*
D03*
Y673858D02*
D03*
Y667358D02*
D03*
Y660858D02*
D03*
Y654358D02*
D03*
X1770875D02*
D03*
Y660858D02*
D03*
Y667358D02*
D03*
Y673858D02*
D03*
Y680358D02*
D03*
Y686858D02*
D03*
Y693358D02*
D03*
X1434381Y471239D02*
D03*
Y464739D02*
D03*
Y458239D02*
D03*
Y451739D02*
D03*
Y445239D02*
D03*
Y438739D02*
D03*
Y432239D02*
D03*
X1375621D02*
D03*
Y438739D02*
D03*
Y445239D02*
D03*
Y451739D02*
D03*
Y458239D02*
D03*
Y464739D02*
D03*
Y471239D02*
D03*
X1237531D02*
D03*
Y464739D02*
D03*
Y458239D02*
D03*
Y451739D02*
D03*
Y445239D02*
D03*
Y438739D02*
D03*
Y432239D02*
D03*
X1178771D02*
D03*
Y438739D02*
D03*
Y445239D02*
D03*
Y451739D02*
D03*
Y458239D02*
D03*
Y464739D02*
D03*
Y471239D02*
D03*
X1040681D02*
D03*
Y464739D02*
D03*
Y458239D02*
D03*
Y451739D02*
D03*
Y445239D02*
D03*
Y438739D02*
D03*
Y432239D02*
D03*
X981921D02*
D03*
Y438739D02*
D03*
Y445239D02*
D03*
Y451739D02*
D03*
Y458239D02*
D03*
Y464739D02*
D03*
Y471239D02*
D03*
X1631231D02*
D03*
Y464739D02*
D03*
Y458239D02*
D03*
Y451739D02*
D03*
Y445239D02*
D03*
Y438739D02*
D03*
Y432239D02*
D03*
X1572471D02*
D03*
Y438739D02*
D03*
Y445239D02*
D03*
Y451739D02*
D03*
Y458239D02*
D03*
Y464739D02*
D03*
Y471239D02*
D03*
X981921Y1113859D02*
D03*
Y1107359D02*
D03*
Y1100859D02*
D03*
Y1094359D02*
D03*
Y1087859D02*
D03*
Y1081359D02*
D03*
Y1074859D02*
D03*
X1040681D02*
D03*
Y1081359D02*
D03*
Y1087859D02*
D03*
Y1094359D02*
D03*
Y1100859D02*
D03*
Y1107359D02*
D03*
Y1113859D02*
D03*
X1041951Y929709D02*
D03*
Y923209D02*
D03*
Y916709D02*
D03*
Y910209D02*
D03*
Y903709D02*
D03*
Y897209D02*
D03*
Y890709D02*
D03*
X983191D02*
D03*
Y897209D02*
D03*
Y903709D02*
D03*
Y910209D02*
D03*
Y916709D02*
D03*
Y923209D02*
D03*
Y929709D02*
D03*
X1237531Y1113859D02*
D03*
Y1107359D02*
D03*
Y1100859D02*
D03*
Y1094359D02*
D03*
Y1087859D02*
D03*
Y1081359D02*
D03*
Y1074859D02*
D03*
X1178771D02*
D03*
Y1081359D02*
D03*
Y1087859D02*
D03*
Y1094359D02*
D03*
Y1100859D02*
D03*
Y1107359D02*
D03*
Y1113859D02*
D03*
X1434381D02*
D03*
Y1107359D02*
D03*
Y1100859D02*
D03*
Y1094359D02*
D03*
Y1087859D02*
D03*
Y1081359D02*
D03*
Y1074859D02*
D03*
X1375621D02*
D03*
Y1081359D02*
D03*
Y1087859D02*
D03*
Y1094359D02*
D03*
Y1100859D02*
D03*
Y1107359D02*
D03*
Y1113859D02*
D03*
X1238801Y929709D02*
D03*
Y923209D02*
D03*
Y916709D02*
D03*
Y910209D02*
D03*
Y903709D02*
D03*
Y897209D02*
D03*
Y890709D02*
D03*
X1180041D02*
D03*
Y897209D02*
D03*
Y903709D02*
D03*
Y910209D02*
D03*
Y916709D02*
D03*
Y923209D02*
D03*
Y929709D02*
D03*
X1435651D02*
D03*
Y923209D02*
D03*
Y916709D02*
D03*
Y910209D02*
D03*
Y903709D02*
D03*
Y897209D02*
D03*
Y890709D02*
D03*
X1376891D02*
D03*
Y897209D02*
D03*
Y903709D02*
D03*
Y910209D02*
D03*
Y916709D02*
D03*
Y923209D02*
D03*
Y929709D02*
D03*
X1631231Y1113859D02*
D03*
Y1107359D02*
D03*
Y1100859D02*
D03*
Y1094359D02*
D03*
Y1087859D02*
D03*
Y1081359D02*
D03*
Y1074859D02*
D03*
X1572471D02*
D03*
Y1081359D02*
D03*
Y1087859D02*
D03*
Y1094359D02*
D03*
Y1100859D02*
D03*
Y1107359D02*
D03*
Y1113859D02*
D03*
X1632501Y929709D02*
D03*
Y923209D02*
D03*
Y916709D02*
D03*
Y910209D02*
D03*
Y903709D02*
D03*
Y897209D02*
D03*
Y890709D02*
D03*
X1573741D02*
D03*
Y897209D02*
D03*
Y903709D02*
D03*
Y910209D02*
D03*
Y916709D02*
D03*
Y923209D02*
D03*
Y929709D02*
D03*
X1828081Y1113859D02*
D03*
Y1107359D02*
D03*
Y1100859D02*
D03*
Y1094359D02*
D03*
Y1087859D02*
D03*
Y1081359D02*
D03*
Y1074859D02*
D03*
X1769321D02*
D03*
Y1081359D02*
D03*
Y1087859D02*
D03*
Y1094359D02*
D03*
Y1100859D02*
D03*
Y1107359D02*
D03*
Y1113859D02*
D03*
M02*
