G04*
G04 #@! TF.GenerationSoftware,Altium Limited,Altium Designer,23.3.1 (30)*
G04*
G04 Layer_Color=128*
%FSLAX44Y44*%
%MOMM*%
G71*
G04*
G04 #@! TF.SameCoordinates,BD36C32B-B9C7-4E4D-8C4A-4C0C75BD15CB*
G04*
G04*
G04 #@! TF.FilePolarity,Positive*
G04*
G01*
G75*
%ADD84C,0.1270*%
D84*
X363390Y388340D02*
X369390D01*
X366390Y385340D02*
Y391340D01*
X330390Y434340D02*
X336390D01*
X333390Y431340D02*
Y437340D01*
X393390Y434340D02*
X399390D01*
X396390Y431340D02*
Y437340D01*
X837170Y547370D02*
X867170D01*
X852170Y532370D02*
Y562370D01*
X288327Y547446D02*
X318327D01*
X303327Y532446D02*
Y562446D01*
X288327Y1096170D02*
X318327D01*
X303327Y1081170D02*
Y1111170D01*
X837000Y1095969D02*
X867000D01*
X852000Y1080969D02*
Y1110969D01*
X351325Y563728D02*
X359326D01*
X355326Y559727D02*
Y567728D01*
X791327Y563728D02*
X803326D01*
X797326Y557728D02*
Y569727D01*
X351071Y1080618D02*
X359072D01*
X355072Y1076617D02*
Y1084618D01*
X791073Y1080618D02*
X803072D01*
X797072Y1074618D02*
Y1086617D01*
X504080Y1225550D02*
X522080D01*
X513080Y1216550D02*
Y1234550D01*
X453280Y1225550D02*
X471280D01*
X462280Y1216550D02*
Y1234550D01*
X453280Y1276350D02*
X471280D01*
X462280Y1267350D02*
Y1285350D01*
X504080Y1276350D02*
X522080D01*
X513080Y1267350D02*
Y1285350D01*
X479180Y1250950D02*
X496180D01*
X487680Y1242450D02*
Y1259450D01*
X643780Y1226820D02*
X661780D01*
X652780Y1217820D02*
Y1235820D01*
X592980Y1226820D02*
X610980D01*
X601980Y1217820D02*
Y1235820D01*
X592980Y1277620D02*
X610980D01*
X601980Y1268620D02*
Y1286620D01*
X643780Y1277620D02*
X661780D01*
X652780Y1268620D02*
Y1286620D01*
X618880Y1252220D02*
X635880D01*
X627380Y1243720D02*
Y1260720D01*
X419680Y496570D02*
X428680D01*
X424180Y492070D02*
Y501070D01*
X394280Y496570D02*
X403280D01*
X398780Y492070D02*
Y501070D01*
X739589Y1229680D02*
X747589D01*
X743589Y1225680D02*
Y1233680D01*
X739590Y1249680D02*
X747590D01*
X743590Y1245680D02*
Y1253680D01*
X759589Y1229680D02*
X767589D01*
X763589Y1225680D02*
Y1233680D01*
X779589Y1229680D02*
X787589D01*
X783589Y1225680D02*
Y1233680D01*
X799589Y1229680D02*
X807589D01*
X803589Y1225680D02*
Y1233680D01*
X819589Y1229680D02*
X827589D01*
X823589Y1225680D02*
Y1233680D01*
X839589Y1229680D02*
X847589D01*
X843589Y1225680D02*
Y1233680D01*
X759590Y1249680D02*
X767590D01*
X763590Y1245680D02*
Y1253680D01*
X779590Y1249680D02*
X787590D01*
X783590Y1245680D02*
Y1253680D01*
X799590Y1249680D02*
X807590D01*
X803590Y1245680D02*
Y1253680D01*
X819590Y1249680D02*
X827590D01*
X823590Y1245680D02*
Y1253680D01*
X839590Y1249680D02*
X847590D01*
X843590Y1245680D02*
Y1253680D01*
X1704631Y326230D02*
X1712631D01*
X1708631Y322230D02*
Y330230D01*
X1944630Y326230D02*
X1952630D01*
X1948630Y322230D02*
Y330230D01*
X1924630Y326230D02*
X1932630D01*
X1928630Y322230D02*
Y330230D01*
X1904630Y326230D02*
X1912630D01*
X1908630Y322230D02*
Y330230D01*
X1884630Y326230D02*
X1892630D01*
X1888630Y322230D02*
Y330230D01*
X1864630Y326230D02*
X1872630D01*
X1868630Y322230D02*
Y330230D01*
X1844630Y326230D02*
X1852630D01*
X1848630Y322230D02*
Y330230D01*
X1824630Y326230D02*
X1832630D01*
X1828630Y322230D02*
Y330230D01*
X1804630Y326230D02*
X1812630D01*
X1808630Y322230D02*
Y330230D01*
X1784630Y326230D02*
X1792630D01*
X1788630Y322230D02*
Y330230D01*
X1764630Y326230D02*
X1772630D01*
X1768630Y322230D02*
Y330230D01*
X1744630Y326230D02*
X1752630D01*
X1748631Y322230D02*
Y330230D01*
X1724630Y326230D02*
X1732630D01*
X1728631Y322230D02*
Y330230D01*
X1684631Y326230D02*
X1692631D01*
X1688631Y322230D02*
Y330230D01*
X1664631Y326230D02*
X1672631D01*
X1668631Y322230D02*
Y330230D01*
X1644631Y326230D02*
X1652631D01*
X1648631Y322230D02*
Y330230D01*
X1624631Y326230D02*
X1632631D01*
X1628631Y322230D02*
Y330230D01*
X1604631Y326230D02*
X1612631D01*
X1608631Y322230D02*
Y330230D01*
X1584631Y326230D02*
X1592631D01*
X1588631Y322230D02*
Y330230D01*
X1564631Y326230D02*
X1572631D01*
X1568631Y322230D02*
Y330230D01*
X1544631Y326230D02*
X1552631D01*
X1548631Y322230D02*
Y330230D01*
X1944629Y306230D02*
X1952629D01*
X1948629Y302230D02*
Y310230D01*
X1924629Y306230D02*
X1932629D01*
X1928629Y302230D02*
Y310230D01*
X1904629Y306230D02*
X1912629D01*
X1908629Y302230D02*
Y310230D01*
X1884629Y306230D02*
X1892629D01*
X1888629Y302230D02*
Y310230D01*
X1864629Y306230D02*
X1872629D01*
X1868629Y302230D02*
Y310230D01*
X1844629Y306230D02*
X1852629D01*
X1848629Y302230D02*
Y310230D01*
X1824629Y306230D02*
X1832629D01*
X1828629Y302230D02*
Y310230D01*
X1804629Y306230D02*
X1812629D01*
X1808629Y302230D02*
Y310230D01*
X1784630Y306230D02*
X1792630D01*
X1788629Y302230D02*
Y310230D01*
X1764630Y306230D02*
X1772630D01*
X1768629Y302230D02*
Y310230D01*
X1744630Y306230D02*
X1752630D01*
X1748629Y302230D02*
Y310230D01*
X1724630Y306230D02*
X1732630D01*
X1728630Y302230D02*
Y310230D01*
X1704630Y306230D02*
X1712630D01*
X1708630Y302230D02*
Y310230D01*
X1684630Y306230D02*
X1692630D01*
X1688630Y302230D02*
Y310230D01*
X1664630Y306230D02*
X1672630D01*
X1668630Y302230D02*
Y310230D01*
X1644630Y306230D02*
X1652630D01*
X1648630Y302230D02*
Y310230D01*
X1624630Y306230D02*
X1632630D01*
X1628630Y302230D02*
Y310230D01*
X1604630Y306230D02*
X1612630D01*
X1608630Y302230D02*
Y310230D01*
X1584630Y306230D02*
X1592630D01*
X1588630Y302230D02*
Y310230D01*
X1564630Y306230D02*
X1572630D01*
X1568630Y302230D02*
Y310230D01*
X1544630Y306230D02*
X1552630D01*
X1548630Y302230D02*
Y310230D01*
X1524631Y326230D02*
X1532631D01*
X1528631Y322230D02*
Y330230D01*
X1524630Y306230D02*
X1532630D01*
X1528630Y302230D02*
Y310230D01*
X1384560Y326230D02*
X1392560D01*
X1388560Y322230D02*
Y330230D01*
X1364560Y326230D02*
X1372560D01*
X1368560Y322230D02*
Y330230D01*
X1344560Y326230D02*
X1352560D01*
X1348560Y322230D02*
Y330230D01*
X1324560Y326230D02*
X1332560D01*
X1328560Y322230D02*
Y330230D01*
X1304560Y326230D02*
X1312560D01*
X1308560Y322230D02*
Y330230D01*
X1284560Y326230D02*
X1292560D01*
X1288560Y322230D02*
Y330230D01*
X1264560Y326230D02*
X1272560D01*
X1268560Y322230D02*
Y330230D01*
X1244560Y326230D02*
X1252560D01*
X1248560Y322230D02*
Y330230D01*
X1224560Y326230D02*
X1232560D01*
X1228560Y322230D02*
Y330230D01*
X1204560Y326230D02*
X1212560D01*
X1208560Y322230D02*
Y330230D01*
X1184560Y326230D02*
X1192561D01*
X1188560Y322230D02*
Y330230D01*
X1164560Y326230D02*
X1172561D01*
X1168560Y322230D02*
Y330230D01*
X1144561Y326230D02*
X1152561D01*
X1148561Y322230D02*
Y330230D01*
X1124561Y326230D02*
X1132561D01*
X1128561Y322230D02*
Y330230D01*
X1104561Y326230D02*
X1112561D01*
X1108561Y322230D02*
Y330230D01*
X1084561Y326230D02*
X1092561D01*
X1088561Y322230D02*
Y330230D01*
X1064561Y326230D02*
X1072561D01*
X1068561Y322230D02*
Y330230D01*
X1044561Y326230D02*
X1052561D01*
X1048561Y322230D02*
Y330230D01*
X1024561Y326230D02*
X1032561D01*
X1028561Y322230D02*
Y330230D01*
X1004561Y326230D02*
X1012561D01*
X1008561Y322230D02*
Y330230D01*
X984561Y326230D02*
X992561D01*
X988561Y322230D02*
Y330230D01*
X1384559Y306230D02*
X1392559D01*
X1388559Y302230D02*
Y310230D01*
X1364559Y306230D02*
X1372559D01*
X1368559Y302230D02*
Y310230D01*
X1344559Y306230D02*
X1352559D01*
X1348559Y302230D02*
Y310230D01*
X1324559Y306230D02*
X1332559D01*
X1328559Y302230D02*
Y310230D01*
X1304559Y306230D02*
X1312559D01*
X1308559Y302230D02*
Y310230D01*
X1284559Y306230D02*
X1292559D01*
X1288559Y302230D02*
Y310230D01*
X1264559Y306230D02*
X1272559D01*
X1268559Y302230D02*
Y310230D01*
X1244559Y306230D02*
X1252559D01*
X1248559Y302230D02*
Y310230D01*
X1224559Y306230D02*
X1232560D01*
X1228559Y302230D02*
Y310230D01*
X1204559Y306230D02*
X1212560D01*
X1208559Y302230D02*
Y310230D01*
X1184560Y306230D02*
X1192560D01*
X1188559Y302230D02*
Y310230D01*
X1164560Y306230D02*
X1172560D01*
X1168560Y302230D02*
Y310230D01*
X1144560Y306230D02*
X1152560D01*
X1148560Y302230D02*
Y310230D01*
X1124560Y306230D02*
X1132560D01*
X1128560Y302230D02*
Y310230D01*
X1104560Y306230D02*
X1112560D01*
X1108560Y302230D02*
Y310230D01*
X1084560Y306230D02*
X1092560D01*
X1088560Y302230D02*
Y310230D01*
X1064560Y306230D02*
X1072560D01*
X1068560Y302230D02*
Y310230D01*
X1044560Y306230D02*
X1052560D01*
X1048560Y302230D02*
Y310230D01*
X1024560Y306230D02*
X1032560D01*
X1028560Y302230D02*
Y310230D01*
X1004560Y306230D02*
X1012560D01*
X1008560Y302230D02*
Y310230D01*
X984560Y306230D02*
X992560D01*
X988560Y302230D02*
Y310230D01*
X964561Y326230D02*
X972561D01*
X968561Y322230D02*
Y330230D01*
X964560Y306230D02*
X972560D01*
X968560Y302230D02*
Y310230D01*
X1944630Y1244440D02*
X1952630D01*
X1948630Y1240440D02*
Y1248440D01*
X1924630Y1244440D02*
X1932630D01*
X1928630Y1240440D02*
Y1248440D01*
X1904630Y1244440D02*
X1912630D01*
X1908630Y1240440D02*
Y1248440D01*
X1884630Y1244440D02*
X1892630D01*
X1888630Y1240440D02*
Y1248440D01*
X1864630Y1244440D02*
X1872630D01*
X1868630Y1240440D02*
Y1248440D01*
X1844630Y1244440D02*
X1852630D01*
X1848630Y1240440D02*
Y1248440D01*
X1824630Y1244440D02*
X1832630D01*
X1828630Y1240440D02*
Y1248440D01*
X1804630Y1244440D02*
X1812630D01*
X1808630Y1240440D02*
Y1248440D01*
X1784630Y1244440D02*
X1792630D01*
X1788630Y1240440D02*
Y1248440D01*
X1764630Y1244440D02*
X1772630D01*
X1768630Y1240440D02*
Y1248440D01*
X1744630Y1244440D02*
X1752630D01*
X1748630Y1240440D02*
Y1248440D01*
X1724630Y1244440D02*
X1732630D01*
X1728630Y1240440D02*
Y1248440D01*
X1704630Y1244440D02*
X1712630D01*
X1708631Y1240440D02*
Y1248440D01*
X1684630Y1244440D02*
X1692630D01*
X1688631Y1240440D02*
Y1248440D01*
X1664631Y1244440D02*
X1672630D01*
X1668631Y1240440D02*
Y1248440D01*
X1644631Y1244440D02*
X1652631D01*
X1648631Y1240440D02*
Y1248440D01*
X1624631Y1244440D02*
X1632631D01*
X1628631Y1240440D02*
Y1248440D01*
X1604631Y1244440D02*
X1612631D01*
X1608631Y1240440D02*
Y1248440D01*
X1584631Y1244440D02*
X1592631D01*
X1588631Y1240440D02*
Y1248440D01*
X1564631Y1244440D02*
X1572631D01*
X1568631Y1240440D02*
Y1248440D01*
X1544631Y1244440D02*
X1552631D01*
X1548631Y1240440D02*
Y1248440D01*
X1944629Y1224440D02*
X1952629D01*
X1948629Y1220440D02*
Y1228440D01*
X1924629Y1224440D02*
X1932629D01*
X1928629Y1220440D02*
Y1228440D01*
X1904629Y1224440D02*
X1912629D01*
X1908629Y1220440D02*
Y1228440D01*
X1884629Y1224440D02*
X1892629D01*
X1888629Y1220440D02*
Y1228440D01*
X1864629Y1224440D02*
X1872629D01*
X1868629Y1220440D02*
Y1228440D01*
X1844629Y1224440D02*
X1852629D01*
X1848629Y1220440D02*
Y1228440D01*
X1824629Y1224440D02*
X1832629D01*
X1828629Y1220440D02*
Y1228440D01*
X1804629Y1224440D02*
X1812629D01*
X1808629Y1220440D02*
Y1228440D01*
X1784630Y1224440D02*
X1792630D01*
X1788629Y1220440D02*
Y1228440D01*
X1764630Y1224440D02*
X1772630D01*
X1768629Y1220440D02*
Y1228440D01*
X1744630Y1224440D02*
X1752630D01*
X1748629Y1220440D02*
Y1228440D01*
X1724630Y1224440D02*
X1732630D01*
X1728630Y1220440D02*
Y1228440D01*
X1704630Y1224440D02*
X1712630D01*
X1708630Y1220440D02*
Y1228440D01*
X1684630Y1224440D02*
X1692630D01*
X1688630Y1220440D02*
Y1228440D01*
X1664630Y1224440D02*
X1672630D01*
X1668630Y1220440D02*
Y1228440D01*
X1644630Y1224440D02*
X1652630D01*
X1648630Y1220440D02*
Y1228440D01*
X1624630Y1224440D02*
X1632630D01*
X1628630Y1220440D02*
Y1228440D01*
X1604630Y1224440D02*
X1612630D01*
X1608630Y1220440D02*
Y1228440D01*
X1584630Y1224440D02*
X1592630D01*
X1588630Y1220440D02*
Y1228440D01*
X1564630Y1224440D02*
X1572630D01*
X1568630Y1220440D02*
Y1228440D01*
X1544630Y1224440D02*
X1552630D01*
X1548630Y1220440D02*
Y1228440D01*
X1524631Y1244440D02*
X1532631D01*
X1528631Y1240440D02*
Y1248440D01*
X1524630Y1224440D02*
X1532630D01*
X1528630Y1220440D02*
Y1228440D01*
X1384560Y1244440D02*
X1392560D01*
X1388560Y1240440D02*
Y1248440D01*
X1364560Y1244440D02*
X1372560D01*
X1368560Y1240440D02*
Y1248440D01*
X1344560Y1244440D02*
X1352560D01*
X1348560Y1240440D02*
Y1248440D01*
X1324560Y1244440D02*
X1332560D01*
X1328560Y1240440D02*
Y1248440D01*
X1304560Y1244440D02*
X1312560D01*
X1308560Y1240440D02*
Y1248440D01*
X1284560Y1244440D02*
X1292560D01*
X1288560Y1240440D02*
Y1248440D01*
X1264560Y1244440D02*
X1272560D01*
X1268560Y1240440D02*
Y1248440D01*
X1244560Y1244440D02*
X1252560D01*
X1248560Y1240440D02*
Y1248440D01*
X1224560Y1244440D02*
X1232560D01*
X1228560Y1240440D02*
Y1248440D01*
X1204560Y1244440D02*
X1212560D01*
X1208560Y1240440D02*
Y1248440D01*
X1184560Y1244440D02*
X1192560D01*
X1188560Y1240440D02*
Y1248440D01*
X1164560Y1244440D02*
X1172560D01*
X1168560Y1240440D02*
Y1248440D01*
X1144560Y1244440D02*
X1152561D01*
X1148560Y1240440D02*
Y1248440D01*
X1124560Y1244440D02*
X1132561D01*
X1128560Y1240440D02*
Y1248440D01*
X1104561Y1244440D02*
X1112561D01*
X1108560Y1240440D02*
Y1248440D01*
X1084561Y1244440D02*
X1092561D01*
X1088561Y1240440D02*
Y1248440D01*
X1064561Y1244440D02*
X1072561D01*
X1068561Y1240440D02*
Y1248440D01*
X1044561Y1244440D02*
X1052561D01*
X1048561Y1240440D02*
Y1248440D01*
X1024561Y1244440D02*
X1032561D01*
X1028561Y1240440D02*
Y1248440D01*
X1004561Y1244440D02*
X1012561D01*
X1008561Y1240440D02*
Y1248440D01*
X984561Y1244440D02*
X992561D01*
X988561Y1240440D02*
Y1248440D01*
X1384559Y1224440D02*
X1392559D01*
X1388559Y1220440D02*
Y1228440D01*
X1364559Y1224440D02*
X1372559D01*
X1368559Y1220440D02*
Y1228440D01*
X1344559Y1224440D02*
X1352559D01*
X1348559Y1220440D02*
Y1228440D01*
X1324559Y1224440D02*
X1332559D01*
X1328559Y1220440D02*
Y1228440D01*
X1304559Y1224440D02*
X1312559D01*
X1308559Y1220440D02*
Y1228440D01*
X1284559Y1224440D02*
X1292559D01*
X1288559Y1220440D02*
Y1228440D01*
X1264559Y1224440D02*
X1272559D01*
X1268559Y1220440D02*
Y1228440D01*
X1244559Y1224440D02*
X1252559D01*
X1248559Y1220440D02*
Y1228440D01*
X1224559Y1224440D02*
X1232560D01*
X1228559Y1220440D02*
Y1228440D01*
X1204559Y1224440D02*
X1212560D01*
X1208559Y1220440D02*
Y1228440D01*
X1184560Y1224440D02*
X1192560D01*
X1188559Y1220440D02*
Y1228440D01*
X1164560Y1224440D02*
X1172560D01*
X1168560Y1220440D02*
Y1228440D01*
X1144560Y1224440D02*
X1152560D01*
X1148560Y1220440D02*
Y1228440D01*
X1124560Y1224440D02*
X1132560D01*
X1128560Y1220440D02*
Y1228440D01*
X1104560Y1224440D02*
X1112560D01*
X1108560Y1220440D02*
Y1228440D01*
X1084560Y1224440D02*
X1092560D01*
X1088560Y1220440D02*
Y1228440D01*
X1064560Y1224440D02*
X1072560D01*
X1068560Y1220440D02*
Y1228440D01*
X1044560Y1224440D02*
X1052560D01*
X1048560Y1220440D02*
Y1228440D01*
X1024560Y1224440D02*
X1032560D01*
X1028560Y1220440D02*
Y1228440D01*
X1004560Y1224440D02*
X1012560D01*
X1008560Y1220440D02*
Y1228440D01*
X984560Y1224440D02*
X992560D01*
X988560Y1220440D02*
Y1228440D01*
X964561Y1244440D02*
X972561D01*
X968561Y1240440D02*
Y1248440D01*
X964560Y1224440D02*
X972560D01*
X968560Y1220440D02*
Y1228440D01*
X624610Y377190D02*
X627610D01*
X626110Y375690D02*
Y378690D01*
X597940Y878840D02*
X600940D01*
X599440Y877340D02*
Y880340D01*
X587780Y878840D02*
X590780D01*
X589280Y877340D02*
Y880340D01*
X578890Y878840D02*
X581890D01*
X580390Y877340D02*
Y880340D01*
X570000Y878840D02*
X573000D01*
X571500Y877340D02*
Y880340D01*
X597940Y867410D02*
X600940D01*
X599440Y865910D02*
Y868910D01*
X587780Y867410D02*
X590780D01*
X589280Y865910D02*
Y868910D01*
X578890Y867410D02*
X581890D01*
X580390Y865910D02*
Y868910D01*
X570000Y867410D02*
X573000D01*
X571500Y865910D02*
Y868910D01*
X596985Y919017D02*
X599985D01*
X598485Y917517D02*
Y920517D01*
X586825Y919017D02*
X589825D01*
X588325Y917517D02*
Y920517D01*
X577935Y919017D02*
X580935D01*
X579435Y917517D02*
Y920517D01*
X569045Y919017D02*
X572045D01*
X570545Y917517D02*
Y920517D01*
X596985Y943147D02*
X599985D01*
X598485Y941647D02*
Y944647D01*
X586825Y943147D02*
X589825D01*
X588325Y941647D02*
Y944647D01*
X577935Y943147D02*
X580935D01*
X579435Y941647D02*
Y944647D01*
X569045Y943147D02*
X572045D01*
X570545Y941647D02*
Y944647D01*
X596985Y931717D02*
X599985D01*
X598485Y930217D02*
Y933217D01*
X586825Y931717D02*
X589825D01*
X588325Y930217D02*
Y933217D01*
X577935Y931717D02*
X580935D01*
X579435Y930217D02*
Y933217D01*
X569045Y931717D02*
X572045D01*
X570545Y930217D02*
Y933217D01*
X1195155Y540557D02*
X1198155D01*
X1196655Y539057D02*
Y542057D01*
X1184995Y540557D02*
X1187995D01*
X1186495Y539057D02*
Y542057D01*
X1176105Y540557D02*
X1179105D01*
X1177605Y539057D02*
Y542057D01*
X1167215Y540557D02*
X1170215D01*
X1168715Y539057D02*
Y542057D01*
X1195155Y529127D02*
X1198155D01*
X1196655Y527627D02*
Y530627D01*
X1184995Y529127D02*
X1187995D01*
X1186495Y527627D02*
Y530627D01*
X1176105Y529127D02*
X1179105D01*
X1177605Y527627D02*
Y530627D01*
X1167215Y529127D02*
X1170215D01*
X1168715Y527627D02*
Y530627D01*
X1085469Y532130D02*
X1088469D01*
X1086969Y530630D02*
Y533630D01*
X1764115Y596437D02*
X1767115D01*
X1765615Y594937D02*
Y597937D01*
X1753955Y596437D02*
X1756955D01*
X1755455Y594937D02*
Y597937D01*
X1745065Y596437D02*
X1748065D01*
X1746565Y594937D02*
Y597937D01*
X1736175Y596437D02*
X1739175D01*
X1737675Y594937D02*
Y597937D01*
X1764115Y585007D02*
X1767115D01*
X1765615Y583507D02*
Y586507D01*
X1753955Y585007D02*
X1756955D01*
X1755455Y583507D02*
Y586507D01*
X1745065Y585007D02*
X1748065D01*
X1746565Y583507D02*
Y586507D01*
X1736175Y585007D02*
X1739175D01*
X1737675Y583507D02*
Y586507D01*
X1861905Y595167D02*
X1864905D01*
X1863405Y593667D02*
Y596667D01*
X1851745Y595167D02*
X1854745D01*
X1853245Y593667D02*
Y596667D01*
X1842855Y595167D02*
X1845855D01*
X1844355Y593667D02*
Y596667D01*
X1833965Y595167D02*
X1836965D01*
X1835465Y593667D02*
Y596667D01*
X1861905Y583737D02*
X1864905D01*
X1863405Y582237D02*
Y585237D01*
X1851745Y583737D02*
X1854745D01*
X1853245Y582237D02*
Y585237D01*
X1842855Y583737D02*
X1845855D01*
X1844355Y582237D02*
Y585237D01*
X1833965Y583737D02*
X1836965D01*
X1835465Y582237D02*
Y585237D01*
X1604095Y538017D02*
X1607095D01*
X1605595Y536517D02*
Y539517D01*
X1593935Y538017D02*
X1596935D01*
X1595435Y536517D02*
Y539517D01*
X1585045Y538017D02*
X1588045D01*
X1586545Y536517D02*
Y539517D01*
X1576155Y538017D02*
X1579155D01*
X1577655Y536517D02*
Y539517D01*
X1604095Y526587D02*
X1607095D01*
X1605595Y525087D02*
Y528087D01*
X1593935Y526587D02*
X1596935D01*
X1595435Y525087D02*
Y528087D01*
X1585045Y526587D02*
X1588045D01*
X1586545Y525087D02*
Y528087D01*
X1576155Y526587D02*
X1579155D01*
X1577655Y525087D02*
Y528087D01*
X1786660Y812800D02*
X1789660D01*
X1788160Y811300D02*
Y814300D01*
X1795550Y812800D02*
X1798550D01*
X1797050Y811300D02*
Y814300D01*
X1804440Y812800D02*
X1807440D01*
X1805940Y811300D02*
Y814300D01*
X1814600Y812800D02*
X1817600D01*
X1816100Y811300D02*
Y814300D01*
X1786660Y824230D02*
X1789660D01*
X1788160Y822730D02*
Y825730D01*
X1795550Y824230D02*
X1798550D01*
X1797050Y822730D02*
Y825730D01*
X1804440Y824230D02*
X1807440D01*
X1805940Y822730D02*
Y825730D01*
X1814600Y824230D02*
X1817600D01*
X1816100Y822730D02*
Y825730D01*
X1786660Y835660D02*
X1789660D01*
X1788160Y834160D02*
Y837160D01*
X1795550Y835660D02*
X1798550D01*
X1797050Y834160D02*
Y837160D01*
X1804440Y835660D02*
X1807440D01*
X1805940Y834160D02*
Y837160D01*
X1814600Y835660D02*
X1817600D01*
X1816100Y834160D02*
Y837160D01*
X661440Y336550D02*
X664440D01*
X662940Y335050D02*
Y338050D01*
X656360Y331470D02*
X659360D01*
X657860Y329970D02*
Y332970D01*
X934450Y416560D02*
X937450D01*
X935950Y415060D02*
Y418060D01*
X498880Y459018D02*
X501880D01*
X500380Y457518D02*
Y460518D01*
X514120Y458470D02*
X517120D01*
X515620Y456970D02*
Y459970D01*
X1392960Y527050D02*
X1395960D01*
X1394460Y525550D02*
Y528550D01*
X1382800Y527050D02*
X1385800D01*
X1384300Y525550D02*
Y528550D01*
X1373910Y527050D02*
X1376910D01*
X1375410Y525550D02*
Y528550D01*
X1365020Y527050D02*
X1368020D01*
X1366520Y525550D02*
Y528550D01*
X1955570Y703580D02*
X1958570D01*
X1957070Y702080D02*
Y705080D01*
X1958110Y474980D02*
X1961110D01*
X1959610Y473480D02*
Y476480D01*
X1958110Y485140D02*
X1961110D01*
X1959610Y483640D02*
Y486640D01*
X1956840Y1099820D02*
X1959840D01*
X1958340Y1098320D02*
Y1101320D01*
X1956840Y1112520D02*
X1959840D01*
X1958340Y1111020D02*
Y1114020D01*
X2027960Y871220D02*
X2030960D01*
X2029460Y869720D02*
Y872720D01*
X1955570Y715010D02*
X1958570D01*
X1957070Y713510D02*
Y716510D01*
X1587270Y982980D02*
X1590270D01*
X1588770Y981480D02*
Y984480D01*
X1601240Y996950D02*
X1604240D01*
X1602740Y995450D02*
Y998450D01*
X1587270Y996950D02*
X1590270D01*
X1588770Y995450D02*
Y998450D01*
X1117370Y932180D02*
X1120370D01*
X1118870Y930680D02*
Y933680D01*
X1105940Y932180D02*
X1108940D01*
X1107440Y930680D02*
Y933680D01*
X1117370Y943610D02*
X1120370D01*
X1118870Y942110D02*
Y945110D01*
X1105940Y943610D02*
X1108940D01*
X1107440Y942110D02*
Y945110D01*
X1124990Y698500D02*
X1127990D01*
X1126490Y697000D02*
Y700000D01*
X1124990Y707390D02*
X1127990D01*
X1126490Y705890D02*
Y708890D01*
X1121180Y713740D02*
X1124180D01*
X1122680Y712240D02*
Y715240D01*
X1302790Y937260D02*
X1305790D01*
X1304290Y935760D02*
Y938760D01*
X1302790Y927100D02*
X1305790D01*
X1304290Y925600D02*
Y928600D01*
X1312950Y927100D02*
X1315950D01*
X1314450Y925600D02*
Y928600D01*
X651280Y326390D02*
X654280D01*
X652780Y324890D02*
Y327890D01*
X587158Y541396D02*
X590158D01*
X588658Y539896D02*
Y542896D01*
X570826Y541729D02*
X573825D01*
X572326Y540229D02*
Y543229D01*
X602400Y586154D02*
X605400D01*
X603900Y584654D02*
Y587654D01*
X666825Y541729D02*
X669825D01*
X668325Y540229D02*
Y543229D01*
X770825Y541729D02*
X773825D01*
X772325Y540229D02*
Y543229D01*
X746827Y541729D02*
X749827D01*
X748327Y540229D02*
Y543229D01*
X770825Y585727D02*
X773825D01*
X772325Y584226D02*
Y587226D01*
X626825Y541729D02*
X629825D01*
X628325Y540229D02*
Y543229D01*
X586825Y585727D02*
X589825D01*
X588325Y584226D02*
Y587226D01*
X578826Y585727D02*
X581827D01*
X580326Y584226D02*
Y587226D01*
X570826Y585727D02*
X573825D01*
X572326Y584226D02*
Y587226D01*
X546825Y585727D02*
X549825D01*
X548325Y584226D02*
Y587226D01*
X530670Y585727D02*
X533670D01*
X532170Y584226D02*
Y587226D01*
X562827Y541729D02*
X565827D01*
X564327Y540229D02*
Y543229D01*
X554826Y541729D02*
X557826D01*
X556326Y540229D02*
Y543229D01*
X626825Y585727D02*
X629825D01*
X628325Y584226D02*
Y587226D01*
X634826Y585727D02*
X637826D01*
X636326Y584226D02*
Y587226D01*
X949730Y416560D02*
X952730D01*
X951230Y415060D02*
Y418060D01*
X514826Y585727D02*
X517826D01*
X516326Y584226D02*
Y587226D01*
X490826Y585727D02*
X493826D01*
X492326Y584226D02*
Y587226D01*
X506825Y585727D02*
X509825D01*
X508325Y584226D02*
Y587226D01*
X522827Y585727D02*
X525827D01*
X524327Y584226D02*
Y587226D01*
X498827Y585727D02*
X501827D01*
X500327Y584226D02*
Y587226D01*
X490826Y541729D02*
X493826D01*
X492326Y540229D02*
Y543229D01*
X482827Y585727D02*
X485827D01*
X484327Y584226D02*
Y587226D01*
X514826Y541729D02*
X517826D01*
X516326Y540229D02*
Y543229D01*
X474826Y541729D02*
X477826D01*
X476326Y540229D02*
Y543229D01*
X746827Y585727D02*
X749827D01*
X748327Y584226D02*
Y587226D01*
X722827Y585727D02*
X725827D01*
X724327Y584226D02*
Y587226D01*
X730825Y585727D02*
X733825D01*
X732325Y584226D02*
Y587226D01*
X459147Y541729D02*
X462147D01*
X460647Y540229D02*
Y543229D01*
X458616Y459700D02*
X461617D01*
X460117Y458200D02*
Y461200D01*
X467100Y447080D02*
X470100D01*
X468600Y445580D02*
Y448580D01*
X650010Y375960D02*
X653010D01*
X651510Y374460D02*
Y377460D01*
X562380Y356870D02*
X565380D01*
X563880Y355370D02*
Y358370D01*
X435380Y356870D02*
X438380D01*
X436880Y355370D02*
Y358370D01*
X420140Y325120D02*
X423140D01*
X421640Y323620D02*
Y326620D01*
X394826Y585727D02*
X397826D01*
X396326Y584226D02*
Y587226D01*
X450365Y586189D02*
X453365D01*
X451865Y584689D02*
Y587689D01*
X410826Y585727D02*
X413826D01*
X412326Y584226D02*
Y587226D01*
X402825Y585727D02*
X405825D01*
X404325Y584226D02*
Y587226D01*
X418827Y585727D02*
X421827D01*
X420327Y584226D02*
Y587226D01*
X738826Y585727D02*
X741826D01*
X740326Y584226D02*
Y587226D01*
X698826Y541729D02*
X701826D01*
X700326Y540229D02*
Y543229D01*
X594826Y541729D02*
X597826D01*
X596326Y540229D02*
Y543229D01*
X522827Y541729D02*
X525827D01*
X524327Y540229D02*
Y543229D01*
X650825Y541729D02*
X653825D01*
X652325Y540229D02*
Y543229D01*
X482827Y541729D02*
X485827D01*
X484327Y540229D02*
Y543229D01*
X578826Y541729D02*
X581827D01*
X580326Y540229D02*
Y543229D01*
X722827Y541729D02*
X725827D01*
X724327Y540229D02*
Y543229D01*
X706827Y541729D02*
X709827D01*
X708327Y540229D02*
Y543229D01*
X642827Y541729D02*
X645827D01*
X644327Y540229D02*
Y543229D01*
X658826Y541729D02*
X661826D01*
X660326Y540229D02*
Y543229D01*
X506825Y541729D02*
X509825D01*
X508325Y540229D02*
Y543229D01*
X730825Y541729D02*
X733825D01*
X732325Y540229D02*
Y543229D01*
X634826Y541729D02*
X637826D01*
X636326Y540229D02*
Y543229D01*
X498827Y541729D02*
X501827D01*
X500327Y540229D02*
Y543229D01*
X738826Y541729D02*
X741826D01*
X740326Y540229D02*
Y543229D01*
X762827Y541729D02*
X765827D01*
X764327Y540229D02*
Y543229D01*
X602827Y541729D02*
X605827D01*
X604327Y540229D02*
Y543229D01*
X674826Y541729D02*
X677826D01*
X676326Y540229D02*
Y543229D01*
X530826Y541729D02*
X533826D01*
X532326Y540229D02*
Y543229D01*
X714826Y541729D02*
X717826D01*
X716326Y540229D02*
Y543229D01*
X553490Y431800D02*
X556490D01*
X554990Y430300D02*
Y433300D01*
X762827Y585727D02*
X765827D01*
X764327Y584226D02*
Y587226D01*
X714826Y585727D02*
X717826D01*
X716326Y584226D02*
Y587226D01*
X706827Y585727D02*
X709827D01*
X708327Y584226D02*
Y587226D01*
X698826Y585727D02*
X701826D01*
X700326Y584226D02*
Y587226D01*
X690825Y541729D02*
X693825D01*
X692325Y540229D02*
Y543229D01*
X690825Y585727D02*
X693825D01*
X692325Y584226D02*
Y587226D01*
X674826Y585727D02*
X677826D01*
X676326Y584226D02*
Y587226D01*
X666825Y585727D02*
X669825D01*
X668325Y584226D02*
Y587226D01*
X658826Y585727D02*
X661826D01*
X660326Y584226D02*
Y587226D01*
X650825Y585727D02*
X653825D01*
X652325Y584226D02*
Y587226D01*
X642827Y585727D02*
X645827D01*
X644327Y584226D02*
Y587226D01*
X618826Y541729D02*
X621826D01*
X620326Y540229D02*
Y543229D01*
X618826Y585727D02*
X621826D01*
X620326Y584226D02*
Y587226D01*
X594826Y585727D02*
X597826D01*
X596326Y584226D02*
Y587226D01*
X562827Y585727D02*
X565827D01*
X564327Y584226D02*
Y587226D01*
X554826Y585727D02*
X557826D01*
X556326Y584226D02*
Y587226D01*
X546825Y541729D02*
X549825D01*
X548325Y540229D02*
Y543229D01*
X474826Y585727D02*
X477826D01*
X476326Y584226D02*
Y587226D01*
X458827Y585727D02*
X461827D01*
X460327Y584226D02*
Y587226D01*
X442825Y585727D02*
X445825D01*
X444325Y584226D02*
Y587226D01*
X434826Y585727D02*
X437826D01*
X436326Y584226D02*
Y587226D01*
X426825Y585727D02*
X429825D01*
X428325Y584226D02*
Y587226D01*
X1312950Y937260D02*
X1315950D01*
X1314450Y935760D02*
Y938760D01*
X540790Y431800D02*
X543790D01*
X542290Y430300D02*
Y433300D01*
X2033040Y291300D02*
X2063040D01*
X2048040Y276300D02*
Y306300D01*
X292810Y291300D02*
X322810D01*
X307810Y276300D02*
Y306300D01*
X292810Y1258100D02*
X322810D01*
X307810Y1243100D02*
Y1273100D01*
X2033040Y1258100D02*
X2063040D01*
X2048040Y1243100D02*
Y1273100D01*
M02*
